<svg xmlns="http://www.w3.org/2000/svg" xmlns:xlink="http://www.w3.org/1999/xlink" width="504" height="431" viewBox="0 0 504 431">
  <defs>
    <linearGradient id="linear-gradient" x1="0.008" y1="0.5" x2="1" y2="0.5" gradientUnits="objectBoundingBox">
      <stop offset="0" stop-color="#ffd200"/>
      <stop offset="1" stop-color="#30e6c0"/>
    </linearGradient>
    <clipPath id="clip-path">
      <rect id="Rectángulo_337012" data-name="Rectángulo 337012" width="85" height="84.979" fill="none"/>
    </clipPath>
    <clipPath id="clip-path-2">
      <rect id="Rectángulo_337013" data-name="Rectángulo 337013" width="85" height="45.137" fill="none"/>
    </clipPath>
    <clipPath id="clip-path-3">
      <rect id="Rectángulo_337014" data-name="Rectángulo 337014" width="69.254" height="69.257" fill="none"/>
    </clipPath>
    <clipPath id="clip-path-4">
      <rect id="Rectángulo_337015" data-name="Rectángulo 337015" width="63.978" height="74.401" fill="none"/>
    </clipPath>
    <clipPath id="clip-path-5">
      <rect id="Rectángulo_337016" data-name="Rectángulo 337016" width="72.048" height="74.4" fill="none"/>
    </clipPath>
  </defs>
  <g id="Grupo_912295" data-name="Grupo 912295" transform="translate(-266 -2256.5)">
    <line id="Línea_401" data-name="Línea 401" x2="498" transform="translate(266.5 2686.5)" fill="none" stroke="#a2a2a2" stroke-width="2"/>
    <g id="Grupo_912294" data-name="Grupo 912294">
      <g id="Grupo_912292" data-name="Grupo 912292" transform="translate(48)">
        <path id="Trazado_626430" data-name="Trazado 626430" d="M46.64,10.023a3.871,3.871,0,0,1-.618,2.167,4.03,4.03,0,0,1-1.764,1.465,6.4,6.4,0,0,1-2.665.519H40.5V18H36.911V6.1h4.881a5.779,5.779,0,0,1,3.681.955A3.617,3.617,0,0,1,46.64,10.023Zm-3.793.125a1.4,1.4,0,0,0-.423-1.1,1.829,1.829,0,0,0-1.245-.374H40.5v2.938H41.3Q42.846,11.608,42.846,10.147ZM52.45,18V16.705h-.033a2.781,2.781,0,0,1-2.59,1.5,2.479,2.479,0,0,1-1.884-.714,2.652,2.652,0,0,1-.681-1.909q0-2.507,3.08-2.905l2.108-.274a.8.8,0,0,0-.374-.681,1.7,1.7,0,0,0-1-.266,6.616,6.616,0,0,0-3.013.813v-2.3a8.061,8.061,0,0,1,1.727-.49,10.048,10.048,0,0,1,1.776-.191,4.46,4.46,0,0,1,3.142.926,4.125,4.125,0,0,1,.975,3.092V18Zm-2.092-2.889a.784.784,0,0,0,.22.573.839.839,0,0,0,.627.224,1.114,1.114,0,0,0,.9-.415,1.608,1.608,0,0,0,.344-1.062v-.324l-1.2.166Q50.358,14.422,50.358,15.111ZM57.273,18V9.5h3.536V18Zm2.208-9.845h-2.5l2.482-2.665h2.972Zm9.936,7.022a2.6,2.6,0,0,1-1.1,2.237,5.17,5.17,0,0,1-3.067.793,10.664,10.664,0,0,1-1.415-.116,8.743,8.743,0,0,1-1.374-.282V15.327a6.764,6.764,0,0,0,2.623.7q1.038,0,1.038-.54a.426.426,0,0,0-.241-.369,8.509,8.509,0,0,0-1.262-.486,3.563,3.563,0,0,1-1.644-.946,2.25,2.25,0,0,1-.515-1.536,2.45,2.45,0,0,1,1.05-2.088,4.926,4.926,0,0,1,2.951-.768,9.38,9.38,0,0,1,2.357.324V12a7.129,7.129,0,0,0-1.146-.374,4.627,4.627,0,0,0-1.046-.149,1.138,1.138,0,0,0-.556.116.358.358,0,0,0-.208.324.452.452,0,0,0,.224.39,3.964,3.964,0,0,0,.9.357,4.16,4.16,0,0,1,1.868.979A2.146,2.146,0,0,1,69.417,15.178ZM81.121,18v-.988h-.033a2.918,2.918,0,0,1-1.1.876,3.146,3.146,0,0,1-1.345.32,3.459,3.459,0,0,1-1.917-.535,3.251,3.251,0,0,1-1.241-1.5A5.767,5.767,0,0,1,75.07,13.9a5.6,5.6,0,0,1,.49-2.4,3.834,3.834,0,0,1,1.378-1.627,3.56,3.56,0,0,1,1.992-.581,3.015,3.015,0,0,1,.967.149,2.616,2.616,0,0,1,.772.4,1.2,1.2,0,0,1,.419.5h.033V5.416h3.536V18Zm.075-4.507a1.865,1.865,0,0,0-.336-1.187,1.135,1.135,0,0,0-1.843.1,2.449,2.449,0,0,0-.361,1.407q0,1.8,1.245,1.8a1.108,1.108,0,0,0,.942-.486,2.39,2.39,0,0,0,.353-1.415Zm8.209,1.262a1.2,1.2,0,0,0,.631.859,2.845,2.845,0,0,0,1.428.311,5.88,5.88,0,0,0,2.341-.473v2.241a8.413,8.413,0,0,1-3.121.515,4.925,4.925,0,0,1-3.461-1.137,4.04,4.04,0,0,1-1.237-3.129,5.163,5.163,0,0,1,.544-2.416,3.912,3.912,0,0,1,1.61-1.639,4.758,4.758,0,0,1,2.353-.594,4.63,4.63,0,0,1,2.258.515,3.428,3.428,0,0,1,1.424,1.444,4.634,4.634,0,0,1,.486,2.175v1.328ZM91.53,12.9q0-1.469-1.054-1.469a.892.892,0,0,0-.739.4,2.009,2.009,0,0,0-.349,1.067Zm18.527.7a4.426,4.426,0,0,1-1.3,3.378,6,6,0,0,1-7.238.029,4.294,4.294,0,0,1-1.291-3.308,4.432,4.432,0,0,1,.606-2.349,3.94,3.94,0,0,1,1.727-1.527,5.96,5.96,0,0,1,2.582-.531,5.774,5.774,0,0,1,2.619.556,4.048,4.048,0,0,1,1.7,1.544A4.2,4.2,0,0,1,110.058,13.6Zm-3.586.017q0-1.735-1.328-1.735T103.815,13.7q0,1.917,1.345,1.917Q106.472,15.618,106.472,13.617Zm11.3-1.087a3.4,3.4,0,0,0-1.1-.241q-1.751,0-1.751,2.025V18h-3.536V9.5h3.536v1.494h.033a2.654,2.654,0,0,1,.921-1.224,2.367,2.367,0,0,1,1.395-.419,1.2,1.2,0,0,1,.506.1Zm4.765-5.321a1.519,1.519,0,0,1-.544,1.212,2.127,2.127,0,0,1-1.432.465,2.075,2.075,0,0,1-1.415-.481,1.523,1.523,0,0,1-.552-1.2,1.474,1.474,0,0,1,.535-1.183,2.492,2.492,0,0,1,2.864,0A1.465,1.465,0,0,1,122.534,7.209ZM118.79,18V9.5h3.536V18Zm14.452-1.187a4.832,4.832,0,0,1-1.54,3.814,6.576,6.576,0,0,1-4.495,1.365,9.378,9.378,0,0,1-1.544-.125,4.255,4.255,0,0,1-1.071-.282V18.813a5.341,5.341,0,0,0,2.515.73,2.949,2.949,0,0,0,1.9-.573,1.85,1.85,0,0,0,.714-1.519v-.523h-.033a2.747,2.747,0,0,1-1.05.93,3.051,3.051,0,0,1-1.432.349,3.208,3.208,0,0,1-2.6-1.141,4.764,4.764,0,0,1-.955-3.15,5.633,5.633,0,0,1,.5-2.432,3.8,3.8,0,0,1,1.386-1.623,3.56,3.56,0,0,1,1.959-.569,2.451,2.451,0,0,1,2.191,1.087h.033V9.5h3.52Zm-3.461-3.3a1.908,1.908,0,0,0-.336-1.187,1.068,1.068,0,0,0-.892-.44,1.1,1.1,0,0,0-.955.531,2.508,2.508,0,0,0-.357,1.419,2.456,2.456,0,0,0,.3,1.3,1.032,1.032,0,0,0,.946.481,1.1,1.1,0,0,0,.95-.494,2.275,2.275,0,0,0,.344-1.324Zm8.209,1.245a1.2,1.2,0,0,0,.631.859,2.845,2.845,0,0,0,1.428.311,5.88,5.88,0,0,0,2.341-.473v2.241a8.413,8.413,0,0,1-3.121.515,4.925,4.925,0,0,1-3.461-1.137,4.04,4.04,0,0,1-1.237-3.129,5.163,5.163,0,0,1,.544-2.416,3.912,3.912,0,0,1,1.61-1.639,4.758,4.758,0,0,1,2.353-.594,4.63,4.63,0,0,1,2.258.515,3.428,3.428,0,0,1,1.424,1.444,4.634,4.634,0,0,1,.486,2.175v1.328Zm2.125-1.851q0-1.469-1.054-1.469a.892.892,0,0,0-.739.4,2.009,2.009,0,0,0-.349,1.067Zm9.861,5.1V13.36a2.063,2.063,0,0,0-.237-1.133.864.864,0,0,0-.768-.344.831.831,0,0,0-.714.357,1.523,1.523,0,0,0-.257.913V18h-3.536V9.5H148v1.328h.033A3,3,0,0,1,149.171,9.7a3.107,3.107,0,0,1,1.552-.4q2.789,0,2.789,3.52V18Z" transform="translate(390 2264)" fill="#12263f"/>
        <path id="Trazado_626435" data-name="Trazado 626435" d="M45.8,18V6.1h7.413V8.9H49.387v1.735h3.594v2.806H49.387v1.751h4.1V18Zm16.045-4.524L64.586,18H60.519l-.913-1.934a8.806,8.806,0,0,1-.357-.888h-.033q-.174.564-.224.693T58.02,18H53.978L56.8,13.717,54.144,9.5h4.084l.913,1.976a5.417,5.417,0,0,1,.365.93h.033q.241-.722.34-.946L60.743,9.5H64.6ZM75,13.493a6.047,6.047,0,0,1-.473,2.465,3.821,3.821,0,0,1-1.336,1.66,3.366,3.366,0,0,1-1.942.589,2.6,2.6,0,0,1-2.266-1.087h-.033v4.79H65.416V9.5h3.536v1.154h.033a3,3,0,0,1,1.1-1,3.177,3.177,0,0,1,1.527-.361,3.036,3.036,0,0,1,2.519,1.1A4.861,4.861,0,0,1,75,13.493Zm-3.586.108a2.216,2.216,0,0,0-.311-1.262,1.168,1.168,0,0,0-1.872.025,2.211,2.211,0,0,0-.349,1.32v.166a2.42,2.42,0,0,0,.3,1.287.986.986,0,0,0,.9.481,1.117,1.117,0,0,0,.988-.527A2.691,2.691,0,0,0,71.417,13.6Zm14.369,0a4.426,4.426,0,0,1-1.3,3.378,6,6,0,0,1-7.238.029A4.294,4.294,0,0,1,75.958,13.7a4.432,4.432,0,0,1,.606-2.349,3.94,3.94,0,0,1,1.727-1.527,5.96,5.96,0,0,1,2.582-.531,5.774,5.774,0,0,1,2.619.556,4.048,4.048,0,0,1,1.7,1.544A4.2,4.2,0,0,1,85.786,13.6Zm-3.586.017q0-1.735-1.328-1.735T79.544,13.7q0,1.917,1.345,1.917Q82.2,15.618,82.2,13.617ZM93.5,12.53a3.4,3.4,0,0,0-1.1-.241q-1.751,0-1.751,2.025V18H87.106V9.5h3.536v1.494h.033A2.654,2.654,0,0,1,91.6,9.77a2.367,2.367,0,0,1,1.395-.419,1.2,1.2,0,0,1,.506.1Zm7.006,5.354a3.445,3.445,0,0,1-.789.22,7.21,7.21,0,0,1-1.32.1,3.171,3.171,0,0,1-2.312-.813,3.087,3.087,0,0,1-.834-2.316V11.949H93.913V9.5h1.336V7.832l3.486-.963V9.5H100.5v2.449H98.735V14.5q0,1.121.888,1.121a2.409,2.409,0,0,0,.88-.183Zm5.819.116V16.705h-.033a2.781,2.781,0,0,1-2.59,1.5,2.479,2.479,0,0,1-1.884-.714,2.652,2.652,0,0,1-.681-1.909q0-2.507,3.08-2.905l2.108-.274a.8.8,0,0,0-.374-.681,1.7,1.7,0,0,0-1-.266,6.616,6.616,0,0,0-3.013.813v-2.3a8.061,8.061,0,0,1,1.727-.49,10.048,10.048,0,0,1,1.776-.191,4.46,4.46,0,0,1,3.142.926,4.125,4.125,0,0,1,.975,3.092V18Zm-2.092-2.889a.784.784,0,0,0,.22.573.839.839,0,0,0,.627.224,1.114,1.114,0,0,0,.9-.415,1.608,1.608,0,0,0,.344-1.062v-.324l-1.2.166Q104.23,14.422,104.23,15.111Zm13.92,2.648a3.333,3.333,0,0,1-1.071.324,10.123,10.123,0,0,1-1.685.125,5.183,5.183,0,0,1-2.4-.544,3.967,3.967,0,0,1-1.639-1.523,4.229,4.229,0,0,1-.581-2.2,4.817,4.817,0,0,1,.618-2.5,4.031,4.031,0,0,1,1.764-1.594,6.051,6.051,0,0,1,2.656-.552,9.293,9.293,0,0,1,1.49.108,2.277,2.277,0,0,1,.851.249v2.756a2.456,2.456,0,0,0-.764-.365,3.068,3.068,0,0,0-.921-.158,2.243,2.243,0,0,0-1.573.494,1.8,1.8,0,0,0-.535,1.39,1.764,1.764,0,0,0,.527,1.365,2.056,2.056,0,0,0,1.448.486,3.607,3.607,0,0,0,1.818-.473Zm5.155-10.55a1.519,1.519,0,0,1-.544,1.212,2.127,2.127,0,0,1-1.432.465,2.075,2.075,0,0,1-1.415-.481,1.523,1.523,0,0,1-.552-1.2,1.474,1.474,0,0,1,.535-1.183,2.492,2.492,0,0,1,2.864,0A1.465,1.465,0,0,1,123.306,7.209ZM119.562,18V9.5H123.1V18Zm14.692-4.4a4.426,4.426,0,0,1-1.3,3.378,6,6,0,0,1-7.238.029,4.294,4.294,0,0,1-1.291-3.308,4.432,4.432,0,0,1,.606-2.349,3.94,3.94,0,0,1,1.727-1.527,5.961,5.961,0,0,1,2.582-.531,5.774,5.774,0,0,1,2.619.556,4.048,4.048,0,0,1,1.7,1.544A4.2,4.2,0,0,1,134.254,13.6Zm-3.586.017q0-1.735-1.328-1.735T128.012,13.7q0,1.917,1.345,1.917Q130.668,15.618,130.668,13.617Zm-.888-5.462h-2.5l2.482-2.665h2.972ZM141.086,18V13.36a2.063,2.063,0,0,0-.237-1.133.864.864,0,0,0-.768-.344.831.831,0,0,0-.714.357,1.523,1.523,0,0,0-.257.913V18h-3.536V9.5h3.536v1.328h.033A3,3,0,0,1,140.281,9.7a3.107,3.107,0,0,1,1.552-.4q2.789,0,2.789,3.52V18Z" transform="translate(390 2320)" fill="#12263f"/>
        <path id="Trazado_626436" data-name="Trazado 626436" d="M8.633,18,8.11,15.809H4.557L3.993,18H.116l4.1-11.9H8.666L12.526,18ZM6.375,8.687H6.292a5.783,5.783,0,0,1-.116.656q-.1.457-1,3.918H7.446l-.83-3.237A10.237,10.237,0,0,1,6.375,8.687ZM19.274,18v-.988h-.033a2.918,2.918,0,0,1-1.1.876,3.146,3.146,0,0,1-1.345.32,3.459,3.459,0,0,1-1.917-.535,3.251,3.251,0,0,1-1.241-1.5,5.767,5.767,0,0,1-.411-2.274,5.6,5.6,0,0,1,.49-2.4,3.834,3.834,0,0,1,1.378-1.627,3.56,3.56,0,0,1,1.992-.581,3.015,3.015,0,0,1,.967.149,2.616,2.616,0,0,1,.772.4,1.2,1.2,0,0,1,.419.5h.033V5.416h3.536V18Zm.075-4.507a1.865,1.865,0,0,0-.336-1.187,1.135,1.135,0,0,0-1.843.1,2.449,2.449,0,0,0-.361,1.407q0,1.8,1.245,1.8A1.108,1.108,0,0,0,19,15.132a2.39,2.39,0,0,0,.353-1.415ZM29.924,18V16.688h-.033a4.652,4.652,0,0,1-.793.888,3.05,3.05,0,0,1-.8.457,2.818,2.818,0,0,1-1.033.174,2.571,2.571,0,0,1-2.125-.9,4.183,4.183,0,0,1-.73-2.673V9.5h3.536v4.864q0,1.253.938,1.253a.918.918,0,0,0,.776-.34,1.551,1.551,0,0,0,.261-.963V9.5H33.46V18Zm9.944,0V16.705h-.033a2.781,2.781,0,0,1-2.59,1.5,2.479,2.479,0,0,1-1.884-.714,2.652,2.652,0,0,1-.681-1.909q0-2.507,3.08-2.905l2.108-.274a.8.8,0,0,0-.374-.681,1.7,1.7,0,0,0-1-.266,6.616,6.616,0,0,0-3.013.813v-2.3a8.061,8.061,0,0,1,1.727-.49,10.048,10.048,0,0,1,1.776-.191,4.46,4.46,0,0,1,3.142.926A4.125,4.125,0,0,1,43.1,13.31V18Zm-2.092-2.889a.784.784,0,0,0,.22.573.839.839,0,0,0,.627.224,1.114,1.114,0,0,0,.9-.415,1.608,1.608,0,0,0,.344-1.062v-.324l-1.2.166Q37.777,14.422,37.777,15.111ZM50.2,18V13.36a2.063,2.063,0,0,0-.237-1.133.864.864,0,0,0-.768-.344.831.831,0,0,0-.714.357,1.523,1.523,0,0,0-.257.913V18H44.691V9.5h3.536v1.328h.033A3,3,0,0,1,49.4,9.7a3.107,3.107,0,0,1,1.552-.4q2.789,0,2.789,3.52V18Zm9.845,0V16.705h-.033a2.781,2.781,0,0,1-2.59,1.5,2.479,2.479,0,0,1-1.884-.714,2.652,2.652,0,0,1-.681-1.909q0-2.507,3.08-2.905l2.108-.274a.8.8,0,0,0-.374-.681,1.7,1.7,0,0,0-1-.266,6.616,6.616,0,0,0-3.013.813v-2.3a8.061,8.061,0,0,1,1.727-.49,10.048,10.048,0,0,1,1.776-.191,4.46,4.46,0,0,1,3.142.926,4.125,4.125,0,0,1,.975,3.092V18Zm-2.092-2.889a.784.784,0,0,0,.22.573.839.839,0,0,0,.627.224,1.114,1.114,0,0,0,.9-.415,1.608,1.608,0,0,0,.344-1.062v-.324l-1.2.166Q57.956,14.422,57.956,15.111Z" transform="translate(454 2414)" fill="#12263f"/>
        <path id="Trazado_626262" data-name="Trazado 626262" d="M1487.98-9120.133s-21.085-127.409,104.65-154.2" transform="translate(-1253 11670)" fill="none" stroke="#ffd200" stroke-linecap="round" stroke-width="7"/>
        <path id="Trazado_626261" data-name="Trazado 626261" d="M1552.209-9287.016l-3.872-11.161h406.314l3.349,10.323-3.349,12.459-406.314-.522Z" transform="translate(-1253 11670)" fill="url(#linear-gradient)"/>
        <line id="Línea_412" data-name="Línea 412" y2="294" transform="translate(717.5 2256.5)" fill="none" stroke="#a2a2a2" stroke-width="2"/>
        <line id="Línea_414" data-name="Línea 414" x2="456" y2="3" transform="translate(263 2359)" fill="none" stroke="#a2a2a2" stroke-width="2"/>
        <line id="Línea_415" data-name="Línea 415" x2="456" y2="2" transform="translate(262 2308)" fill="none" stroke="#a2a2a2" stroke-width="2"/>
        <g id="Grupo_912267" data-name="Grupo 912267" transform="translate(285 2423.169)">
          <g id="Grupo_912266" data-name="Grupo 912266" transform="translate(0 0)" clip-path="url(#clip-path)">
            <path id="Trazado_626263" data-name="Trazado 626263" d="M.056,92.89a1.821,1.821,0,0,1,1.9-.845c.677.018,1.582.32,1.973-.133.332-.384.1-1.262.1-1.921,0-2.985,0-5.971.01-8.957A1.673,1.673,0,0,0,3.64,79.84a3.631,3.631,0,0,1-.61-4.014,3.551,3.551,0,0,1,3.314-2.341c3.067-.056,6.136-.057,9.2-.031.689.006.932-.114.946-.884q.378-19.4.821-38.8c.025-1.117.5-1.578,1.653-1.581,2.349-.007,4.7,0,7.049,0,1.376,0,1.8.374,1.836,1.745.093,3.537.154,7.074.231,10.611q.248,11.482.49,22.965c.009.456.109.636.595.611.772-.039,1.548-.028,2.321,0,.412.013.569-.1.594-.549q.484-8.438,1.007-16.875c.051-.828.093-1.655.163-2.481a1.362,1.362,0,0,1,1.436-1.4q2.486-.053,4.975,0c.96.018,1.431.508,1.5,1.515.189,2.95.349,5.9.53,8.852.215,3.5.445,7,.654,10.5.019.314.1.469.431.429a.814.814,0,0,1,.083,0c.774,0,1.731.269,2.271-.089.567-.375.282-1.423.332-2.169.329-4.851.6-9.7.893-14.557.058-.965.109-1.931.18-2.895.084-1.134.553-1.584,1.679-1.594q2.28-.02,4.561,0c1.159.011,1.616.5,1.687,1.666.309,5.018.636,10.034.95,15.052.083,1.324.162,2.648.2,3.973.014.45.133.611.612.626,2.479.083,2.426.094,2.563-2.359.285-5.1.631-10.2.951-15.3.05-.8.084-1.6.149-2.4a1.275,1.275,0,0,1,1.385-1.249c1.685-.036,3.373-.039,5.058,0a1.322,1.322,0,0,1,1.4,1.42c.392,6.368.791,12.737,1.161,19.107.036.605.216.786.831.781,2.6-.018,5.2-.026,7.792.06a3.493,3.493,0,0,1,3.164,2.3,3.62,3.62,0,0,1-.542,3.954,1.938,1.938,0,0,0-.466,1.339c.013,5.142.029,10.284-.014,15.426-.006.767.222.915.912.87.908-.06,1.824.011,2.736-.023.722-.027,1.356.1,1.62.849s-.171,1.255-.765,1.647H.885a1.03,1.03,0,0,1-.829-.83Z" transform="translate(-0.017 -9.609)" fill="#040506"/>
            <path id="Trazado_626264" data-name="Trazado 626264" d="M.039,119.91l.829.829q-1.052.224-.829-.829" transform="translate(0 -35.799)" fill="#e7e7e9"/>
            <path id="Trazado_626265" data-name="Trazado 626265" d="M77.386,31.762A15.641,15.641,0,0,1,64.7,25.083a.945.945,0,0,0-1.214-.417,11.617,11.617,0,0,1-11.03-2.56.891.891,0,0,0-1.011-.215,8.988,8.988,0,0,1-9.066-1.646.61.61,0,0,0-.9-.046,5.16,5.16,0,0,1-3.04.9,1.241,1.241,0,1,1-.175-2.475,4.086,4.086,0,0,0,2.759-1.311c.749-.754,1.4-.68,2.171.2a6.667,6.667,0,0,0,5.557,2.4,5.943,5.943,0,0,0,2.6-.717,1.538,1.538,0,0,1,2.066.34,9.2,9.2,0,0,0,10.515,2.315c1.091-.408,1.49-.3,2.118.732a13.533,13.533,0,0,0,7.432,5.982A13.342,13.342,0,1,0,79.751,2.706,12.881,12.881,0,0,0,68.9,5.772c-1.291,1.092-1.492,1.123-2.832.108a9.233,9.233,0,0,0-12.581.952c-.789.809-1.134.866-2.2.37a6.658,6.658,0,0,0-9.249,3.814c-.526,1.456-.968,1.657-2.418,1.094a3.3,3.3,0,0,0-4.553,2.555c-.245,1.39-.769,1.707-2.114,1.282a1.373,1.373,0,0,0-1.918,1.084,2.594,2.594,0,0,1-.268.859,1.2,1.2,0,0,1-1.455.487,1.277,1.277,0,0,1-.845-1.452,3.923,3.923,0,0,1,3.594-3.6,1.066,1.066,0,0,0,1.061-.763,5.766,5.766,0,0,1,6.253-3.139c.492.1.624-.13.808-.461A9.09,9.09,0,0,1,48.71,3.993a7.787,7.787,0,0,1,2.74.539.8.8,0,0,0,.949-.17A11.693,11.693,0,0,1,66.772,3.295a.921.921,0,0,0,1.265-.066A15.882,15.882,0,1,1,80.669,31.482a21.167,21.167,0,0,1-3.283.281" transform="translate(-8.498 0)" fill="#040506"/>
            <path id="Trazado_626266" data-name="Trazado 626266" d="M60.114,87.016H85.9c.249,0,.5-.009.746,0a1.411,1.411,0,0,1,1.4,1.265,1.369,1.369,0,0,1-1.182,1.441,15.7,15.7,0,0,1-2.562.075c-1.012.039-1.516.439-1.525,1.233-.01.817.549,1.276,1.571,1.293.77.013,1.8-.268,2.243.12.511.45.153,1.5.156,2.294.017,4.312-.007,8.624.025,12.937,0,.626-.156.763-.77.763q-25.915-.027-51.829,0c-.713,0-.784-.253-.781-.845.02-4.81.027-9.62-.006-14.429,0-.692.17-.859.857-.859q21.85.032,43.7.014a3.993,3.993,0,0,0,.989-.048,1.191,1.191,0,0,0,1-1.326,1.143,1.143,0,0,0-1.125-1.116c-.33-.025-.662-.031-.993-.031q-21.768,0-43.536-.006a5.513,5.513,0,0,1-1.148-.107,1.215,1.215,0,0,1-1.009-1.313,1.29,1.29,0,0,1,1.124-1.336,4.564,4.564,0,0,1,.91-.027H60.114" transform="translate(-9.591 -25.977)" fill="#fff"/>
            <path id="Trazado_626267" data-name="Trazado 626267" d="M27.046,64.5q.3-13.97.58-27.939c.012-.629.166-.792.781-.769,1.353.048,2.71.039,4.063,0,.537-.015.7.135.712.685.062,3.345.174,6.687.25,10.031.168,7.323.318,14.647.5,21.969.015.605-.161.762-.73.72a12.931,12.931,0,0,0-1.656.027,3.875,3.875,0,0,0-2.709,6.451,1.242,1.242,0,0,1,.313.892c-.006,5.308-.015,10.615.011,15.923,0,.575-.188.7-.7.655-.656-.053-1.53.2-1.914-.139s-.092-1.242-.079-1.895q.267-13.307.555-26.614h.02" transform="translate(-7.866 -10.684)" fill="#fff"/>
            <path id="Trazado_626268" data-name="Trazado 626268" d="M8.747,105.267c0-1.6.006-3.206,0-4.81,0-.328.017-.528.424-.635a1.128,1.128,0,0,0,.889-1.312A1.2,1.2,0,0,0,8.927,97.4a1.5,1.5,0,0,1-1.413-1.074,1.327,1.327,0,0,1,.33-1.29,1.483,1.483,0,0,1,1.2-.449c2.985.008,5.971.017,8.957-.008.5,0,.611.168.56.617-.082.706.271,1.62-.17,2.072-.408.417-1.31.1-1.995.119-.718.021-1.438-.011-2.155.014a1.266,1.266,0,0,0-1.347,1.258,1.279,1.279,0,0,0,1.386,1.238c1.188.02,2.377.027,3.565,0,.489-.013.655.085.636.631q-.168,4.764-.248,9.532c-.008.487-.1.654-.633.648q-4.1-.045-8.209,0c-.59.008-.66-.213-.652-.71.027-1.575.01-3.151.01-4.726" transform="translate(-2.228 -28.236)" fill="#fff"/>
            <path id="Trazado_626269" data-name="Trazado 626269" d="M51.848,75.389c-.69,0-1.382-.028-2.07.01-.464.025-.551-.149-.522-.575q.481-7.1.933-14.2c.075-1.156.16-2.313.2-3.47.013-.4.133-.518.525-.5.772.032,1.72-.255,2.27.1.584.375.262,1.415.317,2.153.284,3.8.492,7.6.728,11.4.093,1.486.156,2.976.293,4.458.049.535-.086.676-.6.645-.688-.041-1.38-.01-2.07-.01" transform="translate(-14.704 -16.889)" fill="#fff"/>
            <path id="Trazado_626270" data-name="Trazado 626270" d="M89.749,75.417c-.083,0-.166.006-.248,0-.762-.059-1.818.343-2.207-.166-.363-.474-.06-1.477-.012-2.245.32-5.208.656-10.416.967-15.625.03-.506.14-.8.711-.7a2.4,2.4,0,0,0,.414,0c1.964,0,1.925,0,2.042,2.016.3,5.154.635,10.307.956,15.46,0,.055.01.11.013.166.078,1.09.078,1.09-.978,1.09H89.749" transform="translate(-26.009 -16.917)" fill="#fff"/>
            <path id="Trazado_626271" data-name="Trazado 626271" d="M70.688,75.4c-.725-.072-1.944.384-2.378-.171-.412-.527-.034-1.686.022-2.566.322-5.154.656-10.308.97-15.463.022-.365.084-.518.5-.543,2.493-.152,2.52-.116,2.663,2.32q.46,7.817.984,15.629c.046.686-.151.859-.79.805-.6-.052-1.216-.011-1.972-.011" transform="translate(-20.337 -16.9)" fill="#fff"/>
            <path id="Trazado_626272" data-name="Trazado 626272" d="M53.74,101.18a6.6,6.6,0,0,1-.114,1.677,1.174,1.174,0,0,1-1.147.889,1.076,1.076,0,0,1-1.179-.831,8.1,8.1,0,0,1,0-3.5,1.054,1.054,0,0,1,1.193-.8,1.135,1.135,0,0,1,1.134.887,7.359,7.359,0,0,1,.11,1.679" transform="translate(-15.259 -29.441)" fill="#080809"/>
            <path id="Trazado_626273" data-name="Trazado 626273" d="M68.915,101.19a7.462,7.462,0,0,1-.109,1.636,1.178,1.178,0,0,1-1.206.919,1.1,1.1,0,0,1-1.164-.955,9.43,9.43,0,0,1,.006-3.27,1.062,1.062,0,0,1,1.111-.9,1.151,1.151,0,0,1,1.244.856,7,7,0,0,1,.119,1.717" transform="translate(-19.793 -29.442)" fill="#080809"/>
            <path id="Trazado_626274" data-name="Trazado 626274" d="M46.18,101.2c-.034.505-.046,1-.107,1.487a1.131,1.131,0,0,1-1.162,1.06,1.114,1.114,0,0,1-1.239-.972,9.82,9.82,0,0,1,0-3.191,1.094,1.094,0,0,1,1.235-.965,1.105,1.105,0,0,1,1.168,1.035c.069.514.075,1.037.108,1.546" transform="translate(-12.999 -29.442)" fill="#080809"/>
            <path id="Trazado_626275" data-name="Trazado 626275" d="M76.5,101.168c0,.412.026.826,0,1.236a1.322,1.322,0,0,1-1.275,1.351,1.253,1.253,0,0,1-1.251-1.265,19.646,19.646,0,0,1,0-2.634,1.184,1.184,0,0,1,1.246-1.244,1.255,1.255,0,0,1,1.282,1.32c.032.41.006.824.006,1.236" transform="translate(-22.069 -29.441)" fill="#080809"/>
            <path id="Trazado_626276" data-name="Trazado 626276" d="M61.335,101.136a8.643,8.643,0,0,1-.105,1.662,1.18,1.18,0,0,1-1.183.947,1.1,1.1,0,0,1-1.185-.928,9.145,9.145,0,0,1-.008-3.267,1.075,1.075,0,0,1,1.17-.934,1.145,1.145,0,0,1,1.2.908,8.059,8.059,0,0,1,.109,1.612" transform="translate(-17.528 -29.442)" fill="#080809"/>
            <path id="Trazado_626277" data-name="Trazado 626277" d="M91.663,101.229c0,.415.027.831,0,1.243a1.282,1.282,0,0,1-1.258,1.284,1.244,1.244,0,0,1-1.242-1.275c-.037-.882-.028-1.768,0-2.65a1.143,1.143,0,0,1,1.185-1.214,1.213,1.213,0,0,1,1.307,1.2c.041.466.008.939.008,1.409" transform="translate(-26.611 -29.442)" fill="#060607"/>
            <path id="Trazado_626278" data-name="Trazado 626278" d="M99.242,101.21c0,.442.031.887-.007,1.325a1.24,1.24,0,0,1-1.311,1.212,1.183,1.183,0,0,1-1.176-1.246c-.018-.911-.025-1.824.012-2.734a1.117,1.117,0,0,1,1.156-1.148,1.186,1.186,0,0,1,1.308,1.1,13.877,13.877,0,0,1,.011,1.49h.008" transform="translate(-28.88 -29.442)" fill="#060607"/>
            <path id="Trazado_626279" data-name="Trazado 626279" d="M84.083,101.173c0,.442.033.887-.008,1.326a1.267,1.267,0,0,1-1.286,1.251,1.178,1.178,0,0,1-1.21-1.211c-.041-.909-.042-1.822,0-2.731a1.135,1.135,0,0,1,1.209-1.19,1.224,1.224,0,0,1,1.288,1.231c.041.438.008.884.007,1.326" transform="translate(-24.347 -29.442)" fill="#060607"/>
          </g>
        </g>
        <g id="Grupo_912269" data-name="Grupo 912269" transform="translate(372 2463.01)">
          <g id="Grupo_912268" data-name="Grupo 912268" transform="translate(0 0)" clip-path="url(#clip-path-2)">
            <path id="Trazado_626280" data-name="Trazado 626280" d="M85,36.511a3,3,0,0,1-3.252,1.99c-1.324-.061-2.656.012-3.983-.025-.529-.014-.726.075-.791.679a6.552,6.552,0,0,1-12.834,1.182c-.141-.463-.339-.527-.742-.527q-14.9.011-29.791,0c-.457,0-.641.117-.791.591a6.349,6.349,0,0,1-4.9,4.551A6.216,6.216,0,0,1,21.638,42.9c-.424-.466-.553-.324-.888.036a6.236,6.236,0,0,1-6.3,2.006,6.259,6.259,0,0,1-4.826-4.509c-.137-.451-.32-.669-.84-.629a19.511,19.511,0,0,1-2.157.009,2.6,2.6,0,0,1-2.639-2.7c-.008-.719-.02-1.439.006-2.157.013-.364-.1-.5-.467-.462a5.978,5.978,0,0,1-.746,0A2.622,2.622,0,0,1,0,31.687Q0,17.248,0,2.81A2.6,2.6,0,0,1,2.855,0q7.717-.01,15.435,0h44.9C65.444,0,66.4.959,66.4,3.225c0,1.272.04,2.547-.015,3.817-.032.716.118.969.913.957,3.512-.051,7.026-.023,10.539-.02a4.193,4.193,0,0,1,.822.058,1.21,1.21,0,0,1,.986.9,1.091,1.091,0,0,1-.408,1.258c-.353.239-.348.449-.226.81q1.531,4.532,3.02,9.079a2.4,2.4,0,0,0,.7,1A7.133,7.133,0,0,1,85,24.228Z" transform="translate(0 0)" fill="#040506"/>
            <path id="Trazado_626281" data-name="Trazado 626281" d="M65.989,35.3a7.592,7.592,0,0,0-1.111,2.4.4.4,0,0,1-.461.365c-.193-.005-.387,0-.581,0q-14.565,0-29.13.011c-.621,0-1.021-.059-1.152-.794a5.056,5.056,0,0,0-.935-1.867,1.361,1.361,0,0,1,.874-.113q11.2-.009,22.409,0c1.3,0,1.958-.427,1.968-1.273s-.656-1.295-1.944-1.295q-25.811,0-51.622.018c-.807,0-1.049-.15-1.045-1.017q.057-13.775.008-27.551c0-.694.189-.862.872-.862q29.836.028,59.672,0c.7,0,.869.194.868.878q-.034,13.859,0,27.718c0,.641-.144.891-.817.829a10.684,10.684,0,0,0-1.906.012,1.218,1.218,0,0,0-1.263,1.256,1.249,1.249,0,0,0,1.342,1.275c1.27.038,2.542.01,3.956.01" transform="translate(-0.791 -0.808)" fill="#fff"/>
            <path id="Trazado_626282" data-name="Trazado 626282" d="M87.676,24.532c0-3.292.011-6.584-.011-9.876,0-.536.064-.771.7-.763,2.821.037,5.643.029,8.466,0,.507,0,.746.147.856.645a7.408,7.408,0,0,0,.476,1.4c.249.563.152.747-.5.733-1.8-.039-3.6-.017-5.395-.012-1.368,0-1.777.409-1.78,1.774-.005,1.881.065,3.765-.018,5.642a2.821,2.821,0,0,0,3.142,3.16c2.959-.054,5.92.02,8.88-.036a1.1,1.1,0,0,1,1.277,1.154c.073.851.01,1.714.035,2.57.011.372-.188.381-.462.381a4.559,4.559,0,0,0-1.236.082,1.157,1.157,0,0,0-.956,1.091,1.135,1.135,0,0,0,.834,1.268,2.633,2.633,0,0,0,.729.124c1.085.043,1.085.037,1.085,1.162,0,1.19-.027,2.38.012,3.568.017.532-.119.724-.678.713-1.6-.033-3.209-.023-4.813,0a.749.749,0,0,1-.775-.451A6.58,6.58,0,0,0,91.355,35.3c-.969-.011-1.94-.053-2.9.016-.693.049-.794-.219-.788-.829.027-3.319.013-6.639.013-9.959" transform="translate(-21.278 -3.372)" fill="#fff"/>
            <path id="Trazado_626283" data-name="Trazado 626283" d="M33.795,45.562a4.038,4.038,0,0,1-.032,8.076,4.038,4.038,0,1,1,.032-8.076" transform="translate(-7.207 -11.059)" fill="#fff"/>
            <path id="Trazado_626284" data-name="Trazado 626284" d="M23.718,49.58a4.063,4.063,0,0,1-4.035,4.06,4.04,4.04,0,1,1-.026-8.08,4.037,4.037,0,0,1,4.061,4.02" transform="translate(-3.789 -11.058)" fill="#fff"/>
            <path id="Trazado_626285" data-name="Trazado 626285" d="M91.76,45.561a4.039,4.039,0,1,1-4.076,4.006,4.076,4.076,0,0,1,4.076-4.006" transform="translate(-21.283 -11.059)" fill="#fff"/>
            <path id="Trazado_626286" data-name="Trazado 626286" d="M102.752,26.361c-2.639,0-5.176,0-7.713,0-.32,0-.345-.173-.344-.421.005-1.52.015-3.04-.006-4.56-.005-.4.179-.435.5-.434,1.768.01,3.537,0,5.306,0,.249,0,.454-.011.562.326.535,1.668,1.1,3.324,1.695,5.08" transform="translate(-22.983 -5.085)" fill="#fff"/>
            <path id="Trazado_626287" data-name="Trazado 626287" d="M12.707,45.556a8.154,8.154,0,0,0-1.16,2.508c-.048.211-.167.258-.348.258-.745,0-1.491,0-2.236,0-.325,0-.448-.151-.413-.459a.5.5,0,0,0,0-.083c-.119-2.227-.119-2.227,2.095-2.227Z" transform="translate(-2.065 -11.057)" fill="#fdfdfd"/>
            <path id="Trazado_626288" data-name="Trazado 626288" d="M34.826,37.706H9.018a3.109,3.109,0,0,1-1.146-.122,1.169,1.169,0,0,1-.841-1.192,1.12,1.12,0,0,1,.889-1.146,3.946,3.946,0,0,1,.98-.115q25.973-.008,51.946,0c.083,0,.167,0,.249,0,1.05.026,1.7.535,1.682,1.314s-.66,1.262-1.73,1.263q-13.111,0-26.222,0" transform="translate(-1.707 -8.526)" fill="#060607"/>
            <path id="Trazado_626289" data-name="Trazado 626289" d="M34.657,49.256a1.218,1.218,0,0,1,1.23,1.281,1.307,1.307,0,0,1-1.23,1.224,1.374,1.374,0,0,1-1.294-1.268,1.28,1.28,0,0,1,1.294-1.236" transform="translate(-8.098 -11.955)" fill="#0a0a0b"/>
            <path id="Trazado_626290" data-name="Trazado 626290" d="M20.577,49.249a1.2,1.2,0,0,1,1.24,1.26,1.273,1.273,0,0,1-1.194,1.249,1.363,1.363,0,0,1-1.311-1.245,1.29,1.29,0,0,1,1.265-1.264" transform="translate(-4.687 -11.954)" fill="#0a0a0b"/>
            <path id="Trazado_626291" data-name="Trazado 626291" d="M92.663,49.245A1.261,1.261,0,0,1,93.9,50.528,1.313,1.313,0,0,1,92.67,51.76a1.266,1.266,0,0,1-1.26-1.269,1.208,1.208,0,0,1,1.253-1.246" transform="translate(-22.187 -11.953)" fill="#09090a"/>
          </g>
        </g>
        <g id="Grupo_912271" data-name="Grupo 912271" transform="translate(465 2438.89)">
          <g id="Grupo_912270" data-name="Grupo 912270" transform="translate(0 0)" clip-path="url(#clip-path-3)">
            <path id="Trazado_626292" data-name="Trazado 626292" d="M6.764,69.242a2.133,2.133,0,0,1-.827-1.957c.028-7.143.009-14.285.029-21.428,0-.547-.1-.724-.683-.7-1.26.051-2.523.02-3.785.014A1.328,1.328,0,0,1,0,43.677Q0,40.567,0,37.458A1.329,1.329,0,0,1,1.51,35.979c1.645,0,3.29-.019,4.935.009.454.008.628-.077.6-.574-.045-.876-.039-1.757,0-2.635.02-.457-.08-.612-.574-.6-1.644.035-3.29.016-4.935.012A1.343,1.343,0,0,1,0,30.667Q0,23.534,0,16.4a1.339,1.339,0,0,1,1.535-1.52q9.565,0,19.131,0a1.33,1.33,0,0,1,1.509,1.478q.005,7.166,0,14.331a1.328,1.328,0,0,1-1.492,1.5c-1.668.005-3.336.019-5-.01-.453-.008-.562.128-.547.559.032.923.018,1.847.005,2.771,0,.3.012.481.418.478q4.326-.03,8.652,0c.334,0,.412-.1.407-.421-.018-1.149-.009-2.3-.006-3.447,0-1.069.489-1.547,1.575-1.548,2.141,0,4.282-.016,6.422.01.5.006.685-.083.672-.641-.041-1.779-.02-3.559-.014-5.34a6.781,6.781,0,0,1,5.4-6.6c1.272-.267,2.542-.546,3.812-.825a3.234,3.234,0,0,0,.418-.163,7.6,7.6,0,0,1-2.434-6.419A26.715,26.715,0,0,1,40.7,5.477a7.079,7.079,0,0,1,13.944.887,32.366,32.366,0,0,1-.029,6.409,6.855,6.855,0,0,1-2.342,4.285c1.447.324,2.79.665,4.149.921a6.912,6.912,0,0,1,5.535,6.914c-.089,3.49-.007,6.984-.034,10.477,0,.513.128.63.627.619,1.577-.035,3.156.026,4.731-.03a2.076,2.076,0,0,1,1.958.828v7.438a1.405,1.405,0,0,1-1.584,1.152c-.766.027-1.532,0-2.3.01-2.107.027-1.829-.273-1.852,1.887-.009.879,0,1.757,0,2.636a3.886,3.886,0,0,1-.05.741,1.574,1.574,0,0,1-1.626,1.329,1.549,1.549,0,0,1-1.433-1.454c-.056-.606-.019-1.216-.022-1.824,0-.856-.016-1.713,0-2.568.012-.554-.22-.789-.764-.748-.179.013-.361,0-.54,0H10.13c-1.259,0-1.259,0-1.258,1.26,0,1.284,0,1.285,1.317,1.285H25.2a7.111,7.111,0,0,1,.946.028,1.526,1.526,0,0,1,1.353,1.379,1.569,1.569,0,0,1-1.08,1.614,3.716,3.716,0,0,1-1.206.111q-7.537,0-15.074,0c-.248,0-.5,0-.743.013a.473.473,0,0,0-.5.509c-.011.2-.015.405-.015.608q0,6.489,0,12.978c0,1.133.014,1.147,1.114,1.147q24.639,0,49.279,0c1.083,0,1.1-.022,1.107-1.086.007-1.329-.034-2.659.02-3.988a1.544,1.544,0,0,1,2.932-.659,1.71,1.71,0,0,1,.175.785c.013,2.118.03,4.236-.007,6.353-.016.9-.294,1.218-1.146,1.515Z" transform="translate(0 0)" fill="#040506"/>
            <path id="Trazado_626293" data-name="Trazado 626293" d="M66.477,90.4a1.646,1.646,0,0,0,.96-1.688c-.04-2.05-.01-4.1-.015-6.151a1.325,1.325,0,0,0-1.362-1.491c-.831.005-1.337.571-1.339,1.513,0,1.465-.031,2.93.014,4.394.018.577-.11.735-.718.735q-19.942-.032-39.885-.016c-3.561,0-7.121-.009-10.682.01-.494,0-.676-.078-.674-.638q.04-7.2,0-14.4c0-.594.179-.674.711-.672,5.476.02,10.952.013,16.428.012a1.357,1.357,0,0,0,1.536-1.182A1.332,1.332,0,0,0,29.984,69.3q-4.529-.007-9.059,0c-2.5,0-5-.02-7.5.015-.553.008-.677-.164-.642-.67a12.82,12.82,0,0,0,0-1.824c-.032-.445.139-.5.532-.5q25.452.014,50.9,0c.427,0,.52.114.513.523-.025,1.532-.013,3.064-.009,4.6a1.359,1.359,0,1,0,2.7.026c.005-1.554.015-3.11-.007-4.664-.005-.388.11-.486.487-.48,1.239.023,2.48-.026,3.717.022a1.651,1.651,0,0,0,1.755-.959q0,12.238.013,24.475c0,.463-.09.562-.554.555-2.119-.032-4.237-.014-6.356-.014" transform="translate(-4.133 -21.154)" fill="#fff"/>
            <path id="Trazado_626294" data-name="Trazado 626294" d="M69.067,45.421c-2.23,0-4.459-.012-6.689.01-.428,0-.574-.09-.56-.545.035-1.147.018-2.3.009-3.445A1.308,1.308,0,0,0,60.4,40.015c-2.23-.007-4.46-.016-6.689.008-.444,0-.558-.114-.551-.553.026-1.757,0-3.513.014-5.27a4.044,4.044,0,0,1,3.327-4.076c1.333-.3,2.668-.586,4-.9a.515.515,0,0,1,.714.36c.716,1.665,1.486,3.308,2.2,4.974a1.479,1.479,0,0,0,1.389,1.082,1.463,1.463,0,0,0,1.347-1.049c.721-1.664,1.477-3.313,2.188-4.981a.565.565,0,0,1,.77-.389c1.354.315,2.711.612,4.067.913a4.03,4.03,0,0,1,3.248,3.938c.03,3.626,0,7.252.019,10.877,0,.386-.108.483-.485.48-2.3-.018-4.594-.009-6.892-.009" transform="translate(-17.202 -9.444)" fill="#fff"/>
            <path id="Trazado_626295" data-name="Trazado 626295" d="M35.839,60.963q-15.584,0-31.169.014c-.563,0-.724-.128-.691-.693.053-.9.028-1.8.007-2.7-.008-.329.095-.453.417-.407a2.442,2.442,0,0,0,.338,0q31.17,0,62.339-.015c.613,0,.8.145.758.761-.057.875-.028,1.757-.007,2.635.008.329-.094.451-.417.407a3.111,3.111,0,0,0-.405,0H35.839" transform="translate(-1.286 -18.495)" fill="#fff"/>
            <path id="Trazado_626296" data-name="Trazado 626296" d="M12.394,25.993c2.569,0,5.138.012,7.707-.01.49,0,.683.069.677.635q-.047,5.34,0,10.681c0,.538-.166.621-.641.6-1.013-.036-2.029-.04-3.041,0a.657.657,0,0,1-.8-.6,4.005,4.005,0,0,0-3.461-3.049,4.091,4.091,0,0,0-4.163,2.378c-.028.061-.057.121-.079.185-.12.352-.139.867-.383,1.015-.3.181-.784.059-1.189.06-.789,0-1.582-.045-2.366.016-.6.047-.678-.175-.674-.708.024-3.515.03-7.031,0-10.546-.005-.593.177-.68.71-.674,2.568.029,5.138.013,7.707.013" transform="translate(-1.287 -8.406)" fill="#fff"/>
            <path id="Trazado_626297" data-name="Trazado 626297" d="M72.667,12.834a24.262,24.262,0,0,1-.175,4.136,4.346,4.346,0,0,1-8.551-1c-.027-1.055-.026-1.074.984-1.051a13.131,13.131,0,0,0,7.742-2.081" transform="translate(-20.686 -4.152)" fill="#fff"/>
            <path id="Trazado_626298" data-name="Trazado 626298" d="M47.586,51.845c-2.231,0-4.462-.012-6.693.01-.436,0-.584-.1-.554-.55.047-.693-.24-1.631.11-2.023.4-.446,1.352-.134,2.062-.136,3.944-.013,7.887,0,11.83-.019.5,0,.678.106.62.62-.077.685.287,1.61-.147,2-.378.339-1.284.1-1.957.1-1.757,0-3.515,0-5.273,0" transform="translate(-13.03 -15.868)" fill="#fff"/>
            <path id="Trazado_626299" data-name="Trazado 626299" d="M65.469,9.3H65.2c-1.337,0-1.337,0-1.249-1.375a4.375,4.375,0,0,1,3.809-3.867,4.489,4.489,0,0,1,4.456,2.406c.166.371-.057.476-.253.638a9.713,9.713,0,0,1-6.493,2.2" transform="translate(-20.68 -1.298)" fill="#fff"/>
            <path id="Trazado_626300" data-name="Trazado 626300" d="M14.353,46.459c0-.9-.009-1.8,0-2.7a1.362,1.362,0,1,1,2.7.01c.01,1.8-.009,3.6.012,5.4,0,.391-.116.494-.49.475-.715-.037-1.659.241-2.088-.116s-.1-1.347-.134-2.058c-.016-.337,0-.675,0-1.013" transform="translate(-4.614 -13.66)" fill="#fff"/>
            <path id="Trazado_626301" data-name="Trazado 626301" d="M69.767,30.4l-1.205-2.726a10.143,10.143,0,0,0,2.414.011L69.767,30.4" transform="translate(-22.183 -8.955)" fill="#fdfdfd"/>
            <path id="Trazado_626302" data-name="Trazado 626302" d="M47.088,72.54a1.352,1.352,0,1,1-1.355-1.363,1.325,1.325,0,0,1,1.355,1.363" transform="translate(-14.361 -23.029)" fill="#060608"/>
            <path id="Trazado_626303" data-name="Trazado 626303" d="M90.9,83.276a1.352,1.352,0,1,1,1.369-1.351A1.321,1.321,0,0,1,90.9,83.276" transform="translate(-28.979 -26.07)" fill="#060607"/>
          </g>
        </g>
        <g id="Grupo_912273" data-name="Grupo 912273" transform="translate(547 2434.482)">
          <g id="Grupo_912272" data-name="Grupo 912272" clip-path="url(#clip-path-4)">
            <path id="Trazado_626304" data-name="Trazado 626304" d="M8.441,89.238a2.058,2.058,0,0,1-1.026-1.932c0-.823-.007-1.646.016-2.468a1.556,1.556,0,0,1,1.608-1.6c.5-.032,1.159.227,1.462-.116.318-.361.091-1.018.1-1.544.016-.9-.011-1.791.012-2.687.01-.372-.1-.491-.484-.51-.933-.045-1.115-.267-1.119-1.207,0-.968-.016-1.937.006-2.9.009-.381-.083-.538-.5-.6a9.894,9.894,0,0,1-.232-19.559,11.894,11.894,0,0,1,1.953-.132q6.753-.017,13.506.007c.553,0,.728-.119.721-.7-.032-2.929-.016-5.858-.014-8.788,0-1.016.286-1.309,1.276-1.309q6.244,0,12.488,0c1,0,1.293.29,1.294,1.293,0,2.929.015,5.859-.011,8.788-.005.551.114.727.7.723q6.861-.039,13.724-.011a9.891,9.891,0,0,1,1.314,19.713c-.5.059-.635.235-.616.719.039.943.017,1.888.01,2.832-.007.815-.263,1.113-1.058,1.138-.385.012-.559.074-.548.515.028,1.283.021,2.566,0,3.849-.005.368.087.534.483.5a8.854,8.854,0,0,1,1.088,0,1.361,1.361,0,0,1,1.507,1.259,11.732,11.732,0,0,1,.066,3.4c-.045.666-.557,1.03-1.093,1.337H44.036a1.391,1.391,0,0,1-1.031-1.1,8.132,8.132,0,0,1-.093-3.6,1.7,1.7,0,0,1,1.8-1.475c.193-.01.387-.016.58-.01.482.016.706-.2.7-.693-.007-1.04,0-2.08,0-3.12,0-.446-.179-.681-.641-.674-.194,0-.387-.005-.58-.005H18.941c-1.268,0-1.269,0-1.269,1.291,0,.823.01,1.645,0,2.468-.007.524.222.756.74.734a5.556,5.556,0,0,1,.653.014,1.592,1.592,0,0,1,1.568,1.268,8.71,8.71,0,0,1-.006,3.811,1.406,1.406,0,0,1-1.142,1.09Z" transform="translate(0 -14.837)" fill="#272727"/>
            <path id="Trazado_626305" data-name="Trazado 626305" d="M49.664,8.283a30.525,30.525,0,0,1-.111,3.88,2.525,2.525,0,0,1-.311,1.029,4.389,4.389,0,0,0-.579,2.9q.026,1.27,0,2.542c-.007.317.076.515.412.552.024,0,.047.009.072.011a3.548,3.548,0,0,1,3.288,3,10.8,10.8,0,0,0,.553,1.335c.312.75.189,1.241-.365,1.476-.529.224-.931-.011-1.253-.749-.356-.818-.717-1.634-1.042-2.464a.882.882,0,0,0-.651-.6c-1.438-.4-2.87-.826-4.3-1.249a1.452,1.452,0,0,0-.853.011c-1.431.425-2.863.845-4.3,1.247a.828.828,0,0,0-.6.55c-.357.9-.746,1.779-1.123,2.666-.234.55-.628.816-1.209.558s-.644-.717-.407-1.27c.465-1.086.93-2.172,1.367-3.27a1.394,1.394,0,0,1,1.034-.807c.645-.195,1.5-.229,1.866-.667.4-.477.089-1.343.117-2.039.015-.362-.007-.727.005-1.089a4.009,4.009,0,0,0-.537-2.548,3.7,3.7,0,0,1-.465-2.1c0-2.131-.012-4.261,0-6.392a4.7,4.7,0,1,1,9.395-.039c.016,1.089,0,2.179,0,3.519" transform="translate(-12.625 0)" fill="#272727"/>
            <path id="Trazado_626306" data-name="Trazado 626306" d="M16.408,91.912c-.135-2.1-.135-2.1,1.9-2.1q19.306,0,38.611,0c.289,0,.578.024.867.036a2.28,2.28,0,0,1,.171,1.752c-.042.306-.287.429-.569.477a6.02,6.02,0,0,1-1.014.043q-19.315,0-38.628,0a2,2,0,0,1-1.333-.207" transform="translate(-5.62 -30.855)" fill="#fff"/>
            <path id="Trazado_626307" data-name="Trazado 626307" d="M42.7,46.071q.019,1.921.036,3.843c0,.42.012.843.452,1.069.459.234.835,0,1.208-.243.464-.3.812-1,1.307-.943.469.051.88.614,1.321.948a1.069,1.069,0,0,0,1.138.263c.478-.22.492-.668.491-1.118-.005-1.138.014-2.276-.009-3.413-.009-.448.086-.683.6-.632s1.013.033,1.52.046c.306.286.244.668.245,1.021q.014,3.082,0,6.164c0,1.207-.194,1.4-1.387,1.407-2.755.011-5.51,0-8.265,0a2.42,2.42,0,0,0-1.4.272q-.016-4.222-.035-8.446c0-.336.114-.482.461-.464.551.028,1.1.029,1.657.041.3.263.222.621.23.95a24.9,24.9,0,0,0,.1,2.823c.063-.889.047-1.78.066-2.669.007-.322-.084-.689.261-.923" transform="translate(-13.714 -15.747)" fill="#fff"/>
            <path id="Trazado_626308" data-name="Trazado 626308" d="M3.2,68.091a7.647,7.647,0,0,1,5.021-5.143,8.093,8.093,0,0,1,2.355-.309q22.04.01,44.08,0a6.231,6.231,0,0,1,3.385.911c.3.189.639.368.687.788-.273.278-.547.087-.8-.024a7.325,7.325,0,0,0-3.038-.582c-14.617.01-29.233.056-43.849-.024a6.933,6.933,0,0,0-6.718,8.955,2.028,2.028,0,0,1,.151.779c-.028.137-.081.253-.235.284-.426-.125-.555-.506-.716-.851A6.676,6.676,0,0,1,3.2,68.091" transform="translate(-0.998 -21.519)" fill="#fdfdfd"/>
            <path id="Trazado_626309" data-name="Trazado 626309" d="M63.243,67.672a5.342,5.342,0,0,1,1.451,3.139,8.226,8.226,0,0,1-8.271,9.626c-14.321-.11-28.642-.022-42.964-.008a9.358,9.358,0,0,1-4.509-.83,4.166,4.166,0,0,1-1.259-.825c.185-.375.475-.169.679-.074a12.043,12.043,0,0,0,5.175.866q20.845-.015,41.69-.012a9.787,9.787,0,0,0,3.072-.415A7.91,7.91,0,0,0,63.5,69.03c-.142-.433-.511-.843-.261-1.358" transform="translate(-2.642 -23.248)" fill="#fcfcfc"/>
            <path id="Trazado_626310" data-name="Trazado 626310" d="M16.41,91.909q20.2,0,40.4-.005c1.086,0,.962.112.971-.968,0-.362,0-.725,0-1.088.574-.145.786.072.718.66-.081.689.3,1.614-.154,2.01-.389.341-1.289.113-1.964.113q-19.671,0-39.342,0c-.626,0-.767-.182-.632-.727" transform="translate(-5.621 -30.852)" fill="#fefefc"/>
            <path id="Trazado_626311" data-name="Trazado 626311" d="M56.952,80.309A5.83,5.83,0,0,1,54,80.852q-21.822.031-43.642.008A8.38,8.38,0,0,1,6.5,80c-.16-.082-.314-.253-.526-.108a7.773,7.773,0,0,1-3.282-7,4.2,4.2,0,0,1,.435-1.949,8.547,8.547,0,0,0,.14,3.712,6.217,6.217,0,0,0,.884,1.883,1.27,1.27,0,0,1,.647.4,8.256,8.256,0,0,0,3.362,2.8,6.158,6.158,0,0,0,2.4.5q22.388,0,44.774.009c.54,0,1.1-.286,1.626.063" transform="translate(-0.92 -24.372)" fill="#fff"/>
            <path id="Trazado_626312" data-name="Trazado 626312" d="M64.38,65.841c.211.636.465,1.262.625,1.91a7.126,7.126,0,0,1-.331,4.868c-.242-.258-.106-.548-.057-.822a6.78,6.78,0,0,0-2.493-6.748c-.271-.23-.609-.406-.666-.812a5.917,5.917,0,0,0-3.731-1.547,10.356,10.356,0,0,0-1.161-.022q-21.519,0-43.04-.008c-.849,0-1.684.1-2.525.184a5.516,5.516,0,0,1,2.674-.488q14.3,0,28.6.018c5.081,0,10.163,0,15.244-.033a8.115,8.115,0,0,1,5.332,1.726,6.113,6.113,0,0,1,1.53,1.772" transform="translate(-3.779 -21.417)" fill="#fff"/>
            <path id="Trazado_626313" data-name="Trazado 626313" d="M13.994,108.653c-.108-1.786-.108-1.78,1.627-1.769q3.613.024,7.225.035a1.815,1.815,0,0,1,.156,1.4c-.052.373-.333.5-.672.541a10.627,10.627,0,0,1-1.157.028c-2.05,0-4.1.005-6.15,0a1.344,1.344,0,0,1-1.029-.227" transform="translate(-4.794 -36.719)" fill="#fff"/>
            <path id="Trazado_626314" data-name="Trazado 626314" d="M68.347,108.651c-.186-1.781-.186-1.777,1.546-1.767q3.65.021,7.3.032a1.572,1.572,0,0,1,.192,1.445c-.087.453-.478.5-.847.511-.844.033-1.687.012-2.531.014-1.543,0-3.085,0-4.627,0a1.488,1.488,0,0,1-1.034-.232" transform="translate(-23.453 -36.719)" fill="#fff"/>
            <path id="Trazado_626315" data-name="Trazado 626315" d="M39.973,54.766c-.018-.508.291-.553.7-.551,3.068.012,6.137-.012,9.2.021.677.007.914-.153.9-.872-.041-2.488-.01-4.977-.006-7.466.546-.134.7.079.7.632-.027,2.584-.016,5.17-.007,7.755,0,.379-.008.626-.519.623-3.5-.021-7-.011-10.507-.012-.165,0-.343.027-.467-.129" transform="translate(-13.732 -15.755)" fill="#fdfdfd"/>
            <path id="Trazado_626316" data-name="Trazado 626316" d="M73.153,101.567c-.135-1.465-.022-2.934-.057-4.4-.007-.278.13-.395.4-.385.937.033,1.876-.073,2.811.05a1.742,1.742,0,0,0-.412,1.328c.023.6.009,1.2,0,1.8-.01,1.093-.114,1.21-1.191,1.21a2.1,2.1,0,0,0-1.553.4" transform="translate(-25.108 -33.245)" fill="#fff"/>
            <path id="Trazado_626317" data-name="Trazado 626317" d="M18.848,100.942c-.008-1.224-.012-2.447-.027-3.67,0-.3.034-.505.418-.494.909.028,1.818.028,2.728.039a1.978,1.978,0,0,0-.45,1.471c.026.7.024,1.4-.009,2.1-.023.49-.263.788-.763.773-.637-.02-1.308.213-1.9-.224" transform="translate(-6.466 -33.247)" fill="#fff"/>
            <path id="Trazado_626318" data-name="Trazado 626318" d="M68.361,108.649c2.67,0,5.34-.03,8.008.016.721.012.945-.208.846-.887a6.131,6.131,0,0,1-.007-.865c.511-.116.775.019.7.61s.252,1.388-.132,1.74c-.322.3-1.1.108-1.676.109-2.372.006-4.744-.02-7.115.018-.621.01-.775-.19-.625-.74" transform="translate(-23.467 -36.716)" fill="#fefefe"/>
            <path id="Trazado_626319" data-name="Trazado 626319" d="M13.99,108.647c2.67,0,5.341-.032,8.01.016.723.013.941-.209.844-.885a5.854,5.854,0,0,1,0-.865c.559-.148.789.032.727.639-.058.573.189,1.343-.1,1.684-.343.4-1.134.123-1.729.127-2.372.018-4.746-.016-7.117.023-.622.01-.765-.2-.632-.739" transform="translate(-4.79 -36.712)" fill="#fff"/>
            <path id="Trazado_626320" data-name="Trazado 626320" d="M18.842,100.962c.652,0,1.305-.022,1.956,0,.417.017.547-.14.538-.545-.022-.966.026-1.935-.02-2.9-.025-.519.18-.694.646-.685.2,1.509.036,3.025.087,4.536.009.276-.167.3-.381.3-.819,0-1.639-.009-2.458,0-.62.008-.335-.431-.368-.714" transform="translate(-6.46 -33.268)" fill="#fdfafa"/>
            <path id="Trazado_626321" data-name="Trazado 626321" d="M73.185,101.6c-.051-.489.143-.662.654-.646.591.018,1.355.274,1.736-.114s.094-1.146.119-1.74a11.332,11.332,0,0,0-.007-1.587c-.053-.534.191-.675.649-.648.184,1.49.032,2.988.082,4.481.008.251-.109.349-.349.338a20.058,20.058,0,0,1-2.884-.084" transform="translate(-25.14 -33.275)" fill="#faf9fa"/>
            <path id="Trazado_626322" data-name="Trazado 626322" d="M43.8,46.081v4.23a.863.863,0,0,1-.672-1.005l.012-3.406c.233.013.517-.163.66.181" transform="translate(-14.816 -15.757)" fill="#fefefe"/>
            <path id="Trazado_626323" data-name="Trazado 626323" d="M46.906,47.007c-.013-.119-.022-.24-.041-.358-.093-.6.079-.923.765-.812A9.881,9.881,0,0,1,49.2,45.9a1.21,1.21,0,0,0-.526,1.14c.016.212.045.564-.381.492a3.54,3.54,0,0,0-1.391-.529" transform="translate(-16.092 -15.74)" fill="#fff"/>
            <path id="Trazado_626324" data-name="Trazado 626324" d="M48.913,47.452c.124.032.287.151.305-.1a3.153,3.153,0,0,0,0-.639c-.069-.529.1-.82.68-.765a16.611,16.611,0,0,1,.056,2.374l-1.05-.7a.1.1,0,0,1-.033-.114c.014-.035.028-.054.041-.054" transform="translate(-16.788 -15.782)" fill="#faf9f6"/>
            <path id="Trazado_626325" data-name="Trazado 626325" d="M48.251,47.982c0,.056-.005.112-.007.167-.506.026-.834.393-1.306.722V47.579a1.058,1.058,0,0,1,1.313.4" transform="translate(-16.125 -16.312)" fill="#fdfdfc"/>
            <path id="Trazado_626326" data-name="Trazado 626326" d="M50.279,4.354A1.582,1.582,0,0,1,51.04,5.88c.051,1.74.042,3.482.047,5.224,0,.677.006,1.356-.034,2.03a2.562,2.562,0,0,1-1.8,2.391,2.806,2.806,0,0,1-3.177-.664c.226-.216.492-.13.749-.1a2.762,2.762,0,0,0,1.617-.166c1.665-.624,1.916-1.082,1.78-3.261-.036-1.26-.026-2.518,0-3.777a6.98,6.98,0,0,0,0-1.736c.1-.487-.34-1,.062-1.473" transform="translate(-15.829 -1.496)" fill="#fcfcfc"/>
            <path id="Trazado_626327" data-name="Trazado 626327" d="M46.32,25.784V23.831a5.46,5.46,0,0,0,3.16.227,2.489,2.489,0,0,1,.148,1.744.31.31,0,0,1-.412.293,13.115,13.115,0,0,0-2.895-.311" transform="translate(-15.913 -8.187)" fill="#fff"/>
            <path id="Trazado_626328" data-name="Trazado 626328" d="M46.313,25.793a4.486,4.486,0,0,1,3.16.24V24.067l.672-.211v2.819a1.313,1.313,0,0,1-.687-.145,3.422,3.422,0,0,0-2.327-.037c-.85.261-.86.229-.817-.7" transform="translate(-15.906 -8.196)" fill="#fdfdfd"/>
            <path id="Trazado_626329" data-name="Trazado 626329" d="M44.872,5.292a2.619,2.619,0,0,1,1.739-2.26,1.944,1.944,0,0,1,1.732.206c.23.139.458.289.4.618-.2.276-.477.148-.73.131A2.161,2.161,0,0,0,45.6,6.437c.019.24.087.479-.087.693-.291.121-.46-.024-.582-.269a4.348,4.348,0,0,1-.055-1.569" transform="translate(-15.4 -1.001)" fill="#fdfdfc"/>
            <path id="Trazado_626330" data-name="Trazado 626330" d="M44.853,6.536a5.011,5.011,0,0,0,.167,1.527c.151.943.027,1.9.115,2.84-.038.644-.045,1.29-.053,1.936a1.467,1.467,0,0,0,.611,1.3,2.668,2.668,0,0,0,2.126,1.174.363.363,0,0,1,.3.172c-.807.506-1.655.182-2.49.123a2.267,2.267,0,0,1-.832-1.854c-.035-2.341-.02-4.683-.019-7.025a.605.605,0,0,1,.075-.2" transform="translate(-15.382 -2.245)" fill="#fff"/>
            <path id="Trazado_626331" data-name="Trazado 626331" d="M49.615,3.79c-.452-.864-1.3-.771-2.07-.849a2.452,2.452,0,0,1,3.239.827q.062.735.123,1.469A8.761,8.761,0,0,1,49.615,3.79" transform="translate(-16.334 -0.909)" fill="#fff"/>
            <path id="Trazado_626332" data-name="Trazado 626332" d="M59.128,64.768a18.448,18.448,0,0,1,1.907,1.759,7.073,7.073,0,0,1,1.39,6.128c-.037.163-.054.33-.081.495a7.515,7.515,0,0,1-4.864,4.736,32.518,32.518,0,0,1-5.5.192c-13.4.009-26.8-.014-40.2.019a7.554,7.554,0,0,1-6.569-3.4,1.6,1.6,0,0,1-.123-.257.726.726,0,0,1-.264-.5,7.076,7.076,0,0,1,.848-7.2,6.759,6.759,0,0,1,5.253-2.806c.362-.02.726-.024,1.088-.024q20.186,0,40.371,0c2.283,0,4.6-.226,6.742.861" transform="translate(-1.45 -21.948)" fill="#272727"/>
            <path id="Trazado_626333" data-name="Trazado 626333" d="M5.062,79.2a.915.915,0,0,1,.263.5.388.388,0,0,1-.414-.324l.15-.177" transform="translate(-1.687 -27.208)" fill="#e9e0df"/>
            <path id="Trazado_626334" data-name="Trazado 626334" d="M48.973,4.338a3.128,3.128,0,0,1,1.293,1.447,3.6,3.6,0,0,1,0,1.664,2.166,2.166,0,0,1-2.225,1.741,2.254,2.254,0,0,1-2.253-1.612c.053-.409-.156-.79-.1-1.209a2.3,2.3,0,0,1,2.934-2.061,3.127,3.127,0,0,0,.352.03" transform="translate(-15.692 -1.458)" fill="#272727"/>
            <path id="Trazado_626335" data-name="Trazado 626335" d="M48.32,17.592a2.568,2.568,0,0,1-2.494-1.182,2.1,2.1,0,0,1-.072-2.551,2.4,2.4,0,0,1,2.37-1.194,3.12,3.12,0,0,1,.636.114,2.129,2.129,0,0,1,1.388,1.581c.286,1.86-.207,2.73-1.828,3.232" transform="translate(-15.582 -4.349)" fill="#272727"/>
            <path id="Trazado_626336" data-name="Trazado 626336" d="M49.99,13.054a2.712,2.712,0,0,0-1.284-1.361,2.429,2.429,0,0,0-3.186-.1c-.132.1-.247.235-.441.165a6.24,6.24,0,0,1-.015-2.9c.126.139.24.3.455.3a2.483,2.483,0,0,0,2.9,1.318A2.375,2.375,0,0,0,50,9.036l-.006,4.018" transform="translate(-15.425 -3.045)" fill="#fff"/>
            <path id="Trazado_626337" data-name="Trazado 626337" d="M45.084,12.8a2.488,2.488,0,0,1,2.875-.763c.347.107.683.267.752.694-2.045-.727-3.968.964-3.038,3.411a1.416,1.416,0,0,1-.751-1.43,5.319,5.319,0,0,1,.161-1.912" transform="translate(-15.431 -4.078)" fill="#fcfcfc"/>
            <path id="Trazado_626338" data-name="Trazado 626338" d="M8.622,75.788a4.916,4.916,0,0,1-1.566-5.055,5.162,5.162,0,0,1,3.833-3.966A5.263,5.263,0,0,1,12.4,66.6q21.933,0,43.866,0a4.788,4.788,0,0,1,4.237,2.03c2.266,3.328-.583,8.112-4.625,8.107q-22.246-.03-44.492,0a4.944,4.944,0,0,1-2.76-.949" transform="translate(-2.368 -22.879)" fill="#fff"/>
            <path id="Trazado_626339" data-name="Trazado 626339" d="M9.526,76.85a9.168,9.168,0,0,0,4.655.756q21.02-.017,42.04,0a5.362,5.362,0,0,0,5.137-2.888,5.074,5.074,0,0,0,.259-4.35c-.083-.222-.249-.422-.213-.682a4.288,4.288,0,0,1,1.241,3.834,5.248,5.248,0,0,1-5.561,4.793q-15.859.012-31.718,0c-3.993,0-7.984-.007-11.976,0A5.077,5.077,0,0,1,9.526,76.85" transform="translate(-3.273 -23.942)" fill="#fcfdfe"/>
            <path id="Trazado_626340" data-name="Trazado 626340" d="M48.975,6.922a.582.582,0,0,1,.563.649.547.547,0,0,1-.613.57.541.541,0,0,1-.551-.627.635.635,0,0,1,.6-.591" transform="translate(-16.617 -2.378)" fill="#f8f6f4"/>
            <path id="Trazado_626341" data-name="Trazado 626341" d="M48.981,15.662a.517.517,0,0,1,.553.6.542.542,0,0,1-.582.591.533.533,0,0,1-.572-.6.588.588,0,0,1,.6-.594" transform="translate(-16.621 -5.381)" fill="#fdfbf9"/>
            <path id="Trazado_626342" data-name="Trazado 626342" d="M38.591,68.873a4.08,4.08,0,0,1,.749,6.635,4.133,4.133,0,0,1-6.266-.954,1.18,1.18,0,0,0-.139-.149,4.03,4.03,0,0,1,1.375-5.535,3.974,3.974,0,0,1,3.169-.621,1.987,1.987,0,0,1,1.111.624" transform="translate(-11.109 -23.407)" fill="#272727"/>
            <path id="Trazado_626343" data-name="Trazado 626343" d="M77.951,68.877a4.084,4.084,0,0,1,1.661,5.435A3.928,3.928,0,0,1,76,76.552a4.079,4.079,0,0,1-3.659-2.162,1.481,1.481,0,0,0-.185-.207c-1.349-2.051.195-5.288,2.89-5.912a3.033,3.033,0,0,1,2.91.607" transform="translate(-24.617 -23.411)" fill="#272727"/>
            <path id="Trazado_626344" data-name="Trazado 626344" d="M18.9,68.873A3.958,3.958,0,0,1,21,72.859a3.909,3.909,0,0,1-2.842,3.494c-1.8.6-3.384-.028-4.771-1.8a1.643,1.643,0,0,0-.144-.143c-1.275-1.763-.387-4.5,1.416-5.555a3.97,3.97,0,0,1,3.122-.6,2.069,2.069,0,0,1,1.119.626" transform="translate(-4.343 -23.406)" fill="#272727"/>
            <path id="Trazado_626345" data-name="Trazado 626345" d="M58.259,68.881a4.082,4.082,0,1,1-4.725,6.585c-.329-.308-.623-.654-.933-.982a3.761,3.761,0,0,1,.2-4.463,4.079,4.079,0,0,1,4.35-1.761,1.791,1.791,0,0,1,1.109.622" transform="translate(-17.851 -23.416)" fill="#272727"/>
            <path id="Trazado_626346" data-name="Trazado 626346" d="M38.323,68.621a4.1,4.1,0,0,0-6.049,3.15,6.033,6.033,0,0,0,.394,2.383,3.886,3.886,0,0,1-.4-4.994,4.1,4.1,0,0,1,5.638-1.071c.188.128.448.223.418.532" transform="translate(-10.84 -23.155)" fill="#fefefe"/>
            <path id="Trazado_626347" data-name="Trazado 626347" d="M77.7,68.611a4.118,4.118,0,0,0-6.05,3.03,8.076,8.076,0,0,0,.25,2.276,2.722,2.722,0,0,1-.981-2.438,3.866,3.866,0,0,1,2.162-3.6,3.925,3.925,0,0,1,4.189.206c.191.122.456.211.429.524" transform="translate(-24.363 -23.145)" fill="#fefefe"/>
            <path id="Trazado_626348" data-name="Trazado 626348" d="M18.637,68.619a4.1,4.1,0,0,0-6.047,3.2,6.358,6.358,0,0,0,.39,2.329,3.9,3.9,0,0,1-.385-4.993,4.082,4.082,0,0,1,5.627-1.071c.188.128.448.222.414.532" transform="translate(-4.081 -23.153)" fill="#fefefe"/>
            <path id="Trazado_626349" data-name="Trazado 626349" d="M58,68.617a4.113,4.113,0,0,0-6.05,3.081,6.874,6.874,0,0,0,.392,2.522,3.975,3.975,0,0,1-.092-5.445,4.091,4.091,0,0,1,5.508-.567c.133.108.272.207.242.409" transform="translate(-17.597 -23.152)" fill="#fefefe"/>
            <path id="Trazado_626350" data-name="Trazado 626350" d="M35.94,75.032a2.5,2.5,0,0,1-.163-2.933,2.391,2.391,0,0,1,2.634-.846,1.218,1.218,0,0,1,.624.433,2.344,2.344,0,0,1-2.758,3.475c-.113-.044-.223-.092-.337-.128" transform="translate(-12.153 -24.444)" fill="#fff"/>
            <path id="Trazado_626351" data-name="Trazado 626351" d="M36.235,75.312a7.088,7.088,0,0,0,1.2.076c1.686-.169,2.456-1.584,1.893-3.423a2.2,2.2,0,0,1,.82,2.567,2.174,2.174,0,0,1-2.3,1.568,1.91,1.91,0,0,1-1.611-.788" transform="translate(-12.448 -24.723)" fill="#fefefd"/>
            <path id="Trazado_626352" data-name="Trazado 626352" d="M75.2,74.888a2.48,2.48,0,0,1-.024-2.835,2.374,2.374,0,0,1,2.6-.8,1.209,1.209,0,0,1,.635.433,2.336,2.336,0,0,1-.384,2.955,2.193,2.193,0,0,1-2.829.246" transform="translate(-25.678 -24.443)" fill="#fff"/>
            <path id="Trazado_626353" data-name="Trazado 626353" d="M75.442,75.17c1.628.492,2.81.032,3.271-1.288a2.918,2.918,0,0,0-.058-1.912,2.186,2.186,0,0,1,.791,2.579A2.133,2.133,0,0,1,77.2,76.1a1.929,1.929,0,0,1-1.758-.932" transform="translate(-25.918 -24.725)" fill="#fefefd"/>
            <path id="Trazado_626354" data-name="Trazado 626354" d="M16.257,75.029A2.485,2.485,0,0,1,16.09,72.1a2.419,2.419,0,0,1,2.7-.832,1.287,1.287,0,0,1,.554.413,2.387,2.387,0,0,1-.2,2.805,2.449,2.449,0,0,1-2.555.676c-.112-.044-.223-.091-.335-.133" transform="translate(-5.39 -24.442)" fill="#fff"/>
            <path id="Trazado_626355" data-name="Trazado 626355" d="M16.553,75.308a7.052,7.052,0,0,0,1.2.077c1.7-.175,2.463-1.589,1.884-3.425A2.288,2.288,0,0,1,18.165,76.1a1.906,1.906,0,0,1-1.612-.79" transform="translate(-5.687 -24.721)" fill="#fefefd"/>
            <path id="Trazado_626356" data-name="Trazado 626356" d="M55.559,75.012a2.609,2.609,0,0,1-.1-2.908,2.345,2.345,0,0,1,2.5-.874,1.262,1.262,0,0,1,.768.462,2.352,2.352,0,0,1-.125,2.688,2.471,2.471,0,0,1-2.374.888,1.784,1.784,0,0,1-.669-.256" transform="translate(-18.917 -24.449)" fill="#fff"/>
            <path id="Trazado_626357" data-name="Trazado 626357" d="M55.818,75.287a6.95,6.95,0,0,0,1.291.1c1.669-.177,2.422-1.575,1.877-3.418a2.195,2.195,0,0,1,.806,2.572A2.165,2.165,0,0,1,57.483,76.1a2.11,2.11,0,0,1-1.665-.814" transform="translate(-19.176 -24.724)" fill="#fefefd"/>
          </g>
        </g>
        <g id="Grupo_912275" data-name="Grupo 912275" transform="translate(628.473 2434.482)">
          <g id="Grupo_912274" data-name="Grupo 912274" transform="translate(0 0)" clip-path="url(#clip-path-5)">
            <path id="Trazado_626358" data-name="Trazado 626358" d="M16.273,0a8.175,8.175,0,0,1,4.152,2.151,7.24,7.24,0,0,1,2.13,5.513c-.022.584.164.695.7.608q10.217-1.66,20.439-3.3c3.05-.49,6.1-.983,9.153-1.449a3.906,3.906,0,0,1,4.4,3.757c.021,3.874.006,7.749.01,11.624,0,.272-.095.565.3.714a4.554,4.554,0,0,1,1.465,7.394q2.883,1.679,5.749,3.348c2.085,1.212,4.161,2.437,6.26,3.624a1.849,1.849,0,0,1,1.015,1.77c-.008,4.674,0,9.348-.007,14.021a1.571,1.571,0,0,1-1.774,1.791q-14.749,0-29.5,0A1.569,1.569,0,0,1,38.978,49.8c-.007-4.7,0-9.4-.007-14.094a1.82,1.82,0,0,1,1.064-1.734c3.97-2.194,7.921-4.417,11.88-6.63.207-.115.408-.239.627-.368-.175-.221-.339-.4-.47-.6a1.468,1.468,0,0,1,.3-2.008,1.427,1.427,0,0,1,2.012.222,1.67,1.67,0,0,0,1.821.725A1.588,1.588,0,0,0,57.4,23.7a1.62,1.62,0,0,0-1.368-1.473c-1.355-.2-1.682-.578-1.682-1.942,0-2.785-.012-5.57.01-8.354,0-.526-.027-.7-.646-.525-4.352,1.23-8.717,2.415-13.079,3.612-1.225.336-2.163-.291-2.121-1.4a1.475,1.475,0,0,1,1.247-1.4q6.577-1.821,13.155-3.635c.21-.057.425-.1.628-.171.528-.195.892-.553.766-1.145a.94.94,0,0,0-1.191-.775c-1.788.279-3.578.551-5.366.836q-5.683.906-11.364,1.822-5.717.912-11.436,1.817c-.667.106-1.33.238-2,.323-.314.04-.387.176-.385.468.012,1.574.021,3.149,0,4.723-.007.491.243.431.545.348q1.843-.509,3.685-1.025a1.479,1.479,0,0,1,1.931.909A1.457,1.457,0,0,1,27.628,18.6c-1.5.446-3,.881-4.519,1.258-.47.117-.565.323-.548.746.028.7.022,1.4,0,2.107a1.512,1.512,0,0,1-1.676,1.655c-.774.019-1.549.016-2.324,0-.307-.007-.455.074-.415.4a3.579,3.579,0,0,1,0,.435q0,22.74-.015,45.479c0,.639.126.865.808.826,1.135-.064,2.276-.023,3.413-.015a1.456,1.456,0,1,1,.027,2.9q-10.426.007-20.851,0a1.453,1.453,0,1,1,.011-2.9c1.042-.009,2.083-.018,3.124.006.373.008.546-.09.491-.481a2.6,2.6,0,0,1,0-.363q0-22.7.02-45.406c0-.753-.2-.992-.916-.885a5.53,5.53,0,0,1-.943.007A1.551,1.551,0,0,1,1.6,22.605q0-7.011,0-14.021a10.666,10.666,0,0,1,.2-2.957A7.208,7.208,0,0,1,7.688.118C7.746.107,7.793.04,7.845,0Z" transform="translate(0 0)" fill="#040506"/>
            <path id="Trazado_626359" data-name="Trazado 626359" d="M61.169,94.289q-7.371,0-14.741,0c-1.167,0-1.743-.528-1.743-1.627q-.008-7.988-.007-15.976a1.454,1.454,0,0,1,.912-1.5,1.4,1.4,0,0,1,1.652.376c.094.106.221.241.222.363,0,.987.713.784,1.294.784q12.6,0,25.2.009c.482,0,.8.01.916-.628a1.311,1.311,0,0,1,1.619-.985,1.345,1.345,0,0,1,1.18,1.342c.029,1.742.02,3.485.021,5.228q0,5.374,0,10.747c0,1.42-.452,1.87-1.854,1.871H61.169" transform="translate(-11.838 -19.889)" fill="#040506"/>
            <path id="Trazado_626360" data-name="Trazado 626360" d="M43.859,20.386a1.4,1.4,0,0,1,1.487-1.41,1.446,1.446,0,0,1,1.431,1.487,1.466,1.466,0,0,1-1.506,1.419,1.425,1.425,0,0,1-1.412-1.5" transform="translate(-11.621 -5.028)" fill="#070708"/>
            <path id="Trazado_626361" data-name="Trazado 626361" d="M70.63,50.2c4.309,0,8.617.009,12.925-.012.5,0,.642.113.638.629q-.037,5.227,0,10.456c0,.5-.116.646-.634.645q-12.925-.025-25.851,0c-.513,0-.639-.139-.637-.642q.033-5.228,0-10.457c0-.511.128-.635.634-.633,4.308.021,8.617.012,12.925.012" transform="translate(-15.122 -13.297)" fill="#fff"/>
            <path id="Trazado_626362" data-name="Trazado 626362" d="M13.686,16.838c-2.3,0-4.6-.015-6.9.012-.5.007-.659-.117-.642-.634.04-1.21.029-2.421,0-3.632-.009-.418.065-.592.544-.591q7.046.028,14.093,0c.392,0,.481.124.476.492-.02,1.283-.026,2.567,0,3.849.01.427-.136.512-.531.509-2.348-.018-4.7-.009-7.046-.009" transform="translate(-1.628 -3.178)" fill="#fff"/>
            <path id="Trazado_626363" data-name="Trazado 626363" d="M13.763,27.357c-2.323,0-4.647-.014-6.97.011-.5.006-.665-.112-.648-.634.04-1.208.029-2.42,0-3.63-.009-.42.065-.585.543-.584q7.043.03,14.086,0c.376,0,.492.094.485.479-.024,1.282-.026,2.565,0,3.848.01.423-.129.516-.529.513-2.323-.018-4.647-.009-6.97-.009" transform="translate(-1.628 -5.967)" fill="#fff"/>
            <path id="Trazado_626364" data-name="Trazado 626364" d="M81.522,44.25H63.129c-.029-.251.207-.251.329-.32q4.251-2.386,8.513-4.753c.265-.148.49-.35.854-.137,2.906,1.7,5.824,3.387,8.737,5.076l-.04.133" transform="translate(-16.727 -10.32)" fill="#fffefe"/>
            <path id="Trazado_626365" data-name="Trazado 626365" d="M21.114,6.843H6.566A4.057,4.057,0,0,1,10.06,4.032a39.01,39.01,0,0,1,7.75.041,4.138,4.138,0,0,1,3.3,2.77" transform="translate(-1.74 -1.023)" fill="#fff"/>
            <path id="Trazado_626366" data-name="Trazado 626366" d="M18.681,87.591c0,2.419,0,4.609,0,6.8,0,.339-.211.315-.434.315-1.662,0-3.324,0-5.132,0l5.562-7.111" transform="translate(-3.476 -23.209)" fill="#fefefe"/>
            <path id="Trazado_626367" data-name="Trazado 626367" d="M11.048,90.864c0-2.37,0-4.537-.005-6.706,0-.293.107-.363.379-.362,1.66.01,3.321.005,5.143.005l-5.516,7.062" transform="translate(-2.926 -22.204)" fill="#fff"/>
            <path id="Trazado_626368" data-name="Trazado 626368" d="M18.714,70.854q0,3.068,0,6.137c0,.205,0,.4-.284.4H13.237l5.322-6.587.154.048" transform="translate(-3.507 -18.762)" fill="#fefefe"/>
            <path id="Trazado_626369" data-name="Trazado 626369" d="M18.707,37.085c0,2.047,0,4.094,0,6.141,0,.318-.12.416-.428.415-1.635-.01-3.27-.005-5.069-.005l5.342-6.606.15.056" transform="translate(-3.502 -9.812)" fill="#fefefe"/>
            <path id="Trazado_626370" data-name="Trazado 626370" d="M13.23,60.437l5.481-6.779c0,2.3,0,4.391,0,6.481,0,.351-.24.3-.451.3-1.62,0-3.24,0-5.033,0" transform="translate(-3.506 -14.218)" fill="#fefefe"/>
            <path id="Trazado_626371" data-name="Trazado 626371" d="M11.048,73.66c0-2.25,0-4.3,0-6.347,0-.3.071-.433.4-.43,1.636.013,3.272.006,5.069.006L11.048,73.66" transform="translate(-2.926 -17.722)" fill="#fffefe"/>
            <path id="Trazado_626372" data-name="Trazado 626372" d="M16.507,50.006l-5.338,6.6c-.232-.135-.119-.351-.12-.519-.01-1.858-.007-3.717-.006-5.576,0-.254-.081-.523.364-.517,1.655.021,3.31.008,5.1.008" transform="translate(-2.921 -13.248)" fill="#fff"/>
            <path id="Trazado_626373" data-name="Trazado 626373" d="M16.5,33.16l-5.448,6.728c0-2.259,0-4.326,0-6.392,0-.242.068-.343.328-.341,1.66.009,3.321,0,5.124,0" transform="translate(-2.927 -8.785)" fill="#fff"/>
            <path id="Trazado_626374" data-name="Trazado 626374" d="M62.3,93.021c-4.309,0-8.619-.01-12.928.012-.54,0-.733-.1-.727-.7.033-3.461.025-6.924.006-10.386,0-.5.054-.709.647-.706q12.965.033,25.929.005c.467,0,.6.108.6.591q-.032,5.3,0,10.6c0,.486-.139.589-.6.587-4.309-.018-8.619-.01-12.928-.01" transform="translate(-12.888 -21.528)" fill="#fff"/>
            <path id="Trazado_626375" data-name="Trazado 626375" d="M69.428,56.834c0-.6-.015-1.208,0-1.81a1.54,1.54,0,0,1,1.484-1.632,1.492,1.492,0,0,1,1.485,1.55q.055,1.917,0,3.837a1.5,1.5,0,0,1-1.476,1.563,1.542,1.542,0,0,1-1.494-1.625c-.02-.627,0-1.255,0-1.882" transform="translate(-18.395 -14.147)" fill="#060607"/>
            <path id="Trazado_626376" data-name="Trazado 626376" d="M64.333,56.869c0,.628.017,1.255,0,1.882a1.535,1.535,0,0,1-1.452,1.59,1.484,1.484,0,0,1-1.5-1.524q-.063-1.953,0-3.908a1.467,1.467,0,0,1,1.508-1.515,1.537,1.537,0,0,1,1.447,1.592c.02.627,0,1.255,0,1.882" transform="translate(-16.254 -14.148)" fill="#060607"/>
            <path id="Trazado_626377" data-name="Trazado 626377" d="M85.607,56.82c0-.651-.018-1.3.005-1.954a1.5,1.5,0,0,1,1.475-1.472,1.412,1.412,0,0,1,1.43,1.419q.044,2.061,0,4.124a1.426,1.426,0,0,1-1.447,1.4,1.524,1.524,0,0,1-1.459-1.422c0-.048,0-.1,0-.145q0-.977,0-1.954" transform="translate(-22.682 -14.148)" fill="#050506"/>
            <path id="Trazado_626378" data-name="Trazado 626378" d="M77.513,56.815c0-.6-.011-1.207,0-1.81a1.541,1.541,0,0,1,1.425-1.611,1.442,1.442,0,0,1,1.514,1.5c.04,1.325.04,2.654,0,3.979a1.443,1.443,0,0,1-1.466,1.472,1.536,1.536,0,0,1-1.468-1.571c-.019-.651,0-1.3,0-1.954" transform="translate(-20.537 -14.148)" fill="#050506"/>
            <path id="Trazado_626379" data-name="Trazado 626379" d="M80.72,88.073c0,.6.019,1.211,0,1.815a1.483,1.483,0,0,1-1.448,1.58,1.468,1.468,0,0,1-1.524-1.574q-.045-1.886,0-3.774a1.461,1.461,0,0,1,1.48-1.545,1.475,1.475,0,0,1,1.488,1.539c.029.652.005,1.306.006,1.96" transform="translate(-20.594 -22.41)" fill="#060607"/>
            <path id="Trazado_626380" data-name="Trazado 626380" d="M72.645,88c0,.653.021,1.308,0,1.96a1.456,1.456,0,0,1-1.44,1.5,1.4,1.4,0,0,1-1.5-1.43c-.046-1.353-.047-2.71,0-4.063a1.381,1.381,0,0,1,1.525-1.391,1.441,1.441,0,0,1,1.4,1.461c.03.652.006,1.306.007,1.96" transform="translate(-18.461 -22.412)" fill="#060607"/>
            <path id="Trazado_626381" data-name="Trazado 626381" d="M56.476,88.02c0,.653.01,1.307,0,1.96a1.413,1.413,0,0,1-1.434,1.488,1.4,1.4,0,0,1-1.466-1.447q-.025-2,0-3.993a1.387,1.387,0,0,1,1.462-1.447,1.406,1.406,0,0,1,1.438,1.479c.014.653,0,1.307,0,1.96" transform="translate(-14.192 -22.411)" fill="#040506"/>
            <path id="Trazado_626382" data-name="Trazado 626382" d="M61.646,88.018c0-.678-.024-1.356.006-2.032a1.382,1.382,0,0,1,1.431-1.407,1.417,1.417,0,0,1,1.478,1.45q.037,2,0,3.993a1.425,1.425,0,0,1-1.485,1.447,1.4,1.4,0,0,1-1.424-1.419c-.029-.676-.006-1.355-.006-2.032" transform="translate(-16.332 -22.411)" fill="#050506"/>
          </g>
        </g>
      </g>
      <g id="Grupo_912293" data-name="Grupo 912293">
        <path id="Trazado_626448" data-name="Trazado 626448" d="M1.1,17V5.8H8.078V8.438h-3.6V10.07H7.859v2.641H4.477v1.648H8.336V17Zm15.1-4.258L18.781,17H14.953l-.859-1.82a8.288,8.288,0,0,1-.336-.836h-.031q-.164.531-.211.652T12.6,17H8.8l2.656-4.031L8.953,9H12.8l.859,1.859a5.1,5.1,0,0,1,.344.875h.031q.227-.68.32-.891L15.164,9H18.8Zm12.383.016a5.692,5.692,0,0,1-.445,2.32,3.6,3.6,0,0,1-1.258,1.563,3.168,3.168,0,0,1-1.828.555,2.449,2.449,0,0,1-2.133-1.023h-.031V20.68H19.563V9h3.328v1.086h.031a2.819,2.819,0,0,1,1.031-.941,2.99,2.99,0,0,1,1.438-.34,2.858,2.858,0,0,1,2.371,1.031A4.576,4.576,0,0,1,28.586,12.758Zm-3.375.1a2.085,2.085,0,0,0-.293-1.187,1.1,1.1,0,0,0-1.762.023,2.081,2.081,0,0,0-.328,1.242v.156a2.277,2.277,0,0,0,.281,1.211.928.928,0,0,0,.844.453,1.051,1.051,0,0,0,.93-.5A2.533,2.533,0,0,0,25.211,12.859Zm13.523,0a4.166,4.166,0,0,1-1.223,3.18A4.778,4.778,0,0,1,34.094,17.2,4.8,4.8,0,0,1,30.7,16.066a4.041,4.041,0,0,1-1.215-3.113,4.171,4.171,0,0,1,.57-2.211A3.709,3.709,0,0,1,31.68,9.3a5.61,5.61,0,0,1,2.43-.5,5.434,5.434,0,0,1,2.465.523,3.81,3.81,0,0,1,1.6,1.453A3.957,3.957,0,0,1,38.734,12.859Zm-3.375.016q0-1.633-1.25-1.633t-1.25,1.711q0,1.8,1.266,1.8Q35.359,14.758,35.359,12.875Zm10.633-1.023a3.2,3.2,0,0,0-1.039-.227q-1.648,0-1.648,1.906V17H39.977V9H43.3v1.406h.031A2.5,2.5,0,0,1,44.2,9.254a2.228,2.228,0,0,1,1.313-.395,1.128,1.128,0,0,1,.477.094Zm6.594,5.039a3.242,3.242,0,0,1-.742.207,6.786,6.786,0,0,1-1.242.1,2.984,2.984,0,0,1-2.176-.766,2.906,2.906,0,0,1-.785-2.18V11.3H46.383V9h1.258V7.43l3.281-.906V9h1.664v2.3H50.922v2.4q0,1.055.836,1.055a2.268,2.268,0,0,0,.828-.172ZM58.063,17V15.781h-.031A2.617,2.617,0,0,1,55.594,17.2a2.334,2.334,0,0,1-1.773-.672,2.5,2.5,0,0,1-.641-1.8q0-2.359,2.9-2.734l1.984-.258a.757.757,0,0,0-.352-.641,1.6,1.6,0,0,0-.945-.25,6.226,6.226,0,0,0-2.836.766V9.445a7.587,7.587,0,0,1,1.625-.461,9.457,9.457,0,0,1,1.672-.18,4.2,4.2,0,0,1,2.957.871,3.883,3.883,0,0,1,.918,2.91V17Zm-1.969-2.719a.737.737,0,0,0,.207.539.789.789,0,0,0,.59.211,1.049,1.049,0,0,0,.848-.391,1.513,1.513,0,0,0,.324-1v-.3l-1.125.156Q56.094,13.633,56.094,14.281ZM67.945,17v-.93h-.031a2.746,2.746,0,0,1-1.039.824,2.961,2.961,0,0,1-1.266.3,3.256,3.256,0,0,1-1.8-.5,3.06,3.06,0,0,1-1.168-1.41,5.427,5.427,0,0,1-.387-2.141,5.267,5.267,0,0,1,.461-2.258,3.608,3.608,0,0,1,1.3-1.531A3.35,3.35,0,0,1,65.883,8.8a2.838,2.838,0,0,1,.91.141,2.462,2.462,0,0,1,.727.379,1.131,1.131,0,0,1,.395.473h.031V5.156h3.328V17Zm.07-4.242a1.755,1.755,0,0,0-.316-1.117,1.068,1.068,0,0,0-1.734.1,2.3,2.3,0,0,0-.34,1.324q0,1.7,1.172,1.7a1.042,1.042,0,0,0,.887-.457,2.249,2.249,0,0,0,.332-1.332Zm13.758.1a4.166,4.166,0,0,1-1.223,3.18,5.649,5.649,0,0,1-6.812.027,4.041,4.041,0,0,1-1.215-3.113,4.171,4.171,0,0,1,.57-2.211A3.709,3.709,0,0,1,74.719,9.3a5.61,5.61,0,0,1,2.43-.5,5.434,5.434,0,0,1,2.465.523,3.81,3.81,0,0,1,1.6,1.453A3.957,3.957,0,0,1,81.773,12.859Zm-3.375.016q0-1.633-1.25-1.633T75.9,12.953q0,1.8,1.266,1.8Q78.4,14.758,78.4,12.875Zm10.633-1.023a3.2,3.2,0,0,0-1.039-.227q-1.648,0-1.648,1.906V17H83.016V9h3.328v1.406h.031a2.5,2.5,0,0,1,.867-1.152,2.228,2.228,0,0,1,1.313-.395,1.128,1.128,0,0,1,.477.094ZM4,44.547a9.722,9.722,0,0,1-1.984-3.125,10.3,10.3,0,0,1-.641-3.711A10.5,10.5,0,0,1,3.984,30.8H6.609a12.587,12.587,0,0,0-1.738,3.348A11.25,11.25,0,0,0,4.3,37.711a10.909,10.909,0,0,0,.57,3.582,12.229,12.229,0,0,0,1.75,3.254ZM14.219,42H10.43L6.813,30.8h3.633l1.711,6.9a7.712,7.712,0,0,1,.227,1.25h.078a8.621,8.621,0,0,1,.242-1.3L14.367,30.8h3.516Zm7.414-3.055a1.124,1.124,0,0,0,.594.809,2.677,2.677,0,0,0,1.344.293,5.534,5.534,0,0,0,2.2-.445v2.109a7.918,7.918,0,0,1-2.937.484,4.635,4.635,0,0,1-3.258-1.07,3.8,3.8,0,0,1-1.164-2.945,4.859,4.859,0,0,1,.512-2.273,3.682,3.682,0,0,1,1.516-1.543,4.478,4.478,0,0,1,2.215-.559,4.358,4.358,0,0,1,2.125.484,3.227,3.227,0,0,1,1.34,1.359,4.361,4.361,0,0,1,.457,2.047v1.25Zm2-1.742q0-1.383-.992-1.383a.84.84,0,0,0-.7.379,1.891,1.891,0,0,0-.328,1ZM32.914,42V37.633a1.942,1.942,0,0,0-.223-1.066.814.814,0,0,0-.723-.324.782.782,0,0,0-.672.336,1.434,1.434,0,0,0-.242.859V42H27.727V34h3.328v1.25h.031a2.824,2.824,0,0,1,1.07-1.066,2.924,2.924,0,0,1,1.461-.379q2.625,0,2.625,3.313V42Zm10.172,0v-.93h-.031a2.746,2.746,0,0,1-1.039.824,2.961,2.961,0,0,1-1.266.3,3.256,3.256,0,0,1-1.8-.5,3.06,3.06,0,0,1-1.168-1.41,5.427,5.427,0,0,1-.387-2.141,5.267,5.267,0,0,1,.461-2.258,3.608,3.608,0,0,1,1.3-1.531,3.35,3.35,0,0,1,1.875-.547,2.838,2.838,0,0,1,.91.141,2.462,2.462,0,0,1,.727.379,1.131,1.131,0,0,1,.395.473h.031V30.156h3.328V42Zm.07-4.242a1.755,1.755,0,0,0-.316-1.117,1.068,1.068,0,0,0-1.734.1,2.305,2.305,0,0,0-.34,1.324q0,1.7,1.172,1.7a1.042,1.042,0,0,0,.887-.457,2.249,2.249,0,0,0,.332-1.332Zm7.727,1.188a1.124,1.124,0,0,0,.594.809,2.677,2.677,0,0,0,1.344.293,5.534,5.534,0,0,0,2.2-.445v2.109a7.918,7.918,0,0,1-2.937.484,4.635,4.635,0,0,1-3.258-1.07,3.8,3.8,0,0,1-1.164-2.945,4.859,4.859,0,0,1,.512-2.273,3.682,3.682,0,0,1,1.516-1.543,4.478,4.478,0,0,1,2.215-.559,4.358,4.358,0,0,1,2.125.484,3.227,3.227,0,0,1,1.34,1.359,4.361,4.361,0,0,1,.457,2.047v1.25Zm2-1.742q0-1.383-.992-1.383a.84.84,0,0,0-.7.379,1.891,1.891,0,0,0-.328,1ZM62.32,42v-.93h-.031a2.746,2.746,0,0,1-1.039.824,2.961,2.961,0,0,1-1.266.3,3.256,3.256,0,0,1-1.8-.5,3.06,3.06,0,0,1-1.168-1.41,5.427,5.427,0,0,1-.387-2.141,5.267,5.267,0,0,1,.461-2.258,3.608,3.608,0,0,1,1.3-1.531,3.35,3.35,0,0,1,1.875-.547,2.838,2.838,0,0,1,.91.141,2.462,2.462,0,0,1,.727.379,1.131,1.131,0,0,1,.395.473h.031V30.156h3.328V42Zm.07-4.242a1.755,1.755,0,0,0-.316-1.117,1.068,1.068,0,0,0-1.734.1A2.305,2.305,0,0,0,60,38.063q0,1.7,1.172,1.7a1.042,1.042,0,0,0,.887-.457,2.249,2.249,0,0,0,.332-1.332Zm13.758.1a4.166,4.166,0,0,1-1.223,3.18,5.649,5.649,0,0,1-6.812.027A4.041,4.041,0,0,1,66.9,37.953a4.171,4.171,0,0,1,.57-2.211A3.709,3.709,0,0,1,69.094,34.3a5.61,5.61,0,0,1,2.43-.5,5.434,5.434,0,0,1,2.465.523,3.81,3.81,0,0,1,1.6,1.453A3.957,3.957,0,0,1,76.148,37.859Zm-3.375.016q0-1.633-1.25-1.633t-1.25,1.711q0,1.8,1.266,1.8Q72.773,39.758,72.773,37.875Zm10.633-1.023a3.2,3.2,0,0,0-1.039-.227q-1.648,0-1.648,1.906V42H77.391V34h3.328v1.406h.031a2.5,2.5,0,0,1,.867-1.152,2.228,2.228,0,0,1,1.313-.395,1.128,1.128,0,0,1,.477.094Zm5.523.859a10.286,10.286,0,0,1-.645,3.727,9.667,9.667,0,0,1-1.98,3.109H83.68a11.248,11.248,0,0,0,1.777-10.363A12.526,12.526,0,0,0,83.7,30.8H86.32A10.456,10.456,0,0,1,88.93,37.711Z" transform="translate(284 2619)" fill="#12263f"/>
        <line id="Línea_402" data-name="Línea 402" y2="87" transform="translate(395.5 2599.5)" fill="none" stroke="#a2a2a2" stroke-width="2"/>
        <rect id="Rectángulo_337011" data-name="Rectángulo 337011" width="364" height="72" transform="translate(401 2607)" fill="#e6e7e8"/>
        <path id="Trazado_626447" data-name="Trazado 626447" d="M9.316,8.438V17H5.926V8.438H2.793V5.8h9.7V8.438Zm10.227,3.414a3.2,3.2,0,0,0-1.039-.227q-1.648,0-1.648,1.906V17H13.527V9h3.328v1.406h.031a2.5,2.5,0,0,1,.867-1.152,2.228,2.228,0,0,1,1.313-.395,1.128,1.128,0,0,1,.477.094ZM24.941,17V15.781H24.91A2.617,2.617,0,0,1,22.473,17.2a2.334,2.334,0,0,1-1.773-.672,2.5,2.5,0,0,1-.641-1.8q0-2.359,2.9-2.734l1.984-.258a.757.757,0,0,0-.352-.641,1.6,1.6,0,0,0-.945-.25,6.226,6.226,0,0,0-2.836.766V9.445a7.587,7.587,0,0,1,1.625-.461,9.457,9.457,0,0,1,1.672-.18,4.2,4.2,0,0,1,2.957.871,3.883,3.883,0,0,1,.918,2.91V17Zm-1.969-2.719a.737.737,0,0,0,.207.539.789.789,0,0,0,.59.211,1.049,1.049,0,0,0,.848-.391,1.513,1.513,0,0,0,.324-1v-.3l-1.125.156Q22.973,13.633,22.973,14.281ZM34.668,17V12.633a1.942,1.942,0,0,0-.223-1.066.814.814,0,0,0-.723-.324.782.782,0,0,0-.672.336,1.434,1.434,0,0,0-.242.859V17H29.48V9h3.328v1.25h.031a2.824,2.824,0,0,1,1.07-1.066A2.924,2.924,0,0,1,35.371,8.8Q38,8.8,38,12.117V17ZM46,14.344a2.444,2.444,0,0,1-1.035,2.105,4.866,4.866,0,0,1-2.887.746,10.037,10.037,0,0,1-1.332-.109,8.229,8.229,0,0,1-1.293-.266V14.484a6.366,6.366,0,0,0,2.469.656q.977,0,.977-.508a.4.4,0,0,0-.227-.348,8.008,8.008,0,0,0-1.187-.457,3.353,3.353,0,0,1-1.547-.891,2.118,2.118,0,0,1-.484-1.445,2.306,2.306,0,0,1,.988-1.965A4.637,4.637,0,0,1,43.215,8.8a8.828,8.828,0,0,1,2.219.3v2.242A6.71,6.71,0,0,0,44.355,11a4.355,4.355,0,0,0-.984-.141,1.072,1.072,0,0,0-.523.109.336.336,0,0,0-.2.3.425.425,0,0,0,.211.367,3.731,3.731,0,0,0,.844.336,3.915,3.915,0,0,1,1.758.922A2.02,2.02,0,0,1,46,14.344Zm10.25-1.586a5.692,5.692,0,0,1-.445,2.32,3.6,3.6,0,0,1-1.258,1.563,3.168,3.168,0,0,1-1.828.555,2.449,2.449,0,0,1-2.133-1.023h-.031V20.68H47.223V9h3.328v1.086h.031a2.819,2.819,0,0,1,1.031-.941,2.99,2.99,0,0,1,1.438-.34,2.858,2.858,0,0,1,2.371,1.031A4.576,4.576,0,0,1,56.246,12.758Zm-3.375.1a2.085,2.085,0,0,0-.293-1.187,1.1,1.1,0,0,0-1.762.023,2.081,2.081,0,0,0-.328,1.242v.156A2.277,2.277,0,0,0,50.77,14.3a.928.928,0,0,0,.844.453,1.051,1.051,0,0,0,.93-.5A2.533,2.533,0,0,0,52.871,12.859Zm13.523,0a4.166,4.166,0,0,1-1.223,3.18,5.649,5.649,0,0,1-6.812.027,4.041,4.041,0,0,1-1.215-3.113,4.171,4.171,0,0,1,.57-2.211A3.709,3.709,0,0,1,59.34,9.3a5.61,5.61,0,0,1,2.43-.5,5.434,5.434,0,0,1,2.465.523,3.81,3.81,0,0,1,1.6,1.453A3.957,3.957,0,0,1,66.395,12.859Zm-3.375.016q0-1.633-1.25-1.633t-1.25,1.711q0,1.8,1.266,1.8Q63.02,14.758,63.02,12.875Zm10.633-1.023a3.2,3.2,0,0,0-1.039-.227q-1.648,0-1.648,1.906V17H67.637V9h3.328v1.406H71a2.5,2.5,0,0,1,.867-1.152,2.228,2.228,0,0,1,1.313-.395,1.128,1.128,0,0,1,.477.094Zm6.594,5.039a3.242,3.242,0,0,1-.742.207,6.786,6.786,0,0,1-1.242.1,2.984,2.984,0,0,1-2.176-.766,2.906,2.906,0,0,1-.785-2.18V11.3H74.043V9H75.3V7.43l3.281-.906V9h1.664v2.3H78.582v2.4q0,1.055.836,1.055a2.268,2.268,0,0,0,.828-.172Zm3.906-2.945a1.124,1.124,0,0,0,.594.809,2.677,2.677,0,0,0,1.344.293,5.534,5.534,0,0,0,2.2-.445v2.109a7.918,7.918,0,0,1-2.937.484,4.635,4.635,0,0,1-3.258-1.07,3.8,3.8,0,0,1-1.164-2.945,4.859,4.859,0,0,1,.512-2.273,3.682,3.682,0,0,1,1.516-1.543A4.478,4.478,0,0,1,85.176,8.8a4.358,4.358,0,0,1,2.125.484,3.227,3.227,0,0,1,1.34,1.359A4.361,4.361,0,0,1,89.1,12.7v1.25Zm2-1.742q0-1.383-.992-1.383a.84.84,0,0,0-.7.379,1.891,1.891,0,0,0-.328,1ZM28.348,42V30.156h3.328V42Zm13.828-4.141a4.166,4.166,0,0,1-1.223,3.18A4.778,4.778,0,0,1,37.535,42.2a4.8,4.8,0,0,1-3.395-1.129,4.041,4.041,0,0,1-1.215-3.113,4.171,4.171,0,0,1,.57-2.211A3.709,3.709,0,0,1,35.121,34.3a5.61,5.61,0,0,1,2.43-.5,5.434,5.434,0,0,1,2.465.523,3.81,3.81,0,0,1,1.6,1.453A3.957,3.957,0,0,1,42.176,37.859Zm-3.375.016q0-1.633-1.25-1.633T36.3,37.953q0,1.8,1.266,1.8Q38.8,39.758,38.8,37.875Zm11.211,3.9a3.137,3.137,0,0,1-1.008.3,9.528,9.528,0,0,1-1.586.117,4.878,4.878,0,0,1-2.262-.512,3.734,3.734,0,0,1-1.543-1.434,3.98,3.98,0,0,1-.547-2.07,4.534,4.534,0,0,1,.582-2.355,3.794,3.794,0,0,1,1.66-1.5,5.7,5.7,0,0,1,2.5-.52,8.746,8.746,0,0,1,1.4.1,2.143,2.143,0,0,1,.8.234v2.594a2.311,2.311,0,0,0-.719-.344,2.887,2.887,0,0,0-.867-.148,2.112,2.112,0,0,0-1.48.465,1.692,1.692,0,0,0-.5,1.309,1.66,1.66,0,0,0,.5,1.285,1.935,1.935,0,0,0,1.363.457,3.4,3.4,0,0,0,1.711-.445ZM55.777,42V40.781h-.031A2.617,2.617,0,0,1,53.309,42.2a2.334,2.334,0,0,1-1.773-.672,2.5,2.5,0,0,1-.641-1.8q0-2.359,2.9-2.734l1.984-.258a.757.757,0,0,0-.352-.641,1.6,1.6,0,0,0-.945-.25,6.226,6.226,0,0,0-2.836.766V34.445a7.587,7.587,0,0,1,1.625-.461,9.457,9.457,0,0,1,1.672-.18,4.2,4.2,0,0,1,2.957.871,3.883,3.883,0,0,1,.918,2.91V42Zm-1.969-2.719a.737.737,0,0,0,.207.539.789.789,0,0,0,.59.211,1.049,1.049,0,0,0,.848-.391,1.513,1.513,0,0,0,.324-1v-.3l-1.125.156Q53.809,38.633,53.809,39.281ZM60.316,42V30.156h3.328V42Z" transform="translate(399 2619)" fill="#12263f"/>
        <path id="Trazado_626445" data-name="Trazado 626445" d="M20.348,11.367a6.2,6.2,0,0,1-.727,3.02,5.18,5.18,0,0,1-2.031,2.07,5.828,5.828,0,0,1-2.922.738A5.834,5.834,0,0,1,11.8,16.48a5.059,5.059,0,0,1-2.012-2.008,5.919,5.919,0,0,1-.719-2.926,6.456,6.456,0,0,1,.727-3.078,5.162,5.162,0,0,1,2.039-2.113,5.932,5.932,0,0,1,2.984-.746,5.765,5.765,0,0,1,2.879.715,4.874,4.874,0,0,1,1.961,2.039A6.393,6.393,0,0,1,20.348,11.367Zm-3.578.094a3.889,3.889,0,0,0-.531-2.18,1.66,1.66,0,0,0-1.453-.8,1.837,1.837,0,0,0-1.57.766,3.6,3.6,0,0,0-.562,2.164,3.562,3.562,0,0,0,.559,2.133,1.782,1.782,0,0,0,1.52.766,1.74,1.74,0,0,0,1.055-.344,2.2,2.2,0,0,0,.727-.984A4.073,4.073,0,0,0,16.77,11.461Zm13.883,1.3a5.692,5.692,0,0,1-.445,2.32,3.6,3.6,0,0,1-1.258,1.563,3.168,3.168,0,0,1-1.828.555,2.449,2.449,0,0,1-2.133-1.023h-.031V20.68H21.629V9h3.328v1.086h.031a2.819,2.819,0,0,1,1.031-.941,2.99,2.99,0,0,1,1.438-.34,2.858,2.858,0,0,1,2.371,1.031A4.576,4.576,0,0,1,30.652,12.758Zm-3.375.1a2.085,2.085,0,0,0-.293-1.187,1.1,1.1,0,0,0-1.762.023,2.081,2.081,0,0,0-.328,1.242v.156a2.277,2.277,0,0,0,.281,1.211.928.928,0,0,0,.844.453,1.051,1.051,0,0,0,.93-.5A2.533,2.533,0,0,0,27.277,12.859Zm7.492,1.086a1.124,1.124,0,0,0,.594.809,2.677,2.677,0,0,0,1.344.293,5.534,5.534,0,0,0,2.2-.445v2.109a7.918,7.918,0,0,1-2.937.484,4.635,4.635,0,0,1-3.258-1.07,3.8,3.8,0,0,1-1.164-2.945,4.859,4.859,0,0,1,.512-2.273,3.682,3.682,0,0,1,1.516-1.543A4.478,4.478,0,0,1,35.793,8.8a4.358,4.358,0,0,1,2.125.484,3.227,3.227,0,0,1,1.34,1.359,4.361,4.361,0,0,1,.457,2.047v1.25Zm2-1.742q0-1.383-.992-1.383a.84.84,0,0,0-.7.379,1.891,1.891,0,0,0-.328,1Zm10.109-.352a3.2,3.2,0,0,0-1.039-.227q-1.648,0-1.648,1.906V17H40.863V9h3.328v1.406h.031a2.5,2.5,0,0,1,.867-1.152A2.228,2.228,0,0,1,46.4,8.859a1.128,1.128,0,0,1,.477.094ZM52.277,17V15.781h-.031A2.617,2.617,0,0,1,49.809,17.2a2.334,2.334,0,0,1-1.773-.672,2.5,2.5,0,0,1-.641-1.8q0-2.359,2.9-2.734l1.984-.258a.757.757,0,0,0-.352-.641,1.6,1.6,0,0,0-.945-.25,6.226,6.226,0,0,0-2.836.766V9.445a7.587,7.587,0,0,1,1.625-.461,9.457,9.457,0,0,1,1.672-.18,4.2,4.2,0,0,1,2.957.871,3.883,3.883,0,0,1,.918,2.91V17Zm-1.969-2.719a.737.737,0,0,0,.207.539.789.789,0,0,0,.59.211,1.049,1.049,0,0,0,.848-.391,1.513,1.513,0,0,0,.324-1v-.3l-1.125.156Q50.309,13.633,50.309,14.281ZM62.16,17v-.93h-.031a2.746,2.746,0,0,1-1.039.824,2.961,2.961,0,0,1-1.266.3,3.256,3.256,0,0,1-1.8-.5,3.06,3.06,0,0,1-1.168-1.41,5.427,5.427,0,0,1-.387-2.141,5.267,5.267,0,0,1,.461-2.258,3.608,3.608,0,0,1,1.3-1.531A3.35,3.35,0,0,1,60.1,8.8a2.838,2.838,0,0,1,.91.141,2.462,2.462,0,0,1,.727.379,1.131,1.131,0,0,1,.395.473h.031V5.156h3.328V17Zm.07-4.242a1.755,1.755,0,0,0-.316-1.117,1.068,1.068,0,0,0-1.734.1,2.3,2.3,0,0,0-.34,1.324q0,1.7,1.172,1.7A1.042,1.042,0,0,0,61.9,14.3a2.249,2.249,0,0,0,.332-1.332Zm13.758.1a4.166,4.166,0,0,1-1.223,3.18,5.649,5.649,0,0,1-6.812.027,4.041,4.041,0,0,1-1.215-3.113,4.171,4.171,0,0,1,.57-2.211A3.709,3.709,0,0,1,68.934,9.3a5.61,5.61,0,0,1,2.43-.5,5.434,5.434,0,0,1,2.465.523,3.81,3.81,0,0,1,1.6,1.453A3.957,3.957,0,0,1,75.988,12.859Zm-3.375.016q0-1.633-1.25-1.633t-1.25,1.711q0,1.8,1.266,1.8Q72.613,14.758,72.613,12.875Zm10.633-1.023a3.2,3.2,0,0,0-1.039-.227q-1.648,0-1.648,1.906V17H77.23V9h3.328v1.406h.031a2.5,2.5,0,0,1,.867-1.152,2.228,2.228,0,0,1,1.313-.395,1.128,1.128,0,0,1,.477.094ZM18.738,42v-.93h-.031a2.746,2.746,0,0,1-1.039.824,2.961,2.961,0,0,1-1.266.3,3.256,3.256,0,0,1-1.8-.5,3.06,3.06,0,0,1-1.168-1.41,5.427,5.427,0,0,1-.387-2.141,5.267,5.267,0,0,1,.461-2.258,3.608,3.608,0,0,1,1.3-1.531,3.35,3.35,0,0,1,1.875-.547,2.838,2.838,0,0,1,.91.141,2.462,2.462,0,0,1,.727.379,1.131,1.131,0,0,1,.395.473h.031V30.156h3.328V42Zm.07-4.242a1.755,1.755,0,0,0-.316-1.117,1.068,1.068,0,0,0-1.734.1,2.305,2.305,0,0,0-.34,1.324q0,1.7,1.172,1.7a1.042,1.042,0,0,0,.887-.457,2.249,2.249,0,0,0,.332-1.332Zm7.727,1.188a1.124,1.124,0,0,0,.594.809,2.677,2.677,0,0,0,1.344.293,5.534,5.534,0,0,0,2.2-.445v2.109a7.918,7.918,0,0,1-2.937.484,4.635,4.635,0,0,1-3.258-1.07,3.8,3.8,0,0,1-1.164-2.945,4.859,4.859,0,0,1,.512-2.273,3.682,3.682,0,0,1,1.516-1.543,4.478,4.478,0,0,1,2.215-.559,4.358,4.358,0,0,1,2.125.484,3.227,3.227,0,0,1,1.34,1.359A4.361,4.361,0,0,1,31.48,37.7v1.25Zm2-1.742q0-1.383-.992-1.383a.84.84,0,0,0-.7.379,1.891,1.891,0,0,0-.328,1Zm15.133,4.57a3.137,3.137,0,0,1-1.008.3,9.528,9.528,0,0,1-1.586.117,4.878,4.878,0,0,1-2.262-.512A3.734,3.734,0,0,1,37.27,40.25a3.98,3.98,0,0,1-.547-2.07,4.534,4.534,0,0,1,.582-2.355,3.794,3.794,0,0,1,1.66-1.5,5.7,5.7,0,0,1,2.5-.52,8.746,8.746,0,0,1,1.4.1,2.143,2.143,0,0,1,.8.234v2.594a2.311,2.311,0,0,0-.719-.344,2.887,2.887,0,0,0-.867-.148,2.112,2.112,0,0,0-1.48.465,1.692,1.692,0,0,0-.5,1.309,1.66,1.66,0,0,0,.5,1.285,1.935,1.935,0,0,0,1.363.457,3.4,3.4,0,0,0,1.711-.445ZM49.434,42V40.781H49.4A2.617,2.617,0,0,1,46.965,42.2a2.334,2.334,0,0,1-1.773-.672,2.5,2.5,0,0,1-.641-1.8q0-2.359,2.9-2.734l1.984-.258a.757.757,0,0,0-.352-.641,1.6,1.6,0,0,0-.945-.25,6.226,6.226,0,0,0-2.836.766V34.445a7.587,7.587,0,0,1,1.625-.461A9.457,9.457,0,0,1,48.6,33.8a4.2,4.2,0,0,1,2.957.871,3.883,3.883,0,0,1,.918,2.91V42Zm-1.969-2.719a.737.737,0,0,0,.207.539.789.789,0,0,0,.59.211,1.049,1.049,0,0,0,.848-.391,1.513,1.513,0,0,0,.324-1v-.3l-1.125.156Q47.465,38.633,47.465,39.281Zm12.523-2.43a3.2,3.2,0,0,0-1.039-.227q-1.648,0-1.648,1.906V42H53.973V34H57.3v1.406h.031a2.5,2.5,0,0,1,.867-1.152,2.228,2.228,0,0,1,1.313-.395,1.128,1.128,0,0,1,.477.094Zm9.633,4.031a4.548,4.548,0,0,1-1.449,3.59,6.189,6.189,0,0,1-4.23,1.285,8.827,8.827,0,0,1-1.453-.117,4,4,0,0,1-1.008-.266V42.766a5.027,5.027,0,0,0,2.367.688,2.775,2.775,0,0,0,1.789-.539,1.741,1.741,0,0,0,.672-1.43v-.492h-.031a2.586,2.586,0,0,1-.988.875,2.871,2.871,0,0,1-1.348.328A3.02,3.02,0,0,1,61.5,41.121a4.484,4.484,0,0,1-.9-2.965,5.3,5.3,0,0,1,.469-2.289,3.572,3.572,0,0,1,1.3-1.527,3.35,3.35,0,0,1,1.844-.535,2.307,2.307,0,0,1,2.063,1.023h.031V34h3.313Zm-3.258-3.109a1.8,1.8,0,0,0-.316-1.117,1,1,0,0,0-.84-.414,1.034,1.034,0,0,0-.9.5,2.361,2.361,0,0,0-.336,1.336,2.312,2.312,0,0,0,.281,1.227.971.971,0,0,0,.891.453,1.032,1.032,0,0,0,.895-.465,2.141,2.141,0,0,0,.324-1.246ZM75.66,42V40.781h-.031A2.617,2.617,0,0,1,73.191,42.2a2.334,2.334,0,0,1-1.773-.672,2.5,2.5,0,0,1-.641-1.8q0-2.359,2.9-2.734l1.984-.258a.757.757,0,0,0-.352-.641,1.6,1.6,0,0,0-.945-.25,6.226,6.226,0,0,0-2.836.766V34.445a7.587,7.587,0,0,1,1.625-.461,9.457,9.457,0,0,1,1.672-.18,4.2,4.2,0,0,1,2.957.871,3.883,3.883,0,0,1,.918,2.91V42Zm-1.969-2.719a.737.737,0,0,0,.207.539.789.789,0,0,0,.59.211,1.049,1.049,0,0,0,.848-.391,1.513,1.513,0,0,0,.324-1v-.3l-1.125.156Q73.691,38.633,73.691,39.281Z" transform="translate(589 2619)" fill="#12263f"/>
        <path id="Trazado_626444" data-name="Trazado 626444" d="M14.68,8.438V17H11.289V8.438H8.156V5.8h9.7V8.438Zm7.078,5.508a1.124,1.124,0,0,0,.594.809,2.677,2.677,0,0,0,1.344.293,5.534,5.534,0,0,0,2.2-.445v2.109a7.918,7.918,0,0,1-2.937.484,4.635,4.635,0,0,1-3.258-1.07,3.8,3.8,0,0,1-1.164-2.945,4.859,4.859,0,0,1,.512-2.273,3.682,3.682,0,0,1,1.516-1.543A4.478,4.478,0,0,1,22.781,8.8a4.358,4.358,0,0,1,2.125.484,3.227,3.227,0,0,1,1.34,1.359A4.361,4.361,0,0,1,26.7,12.7v1.25Zm2-1.742q0-1.383-.992-1.383a.84.84,0,0,0-.7.379,1.891,1.891,0,0,0-.328,1Zm10.109-.352a3.2,3.2,0,0,0-1.039-.227q-1.648,0-1.648,1.906V17H27.852V9H31.18v1.406h.031a2.5,2.5,0,0,1,.867-1.152,2.228,2.228,0,0,1,1.313-.395,1.128,1.128,0,0,1,.477.094ZM45.2,17V12.391A1.47,1.47,0,0,0,45,11.527a.778.778,0,0,0-.676-.285.844.844,0,0,0-.719.348,1.591,1.591,0,0,0-.258.965V17H40.016V12.469q0-1.227-.836-1.227a.885.885,0,0,0-.766.355,1.719,1.719,0,0,0-.258,1.02V17H34.828V9h3.328v1.266h.031a2.579,2.579,0,0,1,.6-.684,3.508,3.508,0,0,1,.926-.562A2.876,2.876,0,0,1,40.828,8.8a2.828,2.828,0,0,1,1.434.336,2.605,2.605,0,0,1,.973,1.063,2.851,2.851,0,0,1,1.125-1.035A3.353,3.353,0,0,1,45.922,8.8a2.351,2.351,0,0,1,1.93.82,3.653,3.653,0,0,1,.672,2.367V17ZM53.555,6.844a1.429,1.429,0,0,1-.512,1.141,2,2,0,0,1-1.348.438,1.953,1.953,0,0,1-1.332-.453,1.433,1.433,0,0,1-.52-1.125,1.388,1.388,0,0,1,.5-1.113,2.346,2.346,0,0,1,2.7,0A1.379,1.379,0,0,1,53.555,6.844ZM50.031,17V9h3.328v8Zm10.117,0V12.633a1.942,1.942,0,0,0-.223-1.066.814.814,0,0,0-.723-.324.782.782,0,0,0-.672.336,1.434,1.434,0,0,0-.242.859V17H54.961V9h3.328v1.25h.031a2.824,2.824,0,0,1,1.07-1.066A2.924,2.924,0,0,1,60.852,8.8q2.625,0,2.625,3.313V17Zm9.266,0V15.781h-.031A2.617,2.617,0,0,1,66.945,17.2a2.334,2.334,0,0,1-1.773-.672,2.5,2.5,0,0,1-.641-1.8q0-2.359,2.9-2.734l1.984-.258a.757.757,0,0,0-.352-.641,1.6,1.6,0,0,0-.945-.25,6.226,6.226,0,0,0-2.836.766V9.445a7.587,7.587,0,0,1,1.625-.461,9.457,9.457,0,0,1,1.672-.18,4.2,4.2,0,0,1,2.957.871,3.883,3.883,0,0,1,.918,2.91V17Zm-1.969-2.719a.737.737,0,0,0,.207.539.789.789,0,0,0,.59.211,1.049,1.049,0,0,0,.848-.391,1.513,1.513,0,0,0,.324-1v-.3l-1.125.156Q67.445,13.633,67.445,14.281ZM73.953,17V5.156h3.328V17ZM15.738,42v-.93h-.031a2.746,2.746,0,0,1-1.039.824,2.961,2.961,0,0,1-1.266.3,3.256,3.256,0,0,1-1.8-.5,3.06,3.06,0,0,1-1.168-1.41,5.427,5.427,0,0,1-.387-2.141,5.267,5.267,0,0,1,.461-2.258,3.608,3.608,0,0,1,1.3-1.531,3.35,3.35,0,0,1,1.875-.547,2.838,2.838,0,0,1,.91.141,2.462,2.462,0,0,1,.727.379,1.131,1.131,0,0,1,.395.473h.031V30.156h3.328V42Zm.07-4.242a1.755,1.755,0,0,0-.316-1.117,1.068,1.068,0,0,0-1.734.1,2.305,2.305,0,0,0-.34,1.324q0,1.7,1.172,1.7a1.042,1.042,0,0,0,.887-.457,2.249,2.249,0,0,0,.332-1.332Zm7.727,1.188a1.124,1.124,0,0,0,.594.809,2.677,2.677,0,0,0,1.344.293,5.534,5.534,0,0,0,2.2-.445v2.109a7.918,7.918,0,0,1-2.937.484,4.635,4.635,0,0,1-3.258-1.07,3.8,3.8,0,0,1-1.164-2.945,4.859,4.859,0,0,1,.512-2.273,3.682,3.682,0,0,1,1.516-1.543,4.478,4.478,0,0,1,2.215-.559,4.358,4.358,0,0,1,2.125.484,3.227,3.227,0,0,1,1.34,1.359A4.361,4.361,0,0,1,28.48,37.7v1.25Zm2-1.742q0-1.383-.992-1.383a.84.84,0,0,0-.7.379,1.891,1.891,0,0,0-.328,1Zm15.133,4.57a3.137,3.137,0,0,1-1.008.3,9.528,9.528,0,0,1-1.586.117,4.878,4.878,0,0,1-2.262-.512A3.734,3.734,0,0,1,34.27,40.25a3.98,3.98,0,0,1-.547-2.07,4.534,4.534,0,0,1,.582-2.355,3.794,3.794,0,0,1,1.66-1.5,5.7,5.7,0,0,1,2.5-.52,8.746,8.746,0,0,1,1.4.1,2.143,2.143,0,0,1,.8.234v2.594a2.311,2.311,0,0,0-.719-.344,2.887,2.887,0,0,0-.867-.148,2.112,2.112,0,0,0-1.48.465,1.692,1.692,0,0,0-.5,1.309,1.66,1.66,0,0,0,.5,1.285,1.935,1.935,0,0,0,1.363.457,3.4,3.4,0,0,0,1.711-.445ZM46.434,42V40.781H46.4A2.617,2.617,0,0,1,43.965,42.2a2.334,2.334,0,0,1-1.773-.672,2.5,2.5,0,0,1-.641-1.8q0-2.359,2.9-2.734l1.984-.258a.757.757,0,0,0-.352-.641,1.6,1.6,0,0,0-.945-.25,6.226,6.226,0,0,0-2.836.766V34.445a7.587,7.587,0,0,1,1.625-.461A9.457,9.457,0,0,1,45.6,33.8a4.2,4.2,0,0,1,2.957.871,3.883,3.883,0,0,1,.918,2.91V42Zm-1.969-2.719a.737.737,0,0,0,.207.539.789.789,0,0,0,.59.211,1.049,1.049,0,0,0,.848-.391,1.513,1.513,0,0,0,.324-1v-.3l-1.125.156Q44.465,38.633,44.465,39.281Zm12.523-2.43a3.2,3.2,0,0,0-1.039-.227q-1.648,0-1.648,1.906V42H50.973V34H54.3v1.406h.031a2.5,2.5,0,0,1,.867-1.152,2.228,2.228,0,0,1,1.313-.395,1.128,1.128,0,0,1,.477.094Zm9.633,4.031a4.548,4.548,0,0,1-1.449,3.59,6.189,6.189,0,0,1-4.23,1.285,8.827,8.827,0,0,1-1.453-.117,4,4,0,0,1-1.008-.266V42.766a5.027,5.027,0,0,0,2.367.688,2.775,2.775,0,0,0,1.789-.539,1.741,1.741,0,0,0,.672-1.43v-.492h-.031a2.586,2.586,0,0,1-.988.875,2.871,2.871,0,0,1-1.348.328A3.02,3.02,0,0,1,58.5,41.121a4.484,4.484,0,0,1-.9-2.965,5.3,5.3,0,0,1,.469-2.289,3.572,3.572,0,0,1,1.3-1.527,3.35,3.35,0,0,1,1.844-.535,2.307,2.307,0,0,1,2.063,1.023h.031V34h3.313Zm-3.258-3.109a1.8,1.8,0,0,0-.316-1.117,1,1,0,0,0-.84-.414,1.034,1.034,0,0,0-.9.5,2.361,2.361,0,0,0-.336,1.336,2.312,2.312,0,0,0,.281,1.227.971.971,0,0,0,.891.453,1.032,1.032,0,0,0,.895-.465,2.141,2.141,0,0,0,.324-1.246ZM72.66,42V40.781h-.031A2.617,2.617,0,0,1,70.191,42.2a2.334,2.334,0,0,1-1.773-.672,2.5,2.5,0,0,1-.641-1.8q0-2.359,2.9-2.734l1.984-.258a.757.757,0,0,0-.352-.641,1.6,1.6,0,0,0-.945-.25,6.226,6.226,0,0,0-2.836.766V34.445a7.587,7.587,0,0,1,1.625-.461,9.457,9.457,0,0,1,1.672-.18,4.2,4.2,0,0,1,2.957.871,3.883,3.883,0,0,1,.918,2.91V42Zm-1.969-2.719a.737.737,0,0,0,.207.539.789.789,0,0,0,.59.211,1.049,1.049,0,0,0,.848-.391,1.513,1.513,0,0,0,.324-1v-.3l-1.125.156Q70.691,38.633,70.691,39.281Z" transform="translate(679 2619)" fill="#12263f"/>
        <line id="Línea_403" data-name="Línea 403" y2="87" transform="translate(494.5 2599.5)" fill="none" stroke="#a2a2a2" stroke-width="2"/>
        <line id="Línea_404" data-name="Línea 404" y2="87" transform="translate(588.5 2599.5)" fill="none" stroke="#a2a2a2" stroke-width="2"/>
        <line id="Línea_405" data-name="Línea 405" y2="87" transform="translate(679.5 2599.5)" fill="none" stroke="#a2a2a2" stroke-width="2"/>
        <rect id="Rectángulo_337010" data-name="Rectángulo 337010" width="504" height="39" transform="translate(266 2555)" fill="#e6e7e8"/>
        <path id="Trazado_626449" data-name="Trazado 626449" d="M22.1,12.663a6.977,6.977,0,0,1-.817,3.4,5.828,5.828,0,0,1-2.285,2.329,6.557,6.557,0,0,1-3.287.831,6.563,6.563,0,0,1-3.23-.8,5.691,5.691,0,0,1-2.263-2.259,6.659,6.659,0,0,1-.809-3.292A7.263,7.263,0,0,1,10.223,9.4a5.807,5.807,0,0,1,2.294-2.377,6.673,6.673,0,0,1,3.357-.839,6.486,6.486,0,0,1,3.239.8,5.483,5.483,0,0,1,2.206,2.294A7.192,7.192,0,0,1,22.1,12.663Zm-4.025.105a4.375,4.375,0,0,0-.6-2.452,1.867,1.867,0,0,0-1.635-.9,2.067,2.067,0,0,0-1.767.861,4.054,4.054,0,0,0-.633,2.435,4.007,4.007,0,0,0,.628,2.4,2,2,0,0,0,1.709.861,1.957,1.957,0,0,0,1.187-.387,2.477,2.477,0,0,0,.817-1.107A4.582,4.582,0,0,0,18.071,12.769Zm15.618,1.459a6.4,6.4,0,0,1-.5,2.61A4.046,4.046,0,0,1,31.773,18.6a3.564,3.564,0,0,1-2.057.624,2.755,2.755,0,0,1-2.4-1.151h-.035V23.14H23.538V10h3.744v1.222h.035a3.171,3.171,0,0,1,1.16-1.059,3.364,3.364,0,0,1,1.617-.382,3.215,3.215,0,0,1,2.667,1.16A5.147,5.147,0,0,1,33.689,14.228Zm-3.8.114a2.346,2.346,0,0,0-.33-1.336,1.237,1.237,0,0,0-1.982.026,2.341,2.341,0,0,0-.369,1.4v.176a2.562,2.562,0,0,0,.316,1.362,1.044,1.044,0,0,0,.949.51,1.182,1.182,0,0,0,1.046-.558A2.849,2.849,0,0,0,29.893,14.342Zm8.429,1.222a1.265,1.265,0,0,0,.668.91,3.012,3.012,0,0,0,1.512.33,6.226,6.226,0,0,0,2.479-.5v2.373a8.908,8.908,0,0,1-3.3.545,5.214,5.214,0,0,1-3.665-1.2A4.277,4.277,0,0,1,34.7,14.7a5.467,5.467,0,0,1,.576-2.558,4.142,4.142,0,0,1,1.705-1.736,5.038,5.038,0,0,1,2.492-.628,4.9,4.9,0,0,1,2.391.545,3.63,3.63,0,0,1,1.507,1.529,4.906,4.906,0,0,1,.514,2.3v1.406Zm2.25-1.96q0-1.556-1.116-1.556a.944.944,0,0,0-.782.426A2.127,2.127,0,0,0,38.3,13.6Zm11.373-.4a3.6,3.6,0,0,0-1.169-.255q-1.854,0-1.854,2.145V19H45.177V10h3.744v1.582h.035a2.81,2.81,0,0,1,.976-1.3,2.506,2.506,0,0,1,1.477-.444,1.269,1.269,0,0,1,.536.105ZM58.018,19V17.629h-.035A2.944,2.944,0,0,1,55.24,19.22a2.625,2.625,0,0,1-2-.756,2.808,2.808,0,0,1-.721-2.021q0-2.654,3.261-3.076l2.232-.29a.851.851,0,0,0-.4-.721,1.8,1.8,0,0,0-1.063-.281,7,7,0,0,0-3.19.861V10.5A8.535,8.535,0,0,1,55.2,9.982a10.639,10.639,0,0,1,1.881-.2,4.722,4.722,0,0,1,3.327.98,4.368,4.368,0,0,1,1.033,3.274V19ZM55.8,15.941a.83.83,0,0,0,.233.606.888.888,0,0,0,.664.237,1.18,1.18,0,0,0,.954-.439,1.7,1.7,0,0,0,.365-1.125v-.343l-1.266.176Q55.8,15.212,55.8,15.941ZM69.136,19V17.954H69.1a3.089,3.089,0,0,1-1.169.927,3.331,3.331,0,0,1-1.424.338,3.663,3.663,0,0,1-2.03-.567,3.443,3.443,0,0,1-1.314-1.586,6.106,6.106,0,0,1-.435-2.408,5.925,5.925,0,0,1,.519-2.54A4.059,4.059,0,0,1,64.706,10.4a3.769,3.769,0,0,1,2.109-.615,3.193,3.193,0,0,1,1.024.158,2.77,2.77,0,0,1,.817.426,1.273,1.273,0,0,1,.444.532h.035V5.676H72.88V19Zm.079-4.772a1.974,1.974,0,0,0-.356-1.257,1.2,1.2,0,0,0-1.951.11,2.593,2.593,0,0,0-.382,1.49q0,1.907,1.318,1.907a1.173,1.173,0,0,0,1-.514,2.531,2.531,0,0,0,.374-1.5Zm15.478.114a4.687,4.687,0,0,1-1.375,3.577,6.355,6.355,0,0,1-7.664.031,4.546,4.546,0,0,1-1.367-3.5,4.692,4.692,0,0,1,.642-2.487,4.172,4.172,0,0,1,1.828-1.617,6.311,6.311,0,0,1,2.733-.562,6.113,6.113,0,0,1,2.773.589A4.286,4.286,0,0,1,84.064,12,4.452,4.452,0,0,1,84.692,14.342Zm-3.8.018q0-1.837-1.406-1.837t-1.406,1.925q0,2.03,1.424,2.03Q80.9,16.478,80.9,14.359Zm11.962-1.151a3.6,3.6,0,0,0-1.169-.255q-1.854,0-1.854,2.145V19H86.09V10h3.744v1.582h.035a2.81,2.81,0,0,1,.976-1.3,2.506,2.506,0,0,1,1.477-.444,1.269,1.269,0,0,1,.536.105Zm4.307,2.355a1.265,1.265,0,0,0,.668.91,3.012,3.012,0,0,0,1.512.33,6.226,6.226,0,0,0,2.479-.5v2.373a8.908,8.908,0,0,1-3.3.545,5.214,5.214,0,0,1-3.665-1.2,4.277,4.277,0,0,1-1.31-3.313,5.467,5.467,0,0,1,.576-2.558,4.142,4.142,0,0,1,1.705-1.736,5.038,5.038,0,0,1,2.492-.628,4.9,4.9,0,0,1,2.391.545,3.63,3.63,0,0,1,1.507,1.529,4.906,4.906,0,0,1,.514,2.3v1.406Zm2.25-1.96q0-1.556-1.116-1.556a.944.944,0,0,0-.782.426,2.127,2.127,0,0,0-.369,1.129Zm11.918,2.408a2.749,2.749,0,0,1-1.165,2.369,5.474,5.474,0,0,1-3.248.839,11.291,11.291,0,0,1-1.5-.123,9.257,9.257,0,0,1-1.455-.3V16.17a7.162,7.162,0,0,0,2.777.738q1.1,0,1.1-.571a.451.451,0,0,0-.255-.391,9.009,9.009,0,0,0-1.336-.514,3.773,3.773,0,0,1-1.74-1,2.382,2.382,0,0,1-.545-1.626,2.594,2.594,0,0,1,1.112-2.21A5.216,5.216,0,0,1,108.2,9.78a9.931,9.931,0,0,1,2.5.343v2.522a7.549,7.549,0,0,0-1.213-.4,4.9,4.9,0,0,0-1.107-.158,1.205,1.205,0,0,0-.589.123.379.379,0,0,0-.22.343.478.478,0,0,0,.237.413,4.2,4.2,0,0,0,.949.378,4.4,4.4,0,0,1,1.978,1.037A2.272,2.272,0,0,1,111.332,16.012ZM117.713,19V5.676h3.744V19Zm15.557-4.658a4.687,4.687,0,0,1-1.375,3.577,6.355,6.355,0,0,1-7.664.031,4.546,4.546,0,0,1-1.367-3.5,4.692,4.692,0,0,1,.642-2.487,4.172,4.172,0,0,1,1.828-1.617,6.311,6.311,0,0,1,2.733-.562,6.113,6.113,0,0,1,2.773.589,4.286,4.286,0,0,1,1.8,1.635A4.452,4.452,0,0,1,133.27,14.342Zm-3.8.018q0-1.837-1.406-1.837t-1.406,1.925q0,2.03,1.424,2.03Q129.473,16.478,129.473,14.359Zm14.95,3.384a5.116,5.116,0,0,1-1.63,4.039,6.962,6.962,0,0,1-4.759,1.446A9.93,9.93,0,0,1,136.4,23.1a4.5,4.5,0,0,1-1.134-.3V19.861a5.656,5.656,0,0,0,2.663.773,3.122,3.122,0,0,0,2.013-.606,1.959,1.959,0,0,0,.756-1.608v-.554h-.035a2.909,2.909,0,0,1-1.112.984,3.23,3.23,0,0,1-1.516.369,3.4,3.4,0,0,1-2.751-1.208,5.045,5.045,0,0,1-1.011-3.335A5.964,5.964,0,0,1,134.8,12.1a4.018,4.018,0,0,1,1.468-1.718,3.769,3.769,0,0,1,2.074-.6,2.6,2.6,0,0,1,2.32,1.151h.035V10h3.727Zm-3.665-3.5a2.02,2.02,0,0,0-.356-1.257,1.13,1.13,0,0,0-.945-.466,1.163,1.163,0,0,0-1.011.563,2.656,2.656,0,0,0-.378,1.5,2.6,2.6,0,0,0,.316,1.38,1.092,1.092,0,0,0,1,.51,1.161,1.161,0,0,0,1.006-.523,2.408,2.408,0,0,0,.365-1.4ZM146.225,19V10h3.744v9Zm2.338-10.424h-2.646l2.628-2.821h3.146Zm10.521,7.436a2.749,2.749,0,0,1-1.165,2.369,5.474,5.474,0,0,1-3.248.839,11.291,11.291,0,0,1-1.5-.123,9.257,9.257,0,0,1-1.455-.3V16.17a7.162,7.162,0,0,0,2.777.738q1.1,0,1.1-.571a.451.451,0,0,0-.255-.391A9.009,9.009,0,0,0,154,15.432a3.773,3.773,0,0,1-1.74-1,2.382,2.382,0,0,1-.545-1.626,2.594,2.594,0,0,1,1.112-2.21,5.216,5.216,0,0,1,3.125-.813,9.931,9.931,0,0,1,2.5.343v2.522a7.549,7.549,0,0,0-1.213-.4,4.9,4.9,0,0,0-1.107-.158,1.205,1.205,0,0,0-.589.123.379.379,0,0,0-.22.343.478.478,0,0,0,.237.413,4.2,4.2,0,0,0,.949.378,4.4,4.4,0,0,1,1.978,1.037A2.272,2.272,0,0,1,159.083,16.012Zm7.717,2.865a3.648,3.648,0,0,1-.835.233,7.634,7.634,0,0,1-1.4.11,3.357,3.357,0,0,1-2.448-.861,3.269,3.269,0,0,1-.883-2.452V12.593h-1.415V10h1.415V8.233l3.691-1.02V10H166.8v2.593h-1.872v2.7q0,1.187.94,1.187a2.551,2.551,0,0,0,.932-.193Zm5.133-11.3a1.608,1.608,0,0,1-.576,1.283,2.252,2.252,0,0,1-1.516.492,2.2,2.2,0,0,1-1.5-.51,1.612,1.612,0,0,1-.584-1.266,1.561,1.561,0,0,1,.567-1.252,2.639,2.639,0,0,1,3.032,0A1.551,1.551,0,0,1,171.933,7.574ZM167.969,19V10h3.744v9Zm12.964-.255a3.529,3.529,0,0,1-1.134.343,10.719,10.719,0,0,1-1.784.132,5.488,5.488,0,0,1-2.544-.576,4.2,4.2,0,0,1-1.736-1.613,4.478,4.478,0,0,1-.615-2.329,5.1,5.1,0,0,1,.655-2.65,4.268,4.268,0,0,1,1.868-1.687,6.407,6.407,0,0,1,2.813-.584,9.839,9.839,0,0,1,1.578.114,2.411,2.411,0,0,1,.9.264v2.918a2.6,2.6,0,0,0-.809-.387,3.248,3.248,0,0,0-.976-.167,2.375,2.375,0,0,0-1.666.523,1.9,1.9,0,0,0-.567,1.472,1.868,1.868,0,0,0,.558,1.446,2.177,2.177,0,0,0,1.534.514,3.82,3.82,0,0,0,1.925-.5Zm11.5-4.4a4.687,4.687,0,0,1-1.375,3.577,6.355,6.355,0,0,1-7.664.031,4.546,4.546,0,0,1-1.367-3.5,4.692,4.692,0,0,1,.642-2.487,4.172,4.172,0,0,1,1.828-1.617,6.311,6.311,0,0,1,2.733-.562,6.113,6.113,0,0,1,2.773.589,4.286,4.286,0,0,1,1.8,1.635A4.452,4.452,0,0,1,192.438,14.342Zm-3.8.018q0-1.837-1.406-1.837t-1.406,1.925q0,2.03,1.424,2.03Q188.641,16.478,188.641,14.359Zm12.507,1.652a2.749,2.749,0,0,1-1.165,2.369,5.474,5.474,0,0,1-3.248.839,11.291,11.291,0,0,1-1.5-.123,9.257,9.257,0,0,1-1.455-.3V16.17a7.162,7.162,0,0,0,2.777.738q1.1,0,1.1-.571a.451.451,0,0,0-.255-.391,9.009,9.009,0,0,0-1.336-.514,3.773,3.773,0,0,1-1.74-1,2.382,2.382,0,0,1-.545-1.626,2.594,2.594,0,0,1,1.112-2.21,5.216,5.216,0,0,1,3.125-.813,9.931,9.931,0,0,1,2.5.343v2.522a7.549,7.549,0,0,0-1.213-.4,4.9,4.9,0,0,0-1.107-.158,1.205,1.205,0,0,0-.589.123.379.379,0,0,0-.22.343.478.478,0,0,0,.237.413,4.2,4.2,0,0,0,.949.378,4.4,4.4,0,0,1,1.978,1.037A2.272,2.272,0,0,1,201.147,16.012Z" transform="translate(441 2560.049)" fill="#12263f"/>
      </g>
    </g>
    <line id="Línea_399" data-name="Línea 399" x2="501" transform="translate(266.5 2550.5)" fill="none" stroke="#a2a2a2" stroke-width="2"/>
    <line id="Línea_400" data-name="Línea 400" x2="501" transform="translate(266.5 2599.5)" fill="none" stroke="#a2a2a2" stroke-width="2"/>
  </g>
</svg>
