<svg xmlns="http://www.w3.org/2000/svg" xmlns:xlink="http://www.w3.org/1999/xlink" width="226.031" height="430.462" viewBox="0 0 226.031 430.462">
  <defs>
    <clipPath id="clip-path">
      <rect id="Rectángulo_337017" data-name="Rectángulo 337017" width="59.575" height="59.451" fill="none"/>
    </clipPath>
    <clipPath id="clip-path-2">
      <rect id="Rectángulo_337013" data-name="Rectángulo 337013" width="85" height="45.137" fill="none"/>
    </clipPath>
    <clipPath id="clip-path-3">
      <rect id="Rectángulo_337018" data-name="Rectángulo 337018" width="63.666" height="60.821" fill="none"/>
    </clipPath>
    <linearGradient id="linear-gradient" x1="0.008" y1="0.5" x2="1" y2="0.5" gradientUnits="objectBoundingBox">
      <stop offset="0" stop-color="#ffd200"/>
      <stop offset="1" stop-color="#30e6c0"/>
    </linearGradient>
  </defs>
  <g id="Grupo_912293" data-name="Grupo 912293" transform="translate(-763.5 -2258.037)">
    <line id="Línea_406" data-name="Línea 406" y2="87" transform="translate(764.5 2599.5)" fill="none" stroke="#a2a2a2" stroke-width="2"/>
    <g id="Grupo_912292" data-name="Grupo 912292" transform="translate(-1.177 1.537)">
      <path id="Trazado_626431" data-name="Trazado 626431" d="M67.329,8.9V18h-3.6V8.9H60.4V6.1H70.7V8.9ZM78.2,12.53a3.4,3.4,0,0,0-1.1-.241q-1.751,0-1.751,2.025V18H71.8V9.5H75.34v1.494h.033a2.654,2.654,0,0,1,.921-1.224,2.367,2.367,0,0,1,1.395-.419,1.2,1.2,0,0,1,.506.1ZM83.931,18V16.705H83.9a2.781,2.781,0,0,1-2.59,1.5,2.479,2.479,0,0,1-1.884-.714,2.652,2.652,0,0,1-.681-1.909q0-2.507,3.08-2.905l2.108-.274a.8.8,0,0,0-.374-.681,1.7,1.7,0,0,0-1-.266,6.616,6.616,0,0,0-3.013.813v-2.3a8.061,8.061,0,0,1,1.727-.49,10.048,10.048,0,0,1,1.776-.191,4.46,4.46,0,0,1,3.142.926,4.125,4.125,0,0,1,.975,3.092V18Zm-2.092-2.889a.784.784,0,0,0,.22.573.839.839,0,0,0,.627.224,1.114,1.114,0,0,0,.9-.415,1.608,1.608,0,0,0,.344-1.062v-.324l-1.2.166Q81.839,14.422,81.839,15.111Zm1.569-6.956h-2.5l2.482-2.665h2.972ZM94.265,18V13.36a2.063,2.063,0,0,0-.237-1.133.864.864,0,0,0-.768-.344.831.831,0,0,0-.714.357,1.523,1.523,0,0,0-.257.913V18H88.754V9.5H92.29v1.328h.033A3,3,0,0,1,93.46,9.7a3.107,3.107,0,0,1,1.552-.4q2.789,0,2.789,3.52V18ZM106.3,15.178a2.6,2.6,0,0,1-1.1,2.237,5.17,5.17,0,0,1-3.067.793,10.664,10.664,0,0,1-1.415-.116,8.743,8.743,0,0,1-1.374-.282V15.327a6.764,6.764,0,0,0,2.623.7q1.038,0,1.038-.54a.426.426,0,0,0-.241-.369,8.509,8.509,0,0,0-1.262-.486,3.563,3.563,0,0,1-1.644-.946,2.25,2.25,0,0,1-.515-1.536,2.45,2.45,0,0,1,1.05-2.088,4.926,4.926,0,0,1,2.951-.768,9.38,9.38,0,0,1,2.357.324V12a7.129,7.129,0,0,0-1.146-.374,4.627,4.627,0,0,0-1.046-.149,1.138,1.138,0,0,0-.556.116.358.358,0,0,0-.208.324.452.452,0,0,0,.224.39,3.964,3.964,0,0,0,.9.357,4.16,4.16,0,0,1,1.868.979A2.146,2.146,0,0,1,106.3,15.178Zm5.047-7.969a1.519,1.519,0,0,1-.544,1.212,2.127,2.127,0,0,1-1.432.465,2.075,2.075,0,0,1-1.415-.481,1.523,1.523,0,0,1-.552-1.2,1.474,1.474,0,0,1,.535-1.183,2.492,2.492,0,0,1,2.864,0A1.465,1.465,0,0,1,111.348,7.209ZM107.6,18V9.5h3.536V18Zm11.223-.116a3.445,3.445,0,0,1-.789.22,7.21,7.21,0,0,1-1.32.1,3.171,3.171,0,0,1-2.312-.813,3.087,3.087,0,0,1-.834-2.316V11.949h-1.336V9.5h1.336V7.832l3.486-.963V9.5h1.768v2.449h-1.768V14.5q0,1.121.888,1.121a2.409,2.409,0,0,0,.88-.183ZM129.386,13.6a4.426,4.426,0,0,1-1.3,3.378,6,6,0,0,1-7.238.029,4.294,4.294,0,0,1-1.291-3.308,4.432,4.432,0,0,1,.606-2.349,3.94,3.94,0,0,1,1.727-1.527,5.96,5.96,0,0,1,2.582-.531,5.774,5.774,0,0,1,2.619.556,4.048,4.048,0,0,1,1.7,1.544A4.2,4.2,0,0,1,129.386,13.6Zm-3.586.017q0-1.735-1.328-1.735T123.144,13.7q0,1.917,1.345,1.917Q125.8,15.618,125.8,13.617Z" transform="translate(786 2264)" fill="#12263f"/>
      <path id="Trazado_626434" data-name="Trazado 626434" d="M16.888,8.9v2.142h3.536V13.85H16.888V18H13.3V6.1h7.462V8.9ZM28.567,12.53a3.4,3.4,0,0,0-1.1-.241q-1.751,0-1.751,2.025V18H22.176V9.5h3.536v1.494h.033a2.654,2.654,0,0,1,.921-1.224,2.367,2.367,0,0,1,1.395-.419,1.2,1.2,0,0,1,.506.1ZM39.043,13.6a4.426,4.426,0,0,1-1.3,3.378,5.076,5.076,0,0,1-3.632,1.229,5.1,5.1,0,0,1-3.607-1.2A4.294,4.294,0,0,1,29.215,13.7a4.432,4.432,0,0,1,.606-2.349,3.94,3.94,0,0,1,1.727-1.527,5.961,5.961,0,0,1,2.582-.531,5.774,5.774,0,0,1,2.619.556,4.048,4.048,0,0,1,1.7,1.544A4.2,4.2,0,0,1,39.043,13.6Zm-3.586.017q0-1.735-1.328-1.735T32.8,13.7q0,1.917,1.345,1.917Q35.457,15.618,35.457,13.617ZM45.875,18V13.36a2.063,2.063,0,0,0-.237-1.133.864.864,0,0,0-.768-.344.831.831,0,0,0-.714.357,1.523,1.523,0,0,0-.257.913V18H40.363V9.5H43.9v1.328h.033A3,3,0,0,1,45.069,9.7a3.107,3.107,0,0,1,1.552-.4q2.789,0,2.789,3.52V18Zm11.115-.116a3.445,3.445,0,0,1-.789.22,7.21,7.21,0,0,1-1.32.1,3.171,3.171,0,0,1-2.312-.813,3.087,3.087,0,0,1-.834-2.316V11.949H50.4V9.5h1.336V7.832l3.486-.963V9.5h1.768v2.449H55.221V14.5q0,1.121.888,1.121a2.409,2.409,0,0,0,.88-.183Zm4.15-3.129a1.2,1.2,0,0,0,.631.859,2.845,2.845,0,0,0,1.428.311,5.88,5.88,0,0,0,2.341-.473v2.241a8.413,8.413,0,0,1-3.121.515,4.925,4.925,0,0,1-3.461-1.137,4.04,4.04,0,0,1-1.237-3.129,5.163,5.163,0,0,1,.544-2.416,3.912,3.912,0,0,1,1.61-1.639,4.758,4.758,0,0,1,2.353-.594,4.63,4.63,0,0,1,2.258.515,3.428,3.428,0,0,1,1.424,1.444,4.634,4.634,0,0,1,.486,2.175v1.328ZM63.265,12.9q0-1.469-1.054-1.469a.892.892,0,0,0-.739.4,2.009,2.009,0,0,0-.349,1.067Zm10.741-.374a3.4,3.4,0,0,0-1.1-.241q-1.751,0-1.751,2.025V18H67.614V9.5H71.15v1.494h.033A2.654,2.654,0,0,1,72.1,9.77,2.367,2.367,0,0,1,73.5,9.351a1.2,1.2,0,0,1,.506.1ZM79.742,18V16.705h-.033a2.781,2.781,0,0,1-2.59,1.5,2.479,2.479,0,0,1-1.884-.714,2.652,2.652,0,0,1-.681-1.909q0-2.507,3.08-2.905l2.108-.274a.8.8,0,0,0-.374-.681,1.7,1.7,0,0,0-1-.266,6.616,6.616,0,0,0-3.013.813v-2.3a8.061,8.061,0,0,1,1.727-.49,10.048,10.048,0,0,1,1.776-.191A4.46,4.46,0,0,1,82,10.218a4.125,4.125,0,0,1,.975,3.092V18ZM77.65,15.111a.784.784,0,0,0,.22.573.839.839,0,0,0,.627.224,1.114,1.114,0,0,0,.9-.415,1.608,1.608,0,0,0,.344-1.062v-.324l-1.2.166Q77.65,14.422,77.65,15.111Zm15.381-7.9a1.519,1.519,0,0,1-.544,1.212,2.127,2.127,0,0,1-1.432.465A2.075,2.075,0,0,1,89.64,8.4a1.523,1.523,0,0,1-.552-1.2,1.474,1.474,0,0,1,.535-1.183,2.492,2.492,0,0,1,2.864,0A1.465,1.465,0,0,1,93.031,7.209ZM89.288,18V9.5h3.536V18Zm10.75,0V13.36a2.063,2.063,0,0,0-.237-1.133.864.864,0,0,0-.768-.344.831.831,0,0,0-.714.357,1.523,1.523,0,0,0-.257.913V18H94.525V9.5h3.536v1.328h.033A3,3,0,0,1,99.232,9.7a3.107,3.107,0,0,1,1.552-.4q2.789,0,2.789,3.52V18Zm11.115-.116a3.445,3.445,0,0,1-.789.22,7.21,7.21,0,0,1-1.32.1,3.171,3.171,0,0,1-2.312-.813,3.087,3.087,0,0,1-.834-2.316V11.949h-1.336V9.5H105.9V7.832l3.486-.963V9.5h1.768v2.449h-1.768V14.5q0,1.121.888,1.121a2.409,2.409,0,0,0,.88-.183Zm4.15-3.129a1.2,1.2,0,0,0,.631.859,2.845,2.845,0,0,0,1.428.311,5.88,5.88,0,0,0,2.341-.473v2.241a8.413,8.413,0,0,1-3.121.515,4.925,4.925,0,0,1-3.461-1.137,4.04,4.04,0,0,1-1.237-3.129,5.163,5.163,0,0,1,.544-2.416,3.912,3.912,0,0,1,1.61-1.639,4.758,4.758,0,0,1,2.353-.594,4.63,4.63,0,0,1,2.258.515,3.428,3.428,0,0,1,1.424,1.444,4.634,4.634,0,0,1,.486,2.175v1.328Zm2.125-1.851q0-1.469-1.054-1.469a.892.892,0,0,0-.739.4,2.009,2.009,0,0,0-.349,1.067Zm10.741-.374a3.4,3.4,0,0,0-1.1-.241q-1.751,0-1.751,2.025V18h-3.536V9.5h3.536v1.494h.033a2.654,2.654,0,0,1,.921-1.224,2.367,2.367,0,0,1,1.395-.419,1.2,1.2,0,0,1,.506.1ZM134.7,18V13.36a2.063,2.063,0,0,0-.237-1.133.864.864,0,0,0-.768-.344.831.831,0,0,0-.714.357,1.523,1.523,0,0,0-.257.913V18h-3.536V9.5h3.536v1.328h.033A3,3,0,0,1,133.9,9.7a3.107,3.107,0,0,1,1.552-.4q2.789,0,2.789,3.52V18Zm9.845,0V16.705h-.033a2.781,2.781,0,0,1-2.59,1.5,2.479,2.479,0,0,1-1.884-.714,2.652,2.652,0,0,1-.681-1.909q0-2.507,3.08-2.905l2.108-.274a.8.8,0,0,0-.374-.681,1.7,1.7,0,0,0-1-.266,6.616,6.616,0,0,0-3.013.813v-2.3a8.061,8.061,0,0,1,1.727-.49,10.048,10.048,0,0,1,1.776-.191,4.46,4.46,0,0,1,3.142.926,4.125,4.125,0,0,1,.975,3.092V18Zm-2.092-2.889a.783.783,0,0,0,.22.573.839.839,0,0,0,.627.224,1.114,1.114,0,0,0,.9-.415,1.608,1.608,0,0,0,.344-1.062v-.324l-1.2.166Q142.454,14.422,142.454,15.111Zm13.92,2.648a3.333,3.333,0,0,1-1.071.324,10.123,10.123,0,0,1-1.685.125,5.183,5.183,0,0,1-2.4-.544,3.967,3.967,0,0,1-1.639-1.523,4.229,4.229,0,0,1-.581-2.2,4.817,4.817,0,0,1,.618-2.5,4.031,4.031,0,0,1,1.764-1.594,6.051,6.051,0,0,1,2.656-.552,9.293,9.293,0,0,1,1.49.108,2.277,2.277,0,0,1,.851.249v2.756a2.455,2.455,0,0,0-.764-.365,3.068,3.068,0,0,0-.921-.158,2.243,2.243,0,0,0-1.573.494,1.8,1.8,0,0,0-.535,1.39,1.764,1.764,0,0,0,.527,1.365,2.056,2.056,0,0,0,1.448.486,3.607,3.607,0,0,0,1.818-.473Zm5.155-10.55a1.519,1.519,0,0,1-.544,1.212,2.127,2.127,0,0,1-1.432.465,2.075,2.075,0,0,1-1.415-.481,1.523,1.523,0,0,1-.552-1.2,1.474,1.474,0,0,1,.535-1.183,2.492,2.492,0,0,1,2.864,0A1.465,1.465,0,0,1,161.529,7.209ZM157.786,18V9.5h3.536V18Zm14.692-4.4a4.426,4.426,0,0,1-1.3,3.378,6,6,0,0,1-7.238.029A4.294,4.294,0,0,1,162.65,13.7a4.432,4.432,0,0,1,.606-2.349,3.94,3.94,0,0,1,1.727-1.527,5.961,5.961,0,0,1,2.582-.531,5.774,5.774,0,0,1,2.619.556,4.048,4.048,0,0,1,1.7,1.544A4.2,4.2,0,0,1,172.478,13.6Zm-3.586.017q0-1.735-1.328-1.735T166.236,13.7q0,1.917,1.345,1.917Q168.892,15.618,168.892,13.617ZM179.31,18V13.36a2.063,2.063,0,0,0-.237-1.133.864.864,0,0,0-.768-.344.831.831,0,0,0-.714.357,1.523,1.523,0,0,0-.257.913V18H173.8V9.5h3.536v1.328h.033A3,3,0,0,1,178.5,9.7a3.107,3.107,0,0,1,1.552-.4q2.789,0,2.789,3.52V18Zm9.845,0V16.705h-.033a2.781,2.781,0,0,1-2.59,1.5,2.479,2.479,0,0,1-1.884-.714,2.652,2.652,0,0,1-.681-1.909q0-2.507,3.08-2.905l2.108-.274a.8.8,0,0,0-.374-.681,1.7,1.7,0,0,0-1-.266,6.616,6.616,0,0,0-3.013.813v-2.3a8.061,8.061,0,0,1,1.727-.49,10.048,10.048,0,0,1,1.776-.191,4.46,4.46,0,0,1,3.142.926,4.125,4.125,0,0,1,.975,3.092V18Zm-2.092-2.889a.783.783,0,0,0,.22.573.839.839,0,0,0,.627.224,1.114,1.114,0,0,0,.9-.415,1.608,1.608,0,0,0,.344-1.062v-.324l-1.2.166Q187.063,14.422,187.063,15.111ZM193.977,18V5.416h3.536V18Z" transform="translate(776 2320)" fill="#12263f"/>
      <line id="Línea_413" data-name="Línea 413" y2="294" transform="translate(989.5 2256.5)" fill="none" stroke="#a2a2a2" stroke-width="2"/>
      <line id="Línea_407" data-name="Línea 407" y2="87" transform="translate(989.707 2599.962)" fill="none" stroke="#a2a2a2" stroke-width="2"/>
      <g id="Grupo_912277" data-name="Grupo 912277" transform="translate(853 2413.454)">
        <g id="Grupo_912276" data-name="Grupo 912276" transform="translate(0 0)" clip-path="url(#clip-path)">
          <path id="Trazado_626383" data-name="Trazado 626383" d="M.347,35.3c.066-.326.334-.453.588-.59.932-.506,1.853-1.031,2.8-1.5A.762.762,0,0,0,4.2,32.4a10.129,10.129,0,0,1,.081-2.313A3.019,3.019,0,0,1,6.79,27.765a2.934,2.934,0,0,1,3,1.549c.215.421.373.431.744.206.692-.418,1.409-.8,2.136-1.154a.683.683,0,0,0,.464-.749c-.039-.617-.014-1.238-.009-1.857a2.987,2.987,0,0,1,2.251-2.877,2.947,2.947,0,0,1,3.387,1.591c.205.453.343.415.7.211q2.015-1.133,4.066-2.2a.817.817,0,0,0,.495-.854c-.011-3.715-.047-7.431.027-11.145a18.457,18.457,0,0,1,2.2-8.3A3.912,3.912,0,0,1,30.118.006a4.078,4.078,0,0,1,3.608,2.426,20.6,20.6,0,0,1,2.182,9.545c-.023,3.231,0,6.463-.016,9.694a.776.776,0,0,0,.484.8c1.528.8,3.04,1.634,4.56,2.455.912-2.039,2.87-2.731,4.54-1.616a2.814,2.814,0,0,1,1.317,2.381c.016.658.019,1.317,0,1.973a.585.585,0,0,0,.355.638c.807.409,1.6.853,2.388,1.293.229.128.356.177.519-.13a2.912,2.912,0,0,1,3.357-1.631,3,3,0,0,1,2.321,3.117c0,.657-.207,1.444.082,1.936s1.076.681,1.648,1c.523.288,1.054.56,1.575.851.233.131.481.261.534.568a1.016,1.016,0,0,1,.056.565q.007,2.947,0,5.894c-.063.814-.579,1.17-1.407.917-.74-.226-1.455-.527-2.179-.8q-9.671-3.632-19.347-7.252c-.652-.244-.655-.241-.655.46,0,2.012-.053,4.026.015,6.036a26.09,26.09,0,0,1-.781,5.732c-.193,1.024-.2,1.021.695,1.559,2.655,1.592,5.3,3.2,7.97,4.768a1.872,1.872,0,0,1,1.057,1.884c-.058,1.061-.007,2.127-.017,3.191a1.132,1.132,0,0,1-.734,1.192h-.929c-3.284-.341-6.515-1.019-9.774-1.527a.783.783,0,0,0-.814.3,2.83,2.83,0,0,1-2.186,1.227H29.261a2.865,2.865,0,0,1-2.03-1.189.871.871,0,0,0-.919-.307c-2.53.429-5.067.825-7.6,1.261-.7.121-1.417.084-2.112.235h-.929a1.236,1.236,0,0,1-.739-1.264c0-1.1.024-2.207-.007-3.309a1.608,1.608,0,0,1,.881-1.563c2.78-1.649,5.546-3.319,8.317-4.983.714-.429.718-.444.557-1.256-.236-1.2-.48-2.391-.7-3.59a6.4,6.4,0,0,1-.109-1.153q0-3.6,0-7.2c0-.669-.067-.714-.706-.476C18.419,36.426,13.68,38.227,8.929,40c-2.34.871-4.671,1.763-7.017,2.617-.96.35-1.558.044-1.682-.835q0-2.875,0-5.748c0-.246-.061-.508.115-.728" transform="translate(-0.113 -0.001)" fill="#040506"/>
          <path id="Trazado_626384" data-name="Trazado 626384" d="M61.983,119.286a3.559,3.559,0,0,0,2.235-1.575c.127-.22.313-.2.5-.164q4.976.831,9.952,1.669c.032.005.059.046.088.07Z" transform="translate(-31.557 -59.835)" fill="#fff"/>
          <path id="Trazado_626385" data-name="Trazado 626385" d="M33.594,119.311a27.753,27.753,0,0,1,3.1-.572c2.251-.4,4.512-.75,6.765-1.139a.658.658,0,0,1,.805.323,3.711,3.711,0,0,0,1.984,1.387Z" transform="translate(-17.104 -59.861)" fill="#fff"/>
          <path id="Trazado_626386" data-name="Trazado 626386" d="M.218,78.558,0,78.525V71.906a.188.188,0,0,0,.234,0L.218,78.558" transform="translate(0 -36.609)" fill="#1a1a1e"/>
          <path id="Trazado_626387" data-name="Trazado 626387" d="M121.241,78.525a.135.135,0,0,1-.1.031l-.016-6.644.119-.006Z" transform="translate(-61.666 -36.609)" fill="#191a1d"/>
          <path id="Trazado_626388" data-name="Trazado 626388" d="M52.751,28.591q0-7.43,0-14.86A19.042,19.042,0,0,1,54.6,5.51a2.194,2.194,0,0,1,4.119-.028,18.222,18.222,0,0,1,1.926,8.081q.032,15.354,0,30.707a18.94,18.94,0,0,1-.588,3.412c-.668,3.558-1.372,7.11-2.065,10.664a1.29,1.29,0,0,1-2.571,0q-1.324-6.806-2.639-13.614a3.389,3.389,0,0,1-.026-.636q0-7.75,0-15.5" transform="translate(-26.856 -2.066)" fill="#fff"/>
          <path id="Trazado_626389" data-name="Trazado 626389" d="M94.7,65.7c-1.822-.678-3.584-1.33-5.344-1.99q-7.906-2.961-15.814-5.917a.762.762,0,0,1-.6-.855c.033-2.257.014-4.515.014-6.764.24-.1.366.065.5.14q10.417,5.632,20.829,11.272a.645.645,0,0,1,.425.658c-.028,1.121-.01,2.242-.01,3.456" transform="translate(-37.136 -25.528)" fill="#fff"/>
          <path id="Trazado_626390" data-name="Trazado 626390" d="M4.321,65.725c0-1.219.012-2.341-.007-3.462a.6.6,0,0,1,.377-.626Q15.153,55.984,25.6,50.305c.474-.258.477-.061.475.328-.011,2.127-.022,4.254.008,6.381a.691.691,0,0,1-.546.779q-10,3.724-19.985,7.476c-.392.147-.786.291-1.232.456" transform="translate(-2.196 -25.552)" fill="#fff"/>
          <path id="Trazado_626391" data-name="Trazado 626391" d="M42.845,102.033c.359,1.825.7,3.58,1.052,5.333.054.27-.067.305-.3.343-2.034.331-4.064.679-6.1,1.022-.855.144-1.71.283-2.561.442-.323.06-.484-.009-.43-.365a.34.34,0,0,0,0-.116,2.159,2.159,0,0,1,1.4-2.548c2.332-1.261,4.569-2.7,6.931-4.112" transform="translate(-17.541 -51.947)" fill="#fff"/>
          <path id="Trazado_626392" data-name="Trazado 626392" d="M68.952,102.024c1.408.845,2.758,1.656,4.11,2.466,1.272.762,2.541,1.53,3.822,2.276a.688.688,0,0,1,.4.731,11.839,11.839,0,0,0,0,1.391c.01.273-.093.327-.342.285q-4.383-.748-8.769-1.48c-.2-.034-.328-.057-.28-.3.351-1.768.7-3.537,1.057-5.367" transform="translate(-34.562 -51.943)" fill="#fff"/>
          <path id="Trazado_626393" data-name="Trazado 626393" d="M30.545,52.779a11.207,11.207,0,0,1,.01-1.3.912.912,0,0,1,.89-.891.949.949,0,0,1,1.032.729c.05.207.072.4-.185.532-.562.283-1.111.591-1.747.933" transform="translate(-15.544 -25.753)" fill="#fdfdfd"/>
          <path id="Trazado_626394" data-name="Trazado 626394" d="M89.013,52.782c-.659-.356-1.223-.673-1.8-.968-.241-.123-.2-.318-.149-.489a.922.922,0,0,1,.9-.745.893.893,0,0,1,.959.66,6.3,6.3,0,0,1,.086,1.541" transform="translate(-44.307 -25.752)" fill="#fdfdfd"/>
          <path id="Trazado_626395" data-name="Trazado 626395" d="M12.473,62.7c0-.476-.017-.859,0-1.24a.836.836,0,0,1,.6-.762.917.917,0,0,1,.968.172c.457.387.415.755-.106,1.037l-1.47.793" transform="translate(-6.347 -30.87)" fill="#fdfdfd"/>
          <path id="Trazado_626396" data-name="Trazado 626396" d="M107.135,62.7c-.585-.316-1.128-.626-1.688-.9-.269-.133-.245-.325-.162-.523a.925.925,0,0,1,.995-.624.85.85,0,0,1,.848.788c.036.4.007.8.007,1.262" transform="translate(-53.575 -30.875)" fill="#fdfdfd"/>
          <path id="Trazado_626397" data-name="Trazado 626397" d="M57.816,12.13a2.43,2.43,0,0,1,2.233,1.577c.225.592.4,1.2.619,1.8.1.253.027.362-.212.413-.019,0-.038.007-.056.012-.493.153-1.068.535-1.458.4-.414-.147-.363-.9-.579-1.362-.134-.287-.051-.783-.535-.779s-.392.5-.53.784c-.221.46-.173,1.2-.591,1.364-.357.142-.917-.268-1.4-.388-.347-.086-.429-.2-.285-.552.233-.567.386-1.167.6-1.741a2.356,2.356,0,0,1,2.187-1.521" transform="translate(-27.979 -6.174)" fill="#050506"/>
        </g>
      </g>
      <g id="Grupo_912278" data-name="Grupo 912278" transform="translate(785 2485.578)">
        <g id="Grupo_912268" data-name="Grupo 912268" transform="translate(0 0)" clip-path="url(#clip-path-2)">
          <path id="Trazado_626280" data-name="Trazado 626280" d="M85,36.511a3,3,0,0,1-3.252,1.99c-1.324-.061-2.656.012-3.983-.025-.529-.014-.726.075-.791.679a6.552,6.552,0,0,1-12.834,1.182c-.141-.463-.339-.527-.742-.527q-14.9.011-29.791,0c-.457,0-.641.117-.791.591a6.349,6.349,0,0,1-4.9,4.551A6.216,6.216,0,0,1,21.638,42.9c-.424-.466-.553-.324-.888.036a6.236,6.236,0,0,1-6.3,2.006,6.259,6.259,0,0,1-4.826-4.509c-.137-.451-.32-.669-.84-.629a19.511,19.511,0,0,1-2.157.009,2.6,2.6,0,0,1-2.639-2.7c-.008-.719-.02-1.439.006-2.157.013-.364-.1-.5-.467-.462a5.978,5.978,0,0,1-.746,0A2.622,2.622,0,0,1,0,31.687Q0,17.248,0,2.81A2.6,2.6,0,0,1,2.855,0q7.717-.01,15.435,0h44.9C65.444,0,66.4.959,66.4,3.225c0,1.272.04,2.547-.015,3.817-.032.716.118.969.913.957,3.512-.051,7.026-.023,10.539-.02a4.193,4.193,0,0,1,.822.058,1.21,1.21,0,0,1,.986.9,1.091,1.091,0,0,1-.408,1.258c-.353.239-.348.449-.226.81q1.531,4.532,3.02,9.079a2.4,2.4,0,0,0,.7,1A7.133,7.133,0,0,1,85,24.228Z" transform="translate(0 0)" fill="#040506"/>
          <path id="Trazado_626281" data-name="Trazado 626281" d="M65.989,35.3a7.592,7.592,0,0,0-1.111,2.4.4.4,0,0,1-.461.365c-.193-.005-.387,0-.581,0q-14.565,0-29.13.011c-.621,0-1.021-.059-1.152-.794a5.056,5.056,0,0,0-.935-1.867,1.361,1.361,0,0,1,.874-.113q11.2-.009,22.409,0c1.3,0,1.958-.427,1.968-1.273s-.656-1.295-1.944-1.295q-25.811,0-51.622.018c-.807,0-1.049-.15-1.045-1.017q.057-13.775.008-27.551c0-.694.189-.862.872-.862q29.836.028,59.672,0c.7,0,.869.194.868.878q-.034,13.859,0,27.718c0,.641-.144.891-.817.829a10.684,10.684,0,0,0-1.906.012,1.218,1.218,0,0,0-1.263,1.256,1.249,1.249,0,0,0,1.342,1.275c1.27.038,2.542.01,3.956.01" transform="translate(-0.791 -0.808)" fill="#fff"/>
          <path id="Trazado_626282" data-name="Trazado 626282" d="M87.676,24.532c0-3.292.011-6.584-.011-9.876,0-.536.064-.771.7-.763,2.821.037,5.643.029,8.466,0,.507,0,.746.147.856.645a7.408,7.408,0,0,0,.476,1.4c.249.563.152.747-.5.733-1.8-.039-3.6-.017-5.395-.012-1.368,0-1.777.409-1.78,1.774-.005,1.881.065,3.765-.018,5.642a2.821,2.821,0,0,0,3.142,3.16c2.959-.054,5.92.02,8.88-.036a1.1,1.1,0,0,1,1.277,1.154c.073.851.01,1.714.035,2.57.011.372-.188.381-.462.381a4.559,4.559,0,0,0-1.236.082,1.157,1.157,0,0,0-.956,1.091,1.135,1.135,0,0,0,.834,1.268,2.633,2.633,0,0,0,.729.124c1.085.043,1.085.037,1.085,1.162,0,1.19-.027,2.38.012,3.568.017.532-.119.724-.678.713-1.6-.033-3.209-.023-4.813,0a.749.749,0,0,1-.775-.451A6.58,6.58,0,0,0,91.355,35.3c-.969-.011-1.94-.053-2.9.016-.693.049-.794-.219-.788-.829.027-3.319.013-6.639.013-9.959" transform="translate(-21.278 -3.372)" fill="#fff"/>
          <path id="Trazado_626283" data-name="Trazado 626283" d="M33.795,45.562a4.038,4.038,0,0,1-.032,8.076,4.038,4.038,0,1,1,.032-8.076" transform="translate(-7.207 -11.059)" fill="#fff"/>
          <path id="Trazado_626284" data-name="Trazado 626284" d="M23.718,49.58a4.063,4.063,0,0,1-4.035,4.06,4.04,4.04,0,1,1-.026-8.08,4.037,4.037,0,0,1,4.061,4.02" transform="translate(-3.789 -11.058)" fill="#fff"/>
          <path id="Trazado_626285" data-name="Trazado 626285" d="M91.76,45.561a4.039,4.039,0,1,1-4.076,4.006,4.076,4.076,0,0,1,4.076-4.006" transform="translate(-21.283 -11.059)" fill="#fff"/>
          <path id="Trazado_626286" data-name="Trazado 626286" d="M102.752,26.361c-2.639,0-5.176,0-7.713,0-.32,0-.345-.173-.344-.421.005-1.52.015-3.04-.006-4.56-.005-.4.179-.435.5-.434,1.768.01,3.537,0,5.306,0,.249,0,.454-.011.562.326.535,1.668,1.1,3.324,1.695,5.08" transform="translate(-22.983 -5.085)" fill="#fff"/>
          <path id="Trazado_626287" data-name="Trazado 626287" d="M12.707,45.556a8.154,8.154,0,0,0-1.16,2.508c-.048.211-.167.258-.348.258-.745,0-1.491,0-2.236,0-.325,0-.448-.151-.413-.459a.5.5,0,0,0,0-.083c-.119-2.227-.119-2.227,2.095-2.227Z" transform="translate(-2.065 -11.057)" fill="#fdfdfd"/>
          <path id="Trazado_626288" data-name="Trazado 626288" d="M34.826,37.706H9.018a3.109,3.109,0,0,1-1.146-.122,1.169,1.169,0,0,1-.841-1.192,1.12,1.12,0,0,1,.889-1.146,3.946,3.946,0,0,1,.98-.115q25.973-.008,51.946,0c.083,0,.167,0,.249,0,1.05.026,1.7.535,1.682,1.314s-.66,1.262-1.73,1.263q-13.111,0-26.222,0" transform="translate(-1.707 -8.526)" fill="#060607"/>
          <path id="Trazado_626289" data-name="Trazado 626289" d="M34.657,49.256a1.218,1.218,0,0,1,1.23,1.281,1.307,1.307,0,0,1-1.23,1.224,1.374,1.374,0,0,1-1.294-1.268,1.28,1.28,0,0,1,1.294-1.236" transform="translate(-8.098 -11.955)" fill="#0a0a0b"/>
          <path id="Trazado_626290" data-name="Trazado 626290" d="M20.577,49.249a1.2,1.2,0,0,1,1.24,1.26,1.273,1.273,0,0,1-1.194,1.249,1.363,1.363,0,0,1-1.311-1.245,1.29,1.29,0,0,1,1.265-1.264" transform="translate(-4.687 -11.954)" fill="#0a0a0b"/>
          <path id="Trazado_626291" data-name="Trazado 626291" d="M92.663,49.245A1.261,1.261,0,0,1,93.9,50.528,1.313,1.313,0,0,1,92.67,51.76a1.266,1.266,0,0,1-1.26-1.269,1.208,1.208,0,0,1,1.253-1.246" transform="translate(-22.187 -11.953)" fill="#09090a"/>
        </g>
      </g>
      <g id="Grupo_912280" data-name="Grupo 912280" transform="translate(908.448 2469.894)">
        <g id="Grupo_912279" data-name="Grupo 912279" clip-path="url(#clip-path-3)">
          <path id="Trazado_626398" data-name="Trazado 626398" d="M63.666,55.893c-.685.887-1.623.527-2.459.433a7.988,7.988,0,0,1-3.763-1.63,8.908,8.908,0,0,0-3.419-1.8,6.939,6.939,0,0,0-5.555,1.063,15.453,15.453,0,0,1-2.542,1.655,8.67,8.67,0,0,1-8.463-.5c-.791-.488-1.5-1.113-2.323-1.54a6.723,6.723,0,0,0-7.316.426,12.129,12.129,0,0,1-3.814,2.132,8.83,8.83,0,0,1-7.663-1.353,9.141,9.141,0,0,0-3.521-1.88,6.985,6.985,0,0,0-5.5,1.034,14.875,14.875,0,0,1-3.69,2.118,8.662,8.662,0,0,1-2.562.387C.394,56.44,0,56.085,0,55.5a.937.937,0,0,1,1.051-.964,6.518,6.518,0,0,0,3.676-1.111c.3-.2.43-.345.28-.738a5.127,5.127,0,0,1-.288-1.89c.015-1.782,0-3.565.011-5.347a4,4,0,0,0-.286-1.51C3.02,40.3,1.617,36.65.162,33.02c-.426-1.063.157-1.746,1.123-1.638.7.077,1.408,0,2.112.022.34.012.473-.07.456-.437-.03-.662-.011-1.326-.008-1.989,0-.812.3-1.191.92-1.2.642-.007.95.393.951,1.235,0,.643.016,1.286-.006,1.927-.012.327.044.474.425.464,1.1-.027,2.2-.024,3.294,0,.358.007.453-.1.442-.45-.025-.849-.013-1.7-.007-2.549.009-1.295.57-1.861,1.844-1.866.974,0,1.948-.006,2.922,0a1.565,1.565,0,0,1,1.746,1.714c.019.912,0,1.824.009,2.735,0,.141-.106.362.153.4a18.464,18.464,0,0,1,3.351,1.226,1.211,1.211,0,0,0,.631.169V31.378c0-3.481-.01-6.963.012-10.444,0-.487-.118-.619-.613-.617q-6.776.03-13.553,0c-.5,0-.678.1-.661.636.04,1.283.016,2.569.012,3.854,0,.7-.374,1.126-.961,1.113-.558-.013-.905-.421-.908-1.1-.006-1.451-.011-2.9,0-4.352A1.93,1.93,0,0,1,5.89,18.465a10.165,10.165,0,0,1,1.118.007c.445.046.546-.12.543-.549C7.532,14.96,7.541,12,7.542,9.033a2.333,2.333,0,0,1,.27-1.314,1.824,1.824,0,0,1,1.5-.956c.806-.035,1.616-.04,2.423-.024.345.007.475-.084.456-.446-.029-.558-.023-1.119,0-1.678.012-.312-.064-.468-.408-.426a2.508,2.508,0,0,1-.558-.012.925.925,0,0,1-.88-.94.965.965,0,0,1,.847-.929c.327-.066.783.189.958-.146a2.258,2.258,0,0,0,.032-1.041.938.938,0,0,1,.7-1.086.911.911,0,0,1,1.154.729,4.335,4.335,0,0,1,.013.5c.011.327-.085.728.07.962s.575.05.877.085a.99.99,0,0,1,.9.945.959.959,0,0,1-.9.93c-.947.1-.947.1-.947,1.07,0,1.48,0,1.478,1.46,1.481.476,0,.955-.008,1.428.032A1.849,1.849,0,0,1,18.66,8.427a17.846,17.846,0,0,1,.047,1.8c0,2.549.017,5.1-.011,7.647-.005.5.144.653.619.6a7.983,7.983,0,0,1,.932-.007A1.955,1.955,0,0,1,22.4,20.616c.007,4.1.017,8.206-.014,12.31a.868.868,0,0,0,.7,1.01c.662.206,1.292.514,1.979.795V14.223c-.643.257-1.265.51-1.891.753a.984.984,0,0,1-1.4-.465c-.207-.548.044-1.012.712-1.292.684-.285,1.364-.587,2.063-.831a.707.707,0,0,0,.552-.8c-.024-2.321-.014-4.642,0-6.962a1.591,1.591,0,0,1,1.078-1.581,1.658,1.658,0,0,1,1.882.386c.089.086.177.175.264.263.641.649,1.255,1.326,1.928,1.94,1.094,1,1.883,2.106,1.542,3.719a1.9,1.9,0,0,0,.916-.268Q41.473,5.55,50.235,2a4.31,4.31,0,0,1,.4-.167.946.946,0,0,1,1.222.554A.913.913,0,0,1,51.311,3.6c-.677.3-1.367.573-2.062.833a.516.516,0,0,0-.389.581q.029,2.673,0,5.347c0,.4.087.528.505.517,1.2-.03,2.4-.014,3.606-.009.878,0,1.215.322,1.218,1.181q.012,2.891,0,5.782c0,.827-.343,1.16-1.177,1.168q-1.679.016-3.357,0c-.7-.007-1.148-.4-1.134-.957s.47-.933,1.168-.939,1.409-.015,2.114,0c.323.009.475-.044.467-.426-.025-1.181-.022-2.362,0-3.543.006-.337-.109-.407-.422-.406q-3.916.017-7.833,0c-.341,0-.407.113-.4.425.017,1.181.019,2.362,0,3.543-.006.334.1.423.421.408.538-.024,1.078-.017,1.616,0a.991.991,0,0,1,1.057.979A.949.949,0,0,1,45.656,19c-.974.017-1.948.018-2.922,0a.94.94,0,0,1-1.046-1.043q-.026-3.015,0-6.03c.006-.715.37-1.048,1.092-1.052q1.9-.013,3.793,0c.294,0,.443-.03.439-.39C46.992,8.808,47,7.13,47,5.365c-1.146.456-2.245.889-3.341,1.332C39.9,8.214,36.145,9.741,32.379,11.243a.724.724,0,0,0-.552.8q.028,8.113,0,16.226c0,.445.076.6.566.591,1.968-.033,3.937-.026,5.905,0,.411,0,.515-.111.508-.513-.024-1.512-.012-3.025-.009-4.538,0-.893.334-1.224,1.242-1.225q10.289,0,20.578,0c.894,0,1.216.328,1.217,1.248,0,3.565.011,7.129-.009,10.693,0,.476.1.7.6.6a1.382,1.382,0,0,1,1.235.5v.87a3.047,3.047,0,0,1-.7.858,37.118,37.118,0,0,0-5.477,6.392,20.734,20.734,0,0,0-2.9,6.411c-.129.525-.021.744.5.88a8.619,8.619,0,0,1,2.993,1.593,7.254,7.254,0,0,0,4.6,1.755.932.932,0,0,1,.989.763Z" transform="translate(0 0)" fill="#040506"/>
          <path id="Trazado_626399" data-name="Trazado 626399" d="M112.605,88.077a1.365,1.365,0,0,0-1.248-.626,5.858,5.858,0,0,1-3.376-1.032c-1.449-.975-2.792-2.132-4.593-2.465-.4-.074-.118-.441-.079-.619a18.711,18.711,0,0,1,1.75-4.666,33.244,33.244,0,0,1,6.617-8.382c.305-.292.619-.576.929-.864Z" transform="translate(-48.94 -32.931)" fill="#fff"/>
          <path id="Trazado_626400" data-name="Trazado 626400" d="M93.25,109.775a2.971,2.971,0,0,1,1.376.345,5.346,5.346,0,0,0,2.111.953.807.807,0,0,1,.65.981.977.977,0,0,1-1.061.836,2.96,2.96,0,0,1-1.794-.585,2.027,2.027,0,0,0-2.893,0,2.971,2.971,0,0,1-1.731.587A1.026,1.026,0,0,1,88.758,112a.954.954,0,0,1,.889-1.008,2.614,2.614,0,0,0,1.4-.579,3.472,3.472,0,0,1,2.2-.64" transform="translate(-42.099 -52.07)" fill="#050506"/>
          <path id="Trazado_626401" data-name="Trazado 626401" d="M59.826,112.875a3.7,3.7,0,0,1-2-.747,1.667,1.667,0,0,0-2.365.009,3.882,3.882,0,0,1-1.936.74,1.039,1.039,0,0,1-1.19-.834.97.97,0,0,1,.957-1.068,2.581,2.581,0,0,0,1.289-.537,3.483,3.483,0,0,1,4.1-.027,2.82,2.82,0,0,0,1.4.575.955.955,0,0,1,.887,1.01,1.025,1.025,0,0,1-1.149.878" transform="translate(-24.821 -52.062)" fill="#050506"/>
          <path id="Trazado_626402" data-name="Trazado 626402" d="M18.618,109.774a3.376,3.376,0,0,1,2.118.662,2.532,2.532,0,0,0,1.344.554.93.93,0,0,1,.894,1.052,1,1,0,0,1-1.112.844,3.76,3.76,0,0,1-1.947-.7c-1.063-.726-1.447-.722-2.518.017a3.723,3.723,0,0,1-1.889.685.961.961,0,0,1-1.123-.813.911.911,0,0,1,.907-1.088,2.429,2.429,0,0,0,1.289-.534,3.3,3.3,0,0,1,2.036-.677" transform="translate(-6.819 -52.069)" fill="#050506"/>
          <path id="Trazado_626403" data-name="Trazado 626403" d="M15.937,43.652a2.5,2.5,0,0,1-.079.484.907.907,0,0,1-1.105.647c-.562-.116-.795-.6-.75-1.564.03-.641.347-1.034.875-1.084.677-.064,1.06.418,1.06,1.518" transform="translate(-6.639 -19.983)" fill="#09090a"/>
          <path id="Trazado_626404" data-name="Trazado 626404" d="M32.238,43.269a3.231,3.231,0,0,1,.08-.485.852.852,0,0,1,.868-.653c.712-.026,1.066.58.983,1.657a.964.964,0,0,1-1.132,1c-.551-.082-.8-.5-.8-1.518" transform="translate(-15.292 -19.984)" fill="#09090a"/>
          <path id="Trazado_626405" data-name="Trazado 626405" d="M25.049,43.442c0,.957-.279,1.353-.949,1.345-.7-.009-.933-.4-.919-1.56.008-.7.37-1.121.95-1.111.622.011.918.438.918,1.327" transform="translate(-10.995 -19.976)" fill="#060608"/>
          <path id="Trazado_626406" data-name="Trazado 626406" d="M62.5,67a39.359,39.359,0,0,0-4.23,5.071.376.376,0,0,1-.367.17c-.166-.007-.332,0-.5,0q-24.365,0-48.729.017a.941.941,0,0,1-1.046-.734c-1.033-2.731-2.1-5.447-3.164-8.175a.994.994,0,0,1,.621-.075q6.5-.007,12.991-.008a2.565,2.565,0,0,1,1.016.206c2.548,1.059,5.1,2.1,7.654,3.155A4.912,4.912,0,0,0,28.667,67C39.9,66.992,51.125,67,62.5,67" transform="translate(-2.116 -30.003)" fill="#fff"/>
          <path id="Trazado_626407" data-name="Trazado 626407" d="M58.626,88.913a.446.446,0,0,1,.007.129c-.131.517-.114,1.195-.443,1.5-.3.282-.983.14-1.489.227A8.677,8.677,0,0,0,53.065,92.4a8.8,8.8,0,0,1-3.723,1.864,6.976,6.976,0,0,1-5.352-1.2,12.145,12.145,0,0,0-3.41-1.984,8.672,8.672,0,0,0-7.542.93,18.373,18.373,0,0,1-2.761,1.769,6.79,6.79,0,0,1-6.773-.648,14.156,14.156,0,0,0-3.337-1.994,8.879,8.879,0,0,0-7.089.484c-.091.047-.184.09-.278.132-.016.008-.04,0-.1,0a9.308,9.308,0,0,1-.185-2.666c-.008-.2.1-.243.27-.234.145.008.29,0,.435,0q15.043,0,30.087,0a3.014,3.014,0,0,0,.736-.06.85.85,0,0,0,.689-.906.834.834,0,0,0-.7-.893,3.719,3.719,0,0,0-.8-.068q-15.042,0-30.086.009c-.5,0-.689-.09-.646-.628a15.019,15.019,0,0,0-.009-1.988c-.016-.287.065-.373.33-.352.145.012.29,0,.435,0H59.94c.145,0,.29,0,.435,0,.253,0,.336.06.2.327-.4.791-.795,1.584-1.148,2.4-.151.348-.408.225-.624.226-3.585.008-7.17,0-10.754.009a3.385,3.385,0,0,0-.737.065.855.855,0,0,0-.719.884.9.9,0,0,0,.684.92,1.977,1.977,0,0,0,.675.059q5,0,10.008,0a1.354,1.354,0,0,1,.665.053" transform="translate(-5.924 -39.828)" fill="#fff"/>
          <path id="Trazado_626408" data-name="Trazado 626408" d="M51.31,9.933c.892.846,1.779,1.681,2.659,2.524a1.177,1.177,0,0,1,.334.9q0,13.022.005,26.044c0,.351-.091.457-.444.444-.724-.027-1.45-.021-2.175,0-.291.007-.429-.069-.381-.375a1.163,1.163,0,0,0,0-.187V9.933Z" transform="translate(-24.333 -4.712)" fill="#fff"/>
          <path id="Trazado_626409" data-name="Trazado 626409" d="M25.308,21.368c0,1.47-.016,2.941.011,4.411.007.393-.107.475-.483.472-2.133-.019-4.266-.023-6.4,0-.432.005-.495-.142-.493-.523q.022-4.411,0-8.822c0-.409.11-.512.513-.508,2.112.021,4.225.025,6.336,0,.459-.006.533.148.526.559-.025,1.47-.009,2.941-.009,4.411" transform="translate(-8.51 -7.778)" fill="#fff"/>
          <path id="Trazado_626410" data-name="Trazado 626410" d="M81.7,62.878c-1.283,0-2.567-.014-3.85.009-.375.006-.5-.083-.486-.477.029-1.159.021-2.319,0-3.477,0-.317.073-.428.409-.427q3.943.02,7.887,0c.329,0,.416.094.411.415-.018,1.18-.024,2.36,0,3.539.008.382-.141.428-.465.424-1.3-.016-2.608-.007-3.912-.007" transform="translate(-36.696 -27.751)" fill="#fff"/>
          <path id="Trazado_626411" data-name="Trazado 626411" d="M101.843,58.512c1.3,0,2.606.013,3.908-.008.357-.006.447.1.441.449q-.031,1.736,0,3.474c.005.331-.055.462-.428.459q-3.909-.025-7.817,0c-.346,0-.461-.086-.454-.445.022-1.158.028-2.317,0-3.474-.011-.419.159-.465.507-.46,1.282.017,2.564.007,3.846.007" transform="translate(-46.242 -27.75)" fill="#fff"/>
          <path id="Trazado_626412" data-name="Trazado 626412" d="M81.747,46.59c1.284,0,2.567.015,3.851-.009.38-.007.489.091.48.477-.027,1.159-.021,2.319,0,3.478.005.327-.094.414-.416.412q-3.913-.018-7.825,0c-.335,0-.475-.071-.467-.443q.035-1.738,0-3.477c-.007-.372.132-.447.467-.443,1.3.015,2.608.006,3.913.006" transform="translate(-36.698 -22.095)" fill="#fffeff"/>
          <path id="Trazado_626413" data-name="Trazado 626413" d="M101.84,50.939c-1.262,0-2.523-.015-3.784.008-.415.008-.581-.083-.567-.539.034-1.095.023-2.192,0-3.288-.006-.375.053-.548.5-.544,2.585.023,5.169.018,7.754,0,.354,0,.453.094.447.446q-.032,1.736,0,3.474c.006.349-.088.455-.445.448-1.3-.022-2.605-.008-3.908-.008" transform="translate(-46.242 -22.093)" fill="#fffeff"/>
          <path id="Trazado_626414" data-name="Trazado 626414" d="M64.095,58.512c.995,0,1.99.015,2.984-.008.351-.008.453.09.446.444q-.032,1.74,0,3.481c.005.336-.064.46-.433.456q-3.047-.028-6.093,0c-.345,0-.458-.083-.451-.442.023-1.16.03-2.321,0-3.481-.012-.422.157-.463.5-.456,1.015.019,2.031.007,3.046.007" transform="translate(-28.718 -27.75)" fill="#fff"/>
          <path id="Trazado_626415" data-name="Trazado 626415" d="M22.43,55.5c0-1.456,0-1.456,1.457-1.456,1.2,0,1.2,0,1.2,1.221,0,.474-.015.949.005,1.423.012.273-.081.354-.35.347-.659-.017-1.32-.019-1.98,0-.286.008-.346-.106-.335-.361.017-.391,0-.783,0-1.175" transform="translate(-10.637 -25.636)" fill="#fff"/>
          <path id="Trazado_626416" data-name="Trazado 626416" d="M93.743,75.733a8.972,8.972,0,0,1-.929-.006.914.914,0,0,1-.845-.967.833.833,0,0,1,.834-.894,16.948,16.948,0,0,1,1.856-.005.917.917,0,0,1,.9.917.986.986,0,0,1-.952.955c-.288.019-.578,0-.867,0v0" transform="translate(-43.624 -35.024)" fill="#060607"/>
          <path id="Trazado_626417" data-name="Trazado 626417" d="M25.027,20.429a3.27,3.27,0,0,1-.005.556.931.931,0,0,1-1.84,0A4.67,4.67,0,0,1,23.171,20a.93.93,0,0,1,1.86,0c.009.144,0,.289,0,.433h0" transform="translate(-10.981 -9.047)" fill="#070708"/>
          <path id="Trazado_626418" data-name="Trazado 626418" d="M23.181,27.492a2.838,2.838,0,0,1,.006-.556.876.876,0,0,1,.955-.779.865.865,0,0,1,.894.843,6.505,6.505,0,0,1,.007.8.939.939,0,1,1-1.866,0c0-.1,0-.206,0-.309h.006" transform="translate(-10.99 -12.407)" fill="#070708"/>
        </g>
      </g>
      <rect id="Rectángulo_337011" data-name="Rectángulo 337011" width="218.15" height="72" transform="translate(768.85 2607)" fill="#e6e7e8"/>
      <path id="Trazado_626261" data-name="Trazado 626261" d="M1550.088-9287.016l-1.75-11.161h183.668l1.514,10.323-1.514,12.459-183.668-.522Z" transform="translate(-758.337 11660.677)" fill="url(#linear-gradient)"/>
      <line id="Línea_412" data-name="Línea 412" y2="294" transform="translate(768.85 2257)" fill="none" stroke="#a2a2a2" stroke-width="2"/>
      <rect id="Rectángulo_337010" data-name="Rectángulo 337010" width="221" height="39" transform="translate(767 2551)" fill="#e6e7e8"/>
      <path id="Trazado_626449" data-name="Trazado 626449" d="M22.1,12.663a6.977,6.977,0,0,1-.817,3.4,5.828,5.828,0,0,1-2.285,2.329,6.557,6.557,0,0,1-3.287.831,6.563,6.563,0,0,1-3.23-.8,5.691,5.691,0,0,1-2.263-2.259,6.659,6.659,0,0,1-.809-3.292A7.263,7.263,0,0,1,10.223,9.4a5.807,5.807,0,0,1,2.294-2.377,6.673,6.673,0,0,1,3.357-.839,6.486,6.486,0,0,1,3.239.8,5.483,5.483,0,0,1,2.206,2.294A7.192,7.192,0,0,1,22.1,12.663Zm-4.025.105a4.375,4.375,0,0,0-.6-2.452,1.867,1.867,0,0,0-1.635-.9,2.067,2.067,0,0,0-1.767.861,4.054,4.054,0,0,0-.633,2.435,4.007,4.007,0,0,0,.628,2.4,2,2,0,0,0,1.709.861,1.957,1.957,0,0,0,1.187-.387,2.477,2.477,0,0,0,.817-1.107A4.582,4.582,0,0,0,18.071,12.769Zm15.618,1.459a6.4,6.4,0,0,1-.5,2.61A4.046,4.046,0,0,1,31.773,18.6a3.564,3.564,0,0,1-2.057.624,2.755,2.755,0,0,1-2.4-1.151h-.035V23.14H23.538V10h3.744v1.222h.035a3.171,3.171,0,0,1,1.16-1.059,3.364,3.364,0,0,1,1.617-.382,3.215,3.215,0,0,1,2.667,1.16A5.147,5.147,0,0,1,33.689,14.228Zm-3.8.114a2.346,2.346,0,0,0-.33-1.336,1.237,1.237,0,0,0-1.982.026,2.341,2.341,0,0,0-.369,1.4v.176a2.562,2.562,0,0,0,.316,1.362,1.044,1.044,0,0,0,.949.51,1.182,1.182,0,0,0,1.046-.558A2.849,2.849,0,0,0,29.893,14.342Zm8.429,1.222a1.265,1.265,0,0,0,.668.91,3.012,3.012,0,0,0,1.512.33,6.226,6.226,0,0,0,2.479-.5v2.373a8.908,8.908,0,0,1-3.3.545,5.214,5.214,0,0,1-3.665-1.2A4.277,4.277,0,0,1,34.7,14.7a5.467,5.467,0,0,1,.576-2.558,4.142,4.142,0,0,1,1.705-1.736,5.038,5.038,0,0,1,2.492-.628,4.9,4.9,0,0,1,2.391.545,3.63,3.63,0,0,1,1.507,1.529,4.906,4.906,0,0,1,.514,2.3v1.406Zm2.25-1.96q0-1.556-1.116-1.556a.944.944,0,0,0-.782.426A2.127,2.127,0,0,0,38.3,13.6Zm11.373-.4a3.6,3.6,0,0,0-1.169-.255q-1.854,0-1.854,2.145V19H45.177V10h3.744v1.582h.035a2.81,2.81,0,0,1,.976-1.3,2.506,2.506,0,0,1,1.477-.444,1.269,1.269,0,0,1,.536.105ZM58.018,19V17.629h-.035A2.944,2.944,0,0,1,55.24,19.22a2.625,2.625,0,0,1-2-.756,2.808,2.808,0,0,1-.721-2.021q0-2.654,3.261-3.076l2.232-.29a.851.851,0,0,0-.4-.721,1.8,1.8,0,0,0-1.063-.281,7,7,0,0,0-3.19.861V10.5A8.535,8.535,0,0,1,55.2,9.982a10.639,10.639,0,0,1,1.881-.2,4.722,4.722,0,0,1,3.327.98,4.368,4.368,0,0,1,1.033,3.274V19ZM55.8,15.941a.83.83,0,0,0,.233.606.888.888,0,0,0,.664.237,1.18,1.18,0,0,0,.954-.439,1.7,1.7,0,0,0,.365-1.125v-.343l-1.266.176Q55.8,15.212,55.8,15.941ZM69.136,19V17.954H69.1a3.089,3.089,0,0,1-1.169.927,3.331,3.331,0,0,1-1.424.338,3.663,3.663,0,0,1-2.03-.567,3.443,3.443,0,0,1-1.314-1.586,6.106,6.106,0,0,1-.435-2.408,5.925,5.925,0,0,1,.519-2.54A4.059,4.059,0,0,1,64.706,10.4a3.769,3.769,0,0,1,2.109-.615,3.193,3.193,0,0,1,1.024.158,2.77,2.77,0,0,1,.817.426,1.273,1.273,0,0,1,.444.532h.035V5.676H72.88V19Zm.079-4.772a1.974,1.974,0,0,0-.356-1.257,1.2,1.2,0,0,0-1.951.11,2.593,2.593,0,0,0-.382,1.49q0,1.907,1.318,1.907a1.173,1.173,0,0,0,1-.514,2.531,2.531,0,0,0,.374-1.5Zm15.478.114a4.687,4.687,0,0,1-1.375,3.577,6.355,6.355,0,0,1-7.664.031,4.546,4.546,0,0,1-1.367-3.5,4.692,4.692,0,0,1,.642-2.487,4.172,4.172,0,0,1,1.828-1.617,6.311,6.311,0,0,1,2.733-.562,6.113,6.113,0,0,1,2.773.589A4.286,4.286,0,0,1,84.064,12,4.452,4.452,0,0,1,84.692,14.342Zm-3.8.018q0-1.837-1.406-1.837t-1.406,1.925q0,2.03,1.424,2.03Q80.9,16.478,80.9,14.359Zm11.962-1.151a3.6,3.6,0,0,0-1.169-.255q-1.854,0-1.854,2.145V19H86.09V10h3.744v1.582h.035a2.81,2.81,0,0,1,.976-1.3,2.506,2.506,0,0,1,1.477-.444,1.269,1.269,0,0,1,.536.105Zm4.307,2.355a1.265,1.265,0,0,0,.668.91,3.012,3.012,0,0,0,1.512.33,6.226,6.226,0,0,0,2.479-.5v2.373a8.908,8.908,0,0,1-3.3.545,5.214,5.214,0,0,1-3.665-1.2,4.277,4.277,0,0,1-1.31-3.313,5.467,5.467,0,0,1,.576-2.558,4.142,4.142,0,0,1,1.705-1.736,5.038,5.038,0,0,1,2.492-.628,4.9,4.9,0,0,1,2.391.545,3.63,3.63,0,0,1,1.507,1.529,4.906,4.906,0,0,1,.514,2.3v1.406Zm2.25-1.96q0-1.556-1.116-1.556a.944.944,0,0,0-.782.426,2.127,2.127,0,0,0-.369,1.129Zm11.918,2.408a2.749,2.749,0,0,1-1.165,2.369,5.474,5.474,0,0,1-3.248.839,11.291,11.291,0,0,1-1.5-.123,9.257,9.257,0,0,1-1.455-.3V16.17a7.162,7.162,0,0,0,2.777.738q1.1,0,1.1-.571a.451.451,0,0,0-.255-.391,9.009,9.009,0,0,0-1.336-.514,3.773,3.773,0,0,1-1.74-1,2.382,2.382,0,0,1-.545-1.626,2.594,2.594,0,0,1,1.112-2.21A5.216,5.216,0,0,1,108.2,9.78a9.931,9.931,0,0,1,2.5.343v2.522a7.549,7.549,0,0,0-1.213-.4,4.9,4.9,0,0,0-1.107-.158,1.205,1.205,0,0,0-.589.123.379.379,0,0,0-.22.343.478.478,0,0,0,.237.413,4.2,4.2,0,0,0,.949.378,4.4,4.4,0,0,1,1.978,1.037A2.272,2.272,0,0,1,111.332,16.012ZM117.713,19V5.676h3.744V19Zm15.557-4.658a4.687,4.687,0,0,1-1.375,3.577,6.355,6.355,0,0,1-7.664.031,4.546,4.546,0,0,1-1.367-3.5,4.692,4.692,0,0,1,.642-2.487,4.172,4.172,0,0,1,1.828-1.617,6.311,6.311,0,0,1,2.733-.562,6.113,6.113,0,0,1,2.773.589,4.286,4.286,0,0,1,1.8,1.635A4.452,4.452,0,0,1,133.27,14.342Zm-3.8.018q0-1.837-1.406-1.837t-1.406,1.925q0,2.03,1.424,2.03Q129.473,16.478,129.473,14.359Zm14.95,3.384a5.116,5.116,0,0,1-1.63,4.039,6.962,6.962,0,0,1-4.759,1.446A9.93,9.93,0,0,1,136.4,23.1a4.5,4.5,0,0,1-1.134-.3V19.861a5.656,5.656,0,0,0,2.663.773,3.122,3.122,0,0,0,2.013-.606,1.959,1.959,0,0,0,.756-1.608v-.554h-.035a2.909,2.909,0,0,1-1.112.984,3.23,3.23,0,0,1-1.516.369,3.4,3.4,0,0,1-2.751-1.208,5.045,5.045,0,0,1-1.011-3.335A5.964,5.964,0,0,1,134.8,12.1a4.018,4.018,0,0,1,1.468-1.718,3.769,3.769,0,0,1,2.074-.6,2.6,2.6,0,0,1,2.32,1.151h.035V10h3.727Zm-3.665-3.5a2.02,2.02,0,0,0-.356-1.257,1.13,1.13,0,0,0-.945-.466,1.163,1.163,0,0,0-1.011.563,2.656,2.656,0,0,0-.378,1.5,2.6,2.6,0,0,0,.316,1.38,1.092,1.092,0,0,0,1,.51,1.161,1.161,0,0,0,1.006-.523,2.408,2.408,0,0,0,.365-1.4ZM146.225,19V10h3.744v9Zm2.338-10.424h-2.646l2.628-2.821h3.146Zm10.521,7.436a2.749,2.749,0,0,1-1.165,2.369,5.474,5.474,0,0,1-3.248.839,11.291,11.291,0,0,1-1.5-.123,9.257,9.257,0,0,1-1.455-.3V16.17a7.162,7.162,0,0,0,2.777.738q1.1,0,1.1-.571a.451.451,0,0,0-.255-.391A9.009,9.009,0,0,0,154,15.432a3.773,3.773,0,0,1-1.74-1,2.382,2.382,0,0,1-.545-1.626,2.594,2.594,0,0,1,1.112-2.21,5.216,5.216,0,0,1,3.125-.813,9.931,9.931,0,0,1,2.5.343v2.522a7.549,7.549,0,0,0-1.213-.4,4.9,4.9,0,0,0-1.107-.158,1.205,1.205,0,0,0-.589.123.379.379,0,0,0-.22.343.478.478,0,0,0,.237.413,4.2,4.2,0,0,0,.949.378,4.4,4.4,0,0,1,1.978,1.037A2.272,2.272,0,0,1,159.083,16.012Zm7.717,2.865a3.648,3.648,0,0,1-.835.233,7.634,7.634,0,0,1-1.4.11,3.357,3.357,0,0,1-2.448-.861,3.269,3.269,0,0,1-.883-2.452V12.593h-1.415V10h1.415V8.233l3.691-1.02V10H166.8v2.593h-1.872v2.7q0,1.187.94,1.187a2.551,2.551,0,0,0,.932-.193Zm5.133-11.3a1.608,1.608,0,0,1-.576,1.283,2.252,2.252,0,0,1-1.516.492,2.2,2.2,0,0,1-1.5-.51,1.612,1.612,0,0,1-.584-1.266,1.561,1.561,0,0,1,.567-1.252,2.639,2.639,0,0,1,3.032,0A1.551,1.551,0,0,1,171.933,7.574ZM167.969,19V10h3.744v9Zm12.964-.255a3.529,3.529,0,0,1-1.134.343,10.719,10.719,0,0,1-1.784.132,5.488,5.488,0,0,1-2.544-.576,4.2,4.2,0,0,1-1.736-1.613,4.478,4.478,0,0,1-.615-2.329,5.1,5.1,0,0,1,.655-2.65,4.268,4.268,0,0,1,1.868-1.687,6.407,6.407,0,0,1,2.813-.584,9.839,9.839,0,0,1,1.578.114,2.411,2.411,0,0,1,.9.264v2.918a2.6,2.6,0,0,0-.809-.387,3.248,3.248,0,0,0-.976-.167,2.375,2.375,0,0,0-1.666.523,1.9,1.9,0,0,0-.567,1.472,1.868,1.868,0,0,0,.558,1.446,2.177,2.177,0,0,0,1.534.514,3.82,3.82,0,0,0,1.925-.5Zm11.5-4.4a4.687,4.687,0,0,1-1.375,3.577,6.355,6.355,0,0,1-7.664.031,4.546,4.546,0,0,1-1.367-3.5,4.692,4.692,0,0,1,.642-2.487,4.172,4.172,0,0,1,1.828-1.617,6.311,6.311,0,0,1,2.733-.562,6.113,6.113,0,0,1,2.773.589,4.286,4.286,0,0,1,1.8,1.635A4.452,4.452,0,0,1,192.438,14.342Zm-3.8.018q0-1.837-1.406-1.837t-1.406,1.925q0,2.03,1.424,2.03Q188.641,16.478,188.641,14.359Zm12.507,1.652a2.749,2.749,0,0,1-1.165,2.369,5.474,5.474,0,0,1-3.248.839,11.291,11.291,0,0,1-1.5-.123,9.257,9.257,0,0,1-1.455-.3V16.17a7.162,7.162,0,0,0,2.777.738q1.1,0,1.1-.571a.451.451,0,0,0-.255-.391,9.009,9.009,0,0,0-1.336-.514,3.773,3.773,0,0,1-1.74-1,2.382,2.382,0,0,1-.545-1.626,2.594,2.594,0,0,1,1.112-2.21,5.216,5.216,0,0,1,3.125-.813,9.931,9.931,0,0,1,2.5.343v2.522a7.549,7.549,0,0,0-1.213-.4,4.9,4.9,0,0,0-1.107-.158,1.205,1.205,0,0,0-.589.123.379.379,0,0,0-.22.343.478.478,0,0,0,.237.413,4.2,4.2,0,0,0,.949.378,4.4,4.4,0,0,1,1.978,1.037A2.272,2.272,0,0,1,201.147,16.012Z" transform="translate(773.196 2556.049)" fill="#12263f"/>
      <path id="Trazado_626443" data-name="Trazado 626443" d="M9.316,8.438V17H5.926V8.438H2.793V5.8h9.7V8.438Zm10.227,3.414a3.2,3.2,0,0,0-1.039-.227q-1.648,0-1.648,1.906V17H13.527V9h3.328v1.406h.031a2.5,2.5,0,0,1,.867-1.152,2.228,2.228,0,0,1,1.313-.395,1.128,1.128,0,0,1,.477.094ZM24.941,17V15.781H24.91A2.617,2.617,0,0,1,22.473,17.2a2.334,2.334,0,0,1-1.773-.672,2.5,2.5,0,0,1-.641-1.8q0-2.359,2.9-2.734l1.984-.258a.757.757,0,0,0-.352-.641,1.6,1.6,0,0,0-.945-.25,6.226,6.226,0,0,0-2.836.766V9.445a7.587,7.587,0,0,1,1.625-.461,9.457,9.457,0,0,1,1.672-.18,4.2,4.2,0,0,1,2.957.871,3.883,3.883,0,0,1,.918,2.91V17Zm-1.969-2.719a.737.737,0,0,0,.207.539.789.789,0,0,0,.59.211,1.049,1.049,0,0,0,.848-.391,1.513,1.513,0,0,0,.324-1v-.3l-1.125.156Q22.973,13.633,22.973,14.281ZM34.668,17V12.633a1.942,1.942,0,0,0-.223-1.066.814.814,0,0,0-.723-.324.782.782,0,0,0-.672.336,1.434,1.434,0,0,0-.242.859V17H29.48V9h3.328v1.25h.031a2.824,2.824,0,0,1,1.07-1.066A2.924,2.924,0,0,1,35.371,8.8Q38,8.8,38,12.117V17ZM46,14.344a2.444,2.444,0,0,1-1.035,2.105,4.866,4.866,0,0,1-2.887.746,10.037,10.037,0,0,1-1.332-.109,8.229,8.229,0,0,1-1.293-.266V14.484a6.366,6.366,0,0,0,2.469.656q.977,0,.977-.508a.4.4,0,0,0-.227-.348,8.008,8.008,0,0,0-1.187-.457,3.353,3.353,0,0,1-1.547-.891,2.118,2.118,0,0,1-.484-1.445,2.306,2.306,0,0,1,.988-1.965A4.637,4.637,0,0,1,43.215,8.8a8.828,8.828,0,0,1,2.219.3v2.242A6.71,6.71,0,0,0,44.355,11a4.355,4.355,0,0,0-.984-.141,1.072,1.072,0,0,0-.523.109.336.336,0,0,0-.2.3.425.425,0,0,0,.211.367,3.731,3.731,0,0,0,.844.336,3.915,3.915,0,0,1,1.758.922A2.02,2.02,0,0,1,46,14.344Zm10.25-1.586a5.692,5.692,0,0,1-.445,2.32,3.6,3.6,0,0,1-1.258,1.563,3.168,3.168,0,0,1-1.828.555,2.449,2.449,0,0,1-2.133-1.023h-.031V20.68H47.223V9h3.328v1.086h.031a2.819,2.819,0,0,1,1.031-.941,2.99,2.99,0,0,1,1.438-.34,2.858,2.858,0,0,1,2.371,1.031A4.576,4.576,0,0,1,56.246,12.758Zm-3.375.1a2.085,2.085,0,0,0-.293-1.187,1.1,1.1,0,0,0-1.762.023,2.081,2.081,0,0,0-.328,1.242v.156A2.277,2.277,0,0,0,50.77,14.3a.928.928,0,0,0,.844.453,1.051,1.051,0,0,0,.93-.5A2.533,2.533,0,0,0,52.871,12.859Zm13.523,0a4.166,4.166,0,0,1-1.223,3.18,5.649,5.649,0,0,1-6.812.027,4.041,4.041,0,0,1-1.215-3.113,4.171,4.171,0,0,1,.57-2.211A3.709,3.709,0,0,1,59.34,9.3a5.61,5.61,0,0,1,2.43-.5,5.434,5.434,0,0,1,2.465.523,3.81,3.81,0,0,1,1.6,1.453A3.957,3.957,0,0,1,66.395,12.859Zm-3.375.016q0-1.633-1.25-1.633t-1.25,1.711q0,1.8,1.266,1.8Q63.02,14.758,63.02,12.875Zm10.633-1.023a3.2,3.2,0,0,0-1.039-.227q-1.648,0-1.648,1.906V17H67.637V9h3.328v1.406H71a2.5,2.5,0,0,1,.867-1.152,2.228,2.228,0,0,1,1.313-.395,1.128,1.128,0,0,1,.477.094Zm6.594,5.039a3.242,3.242,0,0,1-.742.207,6.786,6.786,0,0,1-1.242.1,2.984,2.984,0,0,1-2.176-.766,2.906,2.906,0,0,1-.785-2.18V11.3H74.043V9H75.3V7.43l3.281-.906V9h1.664v2.3H78.582v2.4q0,1.055.836,1.055a2.268,2.268,0,0,0,.828-.172Zm3.906-2.945a1.124,1.124,0,0,0,.594.809,2.677,2.677,0,0,0,1.344.293,5.534,5.534,0,0,0,2.2-.445v2.109a7.918,7.918,0,0,1-2.937.484,4.635,4.635,0,0,1-3.258-1.07,3.8,3.8,0,0,1-1.164-2.945,4.859,4.859,0,0,1,.512-2.273,3.682,3.682,0,0,1,1.516-1.543A4.478,4.478,0,0,1,85.176,8.8a4.358,4.358,0,0,1,2.125.484,3.227,3.227,0,0,1,1.34,1.359A4.361,4.361,0,0,1,89.1,12.7v1.25Zm2-1.742q0-1.383-.992-1.383a.84.84,0,0,0-.7.379,1.891,1.891,0,0,0-.328,1ZM21.207,37.758a5.692,5.692,0,0,1-.445,2.32A3.6,3.6,0,0,1,19.5,41.641a3.168,3.168,0,0,1-1.828.555,2.449,2.449,0,0,1-2.133-1.023h-.031V45.68H12.184V34h3.328v1.086h.031a2.819,2.819,0,0,1,1.031-.941,2.99,2.99,0,0,1,1.438-.34,2.858,2.858,0,0,1,2.371,1.031A4.576,4.576,0,0,1,21.207,37.758Zm-3.375.1a2.085,2.085,0,0,0-.293-1.187,1.1,1.1,0,0,0-1.762.023,2.081,2.081,0,0,0-.328,1.242v.156A2.277,2.277,0,0,0,15.73,39.3a.928.928,0,0,0,.844.453,1.051,1.051,0,0,0,.93-.5A2.533,2.533,0,0,0,17.832,37.859Zm10.641-1.008a3.2,3.2,0,0,0-1.039-.227q-1.648,0-1.648,1.906V42H22.457V34h3.328v1.406h.031a2.5,2.5,0,0,1,.867-1.152A2.228,2.228,0,0,1,28,33.859a1.128,1.128,0,0,1,.477.094Zm4.484-5.008a1.429,1.429,0,0,1-.512,1.141,2,2,0,0,1-1.348.438,1.953,1.953,0,0,1-1.332-.453,1.433,1.433,0,0,1-.52-1.125,1.388,1.388,0,0,1,.5-1.113,2.346,2.346,0,0,1,2.7,0A1.379,1.379,0,0,1,32.957,31.844ZM29.434,42V34h3.328v8Zm10.117,0V37.633a1.942,1.942,0,0,0-.223-1.066.814.814,0,0,0-.723-.324.782.782,0,0,0-.672.336,1.434,1.434,0,0,0-.242.859V42H34.363V34h3.328v1.25h.031a2.824,2.824,0,0,1,1.07-1.066,2.924,2.924,0,0,1,1.461-.379q2.625,0,2.625,3.313V42Zm11.422-.227a3.137,3.137,0,0,1-1.008.3,9.528,9.528,0,0,1-1.586.117,4.878,4.878,0,0,1-2.262-.512,3.734,3.734,0,0,1-1.543-1.434,3.98,3.98,0,0,1-.547-2.07,4.534,4.534,0,0,1,.582-2.355,3.794,3.794,0,0,1,1.66-1.5,5.7,5.7,0,0,1,2.5-.52,8.746,8.746,0,0,1,1.4.1,2.143,2.143,0,0,1,.8.234v2.594a2.311,2.311,0,0,0-.719-.344,2.887,2.887,0,0,0-.867-.148,2.112,2.112,0,0,0-1.48.465,1.692,1.692,0,0,0-.5,1.309,1.66,1.66,0,0,0,.5,1.285,1.935,1.935,0,0,0,1.363.457,3.4,3.4,0,0,0,1.711-.445Zm4.852-9.93a1.429,1.429,0,0,1-.512,1.141,2,2,0,0,1-1.348.438,1.953,1.953,0,0,1-1.332-.453,1.433,1.433,0,0,1-.52-1.125,1.388,1.388,0,0,1,.5-1.113,2.346,2.346,0,0,1,2.7,0A1.379,1.379,0,0,1,55.824,31.844ZM52.3,42V34h3.328v8Zm13.953-4.242a5.692,5.692,0,0,1-.445,2.32,3.6,3.6,0,0,1-1.258,1.563,3.168,3.168,0,0,1-1.828.555,2.449,2.449,0,0,1-2.133-1.023h-.031V45.68H57.23V34h3.328v1.086h.031a2.819,2.819,0,0,1,1.031-.941,2.99,2.99,0,0,1,1.438-.34,2.858,2.858,0,0,1,2.371,1.031A4.576,4.576,0,0,1,66.254,37.758Zm-3.375.1a2.085,2.085,0,0,0-.293-1.187,1.1,1.1,0,0,0-1.762.023,2.081,2.081,0,0,0-.328,1.242v.156a2.277,2.277,0,0,0,.281,1.211.928.928,0,0,0,.844.453,1.051,1.051,0,0,0,.93-.5A2.533,2.533,0,0,0,62.879,37.859ZM71.941,42V40.781H71.91A2.617,2.617,0,0,1,69.473,42.2a2.334,2.334,0,0,1-1.773-.672,2.5,2.5,0,0,1-.641-1.8q0-2.359,2.9-2.734l1.984-.258a.757.757,0,0,0-.352-.641,1.6,1.6,0,0,0-.945-.25,6.226,6.226,0,0,0-2.836.766V34.445a7.587,7.587,0,0,1,1.625-.461,9.457,9.457,0,0,1,1.672-.18,4.2,4.2,0,0,1,2.957.871,3.883,3.883,0,0,1,.918,2.91V42Zm-1.969-2.719a.737.737,0,0,0,.207.539.789.789,0,0,0,.59.211,1.049,1.049,0,0,0,.848-.391,1.513,1.513,0,0,0,.324-1v-.3l-1.125.156Q69.973,38.633,69.973,39.281ZM76.48,42V30.156h3.328V42Z" transform="translate(836.842 2615.516)" fill="#12263f"/>
    </g>
  </g>
</svg>
