<svg xmlns="http://www.w3.org/2000/svg" width="57.801" height="57.801" viewBox="0 0 57.801 57.801">
  <g id="ahorro-de-dinero" transform="translate(-1 -1)">
    <g id="Grupo_86032" data-name="Grupo 86032" transform="translate(1.932 1.932)">
      <g id="Grupo_86023" data-name="Grupo 86023" transform="translate(13.052 22.374)">
        <path id="Trazado_150578" data-name="Trazado 150578" d="M53.291,26a1.87,1.87,0,0,1,1.865,1.865,1.878,1.878,0,0,1-1.865,1.865H17.865A1.87,1.87,0,0,1,16,27.865,1.878,1.878,0,0,1,17.865,26Z" transform="translate(-16 -26)" fill="#aab2bd"/>
      </g>
      <g id="Grupo_86024" data-name="Grupo 86024" transform="translate(9.323 26.104)">
        <path id="Trazado_150579" data-name="Trazado 150579" d="M58,41.374a14.426,14.426,0,0,0-1.79-3.794L51.155,30h-31.7l-5.053,7.579A14.317,14.317,0,0,0,26.31,59.833H44.3A14.308,14.308,0,0,0,58,41.374Z" transform="translate(-12 -30)" fill="#ccd1d9"/>
      </g>
      <g id="Grupo_86025" data-name="Grupo 86025" transform="translate(24.239 50.343)">
        <path id="Trazado_150580" data-name="Trazado 150580" d="M42.916,56h1.865a1.87,1.87,0,0,1,1.865,1.865v1.865a1.87,1.87,0,0,1-1.865,1.865H29.865A1.87,1.87,0,0,1,28,59.729V57.865A1.87,1.87,0,0,1,29.865,56H42.916Z" transform="translate(-28 -56)" fill="#ffc729"/>
      </g>
      <g id="Grupo_86026" data-name="Grupo 86026" transform="translate(27.968 39.155)">
        <path id="Trazado_150581" data-name="Trazado 150581" d="M46.916,44h1.865a1.87,1.87,0,0,1,1.865,1.865v1.865a1.87,1.87,0,0,1-1.865,1.865H33.865A1.87,1.87,0,0,1,32,47.729V45.865A1.87,1.87,0,0,1,33.865,44H46.916Z" transform="translate(-32 -44)" fill="#ffc729"/>
      </g>
      <g id="Grupo_86027" data-name="Grupo 86027" transform="translate(20.51 44.749)">
        <path id="Trazado_150582" data-name="Trazado 150582" d="M38.916,50h1.865a1.87,1.87,0,0,1,1.865,1.865v1.865a1.87,1.87,0,0,1-1.865,1.865H25.865A1.87,1.87,0,0,1,24,53.729V51.865A1.87,1.87,0,0,1,25.865,50H38.916Z" transform="translate(-24 -50)" fill="#fcd770"/>
      </g>
      <g id="Grupo_86028" data-name="Grupo 86028" transform="translate(24.239 33.562)">
        <path id="Trazado_150583" data-name="Trazado 150583" d="M42.916,38h1.865a1.87,1.87,0,0,1,1.865,1.865v1.865a1.87,1.87,0,0,1-1.865,1.865H29.865A1.87,1.87,0,0,1,28,41.729V39.865A1.87,1.87,0,0,1,29.865,38H42.916Z" transform="translate(-28 -38)" fill="#fcd770"/>
      </g>
      <g id="Grupo_86029" data-name="Grupo 86029" transform="translate(22.374 0)">
        <path id="Trazado_150584" data-name="Trazado 150584" d="M31.594,15.826a2.174,2.174,0,0,0-1.659-2.116l-2.787-.7c-.354-.084-.7-.186-1.044-.28v-.009a9.977,9.977,0,0,1-.1-1.4,9.212,9.212,0,0,1,.783-3.729A9.325,9.325,0,1,1,28.89,18.063l.69-.056A2.192,2.192,0,0,0,31.594,15.826Z" transform="translate(-26 -2)" fill="#fcd770"/>
      </g>
      <g id="Grupo_86030" data-name="Grupo 86030" transform="translate(7.458 0)">
        <path id="Trazado_150585" data-name="Trazado 150585" d="M30.435,2.811A9.332,9.332,0,0,0,25.7,7.594H21.047a1.729,1.729,0,0,0-.774,3.272,27.98,27.98,0,0,0,4.745,1.855v.009c.345.093.69.2,1.044.28l2.787.7a2.184,2.184,0,0,1-.354,4.3l-.69.056-8.8.671c-.41.028-.82.047-1.24.047a16.132,16.132,0,0,1-5.995-1.156L10,16.916V5.729l3.039-1.212a16.1,16.1,0,0,1,3.347-.942l8.7-1.445A9.518,9.518,0,0,1,26.622,2a9.332,9.332,0,0,1,3.813.811Z" transform="translate(-10 -2)" fill="#f0d0b4"/>
      </g>
      <g id="Grupo_86031" data-name="Grupo 86031" transform="translate(0 1.865)">
        <path id="Trazado_150586" data-name="Trazado 150586" d="M9.458,5.865V17.052L2,18.916V4Z" transform="translate(-2 -4)" fill="#675d84"/>
      </g>
    </g>
    <g id="Grupo_86033" data-name="Grupo 86033" transform="translate(1 1)">
      <path id="Trazado_150587" data-name="Trazado 150587" d="M34.865,16.052v2h1.865v-2a2.651,2.651,0,0,0,.393-4.906L35.3,10.237a.8.8,0,0,1,.356-1.508h.272a.8.8,0,0,1,.8.8v.136h1.865V9.525A2.654,2.654,0,0,0,36.729,7V5H34.865V7a2.651,2.651,0,0,0-.393,4.906l1.818.909a.8.8,0,0,1-.356,1.508h-.272a.8.8,0,0,1-.8-.8V12.458H33v1.068A2.656,2.656,0,0,0,34.865,16.052Z" transform="translate(-3.167 -1.271)"/>
      <path id="Trazado_150588" data-name="Trazado 150588" d="M10.819,18.424a16.988,16.988,0,0,0,6.342,1.221q.656,0,1.31-.05l8.4-.646A10.25,10.25,0,1,0,33.629,1a10.2,10.2,0,0,0-3.8.738,10.3,10.3,0,0,0-5.508-.6L15.62,2.59a17.034,17.034,0,0,0-3.535.989l-2.76,1.1L1,2.6V19.908l8.324-2.081Zm31.2-7.169a8.381,8.381,0,0,1-12.73,7.174,3.1,3.1,0,0,0-.819-5.694l-2.795-.7c-.131-.033-.258-.074-.388-.108-.017-.225-.049-.447-.049-.672a8.39,8.39,0,1,1,16.781,0Zm-18.643.086a27.4,27.4,0,0,1-3.292-1.374.8.8,0,0,1,.356-1.508h3.33a10.223,10.223,0,0,0-.4,2.8C23.374,11.284,23.377,11.313,23.377,11.341Zm-10.6-6.03a15.194,15.194,0,0,1,3.149-.881l8.7-1.451a8.416,8.416,0,0,1,2.912.045,10.31,10.31,0,0,0-3.033,3.57H20.442a2.661,2.661,0,0,0-1.19,5.041,29.21,29.21,0,0,0,5.973,2.209l2.795.7a1.253,1.253,0,0,1-.208,2.464l-9.485.73a15.14,15.14,0,0,1-6.816-1.043l-1.189-.475V6.293ZM8.458,16.12l-5.594,1.4V4.991l5.594,1.4Z" transform="translate(-1 -1)"/>
      <path id="Trazado_150589" data-name="Trazado 150589" d="M56.918,36.726l-4.089-6.132h.123a2.8,2.8,0,0,0,0-5.594H17.526a2.8,2.8,0,0,0,0,5.594h.123l-4.088,6.132a15.243,15.243,0,0,0,12.684,23.7H44.234a15.245,15.245,0,0,0,12.684-23.7ZM16.594,27.8a.933.933,0,0,1,.932-.932H52.952a.932.932,0,0,1,0,1.865H17.526A.933.933,0,0,1,16.594,27.8ZM27.781,51.1V49.239h1.865V51.1H31.51V49.239h1.865V51.1h1.865V49.239H37.1V51.1h1.865V49.239H39.9a.933.933,0,0,1,.932.932v1.865a.933.933,0,0,1-.932.932H24.984a.933.933,0,0,1-.932-.932V50.171a.933.933,0,0,1,.932-.932h.932V51.1Zm3.729-4.661V44.578a.933.933,0,0,1,.932-.932h.932V45.51h1.865V43.645H37.1V45.51h1.865V43.645h1.865V45.51H42.7V43.645h1.865V45.51h1.865V43.645h.932a.933.933,0,0,1,.932.932v1.865a.933.933,0,0,1-.932.932H32.442A.933.933,0,0,1,31.51,46.442Zm0-6.526V38.052h1.865v1.865h1.865V38.052H37.1v1.865h1.865V38.052h1.865v1.865H42.7V38.052h.932a.933.933,0,0,1,.932.932v1.865a.933.933,0,0,1-.932.932H28.713a.933.933,0,0,1-.932-.932V38.984a.933.933,0,0,1,.932-.932h.932v1.865Zm-2.8,18.645a.933.933,0,0,1-.932-.932V55.765a.933.933,0,0,1,.932-.932h.932V56.7H31.51V54.833h1.865V56.7h1.865V54.833H37.1V56.7h1.865V54.833h1.865V56.7H42.7V54.833h.932a.933.933,0,0,1,.932.932v1.865a.933.933,0,0,1-.932.932Zm17.6-.178a2.765,2.765,0,0,0,.117-.754V55.765a2.8,2.8,0,0,0-2.8-2.8h-1.1a2.765,2.765,0,0,0,.172-.932V50.171a2.765,2.765,0,0,0-.172-.932h4.833a2.8,2.8,0,0,0,2.8-2.8V44.578a2.8,2.8,0,0,0-2.8-2.8h-1.1a2.765,2.765,0,0,0,.172-.932V38.984a2.8,2.8,0,0,0-2.8-2.8H28.713a2.8,2.8,0,0,0-2.8,2.8v1.865a2.8,2.8,0,0,0,2.8,2.8h1.1a2.765,2.765,0,0,0-.172.932v1.865a2.765,2.765,0,0,0,.172.932H24.984a2.8,2.8,0,0,0-2.8,2.8v1.865a2.8,2.8,0,0,0,2.8,2.8h1.1a2.765,2.765,0,0,0-.172.932v1.865a2.739,2.739,0,0,0,.17.924A13.375,13.375,0,0,1,15.111,37.76l4.778-7.166h30.7l4.778,7.167A13.366,13.366,0,0,1,46.31,58.384Z" transform="translate(-1.677 -2.626)"/>
      <path id="Trazado_150590" data-name="Trazado 150590" d="M0,0H1.865V2.241H0Z" transform="matrix(0.832, -0.555, 0.555, 0.832, 46.024, 30.334)"/>
      <path id="Trazado_150591" data-name="Trazado 150591" d="M56.662,39.57l-2.083-3.125-1.551,1.034L55.111,40.6a9.623,9.623,0,0,1,1.62,5.353l0,.3,1.864.055q.006-.178.006-.355a11.48,11.48,0,0,0-1.934-6.387Z" transform="translate(-4.524 -3.401)"/>
      <path id="Trazado_150592" data-name="Trazado 150592" d="M15.944,51.332a11.55,11.55,0,0,0,1.149,2.108l1.535-1.06a9.631,9.631,0,0,1-.962-1.764Z" transform="translate(-2.012 -4.36)"/>
      <path id="Trazado_150593" data-name="Trazado 150593" d="M16.934,39.773a11.526,11.526,0,0,0-1.685,8.773l1.824-.386a9.66,9.66,0,0,1,1.411-7.353l.218-.328-1.551-1.034Z" transform="translate(-1.948 -3.604)"/>
    </g>
  </g>
</svg>
