<svg xmlns="http://www.w3.org/2000/svg" width="97.894" height="53.709" viewBox="0 0 97.894 53.709">
  <g id="autobus-escolar" transform="translate(-0.804 -115.577)">
    <g id="Grupo_86190" data-name="Grupo 86190" transform="translate(0.804 115.577)">
      <path id="Trazado_150953" data-name="Trazado 150953" d="M357.383,308.353a6.093,6.093,0,1,0,6.093,6.093A6.1,6.1,0,0,0,357.383,308.353Zm0,9.318a3.225,3.225,0,1,1,3.225-3.225A3.229,3.229,0,0,1,357.383,317.671Z" transform="translate(-284.125 -271.489)" fill="#ffba5b"/>
      <path id="Trazado_150954" data-name="Trazado 150954" d="M75.367,308.353a6.093,6.093,0,1,0,6.093,6.093A6.1,6.1,0,0,0,75.367,308.353Zm0,9.318a3.225,3.225,0,1,1,3.225-3.225A3.229,3.229,0,0,1,75.367,317.671Z" transform="translate(-56.029 -271.489)" fill="#ffba5b"/>
      <path id="Trazado_150955" data-name="Trazado 150955" d="M95.632,125.444a1.434,1.434,0,0,0-1.366-1H89.509l-.665-2.266h0l-.462-1.575c-.01-.034-.021-.067-.033-.1a7.682,7.682,0,0,0-7.158-4.957H3.684A3.688,3.688,0,0,0,0,119.232v37.023a3.688,3.688,0,0,0,3.684,3.684h5a10.749,10.749,0,0,0,21.307,0H62.605a10.749,10.749,0,0,0,21.307,0H91.08a3.688,3.688,0,0,0,3.684-3.684v-9.909a29.574,29.574,0,0,0-1.876-10.383l-2.537-8.649H93.22l1.873,5.851a1.434,1.434,0,1,0,2.731-.875Zm-3.769,19.607H84.016a2.664,2.664,0,0,1-1.663-.585l-7.074-5.681a5.5,5.5,0,0,0-.949-.607V124.018H86.395l3.755,12.8a27.17,27.17,0,0,1,1.713,8.23Zm-35.636-7.483v-3.356a1.434,1.434,0,1,0-2.868,0v3.356H50.794V124.018h2.565v3.5a1.434,1.434,0,0,0,2.868,0v-3.5h9.8v13.549Zm-18.1,0V124.018h9.8v13.549Zm-18.1,0V124.018h9.8v13.549Zm-17.154,0V124.018h8.853v13.549Zm11.721-13.549h2.565v13.549H14.589Zm18.1,0h2.565v13.549H32.692Zm36.205,0h2.565v13.549H68.9ZM2.868,119.232a.827.827,0,0,1,.816-.816H81.191a4.819,4.819,0,0,1,4.318,2.734H2.868v-1.919Zm16.47,47.157a7.884,7.884,0,1,1,7.884-7.884A7.893,7.893,0,0,1,19.338,166.389Zm53.92,0a7.884,7.884,0,1,1,7.884-7.884A7.893,7.893,0,0,1,73.259,166.389Zm17.821-9.318H83.915a10.753,10.753,0,0,0-21.313,0H29.995a10.753,10.753,0,0,0-21.313,0h-5a.827.827,0,0,1-.816-.816V145.973H42.333a1.434,1.434,0,1,0,0-2.868H2.868v-2.67H71.82a2.686,2.686,0,0,1,1.663.585l2.6,2.084H49.025a1.434,1.434,0,1,0,0,2.868H79.649l.908.729a5.543,5.543,0,0,0,3.459,1.217H91.9v8.337A.826.826,0,0,1,91.08,157.071Z" transform="translate(0 -115.548)" fill="#ffba5b"/>
    </g>
  </g>
</svg>
