<svg xmlns="http://www.w3.org/2000/svg" width="104.711" height="52.652" viewBox="0 0 104.711 52.652">
  <g id="avion" transform="translate(0 -127.273)">
    <g id="Grupo_86128" data-name="Grupo 86128" transform="translate(0 127.273)">
      <path id="Trazado_150833" data-name="Trazado 150833" d="M194.223,207.554l0-.012a7.661,7.661,0,0,0-2.4-4.059l-2.141-1.89a30.009,30.009,0,0,0-19.871-7.513h-7.256a1.534,1.534,0,1,0,0,3.068h7.256a26.948,26.948,0,0,1,12.673,3.163h-9.568a3.105,3.105,0,0,0-1.839,5.608l2.931,2.154a6.765,6.765,0,0,0,4.032,1.322h13.3a4.6,4.6,0,0,1-2.634,3.978l-3.776,1.767a42.13,42.13,0,0,1-17.767,3.955H154.82l4.444-2.217a2.243,2.243,0,0,0-1-4.249H131.991a3.6,3.6,0,0,0-2.613,1.129l-5.006,5.316a14.953,14.953,0,0,1-5.35-1.263L114.911,216a1.534,1.534,0,0,0-1.237,2.807l4.11,1.812a18.057,18.057,0,0,0,3.972,1.234l-5.689,6.04a3.072,3.072,0,0,0,2.236,5.178h5.291a13.706,13.706,0,0,0,6.087-1.434l18.99-9.472h18.487a45.22,45.22,0,0,0,19.068-4.245L190,216.152a7.645,7.645,0,0,0,4.222-8.6Zm-65.912,21.337A10.624,10.624,0,0,1,123.593,230H118.3l0,.008S118.3,230,118.3,230l13.312-14.134a.524.524,0,0,1,.38-.164h22.77Zm47.51-23.29-2.931-2.154-.018-.014a.193.193,0,0,1,.011-.051.117.117,0,0,1,.03,0h14.134c.2.169.4.339.6.514l2.141,1.889a4.611,4.611,0,0,1,.523.545H178.037A3.72,3.72,0,0,1,175.821,205.6Z" transform="translate(-89.697 -180.418)" fill="#ffba5b"/>
      <path id="Trazado_150834" data-name="Trazado 150834" d="M17.613,149.131H8.33a4.094,4.094,0,0,0-3.083,1.4L4.3,151.609a6.858,6.858,0,0,1-.55-2.681v-1.871A3.058,3.058,0,0,1,6.809,144H65.7a1.534,1.534,0,0,0,0-3.068H27.844l-10.628-10.9a9.223,9.223,0,0,0-6.565-2.767H7.011a2.542,2.542,0,0,0-2.342,3.53l4.276,10.133H6.809a6.129,6.129,0,0,0-6.123,6.121v1.871a9.954,9.954,0,0,0,1.451,5.16L.684,155.75A2.746,2.746,0,0,0,2.751,160.3H5.675a7.1,7.1,0,0,0,3.076-.7l.7-.339,7.973,3.515a1.534,1.534,0,0,0,1.238-2.807l-5.585-2.462,5.809-2.811a2.928,2.928,0,0,0-1.275-5.564ZM7.8,130.341h2.848a6.139,6.139,0,0,1,4.369,1.842l8.538,8.754H12.274Zm.983,25.833c-.028.013-.056.026-.084.041l-1.287.623a4.018,4.018,0,0,1-1.74.4H3.459l4.1-4.687a1.027,1.027,0,0,1,.773-.351H17Z" transform="translate(0 -127.273)" fill="#ffba5b"/>
      <path id="Trazado_150835" data-name="Trazado 150835" d="M309.786,228.808v.566a4.264,4.264,0,0,0,4.259,4.259h2.889a4.264,4.264,0,0,0,4.259-4.259v-.566a4.264,4.264,0,0,0-4.259-4.259h-2.889A4.264,4.264,0,0,0,309.786,228.808Zm3.067,0a1.193,1.193,0,0,1,1.191-1.191h2.889a1.193,1.193,0,0,1,1.191,1.191v.566a1.193,1.193,0,0,1-1.191,1.191h-2.889a1.193,1.193,0,0,1-1.191-1.191Z" transform="translate(-246.431 -204.655)" fill="#ffba5b"/>
      <path id="Trazado_150836" data-name="Trazado 150836" d="M234.18,224.55a4.264,4.264,0,0,0-4.259,4.259v.566a4.264,4.264,0,0,0,4.259,4.259h2.889a4.264,4.264,0,0,0,4.259-4.259v-.566a4.264,4.264,0,0,0-4.259-4.259Zm4.08,4.259v.566a1.193,1.193,0,0,1-1.191,1.191H234.18a1.193,1.193,0,0,1-1.191-1.191v-.566a1.193,1.193,0,0,1,1.191-1.191h2.889A1.193,1.193,0,0,1,238.26,228.809Z" transform="translate(-182.899 -204.656)" fill="#ffba5b"/>
      <path id="Trazado_150837" data-name="Trazado 150837" d="M154.316,224.55a4.264,4.264,0,0,0-4.259,4.259v.566a4.264,4.264,0,0,0,4.259,4.259H157.2a4.264,4.264,0,0,0,4.259-4.259v-.566a4.264,4.264,0,0,0-4.259-4.259Zm4.08,4.259v.566a1.193,1.193,0,0,1-1.191,1.191h-2.889a1.193,1.193,0,0,1-1.191-1.191v-.566a1.193,1.193,0,0,1,1.191-1.191H157.2A1.193,1.193,0,0,1,158.4,228.809Z" transform="translate(-119.368 -204.656)" fill="#ffba5b"/>
    </g>
  </g>
</svg>
