<svg xmlns="http://www.w3.org/2000/svg" width="81.346" height="107.267" viewBox="0 0 81.346 107.267">
  <g id="XMLID_1487_" transform="translate(-61.857 0)">
    <path id="XMLID_1492_" d="M191.5,120.026H158.679a5.028,5.028,0,1,1,0-10.057H191.5a5.028,5.028,0,1,1,0,10.057Z" transform="translate(-72.562 -86.929)" fill="#c6563d"/>
    <path id="XMLID_1491_" d="M120.044,230.043H100.972c-22.879,0-36.733-25.271-24.429-44.559L94.1,157.969H126.92l17.552,27.515C156.777,204.773,142.923,230.043,120.044,230.043Z" transform="translate(-7.978 -124.872)" fill="#ffba5b"/>
    <path id="XMLID_1489_" d="M151.509,11.8a6.182,6.182,0,0,1,8.743,0l.015.015a6.183,6.183,0,0,0,8.728.015l.062-.061a6.183,6.183,0,0,1,8.728.015l.015.015a6.182,6.182,0,0,0,8.743,0,6.182,6.182,0,0,1,8.743,0l-5.47,19.126H156.993Z" transform="translate(-70.869 -7.881)" fill="#ffba5b"/>
    <g id="XMLID_1153_" transform="translate(61.857 -0.001)">
      <path id="XMLID_1329_" d="M138.261,59.485,122.244,34.377a7.12,7.12,0,0,0-.662-12.923l4.852-16.963a2.1,2.1,0,0,0-.533-2.058,8.287,8.287,0,0,0-11.707,0,4.061,4.061,0,0,1-2.89,1.2,4.064,4.064,0,0,1-2.9-1.2l-.01-.01A8.293,8.293,0,0,0,96.711,2.4l-.06.06a4.1,4.1,0,0,1-5.77-.01l-.015-.015a8.287,8.287,0,0,0-11.707,0,2.1,2.1,0,0,0-.533,2.059L83.489,21.45a7.12,7.12,0,0,0-.673,12.928L66.8,59.485a31.071,31.071,0,0,0,26.195,47.781h19.072a31.071,31.071,0,0,0,26.2-47.781ZM87.9,5.4l.015.015a8.294,8.294,0,0,0,11.688.019l.06-.06a4.1,4.1,0,0,1,5.775.015l.01.01a8.287,8.287,0,0,0,11.707,0,4.1,4.1,0,0,1,4.857-.693l-4.645,16.242H87.7L83.046,4.7A4.094,4.094,0,0,1,87.9,5.4Zm47.734,83.722a26.53,26.53,0,0,1-23.571,13.959H92.994A26.881,26.881,0,0,1,70.332,61.739L87.266,35.192H93.1a2.1,2.1,0,0,0,0-4.19H86.118a2.933,2.933,0,1,1,0-5.867h32.825a2.933,2.933,0,1,1,0,5.867h-6.984a2.1,2.1,0,0,0,0,4.19h5.835l16.934,26.547a26.53,26.53,0,0,1,.908,27.379Z" transform="translate(-61.857 0.001)"/>
      <path id="XMLID_1341_" d="M222.209,256.535c-.526-.186-1.062-.379-1.6-.58v-9.5a8.608,8.608,0,0,1,2.41,1.125,2.1,2.1,0,0,0,2.521-3.347,12.8,12.8,0,0,0-4.93-2.087v-2.085a2.1,2.1,0,0,0-4.19,0v2.07a10.818,10.818,0,0,0-1.079.264,8.39,8.39,0,0,0-5.752,6.581,7.4,7.4,0,0,0,2.423,7.294,20.18,20.18,0,0,0,4.409,2.505V270.93a8.376,8.376,0,0,1-4.594-1.683,2.1,2.1,0,0,0-2.294,3.507,12.367,12.367,0,0,0,6.888,2.37v2.167a2.1,2.1,0,0,0,4.19,0v-2.384a10.1,10.1,0,0,0,7.7-8.229A8.862,8.862,0,0,0,222.209,256.535Zm-7.612-3.559a3.265,3.265,0,0,1-.891-3.219,4.267,4.267,0,0,1,2.714-3.3v7.673A12.531,12.531,0,0,1,214.6,252.976Zm9.58,13.005a6.007,6.007,0,0,1-3.567,4.539V260.413l.2.073A4.741,4.741,0,0,1,224.177,265.981Z" transform="translate(-177.842 -188.111)"/>
      <path id="XMLID_1343_" d="M248.08,152.159a2.1,2.1,0,1,0-1.481-.614,2.111,2.111,0,0,0,1.481.614Z" transform="translate(-207.407 -116.967)"/>
    </g>
  </g>
</svg>
