<svg xmlns="http://www.w3.org/2000/svg" xmlns:xlink="http://www.w3.org/1999/xlink" width="207.808" height="247.002" viewBox="0 0 207.808 247.002">
  <defs>
    <clipPath id="clip-path">
      <rect id="Rect치ngulo_334228" data-name="Rect치ngulo 334228" width="153.13" height="176.362" fill="none"/>
    </clipPath>
  </defs>
  <g id="Grupo_912288" data-name="Grupo 912288" transform="translate(-284.5 -8456.179)">
    <g id="Grupo_899764" data-name="Grupo 899764" transform="translate(312.176 8483.1)" opacity="0.35" style="mix-blend-mode: multiply;isolation: isolate">
      <g id="Grupo_899763" data-name="Grupo 899763">
        <g id="Grupo_899762" data-name="Grupo 899762" clip-path="url(#clip-path)">
          <path id="Trazado_625000" data-name="Trazado 625000" d="M246.393,245.578a76.565,76.565,0,1,1-76.565-76.565,76.565,76.565,0,0,1,76.565,76.565" transform="translate(-93.263 -145.78)" fill="#fff"/>
          <path id="Trazado_625001" data-name="Trazado 625001" d="M246.393,244.043a76.565,76.565,0,1,1-76.565-76.565,76.565,76.565,0,0,1,76.565,76.565" transform="translate(-93.263 -144.701)" fill="#fbfbfb"/>
          <path id="Trazado_625002" data-name="Trazado 625002" d="M246.393,242.507a76.565,76.565,0,1,1-76.565-76.565,76.565,76.565,0,0,1,76.565,76.565" transform="translate(-93.263 -143.621)" fill="#f7f7f7"/>
          <path id="Trazado_625003" data-name="Trazado 625003" d="M246.393,240.972a76.565,76.565,0,1,1-76.565-76.565,76.565,76.565,0,0,1,76.565,76.565" transform="translate(-93.263 -142.541)" fill="#f3f3f3"/>
          <path id="Trazado_625004" data-name="Trazado 625004" d="M246.393,239.437a76.565,76.565,0,1,1-76.565-76.565,76.565,76.565,0,0,1,76.565,76.565" transform="translate(-93.263 -141.462)" fill="#efefef"/>
          <path id="Trazado_625005" data-name="Trazado 625005" d="M246.393,237.9a76.565,76.565,0,1,1-76.565-76.565A76.565,76.565,0,0,1,246.393,237.9" transform="translate(-93.263 -140.382)" fill="#ebebeb"/>
          <path id="Trazado_625006" data-name="Trazado 625006" d="M246.393,236.367A76.565,76.565,0,1,1,169.828,159.8a76.565,76.565,0,0,1,76.565,76.565" transform="translate(-93.263 -139.303)" fill="#e7e7e7"/>
          <path id="Trazado_625007" data-name="Trazado 625007" d="M246.393,234.832a76.565,76.565,0,1,1-76.565-76.565,76.565,76.565,0,0,1,76.565,76.565" transform="translate(-93.263 -138.223)" fill="#e3e3e3"/>
          <path id="Trazado_625008" data-name="Trazado 625008" d="M246.393,233.3a76.565,76.565,0,1,1-76.565-76.565A76.565,76.565,0,0,1,246.393,233.3" transform="translate(-93.263 -137.144)" fill="#dfdfdf"/>
          <path id="Trazado_625009" data-name="Trazado 625009" d="M246.393,231.762A76.565,76.565,0,1,1,169.828,155.2a76.565,76.565,0,0,1,76.565,76.565" transform="translate(-93.263 -136.064)" fill="#dbdbdb"/>
          <path id="Trazado_625010" data-name="Trazado 625010" d="M246.393,230.226a76.565,76.565,0,1,1-76.565-76.565,76.565,76.565,0,0,1,76.565,76.565" transform="translate(-93.263 -134.984)" fill="#d7d7d7"/>
          <path id="Trazado_625011" data-name="Trazado 625011" d="M246.393,228.691a76.565,76.565,0,1,1-76.565-76.565,76.565,76.565,0,0,1,76.565,76.565" transform="translate(-93.263 -133.904)" fill="#d3d3d3"/>
          <path id="Trazado_625012" data-name="Trazado 625012" d="M246.393,227.156a76.565,76.565,0,1,1-76.565-76.565,76.565,76.565,0,0,1,76.565,76.565" transform="translate(-93.263 -132.825)" fill="#cfcfcf"/>
          <path id="Trazado_625013" data-name="Trazado 625013" d="M246.393,225.621a76.565,76.565,0,1,1-76.565-76.565,76.565,76.565,0,0,1,76.565,76.565" transform="translate(-93.263 -131.745)" fill="#cbcbcb"/>
          <path id="Trazado_625014" data-name="Trazado 625014" d="M246.393,224.086a76.565,76.565,0,1,1-76.565-76.565,76.565,76.565,0,0,1,76.565,76.565" transform="translate(-93.263 -130.666)" fill="#c7c7c7"/>
          <path id="Trazado_625015" data-name="Trazado 625015" d="M246.393,222.551a76.565,76.565,0,1,1-76.565-76.565,76.565,76.565,0,0,1,76.565,76.565" transform="translate(-93.263 -129.586)" fill="#c3c3c3"/>
          <path id="Trazado_625016" data-name="Trazado 625016" d="M246.393,221.016a76.565,76.565,0,1,1-76.565-76.565,76.565,76.565,0,0,1,76.565,76.565" transform="translate(-93.263 -128.507)" fill="#bfbfbf"/>
          <path id="Trazado_625017" data-name="Trazado 625017" d="M246.393,219.48a76.565,76.565,0,1,1-76.565-76.565,76.565,76.565,0,0,1,76.565,76.565" transform="translate(-93.263 -127.427)" fill="#bbb"/>
          <path id="Trazado_625018" data-name="Trazado 625018" d="M246.393,217.945a76.565,76.565,0,1,1-76.565-76.565,76.565,76.565,0,0,1,76.565,76.565" transform="translate(-93.263 -126.347)" fill="#b7b7b7"/>
          <path id="Trazado_625019" data-name="Trazado 625019" d="M246.393,216.41a76.565,76.565,0,1,1-76.565-76.565,76.565,76.565,0,0,1,76.565,76.565" transform="translate(-93.263 -125.268)" fill="#b3b3b3"/>
          <path id="Trazado_625020" data-name="Trazado 625020" d="M246.393,214.875a76.565,76.565,0,1,1-76.565-76.565,76.565,76.565,0,0,1,76.565,76.565" transform="translate(-93.263 -124.188)" fill="#afafaf"/>
          <path id="Trazado_625021" data-name="Trazado 625021" d="M246.393,213.34a76.565,76.565,0,1,1-76.565-76.565,76.565,76.565,0,0,1,76.565,76.565" transform="translate(-93.263 -123.109)" fill="#ababab"/>
          <path id="Trazado_625022" data-name="Trazado 625022" d="M246.393,211.8a76.565,76.565,0,1,1-76.565-76.565A76.565,76.565,0,0,1,246.393,211.8" transform="translate(-93.263 -122.029)" fill="#a7a7a7"/>
          <path id="Trazado_625023" data-name="Trazado 625023" d="M246.393,210.27A76.565,76.565,0,1,1,169.828,133.7a76.565,76.565,0,0,1,76.565,76.565" transform="translate(-93.263 -120.95)" fill="#a3a3a3"/>
          <path id="Trazado_625024" data-name="Trazado 625024" d="M246.394,208.735a76.565,76.565,0,1,1-76.565-76.565,76.565,76.565,0,0,1,76.565,76.565" transform="translate(-93.264 -119.87)" fill="#9f9f9f"/>
          <path id="Trazado_625025" data-name="Trazado 625025" d="M246.394,207.2a76.565,76.565,0,1,1-76.565-76.565A76.565,76.565,0,0,1,246.394,207.2" transform="translate(-93.264 -118.79)" fill="#9b9b9b"/>
          <path id="Trazado_625026" data-name="Trazado 625026" d="M246.394,205.664A76.565,76.565,0,1,1,169.829,129.1a76.565,76.565,0,0,1,76.565,76.565" transform="translate(-93.264 -117.711)" fill="#979797"/>
          <path id="Trazado_625027" data-name="Trazado 625027" d="M246.394,204.129a76.565,76.565,0,1,1-76.565-76.565,76.565,76.565,0,0,1,76.565,76.565" transform="translate(-93.264 -116.631)" fill="#939393"/>
          <path id="Trazado_625028" data-name="Trazado 625028" d="M246.394,202.594a76.565,76.565,0,1,1-76.565-76.565,76.565,76.565,0,0,1,76.565,76.565" transform="translate(-93.264 -115.552)" fill="#8f8f8f"/>
          <path id="Trazado_625029" data-name="Trazado 625029" d="M246.394,201.059a76.565,76.565,0,1,1-76.565-76.565,76.565,76.565,0,0,1,76.565,76.565" transform="translate(-93.264 -114.472)" fill="#8b8b8b"/>
          <path id="Trazado_625030" data-name="Trazado 625030" d="M246.394,199.524a76.565,76.565,0,1,1-76.565-76.565,76.565,76.565,0,0,1,76.565,76.565" transform="translate(-93.264 -113.393)" fill="#878787"/>
          <path id="Trazado_625031" data-name="Trazado 625031" d="M246.394,197.989a76.565,76.565,0,1,1-76.565-76.565,76.565,76.565,0,0,1,76.565,76.565" transform="translate(-93.264 -112.313)" fill="#838383"/>
          <path id="Trazado_625032" data-name="Trazado 625032" d="M246.394,196.453a76.565,76.565,0,1,1-76.565-76.565,76.565,76.565,0,0,1,76.565,76.565" transform="translate(-93.264 -111.233)" fill="#7f7f7f"/>
          <path id="Trazado_625033" data-name="Trazado 625033" d="M246.394,194.918a76.565,76.565,0,1,1-76.565-76.565,76.565,76.565,0,0,1,76.565,76.565" transform="translate(-93.264 -110.153)" fill="#7b7b7b"/>
          <path id="Trazado_625034" data-name="Trazado 625034" d="M246.394,193.383a76.565,76.565,0,1,1-76.565-76.565,76.565,76.565,0,0,1,76.565,76.565" transform="translate(-93.264 -109.074)" fill="#777"/>
          <path id="Trazado_625035" data-name="Trazado 625035" d="M246.394,191.848a76.565,76.565,0,1,1-76.565-76.565,76.565,76.565,0,0,1,76.565,76.565" transform="translate(-93.264 -107.994)" fill="#737373"/>
          <path id="Trazado_625036" data-name="Trazado 625036" d="M246.394,190.313a76.565,76.565,0,1,1-76.565-76.565,76.565,76.565,0,0,1,76.565,76.565" transform="translate(-93.264 -106.915)" fill="#6f6f6f"/>
          <path id="Trazado_625037" data-name="Trazado 625037" d="M246.394,188.778a76.565,76.565,0,1,1-76.565-76.565,76.565,76.565,0,0,1,76.565,76.565" transform="translate(-93.264 -105.835)" fill="#6b6b6b"/>
          <path id="Trazado_625038" data-name="Trazado 625038" d="M246.394,187.243a76.565,76.565,0,1,1-76.565-76.565,76.565,76.565,0,0,1,76.565,76.565" transform="translate(-93.264 -104.756)" fill="#676767"/>
          <path id="Trazado_625039" data-name="Trazado 625039" d="M246.394,185.708a76.565,76.565,0,1,1-76.565-76.565,76.565,76.565,0,0,1,76.565,76.565" transform="translate(-93.264 -103.676)" fill="#636363"/>
          <path id="Trazado_625040" data-name="Trazado 625040" d="M246.394,184.172a76.565,76.565,0,1,1-76.565-76.565,76.565,76.565,0,0,1,76.565,76.565" transform="translate(-93.264 -102.596)" fill="#5f5f5f"/>
          <path id="Trazado_625041" data-name="Trazado 625041" d="M246.394,182.637a76.565,76.565,0,1,1-76.565-76.565,76.565,76.565,0,0,1,76.565,76.565" transform="translate(-93.264 -101.517)" fill="#5b5b5b"/>
          <path id="Trazado_625042" data-name="Trazado 625042" d="M246.394,181.1a76.565,76.565,0,1,1-76.565-76.565A76.565,76.565,0,0,1,246.394,181.1" transform="translate(-93.264 -100.437)" fill="#575757"/>
          <path id="Trazado_625043" data-name="Trazado 625043" d="M246.394,179.567A76.565,76.565,0,1,1,169.829,103a76.565,76.565,0,0,1,76.565,76.565" transform="translate(-93.264 -99.358)" fill="#535353"/>
          <path id="Trazado_625044" data-name="Trazado 625044" d="M246.394,178.032a76.565,76.565,0,1,1-76.565-76.565,76.565,76.565,0,0,1,76.565,76.565" transform="translate(-93.264 -98.278)" fill="#4f4f4f"/>
          <path id="Trazado_625045" data-name="Trazado 625045" d="M246.394,176.5a76.565,76.565,0,1,1-76.565-76.565A76.565,76.565,0,0,1,246.394,176.5" transform="translate(-93.264 -97.199)" fill="#4b4b4b"/>
          <path id="Trazado_625046" data-name="Trazado 625046" d="M246.394,174.962A76.565,76.565,0,1,1,169.829,98.4a76.565,76.565,0,0,1,76.565,76.565" transform="translate(-93.264 -96.119)" fill="#474747"/>
          <path id="Trazado_625047" data-name="Trazado 625047" d="M246.394,173.426a76.565,76.565,0,1,1-76.565-76.565,76.565,76.565,0,0,1,76.565,76.565" transform="translate(-93.264 -95.039)" fill="#434343"/>
          <path id="Trazado_625048" data-name="Trazado 625048" d="M246.394,171.891a76.565,76.565,0,1,1-76.565-76.565,76.565,76.565,0,0,1,76.565,76.565" transform="translate(-93.264 -93.959)" fill="#3f3f3f"/>
          <path id="Trazado_625049" data-name="Trazado 625049" d="M246.394,170.356a76.565,76.565,0,1,1-76.565-76.565,76.565,76.565,0,0,1,76.565,76.565" transform="translate(-93.264 -92.88)" fill="#3b3b3b"/>
          <path id="Trazado_625050" data-name="Trazado 625050" d="M246.394,168.821a76.565,76.565,0,1,1-76.565-76.565,76.565,76.565,0,0,1,76.565,76.565" transform="translate(-93.264 -91.8)" fill="#373737"/>
          <path id="Trazado_625051" data-name="Trazado 625051" d="M246.394,167.286a76.565,76.565,0,1,1-76.565-76.565,76.565,76.565,0,0,1,76.565,76.565" transform="translate(-93.264 -90.721)" fill="#333"/>
        </g>
      </g>
    </g>
    <g id="Grupo_912287" data-name="Grupo 912287">
      <path id="Trazado_624876" data-name="Trazado 624876" d="M104.142,205.429a101.287,101.287,0,0,1,0-202.574q.79,0,1.577.012l.044-2.855Q104.954,0,104.143,0V0A104.142,104.142,0,0,0,30.5,177.781a104.168,104.168,0,0,0,169-31.723l-2.613-1.15a101.375,101.375,0,0,1-92.749,60.52" transform="translate(284.5 8456.179)" fill="#463c5f"/>
      <path id="Trazado_624890" data-name="Trazado 624890" d="M415.143,6.175c-1.754-.4-3.544-.755-5.321-1.061l-.485,2.813c1.728.3,3.469.645,5.174,1.032Z" transform="translate(-3.369 8452.582)" fill="#463c5f"/>
      <path id="Trazado_624891" data-name="Trazado 624891" d="M574.765,84.392c-1.324-1.221-2.7-2.422-4.082-3.572l-1.824,2.2c1.347,1.118,2.683,2.288,3.97,3.475Z" transform="translate(-115.553 8399.342)" fill="#463c5f"/>
      <path id="Trazado_624892" data-name="Trazado 624892" d="M600.732,109.569c-1.19-1.35-2.432-2.688-3.692-3.976l-2.041,2c1.226,1.254,2.434,2.556,3.592,3.868Z" transform="translate(-133.936 8381.92)" fill="#463c5f"/>
      <path id="Trazado_624893" data-name="Trazado 624893" d="M546.4,62.1c-1.443-1.077-2.933-2.13-4.428-3.129l-1.586,2.374c1.454.972,2.9,2,4.306,3.043Z" transform="translate(-95.527 8414.707)" fill="#463c5f"/>
      <path id="Trazado_624894" data-name="Trazado 624894" d="M624.015,137.362c-1.046-1.469-2.144-2.929-3.262-4.339l-2.237,1.775c1.088,1.372,2.156,2.791,3.173,4.221Z" transform="translate(-150.475 8362.629)" fill="#463c5f"/>
      <path id="Trazado_624895" data-name="Trazado 624895" d="M515.928,42.937c-1.545-.92-3.136-1.812-4.726-2.651l-1.332,2.526c1.547.815,3.093,1.683,4.6,2.578Z" transform="translate(-74.068 8427.848)" fill="#463c5f"/>
      <path id="Trazado_624896" data-name="Trazado 624896" d="M658.894,200.752l2.619-1.137c-.718-1.654-1.49-3.312-2.294-4.927l-2.556,1.273c.782,1.57,1.533,3.182,2.231,4.791" transform="translate(-177.303 8319.264)" fill="#463c5f"/>
      <path id="Trazado_624897" data-name="Trazado 624897" d="M644.354,167.482c-.887-1.57-1.828-3.137-2.795-4.657l-2.409,1.533c.941,1.478,1.855,3,2.718,4.529Z" transform="translate(-164.986 8341.672)" fill="#463c5f"/>
      <path id="Trazado_624899" data-name="Trazado 624899" d="M684.283,263.2l-2.765.712c.436,1.695.833,3.425,1.181,5.143l2.8-.566c-.357-1.767-.766-3.546-1.215-5.288" transform="translate(-194.781 8271.084)" fill="#463c5f"/>
      <path id="Trazado_624900" data-name="Trazado 624900" d="M673.522,228.281l-2.675,1c.614,1.646,1.192,3.329,1.718,5l2.724-.856c-.541-1.721-1.135-3.451-1.767-5.143" transform="translate(-187.277 8295.639)" fill="#463c5f"/>
      <path id="Trazado_624901" data-name="Trazado 624901" d="M691.39,299.029l-2.824.419c.257,1.732.471,3.494.638,5.238l2.842-.271c-.171-1.793-.392-3.6-.656-5.385" transform="translate(-199.738 8245.885)" fill="#463c5f"/>
      <path id="Trazado_624902" data-name="Trazado 624902" d="M449.962,14.814c-1.705-.58-3.448-1.123-5.181-1.613l-.777,2.748c1.685.476,3.379,1,5.037,1.568Z" transform="translate(-27.748 8446.896)" fill="#463c5f"/>
      <path id="Trazado_624903" data-name="Trazado 624903" d="M483.691,27.122c-1.631-.753-3.3-1.474-4.973-2.142l-1.061,2.651c1.624.65,3.251,1.35,4.836,2.083Z" transform="translate(-51.414 8438.611)" fill="#463c5f"/>
      <path id="Trazado_624905" data-name="Trazado 624905" d="M379.628,1.292c-1.785-.212-3.6-.381-5.4-.5l-.191,2.849c1.75.117,3.518.281,5.254.488Z" transform="translate(21.457 8455.622)" fill="#463c5f"/>
      <path id="Trazado_625052" data-name="Trazado 625052" d="M246.43,167.057a76.565,76.565,0,1,1-76.565-76.565,76.565,76.565,0,0,1,76.565,76.565" transform="translate(218.887 8392.539)" fill="#ffe9e4"/>
      <path id="Trazado_625057" data-name="Trazado 625057" d="M266.626,749.9a101.794,101.794,0,0,1-35.039-6.178l35.039,26.3,35.039-26.3a101.794,101.794,0,0,1-35.039,6.178" transform="translate(121.635 7933.15)" fill="#ffe9e4"/>
      <g id="files-document-protection-insurance-pen" transform="translate(341.238 8513.42)">
        <path id="Trazado_140730" data-name="Trazado 140730" d="M53,23h6V68.023H53Z" transform="translate(25.54 10.516)" fill="#ffcbbf"/>
        <path id="Trazado_140731" data-name="Trazado 140731" d="M59,20v6H53V20a3,3,0,1,1,6,0Z" transform="translate(25.54 7.512)" fill="#898890"/>
        <path id="Trazado_140732" data-name="Trazado 140732" d="M59,53,56,65.006,53,53Z" transform="translate(25.54 25.54)" fill="#898890"/>
        <path id="Trazado_140735" data-name="Trazado 140735" d="M58,53,55,65.006V53Z" transform="translate(26.541 25.54)" fill="#57565c"/>
        <rect id="Rect치ngulo_30810" data-name="Rect치ngulo 30810" width="56.259" height="86.945" rx="2" transform="translate(17.343 2.544)" fill="#f2edff"/>
        <path id="Trazado_140736" data-name="Trazado 140736" d="M49.014,13v9.62A12.021,12.021,0,0,1,44.977,31.6l-9.47,8.419L26.037,31.6A12.021,12.021,0,0,1,22,22.623V13L35.507,7Z" transform="translate(10.016 2.504)" fill="#ffba5b"/>
        <path id="Trazado_140737" data-name="Trazado 140737" d="M33.016,31.5a4.5,4.5,0,0,1-4.5,4.5H18.008V54.014H7.517L3,51.012V30l7.5-3H28.513A4.5,4.5,0,0,1,33.016,31.5Z" transform="translate(0.501 12.52)" fill="#ffc477"/>
        <path id="Trazado_140738" data-name="Trazado 140738" d="M11.917,27Z" transform="translate(17.097 12.52)" fill="#ffa733"/>
        <path id="Trazado_140741" data-name="Trazado 140741" d="M69.535,2H21.51a4.516,4.516,0,0,0-4.5,4.5V38.019H11a1.406,1.406,0,0,0-.555.105l-7.5,3A1.5,1.5,0,0,0,2,42.521V63.532a1.5,1.5,0,0,0,.675,1.246l4.517,3a1.451,1.451,0,0,0,.825.255h8.99v19.51a4.516,4.516,0,0,0,4.5,4.5H69.535a4.516,4.516,0,0,0,4.5-4.5V6.5a4.516,4.516,0,0,0-4.5-4.5ZM16.858,50.025h.15V65.033H8.468L5,62.722V43.542L11.29,41.02H29.014a3,3,0,1,1,0,6H15.507a1.5,1.5,0,0,0-1.5,1.5,4.516,4.516,0,0,1-4.5,4.5v3a7.517,7.517,0,0,0,7.354-6Zm54.178,37.52a1.5,1.5,0,0,1-1.5,1.5H21.51a1.5,1.5,0,0,1-1.5-1.5V50.025h9a6,6,0,1,0,0-12.006h-9V6.5A1.5,1.5,0,0,1,21.51,5H69.535a1.5,1.5,0,0,1,1.5,1.5Z" transform="translate(0)"/>
        <path id="Trazado_140742" data-name="Trazado 140742" d="M32.771,23.688a1.5,1.5,0,0,0,1.061-.439l8.49-8.49L40.2,12.636l-7.429,7.429L29.586,16.88,27.464,19l4.246,4.246a1.5,1.5,0,0,0,1.061.44Z" transform="translate(12.752 5.326)"/>
        <path id="Trazado_140743" data-name="Trazado 140743" d="M50.13,12.138l-13.507-6a1.469,1.469,0,0,0-1.231,0l-13.507,6A1.481,1.481,0,0,0,21,13.5v9.62a13.476,13.476,0,0,0,4.532,10.085l9.485,8.434a1.5,1.5,0,0,0,1.981,0l9.485-8.434a13.476,13.476,0,0,0,4.532-10.085V13.5a1.481,1.481,0,0,0-.885-1.366ZM48.014,23.124a10.526,10.526,0,0,1-3.527,7.849l-8.479,7.534-8.479-7.534A10.526,10.526,0,0,1,24,23.124V14.479L36.008,9.137l12.006,5.343Z" transform="translate(9.515 2.003)"/>
        <path id="Trazado_140744" data-name="Trazado 140744" d="M65.507,25H61V20.5a4.5,4.5,0,1,0-9,0V71.529a1.48,1.48,0,0,0,.045.36l3,12.006a1.5,1.5,0,0,0,2.912,0l3-12.006a1.478,1.478,0,0,0,.045-.36V28.006h3V41.513h3V26.505A1.5,1.5,0,0,0,65.507,25Zm-9,52.347L55.422,73.03h2.161ZM58,70.028H55V28.006h3ZM58,25H55V20.5a1.5,1.5,0,1,1,3,0Z" transform="translate(25.039 7.011)"/>
        <path id="Trazado_140745" data-name="Trazado 140745" d="M18,38h6v3H18Z" transform="translate(8.013 18.028)"/>
        <path id="Trazado_140746" data-name="Trazado 140746" d="M24,38H54.016v3H24Z" transform="translate(11.017 18.028)"/>
        <path id="Trazado_140747" data-name="Trazado 140747" d="M18,44h6v3H18Z" transform="translate(8.013 21.033)"/>
        <path id="Trazado_140748" data-name="Trazado 140748" d="M24,44H54.016v3H24Z" transform="translate(11.017 21.033)"/>
        <path id="Trazado_140749" data-name="Trazado 140749" d="M18,50h6v3H18Z" transform="translate(8.013 24.038)"/>
        <path id="Trazado_140750" data-name="Trazado 140750" d="M24,50H54.016v3H24Z" transform="translate(11.017 24.038)"/>
        <path id="Trazado_140751" data-name="Trazado 140751" d="M18,56h6v3H18Z" transform="translate(8.013 27.042)"/>
        <path id="Trazado_140752" data-name="Trazado 140752" d="M24,56H54.016v3H24Z" transform="translate(11.017 27.042)"/>
      </g>
    </g>
  </g>
</svg>
