<svg xmlns="http://www.w3.org/2000/svg" xmlns:xlink="http://www.w3.org/1999/xlink" width="208.103" height="247.002" viewBox="0 0 208.103 247.002">
  <defs>
    <clipPath id="clip-path">
      <rect id="Rectángulo_334230" data-name="Rectángulo 334230" width="153.129" height="176.362" fill="none"/>
    </clipPath>
  </defs>
  <g id="Grupo_912290" data-name="Grupo 912290" transform="translate(-695.542 -8456.179)">
    <path id="Trazado_624912" data-name="Trazado 624912" d="M1388.021,371.392l-2.85.168c.106,1.8.26,3.617.46,5.405l2.838-.316c-.194-1.74-.344-3.508-.447-5.257" transform="translate(-689.629 8194.995)" fill="#463c5f"/>
    <path id="Trazado_624914" data-name="Trazado 624914" d="M1392.029,406.726l-2.818.463c.292,1.777.635,3.57,1.02,5.329l2.789-.61c-.374-1.71-.707-3.453-.991-5.181" transform="translate(-692.471 8170.146)" fill="#463c5f"/>
    <path id="Trazado_624919" data-name="Trazado 624919" d="M1399.774,441.452l-2.753.756c.477,1.738,1.006,3.485,1.572,5.193l2.71-.9c-.551-1.661-1.065-3.359-1.529-5.05" transform="translate(-697.963 8145.725)" fill="#463c5f"/>
    <path id="Trazado_624926" data-name="Trazado 624926" d="M1610.273,672.574c1.686.644,3.411,1.252,5.129,1.807l.878-2.717c-1.671-.539-3.349-1.131-4.988-1.756Z" transform="translate(-847.934 7985.063)" fill="#463c5f"/>
    <path id="Trazado_624927" data-name="Trazado 624927" d="M1576.8,658.015c1.61.817,3.261,1.6,4.908,2.333l1.158-2.61c-1.6-.711-3.208-1.474-4.773-2.269Z" transform="translate(-824.393 7995.217)" fill="#463c5f"/>
    <path id="Trazado_624928" data-name="Trazado 624928" d="M1680.872,690.985c1.775.278,3.585.513,5.381.7l.293-2.84c-1.746-.18-3.507-.409-5.233-.679Z" transform="translate(-897.582 7972.224)" fill="#463c5f"/>
    <path id="Trazado_624929" data-name="Trazado 624929" d="M1411.187,475.193l-2.659,1.039c.654,1.673,1.362,3.352,2.1,4.99l2.6-1.177c-.721-1.593-1.409-3.226-2.045-4.852" transform="translate(-706.055 8121.996)" fill="#463c5f"/>
    <path id="Trazado_624930" data-name="Trazado 624930" d="M1545.075,640.112c1.514.98,3.074,1.932,4.635,2.831l1.424-2.475c-1.519-.874-3.035-1.8-4.508-2.753Z" transform="translate(-802.082 8007.702)" fill="#463c5f"/>
    <path id="Trazado_624931" data-name="Trazado 624931" d="M1645.1,683.6c1.742.463,3.518.885,5.278,1.255l.588-2.794c-1.712-.36-3.439-.771-5.133-1.221Z" transform="translate(-872.426 7977.372)" fill="#463c5f"/>
    <path id="Trazado_624932" data-name="Trazado 624932" d="M1423.575,508.831c.825,1.6,1.7,3.193,2.614,4.747l2.464-1.442c-.885-1.511-1.74-3.064-2.542-4.616Z" transform="translate(-716.637 8099.263)" fill="#463c5f"/>
    <path id="Trazado_624933" data-name="Trazado 624933" d="M1442.014,539.737c.989,1.505,2.03,3,3.094,4.451l2.3-1.69c-1.035-1.409-2.047-2.866-3.009-4.33Z" transform="translate(-729.604 8077.709)" fill="#463c5f"/>
    <path id="Trazado_624934" data-name="Trazado 624934" d="M1488.2,595.161c1.277,1.268,2.6,2.521,3.948,3.723l1.9-2.127c-1.306-1.169-2.6-2.387-3.84-3.621Z" transform="translate(-762.084 8039.053)" fill="#463c5f"/>
    <path id="Trazado_624935" data-name="Trazado 624935" d="M1463.635,568.616c1.139,1.394,2.33,2.776,3.54,4.11l2.114-1.919c-1.177-1.3-2.336-2.642-3.444-4Z" transform="translate(-744.809 8057.567)" fill="#463c5f"/>
    <path id="Trazado_624936" data-name="Trazado 624936" d="M1515.441,619.08c1.4,1.131,2.854,2.24,4.313,3.3l1.674-2.313c-1.419-1.027-2.831-2.106-4.2-3.206Z" transform="translate(-781.242 8022.371)" fill="#463c5f"/>
    <path id="Trazado_624937" data-name="Trazado 624937" d="M1722.651,549.655c-1.755,0-3.53-.045-5.276-.135l-.146,2.852c1.794.092,3.618.139,5.422.139a104.291,104.291,0,0,0,95.207-61.875l-2.609-1.16a101.432,101.432,0,0,1-92.6,60.18" transform="translate(-923.15 8111.953)" fill="#463c5f"/>
    <path id="Trazado_624938" data-name="Trazado 624938" d="M1510.323,2.855q.79,0,1.577.012l.044-2.855q-.808-.012-1.62-.013V0a104.161,104.161,0,0,0-95.016,61.446l2.6,1.172a101.5,101.5,0,0,1,92.411-59.763" transform="translate(-710.822 8456.179)" fill="#463c5f"/>
    <path id="Trazado_624939" data-name="Trazado 624939" d="M2075.94,299.028l-2.825.419c.257,1.73.471,3.492.639,5.238l2.842-.271c-.171-1.795-.393-3.607-.656-5.386" transform="translate(-1173.43 8245.886)" fill="#463c5f"/>
    <path id="Trazado_624940" data-name="Trazado 624940" d="M1930.947,62.1c-1.443-1.077-2.933-2.13-4.428-3.129l-1.586,2.374c1.453.972,2.9,2,4.306,3.043Z" transform="translate(-1069.219 8414.709)" fill="#463c5f"/>
    <path id="Trazado_624941" data-name="Trazado 624941" d="M2079.451,340.021c0-1.535-.034-3.086-.1-4.611l-2.852.125c.065,1.483.1,2.992.1,4.486q0,.407,0,.813l2.855-.022q0-.395,0-.791" transform="translate(-1175.809 8220.3)" fill="#463c5f"/>
    <path id="Trazado_624942" data-name="Trazado 624942" d="M2068.835,263.2l-2.765.711c.437,1.7.834,3.429,1.181,5.143l2.8-.566c-.356-1.762-.765-3.542-1.215-5.288" transform="translate(-1168.475 8271.084)" fill="#463c5f"/>
    <path id="Trazado_624943" data-name="Trazado 624943" d="M2058.073,228.281l-2.675,1c.613,1.644,1.191,3.326,1.717,5l2.724-.856c-.542-1.723-1.136-3.454-1.766-5.144" transform="translate(-1160.969 8295.639)" fill="#463c5f"/>
    <path id="Trazado_624944" data-name="Trazado 624944" d="M1834.513,14.813c-1.705-.58-3.448-1.123-5.181-1.613l-.776,2.748c1.685.476,3.38,1,5.037,1.568Z" transform="translate(-1001.441 8446.896)" fill="#463c5f"/>
    <path id="Trazado_624945" data-name="Trazado 624945" d="M1799.7,6.175c-1.754-.4-3.545-.755-5.32-1.061l-.485,2.814c1.727.3,3.468.645,5.174,1.032Z" transform="translate(-977.063 8452.582)" fill="#463c5f"/>
    <path id="Trazado_624946" data-name="Trazado 624946" d="M1868.243,27.122c-1.632-.754-3.305-1.475-4.974-2.142l-1.06,2.651c1.622.649,3.25,1.35,4.836,2.083Z" transform="translate(-1025.107 8438.611)" fill="#463c5f"/>
    <path id="Trazado_624947" data-name="Trazado 624947" d="M1900.478,42.936c-1.547-.921-3.137-1.813-4.726-2.651l-1.331,2.526c1.546.814,3.092,1.682,4.6,2.578Z" transform="translate(-1047.762 8427.848)" fill="#463c5f"/>
    <path id="Trazado_624949" data-name="Trazado 624949" d="M1764.178,1.29c-1.786-.212-3.6-.381-5.4-.5l-.191,2.849c1.75.117,3.519.281,5.255.488Z" transform="translate(-952.234 8455.624)" fill="#463c5f"/>
    <path id="Trazado_624953" data-name="Trazado 624953" d="M1959.317,84.392c-1.323-1.219-2.7-2.421-4.082-3.572l-1.824,2.2c1.348,1.119,2.683,2.288,3.97,3.475Z" transform="translate(-1089.246 8399.342)" fill="#463c5f"/>
    <path id="Trazado_624956" data-name="Trazado 624956" d="M2008.567,137.362c-1.043-1.466-2.141-2.926-3.262-4.339l-2.237,1.774c1.09,1.375,2.158,2.8,3.172,4.221Z" transform="translate(-1124.168 8362.629)" fill="#463c5f"/>
    <path id="Trazado_624958" data-name="Trazado 624958" d="M1985.283,109.568c-1.192-1.353-2.435-2.691-3.693-3.977l-2.041,2c1.224,1.251,2.432,2.552,3.592,3.868Z" transform="translate(-1107.629 8381.922)" fill="#463c5f"/>
    <path id="Trazado_624964" data-name="Trazado 624964" d="M2028.9,167.482c-.887-1.569-1.828-3.136-2.8-4.657l-2.409,1.533c.942,1.479,1.856,3,2.719,4.529Z" transform="translate(-1138.678 8341.672)" fill="#463c5f"/>
    <path id="Trazado_624967" data-name="Trazado 624967" d="M2043.446,200.752l2.619-1.137c-.717-1.651-1.489-3.309-2.294-4.927l-2.556,1.273c.783,1.573,1.534,3.185,2.231,4.791" transform="translate(-1150.996 8319.264)" fill="#463c5f"/>
    <g id="Grupo_899767" data-name="Grupo 899767" transform="translate(722.088 8483.946)" opacity="0.35" style="mix-blend-mode: multiply;isolation: isolate">
      <g id="Grupo_899766" data-name="Grupo 899766">
        <g id="Grupo_899765" data-name="Grupo 899765" clip-path="url(#clip-path)">
          <path id="Trazado_625058" data-name="Trazado 625058" d="M1627.758,248.43a76.565,76.565,0,1,1-76.565-76.565,76.565,76.565,0,0,1,76.565,76.565" transform="translate(-1474.628 -148.632)" fill="#fff"/>
          <path id="Trazado_625059" data-name="Trazado 625059" d="M1627.758,246.895a76.565,76.565,0,1,1-76.565-76.565,76.565,76.565,0,0,1,76.565,76.565" transform="translate(-1474.628 -147.553)" fill="#fbfbfb"/>
          <path id="Trazado_625060" data-name="Trazado 625060" d="M1627.758,245.36a76.565,76.565,0,1,1-76.565-76.565,76.565,76.565,0,0,1,76.565,76.565" transform="translate(-1474.628 -146.473)" fill="#f7f7f7"/>
          <path id="Trazado_625061" data-name="Trazado 625061" d="M1627.758,243.825a76.565,76.565,0,1,1-76.565-76.565,76.565,76.565,0,0,1,76.565,76.565" transform="translate(-1474.628 -145.394)" fill="#f3f3f3"/>
          <path id="Trazado_625062" data-name="Trazado 625062" d="M1627.758,242.29a76.565,76.565,0,1,1-76.565-76.565,76.565,76.565,0,0,1,76.565,76.565" transform="translate(-1474.628 -144.314)" fill="#efefef"/>
          <path id="Trazado_625063" data-name="Trazado 625063" d="M1627.758,240.754a76.565,76.565,0,1,1-76.565-76.565,76.565,76.565,0,0,1,76.565,76.565" transform="translate(-1474.628 -143.234)" fill="#ebebeb"/>
          <path id="Trazado_625064" data-name="Trazado 625064" d="M1627.758,239.219a76.565,76.565,0,1,1-76.565-76.565,76.565,76.565,0,0,1,76.565,76.565" transform="translate(-1474.628 -142.155)" fill="#e7e7e7"/>
          <path id="Trazado_625065" data-name="Trazado 625065" d="M1627.758,237.684a76.565,76.565,0,1,1-76.565-76.565,76.565,76.565,0,0,1,76.565,76.565" transform="translate(-1474.628 -141.075)" fill="#e3e3e3"/>
          <path id="Trazado_625066" data-name="Trazado 625066" d="M1627.758,236.149a76.565,76.565,0,1,1-76.565-76.565,76.565,76.565,0,0,1,76.565,76.565" transform="translate(-1474.628 -139.996)" fill="#dfdfdf"/>
          <path id="Trazado_625067" data-name="Trazado 625067" d="M1627.758,234.614a76.565,76.565,0,1,1-76.565-76.565,76.565,76.565,0,0,1,76.565,76.565" transform="translate(-1474.628 -138.916)" fill="#dbdbdb"/>
          <path id="Trazado_625068" data-name="Trazado 625068" d="M1627.758,233.079a76.565,76.565,0,1,1-76.565-76.565,76.565,76.565,0,0,1,76.565,76.565" transform="translate(-1474.628 -137.837)" fill="#d7d7d7"/>
          <path id="Trazado_625069" data-name="Trazado 625069" d="M1627.758,231.544a76.565,76.565,0,1,1-76.565-76.565,76.565,76.565,0,0,1,76.565,76.565" transform="translate(-1474.628 -136.757)" fill="#d3d3d3"/>
          <path id="Trazado_625070" data-name="Trazado 625070" d="M1627.758,230.009a76.565,76.565,0,1,1-76.565-76.565,76.565,76.565,0,0,1,76.565,76.565" transform="translate(-1474.628 -135.678)" fill="#cfcfcf"/>
          <path id="Trazado_625071" data-name="Trazado 625071" d="M1627.758,228.473a76.565,76.565,0,1,1-76.565-76.565,76.565,76.565,0,0,1,76.565,76.565" transform="translate(-1474.628 -134.597)" fill="#cbcbcb"/>
          <path id="Trazado_625072" data-name="Trazado 625072" d="M1627.758,226.938a76.565,76.565,0,1,1-76.565-76.565,76.565,76.565,0,0,1,76.565,76.565" transform="translate(-1474.628 -133.518)" fill="#c7c7c7"/>
          <path id="Trazado_625073" data-name="Trazado 625073" d="M1627.758,225.4a76.565,76.565,0,1,1-76.565-76.565,76.565,76.565,0,0,1,76.565,76.565" transform="translate(-1474.628 -132.438)" fill="#c3c3c3"/>
          <path id="Trazado_625074" data-name="Trazado 625074" d="M1627.758,223.868a76.565,76.565,0,1,1-76.565-76.565,76.565,76.565,0,0,1,76.565,76.565" transform="translate(-1474.628 -131.359)" fill="#bfbfbf"/>
          <path id="Trazado_625075" data-name="Trazado 625075" d="M1627.758,222.333a76.565,76.565,0,1,1-76.565-76.565,76.565,76.565,0,0,1,76.565,76.565" transform="translate(-1474.628 -130.279)" fill="#bbb"/>
          <path id="Trazado_625076" data-name="Trazado 625076" d="M1627.758,220.8a76.565,76.565,0,1,1-76.565-76.565,76.565,76.565,0,0,1,76.565,76.565" transform="translate(-1474.628 -129.2)" fill="#b7b7b7"/>
          <path id="Trazado_625077" data-name="Trazado 625077" d="M1627.758,219.263a76.565,76.565,0,1,1-76.565-76.565,76.565,76.565,0,0,1,76.565,76.565" transform="translate(-1474.628 -128.12)" fill="#b3b3b3"/>
          <path id="Trazado_625078" data-name="Trazado 625078" d="M1627.758,217.727a76.565,76.565,0,1,1-76.565-76.565,76.565,76.565,0,0,1,76.565,76.565" transform="translate(-1474.628 -127.04)" fill="#afafaf"/>
          <path id="Trazado_625079" data-name="Trazado 625079" d="M1627.758,216.192a76.565,76.565,0,1,1-76.565-76.565,76.565,76.565,0,0,1,76.565,76.565" transform="translate(-1474.628 -125.961)" fill="#ababab"/>
          <path id="Trazado_625080" data-name="Trazado 625080" d="M1627.758,214.657a76.565,76.565,0,1,1-76.565-76.565,76.565,76.565,0,0,1,76.565,76.565" transform="translate(-1474.628 -124.881)" fill="#a7a7a7"/>
          <path id="Trazado_625081" data-name="Trazado 625081" d="M1627.758,213.122a76.565,76.565,0,1,1-76.565-76.565,76.565,76.565,0,0,1,76.565,76.565" transform="translate(-1474.628 -123.802)" fill="#a3a3a3"/>
          <path id="Trazado_625082" data-name="Trazado 625082" d="M1627.758,211.587a76.565,76.565,0,1,1-76.565-76.565,76.565,76.565,0,0,1,76.565,76.565" transform="translate(-1474.628 -122.722)" fill="#9f9f9f"/>
          <path id="Trazado_625083" data-name="Trazado 625083" d="M1627.758,210.052a76.565,76.565,0,1,1-76.565-76.565,76.565,76.565,0,0,1,76.565,76.565" transform="translate(-1474.628 -121.643)" fill="#9b9b9b"/>
          <path id="Trazado_625084" data-name="Trazado 625084" d="M1627.758,208.517a76.565,76.565,0,1,1-76.565-76.565,76.565,76.565,0,0,1,76.565,76.565" transform="translate(-1474.628 -120.563)" fill="#979797"/>
          <path id="Trazado_625085" data-name="Trazado 625085" d="M1627.758,206.982a76.565,76.565,0,1,1-76.565-76.565,76.565,76.565,0,0,1,76.565,76.565" transform="translate(-1474.628 -119.484)" fill="#939393"/>
          <path id="Trazado_625086" data-name="Trazado 625086" d="M1627.758,205.446a76.565,76.565,0,1,1-76.565-76.565,76.565,76.565,0,0,1,76.565,76.565" transform="translate(-1474.628 -118.404)" fill="#8f8f8f"/>
          <path id="Trazado_625087" data-name="Trazado 625087" d="M1627.758,203.911a76.565,76.565,0,1,1-76.565-76.565,76.565,76.565,0,0,1,76.565,76.565" transform="translate(-1474.628 -117.324)" fill="#8b8b8b"/>
          <path id="Trazado_625088" data-name="Trazado 625088" d="M1627.758,202.376a76.565,76.565,0,1,1-76.565-76.565,76.565,76.565,0,0,1,76.565,76.565" transform="translate(-1474.628 -116.245)" fill="#878787"/>
          <path id="Trazado_625089" data-name="Trazado 625089" d="M1627.758,200.841a76.565,76.565,0,1,1-76.565-76.565,76.565,76.565,0,0,1,76.565,76.565" transform="translate(-1474.628 -115.165)" fill="#838383"/>
          <path id="Trazado_625090" data-name="Trazado 625090" d="M1627.758,199.306a76.565,76.565,0,1,1-76.565-76.565,76.565,76.565,0,0,1,76.565,76.565" transform="translate(-1474.628 -114.086)" fill="#7f7f7f"/>
          <path id="Trazado_625091" data-name="Trazado 625091" d="M1627.758,197.771a76.565,76.565,0,1,1-76.565-76.565,76.565,76.565,0,0,1,76.565,76.565" transform="translate(-1474.628 -113.006)" fill="#7b7b7b"/>
          <path id="Trazado_625092" data-name="Trazado 625092" d="M1627.758,196.236a76.565,76.565,0,1,1-76.565-76.565,76.565,76.565,0,0,1,76.565,76.565" transform="translate(-1474.628 -111.927)" fill="#777"/>
          <path id="Trazado_625093" data-name="Trazado 625093" d="M1627.758,194.7a76.565,76.565,0,1,1-76.565-76.565,76.565,76.565,0,0,1,76.565,76.565" transform="translate(-1474.628 -110.846)" fill="#737373"/>
          <path id="Trazado_625094" data-name="Trazado 625094" d="M1627.758,193.165a76.565,76.565,0,1,1-76.565-76.565,76.565,76.565,0,0,1,76.565,76.565" transform="translate(-1474.628 -109.767)" fill="#6f6f6f"/>
          <path id="Trazado_625095" data-name="Trazado 625095" d="M1627.758,191.63a76.565,76.565,0,1,1-76.565-76.565,76.565,76.565,0,0,1,76.565,76.565" transform="translate(-1474.628 -108.687)" fill="#6b6b6b"/>
          <path id="Trazado_625096" data-name="Trazado 625096" d="M1627.758,190.095a76.565,76.565,0,1,1-76.565-76.565,76.565,76.565,0,0,1,76.565,76.565" transform="translate(-1474.628 -107.608)" fill="#676767"/>
          <path id="Trazado_625097" data-name="Trazado 625097" d="M1627.758,188.56A76.565,76.565,0,1,1,1551.193,112a76.565,76.565,0,0,1,76.565,76.565" transform="translate(-1474.628 -106.528)" fill="#636363"/>
          <path id="Trazado_625098" data-name="Trazado 625098" d="M1627.758,187.025a76.565,76.565,0,1,1-76.565-76.565,76.565,76.565,0,0,1,76.565,76.565" transform="translate(-1474.628 -105.449)" fill="#5f5f5f"/>
          <path id="Trazado_625099" data-name="Trazado 625099" d="M1627.758,185.49a76.565,76.565,0,1,1-76.565-76.565,76.565,76.565,0,0,1,76.565,76.565" transform="translate(-1474.628 -104.369)" fill="#5b5b5b"/>
          <path id="Trazado_625100" data-name="Trazado 625100" d="M1627.758,183.955a76.565,76.565,0,1,1-76.565-76.565,76.565,76.565,0,0,1,76.565,76.565" transform="translate(-1474.628 -103.29)" fill="#575757"/>
          <path id="Trazado_625101" data-name="Trazado 625101" d="M1627.758,182.419a76.565,76.565,0,1,1-76.565-76.565,76.565,76.565,0,0,1,76.565,76.565" transform="translate(-1474.628 -102.21)" fill="#535353"/>
          <path id="Trazado_625102" data-name="Trazado 625102" d="M1627.758,180.884a76.565,76.565,0,1,1-76.565-76.565,76.565,76.565,0,0,1,76.565,76.565" transform="translate(-1474.628 -101.13)" fill="#4f4f4f"/>
          <path id="Trazado_625103" data-name="Trazado 625103" d="M1627.758,179.349a76.565,76.565,0,1,1-76.565-76.565,76.565,76.565,0,0,1,76.565,76.565" transform="translate(-1474.628 -100.051)" fill="#4b4b4b"/>
          <path id="Trazado_625104" data-name="Trazado 625104" d="M1627.758,177.814a76.565,76.565,0,1,1-76.565-76.565,76.565,76.565,0,0,1,76.565,76.565" transform="translate(-1474.628 -98.971)" fill="#474747"/>
          <path id="Trazado_625105" data-name="Trazado 625105" d="M1627.758,176.279a76.565,76.565,0,1,1-76.565-76.565,76.565,76.565,0,0,1,76.565,76.565" transform="translate(-1474.628 -97.892)" fill="#434343"/>
          <path id="Trazado_625106" data-name="Trazado 625106" d="M1627.758,174.744a76.565,76.565,0,1,1-76.565-76.565,76.565,76.565,0,0,1,76.565,76.565" transform="translate(-1474.628 -96.812)" fill="#3f3f3f"/>
          <path id="Trazado_625107" data-name="Trazado 625107" d="M1627.758,173.209a76.565,76.565,0,1,1-76.565-76.565,76.565,76.565,0,0,1,76.565,76.565" transform="translate(-1474.628 -95.733)" fill="#3b3b3b"/>
          <path id="Trazado_625108" data-name="Trazado 625108" d="M1627.758,171.673a76.565,76.565,0,1,1-76.565-76.565,76.565,76.565,0,0,1,76.565,76.565" transform="translate(-1474.628 -94.652)" fill="#373737"/>
          <path id="Trazado_625109" data-name="Trazado 625109" d="M1627.758,170.138a76.565,76.565,0,1,1-76.565-76.565,76.565,76.565,0,0,1,76.565,76.565" transform="translate(-1474.628 -93.573)" fill="#333"/>
        </g>
      </g>
    </g>
    <path id="Trazado_625110" data-name="Trazado 625110" d="M1627.793,169.909a76.565,76.565,0,1,1-76.565-76.565,76.565,76.565,0,0,1,76.565,76.565" transform="translate(-752.564 8390.534)" fill="#ff6d4b"/>
    <path id="Trazado_625118" data-name="Trazado 625118" d="M1650.037,749.9A101.794,101.794,0,0,1,1615,743.725l35.039,26.3,35.039-26.3a101.8,101.8,0,0,1-35.039,6.178" transform="translate(-851.256 7933.15)" fill="#ff6d4b"/>
    <g id="presupuesto" transform="translate(756.73 8515.42)">
      <path id="Trazado_140851" data-name="Trazado 140851" d="M155.663,22.371V72.306c0,.1,0,.2-.007.3a6.447,6.447,0,0,1-6.441,6.147H112.97a6.447,6.447,0,0,1-6.447-6.446V14.491a6.438,6.438,0,0,1,6.447-6.447h28.79a6.426,6.426,0,0,1,2.8.641c1.742.838,2.232,1.9,5.362,5.1,3.6,3.91,4.461,4.311,5.194,6A6.376,6.376,0,0,1,155.663,22.371Z" transform="translate(-88.459 -6.714)" fill="#f2edff"/>
      <path id="Trazado_140853" data-name="Trazado 140853" d="M292.312,184.007v36.248a9.112,9.112,0,0,1-9.111,9.111H259.525a9.111,9.111,0,0,1-9.111-9.111V184.007a9.107,9.107,0,0,1,9.111-9.111H283.2A9.11,9.11,0,0,1,292.312,184.007Z" transform="translate(-208.567 -145.989)" fill="#ffba5b"/>
      <path id="Trazado_140855" data-name="Trazado 140855" d="M363.021,367.332v4.257a1.362,1.362,0,0,1-1.361,1.363H357.4a1.362,1.362,0,0,1-1.363-1.363v-4.257a1.362,1.362,0,0,1,1.363-1.363h4.259A1.362,1.362,0,0,1,363.021,367.332Z" transform="translate(-296.735 -305.482)" fill="#ffcbbf"/>
      <path id="Trazado_140856" data-name="Trazado 140856" d="M317.672,210.016v4.561a2.938,2.938,0,0,1-2.938,2.938h-23.5a2.939,2.939,0,0,1-2.938-2.938v-4.561a2.939,2.939,0,0,1,2.938-2.938h23.5A2.938,2.938,0,0,1,317.672,210.016Z" transform="translate(-240.189 -172.852)" fill="#1e81ce"/>
      <g id="Grupo_82183" data-name="Grupo 82183" transform="translate(48.108 49.354)">
        <path id="Trazado_140858" data-name="Trazado 140858" d="M295.281,367.332v4.257a1.362,1.362,0,0,1-1.363,1.363H289.66a1.363,1.363,0,0,1-1.363-1.363v-4.257a1.363,1.363,0,0,1,1.363-1.363h4.259A1.362,1.362,0,0,1,295.281,367.332Z" transform="translate(-288.297 -354.836)" fill="#ffcbbf"/>
        <path id="Trazado_140859" data-name="Trazado 140859" d="M363.021,299.97v4.257a1.362,1.362,0,0,1-1.361,1.363H357.4a1.362,1.362,0,0,1-1.363-1.363V299.97a1.362,1.362,0,0,1,1.363-1.362h4.259A1.362,1.362,0,0,1,363.021,299.97Z" transform="translate(-344.843 -298.608)" fill="#ffcbbf"/>
      </g>
      <path id="Trazado_140860" data-name="Trazado 140860" d="M431.578,299.97v4.257a1.362,1.362,0,0,1-1.362,1.363h-4.257a1.362,1.362,0,0,1-1.363-1.363V299.97a1.362,1.362,0,0,1,1.363-1.362h4.257A1.362,1.362,0,0,1,431.578,299.97Z" transform="translate(-353.961 -249.254)" fill="#c3b5ec"/>
      <g id="Grupo_82184" data-name="Grupo 82184" transform="translate(48.108 49.354)">
        <path id="Trazado_140861" data-name="Trazado 140861" d="M295.281,299.97v4.257a1.362,1.362,0,0,1-1.363,1.363H289.66a1.363,1.363,0,0,1-1.363-1.363V299.97a1.363,1.363,0,0,1,1.363-1.362h4.259A1.362,1.362,0,0,1,295.281,299.97Z" transform="translate(-288.297 -298.608)" fill="#ffcbbf"/>
        <path id="Trazado_140862" data-name="Trazado 140862" d="M363.021,431.392v4.259a1.362,1.362,0,0,1-1.361,1.363H357.4a1.362,1.362,0,0,1-1.363-1.363v-4.259a1.362,1.362,0,0,1,1.363-1.361h4.259A1.362,1.362,0,0,1,363.021,431.392Z" transform="translate(-344.843 -408.31)" fill="#ffcbbf"/>
        <path id="Trazado_140863" data-name="Trazado 140863" d="M295.281,431.392v4.259a1.362,1.362,0,0,1-1.363,1.363H289.66a1.363,1.363,0,0,1-1.363-1.363v-4.259a1.363,1.363,0,0,1,1.363-1.361h4.259A1.362,1.362,0,0,1,295.281,431.392Z" transform="translate(-288.297 -408.31)" fill="#ffcbbf"/>
      </g>
      <path id="Trazado_140864" data-name="Trazado 140864" d="M431.578,367.992v13.222a2.324,2.324,0,0,1-2.323,2.325h-2.336a2.324,2.324,0,0,1-2.323-2.325V367.992a2.024,2.024,0,0,1,2.024-2.024h2.935A2.023,2.023,0,0,1,431.578,367.992Z" transform="translate(-353.961 -305.481)" fill="#c3b5ec"/>
      <path id="Trazado_140873" data-name="Trazado 140873" d="M347.219,23.025H339.14a2.479,2.479,0,0,1-2.479-2.479V11.924a6.439,6.439,0,0,1,1.911,1.4l3.453,3.693,3.951,4.135A6.384,6.384,0,0,1,347.219,23.025Z" transform="translate(-280.559 -9.953)" fill="#c3b5ec"/>
      <path id="Trazado_140874" data-name="Trazado 140874" d="M95.112,464.808a3.166,3.166,0,0,1-3.157,3.157H72.613a3.157,3.157,0,0,1,0-6.314H91.955A3.166,3.166,0,0,1,95.112,464.808Z" transform="translate(-57.518 -385.35)" fill="#ddd4f8"/>
      <path id="Trazado_140875" data-name="Trazado 140875" d="M95.112,426.6a3.166,3.166,0,0,1-3.157,3.157H72.613a3.157,3.157,0,0,1,0-6.314H91.955A3.166,3.166,0,0,1,95.112,426.6Z" transform="translate(-57.518 -353.459)" fill="#ddd4f8"/>
      <path id="Trazado_140876" data-name="Trazado 140876" d="M95.112,388.4a3.166,3.166,0,0,1-3.157,3.157H72.613a3.157,3.157,0,0,1,0-6.314H91.955A3.166,3.166,0,0,1,95.112,388.4Z" transform="translate(-57.518 -321.569)" fill="#ddd4f8"/>
      <path id="Trazado_140877" data-name="Trazado 140877" d="M95.112,350.193a3.166,3.166,0,0,1-3.157,3.157H72.613a3.167,3.167,0,0,1-3.157-3.157,3.166,3.166,0,0,1,3.157-3.157H91.955A3.167,3.167,0,0,1,95.112,350.193Z" transform="translate(-57.518 -289.678)" fill="#c3b5ec"/>
      <path id="Trazado_140878" data-name="Trazado 140878" d="M91.955,315.148H72.613a3.166,3.166,0,0,1-3.157-3.157h0a3.166,3.166,0,0,1,3.157-3.157H91.955a3.166,3.166,0,0,1,3.157,3.157h0A3.166,3.166,0,0,1,91.955,315.148Z" transform="translate(-57.518 -257.79)" fill="#c3b5ec"/>
      <path id="Trazado_140879" data-name="Trazado 140879" d="M33.226,387.466a10.273,10.273,0,0,0-10.706-9.837H18.495a10.286,10.286,0,0,0,.88,20.554H22.52v0c.287.012.576.014.869,0a10.455,10.455,0,0,0,1.911-.261,10.287,10.287,0,0,0,7.928-9.643v-.012C33.238,388,33.238,387.735,33.226,387.466Z" transform="translate(-6.739 -315.206)" fill="#c3b5ec"/>
      <path id="Trazado_140881" data-name="Trazado 140881" d="M74.633,27.66h-6.1v-12a7.8,7.8,0,0,0-2.155-5.372L62.436,6.16C59.092,2.713,58.669,1.74,56.677.773A7.8,7.8,0,0,0,53.3,0H24.512a7.786,7.786,0,0,0-7.777,7.777V49.714H15.1a4.484,4.484,0,0,0-3.184,7.644,4.47,4.47,0,0,0-1.3,3.157,4.6,4.6,0,0,0,.088.887,11.31,11.31,0,0,0,1.617,22.551l22.124-.008A4.484,4.484,0,0,0,37.621,76.3a4.463,4.463,0,0,0,1.3-2.935H40.6v.9A10.369,10.369,0,0,0,50.957,84.623H74.633A10.369,10.369,0,0,0,84.99,74.266V38.018A10.369,10.369,0,0,0,74.633,27.66ZM57.431,4.7c5.221,5.519,6.4,6.763,6.618,7,0,0,0,0,0,0h0a.036.036,0,0,0,.007.008l0,0a.028.028,0,0,0,.01.01.023.023,0,0,1,0,.007s0,0,0,0,0,0,0,0,0,0,.007.007H57.431V4.7ZM15.1,52.373H34.437a1.828,1.828,0,0,1,0,3.656H15.1a1.828,1.828,0,0,1,0-3.656Zm0,6.314H34.437a1.828,1.828,0,1,1,0,3.656H21.077a10.827,10.827,0,0,0-1.683-.608,11.206,11.206,0,0,0-2.659-.391c-.261-.007-.522,0-.783.007H13.472a1.8,1.8,0,0,1-.2-.836A1.831,1.831,0,0,1,15.1,58.687Zm21.17,8.142a1.83,1.83,0,0,1-1.828,1.828H27A11.182,11.182,0,0,0,24.741,65h9.7A1.831,1.831,0,0,1,36.265,66.83ZM8.628,64.444a11.471,11.471,0,0,0-2.094,2.685H4.985A8.779,8.779,0,0,1,8.628,64.444ZM3.571,69.621H5.507a11.476,11.476,0,0,0-.362,1.992H3.1A8.735,8.735,0,0,1,3.571,69.621Zm.214,6.589a8.72,8.72,0,0,1-.625-2.1H5.191a10.032,10.032,0,0,0,.475,2.1ZM5.444,78.7c.816,0,1.29,0,1.4,0a11.226,11.226,0,0,0,1.788,2.163A8.782,8.782,0,0,1,5.444,78.7Zm11.343,2.76a8.818,8.818,0,1,1,5.587-15.306A8.811,8.811,0,0,1,16.787,81.463Zm17.651-.176H23.708a11.388,11.388,0,0,0,2.856-3.656h7.873a1.828,1.828,0,0,1,0,3.656Zm1.813-7.92a1.829,1.829,0,0,1-1.813,1.605H27.481a11.421,11.421,0,0,0,.161-3.656h6.795A1.829,1.829,0,0,1,36.25,73.367Zm4.35-2.659H38.2a4.41,4.41,0,0,0-.58-.721,4.477,4.477,0,0,0,0-6.314,4.477,4.477,0,0,0,0-6.314,4.49,4.49,0,0,0-3.184-7.644H19.394V7.777a5.125,5.125,0,0,1,5.118-5.118H54.773V13.072A1.329,1.329,0,0,0,56.1,14.4h9.614c.278,1.077.106.721.158,13.259H50.957A10.369,10.369,0,0,0,40.6,38.018v32.69Zm41.9,3.558a7.873,7.873,0,0,1-7.865,7.865H50.958a7.874,7.874,0,0,1-7.865-7.865V38.018a7.874,7.874,0,0,1,7.865-7.865H74.633A7.873,7.873,0,0,1,82.5,38.018V74.266Z" transform="translate(0)"/>
      <path id="Trazado_140882" data-name="Trazado 140882" d="M289.462,209.975h-4.521a1.7,1.7,0,0,1-1.692-1.692v-4.561a1.7,1.7,0,0,1,1.692-1.692h23.5a1.693,1.693,0,0,1,1.692,1.692v4.561a1.693,1.693,0,0,1-1.692,1.692h-13.6a1.246,1.246,0,1,0,0,2.492h13.6a4.189,4.189,0,0,0,4.184-4.184v-4.561a4.189,4.189,0,0,0-4.184-4.184h-23.5a4.184,4.184,0,0,0-4.184,4.184v4.561a4.184,4.184,0,0,0,4.184,4.184h4.521a1.246,1.246,0,1,0,0-2.492Z" transform="translate(-233.895 -166.558)"/>
      <path id="Trazado_140883" data-name="Trazado 140883" d="M283.366,367.9h4.259a2.611,2.611,0,0,0,2.609-2.609v-4.257a2.611,2.611,0,0,0-2.609-2.609h-4.259a2.612,2.612,0,0,0-2.609,2.609V365.3A2.612,2.612,0,0,0,283.366,367.9Zm-.116-6.866a.117.117,0,0,1,.116-.116h4.259a.117.117,0,0,1,.116.116V365.3a.117.117,0,0,1-.116.116h-4.259a.117.117,0,0,1-.116-.116Z" transform="translate(-233.895 -299.188)"/>
      <path id="Trazado_140884" data-name="Trazado 140884" d="M423.922,291.068h-4.257a2.611,2.611,0,0,0-2.609,2.609v4.257a2.611,2.611,0,0,0,2.609,2.609h4.257a2.611,2.611,0,0,0,2.609-2.609v-4.257A2.611,2.611,0,0,0,423.922,291.068Zm.116,6.866a.116.116,0,0,1-.116.116h-4.257a.117.117,0,0,1-.116-.116c.052-4.212-.108-4.374.116-4.374h4.257a.116.116,0,0,1,.116.116Z" transform="translate(-347.667 -242.96)"/>
      <path id="Trazado_140885" data-name="Trazado 140885" d="M283.366,300.543h4.259a2.611,2.611,0,0,0,2.609-2.609v-4.257a2.611,2.611,0,0,0-2.609-2.609h-4.259a2.612,2.612,0,0,0-2.609,2.609v4.257A2.612,2.612,0,0,0,283.366,300.543Zm-.116-6.866a.117.117,0,0,1,.116-.116h4.259a.117.117,0,0,1,.116.116v4.257a.117.117,0,0,1-.116.116h-4.259a.117.117,0,0,1-.116-.116Z" transform="translate(-233.895 -242.961)"/>
      <path id="Trazado_140886" data-name="Trazado 140886" d="M289.555,423.37a2.608,2.608,0,0,0-1.953-.879h-4.259a2.6,2.6,0,0,0-1.951.879,3.565,3.565,0,0,0-.658,2.659v3.328a2.612,2.612,0,0,0,2.609,2.609H287.6a2.611,2.611,0,0,0,2.609-2.609v-3.328A3.6,3.6,0,0,0,289.555,423.37Zm-1.953,6.1c-4.207-.052-4.375.108-4.375-.116,0-4.508-.05-4.374.116-4.374H287.6c.2,0,.078.284.116,1.045C287.719,426.029,287.827,429.473,287.6,429.473Z" transform="translate(-233.873 -352.662)"/>
      <path id="Trazado_140887" data-name="Trazado 140887" d="M423.26,358.428h-2.934a3.274,3.274,0,0,0-3.27,3.27V374.92a3.575,3.575,0,0,0,3.569,3.571h2.336a3.574,3.574,0,0,0,3.569-3.571V361.7A3.273,3.273,0,0,0,423.26,358.428Zm.778,16.492A1.078,1.078,0,0,1,422.961,376h-2.336a1.079,1.079,0,0,1-1.077-1.078V361.7a.779.779,0,0,1,.778-.778h2.934a.779.779,0,0,1,.778.778V374.92Z" transform="translate(-347.666 -299.187)"/>
      <path id="Trazado_140888" data-name="Trazado 140888" d="M167.986,175.84h0c-1.52-.558-2.617-.962-2.617-2.369,0-1.283.852-1.934,2.533-1.934,1.784,0,2.264.785,2.893.785a1.2,1.2,0,0,0,1.062-1.228c0-1.038-1.694-1.553-3.208-1.689v-.936a1.181,1.181,0,0,0-2.362,0v1.085a3.862,3.862,0,0,0-3.208,4.04c0,2.9,2.135,3.7,3.852,4.348,1.68.631,3.008,1.13,3.008,3.049,0,1.585-.88,2.388-2.615,2.388-2.54,0-2.564-1.715-3.533-1.715a1.246,1.246,0,0,0-1.083,1.228c0,.982,1.463,2.273,3.58,2.608v.9a1.181,1.181,0,1,0,2.362,0v-.929c2.277-.429,3.58-2.1,3.58-4.609C172.228,177.4,169.876,176.534,167.986,175.84Z" transform="translate(-135.357 -139.639)"/>
      <path id="Trazado_140889" data-name="Trazado 140889" d="M355.346,422.491h-4.259a2.607,2.607,0,0,0-1.952.879,3.578,3.578,0,0,0-.656,2.659v3.328a2.611,2.611,0,0,0,2.609,2.609h4.259a2.611,2.611,0,0,0,2.607-2.609V425.1a2.611,2.611,0,0,0-2.607-2.607Zm0,6.982c-4.207-.052-4.375.108-4.375-.116V425.1a.116.116,0,0,1,.116-.115h4.259a.115.115,0,0,1,.115.115C355.411,429.316,355.567,429.473,355.346,429.473Z" transform="translate(-290.42 -352.662)"/>
      <path id="Trazado_140890" data-name="Trazado 140890" d="M355.367,291.068h-4.259a2.611,2.611,0,0,0-2.609,2.609v4.257a2.611,2.611,0,0,0,2.609,2.609h4.259a2.569,2.569,0,0,0,.949-.179,2.612,2.612,0,0,0,1.658-2.43v-4.257A2.612,2.612,0,0,0,355.367,291.068Zm.115,6.866a.115.115,0,0,1-.115.116h-4.259a.117.117,0,0,1-.116-.116v-4.257c0-.224.154-.066,4.375-.116a.115.115,0,0,1,.115.116v4.257Z" transform="translate(-290.441 -242.96)"/>
      <path id="Trazado_140891" data-name="Trazado 140891" d="M356.316,358.608a2.569,2.569,0,0,0-.949-.18h-4.259a2.611,2.611,0,0,0-2.609,2.609v4.257a2.611,2.611,0,0,0,2.609,2.609h4.259a2.611,2.611,0,0,0,2.607-2.609v-4.257A2.612,2.612,0,0,0,356.316,358.608Zm-.834,6.687a.115.115,0,0,1-.115.116h-4.259a.117.117,0,0,1-.116-.116v-4.257a.117.117,0,0,1,.116-.116h4.259a.115.115,0,0,1,.115.116Z" transform="translate(-290.441 -299.187)"/>
      <path id="Trazado_140892" data-name="Trazado 140892" d="M321.293,105.534h3.131a1.246,1.246,0,1,0,0-2.492h-3.131a1.246,1.246,0,1,0,0,2.492Z" transform="translate(-266.691 -86.011)"/>
      <path id="Trazado_140893" data-name="Trazado 140893" d="M157.416,105.534h22.1a1.246,1.246,0,1,0,0-2.492h-22.1a1.246,1.246,0,1,0,0,2.492Z" transform="translate(-129.9 -86.011)"/>
      <path id="Trazado_140894" data-name="Trazado 140894" d="M161.378,142.964a1.246,1.246,0,1,0,0-2.492h-3.961a1.246,1.246,0,0,0,0,2.492Z" transform="translate(-129.9 -117.255)"/>
      <path id="Trazado_140895" data-name="Trazado 140895" d="M234.061,141.718a1.247,1.247,0,0,0-1.246-1.246h-21.27a1.246,1.246,0,1,0,0,2.492h21.27A1.247,1.247,0,0,0,234.061,141.718Z" transform="translate(-175.083 -117.255)"/>
      <path id="Trazado_140896" data-name="Trazado 140896" d="M80.075,402.608c0-.313.115-.4.223-.463a2.142,2.142,0,0,1,1.807.122,1.425,1.425,0,0,0,.675.205c1.229,0,2.2-2.284-.735-2.789V399.6a1.263,1.263,0,0,0-2.526,0v.24a2.833,2.833,0,0,0-1.926,2.838c0,2.125,1.544,2.706,2.672,3.129,1.076.4,1.447.581,1.447,1.312,0,.457-.123.881-1.017.881-1.3,0-1.147-1.03-2.122-1.03a1.3,1.3,0,0,0-1.2,1.291c0,.863.9,1.683,2.15,2.015v.094a1.263,1.263,0,1,0,2.526,0v-.128a3.122,3.122,0,0,0,2.15-3.2C84.195,403.263,80.075,403.832,80.075,402.608Z" transform="translate(-64.123 -332.504)"/>
    </g>
  </g>
</svg>
