<svg xmlns="http://www.w3.org/2000/svg" xmlns:xlink="http://www.w3.org/1999/xlink" width="208.101" height="247.002" viewBox="0 0 208.101 247.002">
  <defs>
    <clipPath id="clip-path">
      <rect id="Rectángulo_334231" data-name="Rectángulo 334231" width="153.129" height="176.363" fill="none"/>
    </clipPath>
  </defs>
  <g id="Grupo_912292" data-name="Grupo 912292" transform="translate(-1106.4 -8456.179)">
    <path id="Trazado_624970" data-name="Trazado 624970" d="M2968.513,30.5a104.167,104.167,0,0,0-168.655,30.944l2.6,1.172a101.3,101.3,0,1,1,92.412,142.811c-1.755,0-3.53-.045-5.276-.135l-.146,2.852c1.794.092,3.618.139,5.422.139A104.142,104.142,0,0,0,2968.513,30.5" transform="translate(-1684.516 8456.179)" fill="#463c5f"/>
    <path id="Trazado_624983" data-name="Trazado 624983" d="M2929.627,640.112c1.514.98,3.074,1.932,4.635,2.831l1.424-2.475c-1.519-.874-3.036-1.8-4.508-2.753Z" transform="translate(-1775.775 8007.702)" fill="#463c5f"/>
    <path id="Trazado_624984" data-name="Trazado 624984" d="M2899.992,619.078c1.4,1.129,2.852,2.238,4.313,3.3l1.674-2.313c-1.422-1.029-2.833-2.107-4.2-3.206Z" transform="translate(-1754.936 8022.372)" fill="#463c5f"/>
    <path id="Trazado_624985" data-name="Trazado 624985" d="M2961.35,658.014c1.609.817,3.261,1.6,4.907,2.333l1.158-2.61c-1.6-.711-3.208-1.474-4.773-2.269Z" transform="translate(-1798.086 7995.217)" fill="#463c5f"/>
    <path id="Trazado_624986" data-name="Trazado 624986" d="M2872.75,595.16c1.278,1.27,2.606,2.522,3.948,3.723l1.9-2.127c-1.3-1.168-2.6-2.386-3.84-3.621Z" transform="translate(-1735.777 8039.055)" fill="#463c5f"/>
    <path id="Trazado_624987" data-name="Trazado 624987" d="M2994.823,672.574c1.686.644,3.412,1.252,5.13,1.807l.878-2.717c-1.671-.539-3.349-1.131-4.988-1.756Z" transform="translate(-1821.625 7985.063)" fill="#463c5f"/>
    <path id="Trazado_624988" data-name="Trazado 624988" d="M2848.188,568.616c1.138,1.394,2.33,2.776,3.54,4.11l2.114-1.919c-1.177-1.3-2.335-2.642-3.444-4Z" transform="translate(-1718.504 8057.567)" fill="#463c5f"/>
    <path id="Trazado_624989" data-name="Trazado 624989" d="M3065.422,690.985c1.775.278,3.585.513,5.381.7l.293-2.84c-1.746-.18-3.507-.409-5.233-.679Z" transform="translate(-1871.273 7972.224)" fill="#463c5f"/>
    <path id="Trazado_624990" data-name="Trazado 624990" d="M3029.653,683.6c1.742.463,3.518.885,5.278,1.255l.588-2.794c-1.711-.36-3.438-.771-5.133-1.221Z" transform="translate(-1846.119 7977.372)" fill="#463c5f"/>
    <path id="Trazado_624991" data-name="Trazado 624991" d="M2826.565,539.736c.99,1.506,2.031,3,3.094,4.452l2.3-1.69c-1.034-1.409-2.047-2.865-3.01-4.33Z" transform="translate(-1703.297 8077.709)" fill="#463c5f"/>
    <path id="Trazado_624992" data-name="Trazado 624992" d="M2776.583,406.726l-2.817.462c.292,1.776.634,3.569,1.02,5.329l2.789-.61c-.374-1.712-.708-3.455-.991-5.181" transform="translate(-1666.166 8170.146)" fill="#463c5f"/>
    <path id="Trazado_624994" data-name="Trazado 624994" d="M2772.572,371.391l-2.85.168c.106,1.8.26,3.617.46,5.405l2.838-.316c-.194-1.74-.344-3.508-.447-5.257" transform="translate(-1663.322 8194.996)" fill="#463c5f"/>
    <path id="Trazado_624996" data-name="Trazado 624996" d="M2784.324,441.451l-2.753.756c.477,1.737,1.006,3.484,1.572,5.193l2.71-.9c-.551-1.661-1.065-3.36-1.529-5.05" transform="translate(-1671.654 8145.727)" fill="#463c5f"/>
    <path id="Trazado_624998" data-name="Trazado 624998" d="M2808.125,508.831c.823,1.593,1.7,3.19,2.614,4.747l2.464-1.442c-.886-1.514-1.741-3.067-2.542-4.616Z" transform="translate(-1690.328 8099.263)" fill="#463c5f"/>
    <path id="Trazado_624999" data-name="Trazado 624999" d="M2795.74,475.192l-2.659,1.039c.653,1.671,1.36,3.35,2.1,4.99l2.6-1.177c-.722-1.6-1.41-3.227-2.045-4.852" transform="translate(-1679.75 8121.998)" fill="#463c5f"/>
    <g id="Grupo_899770" data-name="Grupo 899770" transform="translate(1133.693 8484.792)" opacity="0.35" style="mix-blend-mode: multiply;isolation: isolate">
      <g id="Grupo_899769" data-name="Grupo 899769">
        <g id="Grupo_899768" data-name="Grupo 899768" clip-path="url(#clip-path)">
          <path id="Trazado_625119" data-name="Trazado 625119" d="M3014.827,251.283a76.565,76.565,0,1,1-76.565-76.565,76.565,76.565,0,0,1,76.565,76.565" transform="translate(-2861.698 -151.485)" fill="#fff"/>
          <path id="Trazado_625120" data-name="Trazado 625120" d="M3014.827,249.747a76.565,76.565,0,1,1-76.565-76.565,76.565,76.565,0,0,1,76.565,76.565" transform="translate(-2861.698 -150.405)" fill="#fbfbfb"/>
          <path id="Trazado_625121" data-name="Trazado 625121" d="M3014.827,248.212a76.565,76.565,0,1,1-76.565-76.565,76.565,76.565,0,0,1,76.565,76.565" transform="translate(-2861.698 -149.325)" fill="#f7f7f7"/>
          <path id="Trazado_625122" data-name="Trazado 625122" d="M3014.827,246.677a76.565,76.565,0,1,1-76.565-76.565,76.565,76.565,0,0,1,76.565,76.565" transform="translate(-2861.698 -148.246)" fill="#f3f3f3"/>
          <path id="Trazado_625123" data-name="Trazado 625123" d="M3014.827,245.142a76.565,76.565,0,1,1-76.565-76.565,76.565,76.565,0,0,1,76.565,76.565" transform="translate(-2861.698 -147.166)" fill="#efefef"/>
          <path id="Trazado_625124" data-name="Trazado 625124" d="M3014.827,243.607a76.565,76.565,0,1,1-76.565-76.565,76.565,76.565,0,0,1,76.565,76.565" transform="translate(-2861.698 -146.087)" fill="#ebebeb"/>
          <path id="Trazado_625125" data-name="Trazado 625125" d="M3014.827,242.072a76.565,76.565,0,1,1-76.565-76.565,76.565,76.565,0,0,1,76.565,76.565" transform="translate(-2861.698 -145.007)" fill="#e7e7e7"/>
          <path id="Trazado_625126" data-name="Trazado 625126" d="M3014.827,240.537a76.565,76.565,0,1,1-76.565-76.565,76.565,76.565,0,0,1,76.565,76.565" transform="translate(-2861.698 -143.928)" fill="#e3e3e3"/>
          <path id="Trazado_625127" data-name="Trazado 625127" d="M3014.827,239a76.565,76.565,0,1,1-76.565-76.565A76.565,76.565,0,0,1,3014.827,239" transform="translate(-2861.698 -142.848)" fill="#dfdfdf"/>
          <path id="Trazado_625128" data-name="Trazado 625128" d="M3014.827,237.466a76.565,76.565,0,1,1-76.565-76.565,76.565,76.565,0,0,1,76.565,76.565" transform="translate(-2861.698 -141.768)" fill="#dbdbdb"/>
          <path id="Trazado_625129" data-name="Trazado 625129" d="M3014.827,235.931a76.565,76.565,0,1,1-76.565-76.565,76.565,76.565,0,0,1,76.565,76.565" transform="translate(-2861.698 -140.689)" fill="#d7d7d7"/>
          <path id="Trazado_625130" data-name="Trazado 625130" d="M3014.827,234.4a76.565,76.565,0,1,1-76.565-76.565,76.565,76.565,0,0,1,76.565,76.565" transform="translate(-2861.698 -139.609)" fill="#d3d3d3"/>
          <path id="Trazado_625131" data-name="Trazado 625131" d="M3014.827,232.861a76.565,76.565,0,1,1-76.565-76.565,76.565,76.565,0,0,1,76.565,76.565" transform="translate(-2861.698 -138.53)" fill="#cfcfcf"/>
          <path id="Trazado_625132" data-name="Trazado 625132" d="M3014.827,231.326a76.565,76.565,0,1,1-76.565-76.565,76.565,76.565,0,0,1,76.565,76.565" transform="translate(-2861.698 -137.45)" fill="#cbcbcb"/>
          <path id="Trazado_625133" data-name="Trazado 625133" d="M3014.827,229.791a76.565,76.565,0,1,1-76.565-76.565,76.565,76.565,0,0,1,76.565,76.565" transform="translate(-2861.698 -136.371)" fill="#c7c7c7"/>
          <path id="Trazado_625134" data-name="Trazado 625134" d="M3014.827,228.256a76.565,76.565,0,1,1-76.565-76.565,76.565,76.565,0,0,1,76.565,76.565" transform="translate(-2861.698 -135.291)" fill="#c3c3c3"/>
          <path id="Trazado_625135" data-name="Trazado 625135" d="M3014.827,226.72a76.565,76.565,0,1,1-76.565-76.565,76.565,76.565,0,0,1,76.565,76.565" transform="translate(-2861.698 -134.211)" fill="#bfbfbf"/>
          <path id="Trazado_625136" data-name="Trazado 625136" d="M3014.827,225.185a76.565,76.565,0,1,1-76.565-76.565,76.565,76.565,0,0,1,76.565,76.565" transform="translate(-2861.698 -133.131)" fill="#bbb"/>
          <path id="Trazado_625137" data-name="Trazado 625137" d="M3014.827,223.65a76.565,76.565,0,1,1-76.565-76.565,76.565,76.565,0,0,1,76.565,76.565" transform="translate(-2861.698 -132.052)" fill="#b7b7b7"/>
          <path id="Trazado_625138" data-name="Trazado 625138" d="M3014.827,222.115a76.565,76.565,0,1,1-76.565-76.565,76.565,76.565,0,0,1,76.565,76.565" transform="translate(-2861.698 -130.972)" fill="#b3b3b3"/>
          <path id="Trazado_625139" data-name="Trazado 625139" d="M3014.827,220.58a76.565,76.565,0,1,1-76.565-76.565,76.565,76.565,0,0,1,76.565,76.565" transform="translate(-2861.698 -129.893)" fill="#afafaf"/>
          <path id="Trazado_625140" data-name="Trazado 625140" d="M3014.827,219.045a76.565,76.565,0,1,1-76.565-76.565,76.565,76.565,0,0,1,76.565,76.565" transform="translate(-2861.698 -128.813)" fill="#ababab"/>
          <path id="Trazado_625141" data-name="Trazado 625141" d="M3014.827,217.51a76.565,76.565,0,1,1-76.565-76.565,76.565,76.565,0,0,1,76.565,76.565" transform="translate(-2861.698 -127.734)" fill="#a7a7a7"/>
          <path id="Trazado_625142" data-name="Trazado 625142" d="M3014.827,215.974a76.565,76.565,0,1,1-76.565-76.565,76.565,76.565,0,0,1,76.565,76.565" transform="translate(-2861.698 -126.654)" fill="#a3a3a3"/>
          <path id="Trazado_625143" data-name="Trazado 625143" d="M3014.827,214.439a76.565,76.565,0,1,1-76.565-76.565,76.565,76.565,0,0,1,76.565,76.565" transform="translate(-2861.698 -125.574)" fill="#9f9f9f"/>
          <path id="Trazado_625144" data-name="Trazado 625144" d="M3014.827,212.9a76.565,76.565,0,1,1-76.565-76.565,76.565,76.565,0,0,1,76.565,76.565" transform="translate(-2861.698 -124.495)" fill="#9b9b9b"/>
          <path id="Trazado_625145" data-name="Trazado 625145" d="M3014.827,211.369a76.565,76.565,0,1,1-76.565-76.565,76.565,76.565,0,0,1,76.565,76.565" transform="translate(-2861.698 -123.415)" fill="#979797"/>
          <path id="Trazado_625146" data-name="Trazado 625146" d="M3014.827,209.834a76.565,76.565,0,1,1-76.565-76.565,76.565,76.565,0,0,1,76.565,76.565" transform="translate(-2861.698 -122.336)" fill="#939393"/>
          <path id="Trazado_625147" data-name="Trazado 625147" d="M3014.827,208.3a76.565,76.565,0,1,1-76.565-76.565,76.565,76.565,0,0,1,76.565,76.565" transform="translate(-2861.698 -121.256)" fill="#8f8f8f"/>
          <path id="Trazado_625148" data-name="Trazado 625148" d="M3014.827,206.764a76.565,76.565,0,1,1-76.565-76.565,76.565,76.565,0,0,1,76.565,76.565" transform="translate(-2861.698 -120.177)" fill="#8b8b8b"/>
          <path id="Trazado_625149" data-name="Trazado 625149" d="M3014.827,205.229a76.565,76.565,0,1,1-76.565-76.565,76.565,76.565,0,0,1,76.565,76.565" transform="translate(-2861.698 -119.097)" fill="#878787"/>
          <path id="Trazado_625150" data-name="Trazado 625150" d="M3014.827,203.693a76.565,76.565,0,1,1-76.565-76.565,76.565,76.565,0,0,1,76.565,76.565" transform="translate(-2861.698 -118.017)" fill="#838383"/>
          <path id="Trazado_625151" data-name="Trazado 625151" d="M3014.827,202.158a76.565,76.565,0,1,1-76.565-76.565,76.565,76.565,0,0,1,76.565,76.565" transform="translate(-2861.698 -116.938)" fill="#7f7f7f"/>
          <path id="Trazado_625152" data-name="Trazado 625152" d="M3014.827,200.623a76.565,76.565,0,1,1-76.565-76.565,76.565,76.565,0,0,1,76.565,76.565" transform="translate(-2861.698 -115.858)" fill="#7b7b7b"/>
          <path id="Trazado_625153" data-name="Trazado 625153" d="M3014.827,199.088a76.565,76.565,0,1,1-76.565-76.565,76.565,76.565,0,0,1,76.565,76.565" transform="translate(-2861.698 -114.779)" fill="#777"/>
          <path id="Trazado_625154" data-name="Trazado 625154" d="M3014.827,197.553a76.565,76.565,0,1,1-76.565-76.565,76.565,76.565,0,0,1,76.565,76.565" transform="translate(-2861.698 -113.699)" fill="#737373"/>
          <path id="Trazado_625155" data-name="Trazado 625155" d="M3014.827,196.018a76.565,76.565,0,1,1-76.565-76.565,76.565,76.565,0,0,1,76.565,76.565" transform="translate(-2861.698 -112.62)" fill="#6f6f6f"/>
          <path id="Trazado_625156" data-name="Trazado 625156" d="M3014.827,194.483a76.565,76.565,0,1,1-76.565-76.565,76.565,76.565,0,0,1,76.565,76.565" transform="translate(-2861.698 -111.54)" fill="#6b6b6b"/>
          <path id="Trazado_625157" data-name="Trazado 625157" d="M3014.827,192.947a76.565,76.565,0,1,1-76.565-76.565,76.565,76.565,0,0,1,76.565,76.565" transform="translate(-2861.698 -110.46)" fill="#676767"/>
          <path id="Trazado_625158" data-name="Trazado 625158" d="M3014.827,191.412a76.565,76.565,0,1,1-76.565-76.565,76.565,76.565,0,0,1,76.565,76.565" transform="translate(-2861.698 -109.38)" fill="#636363"/>
          <path id="Trazado_625159" data-name="Trazado 625159" d="M3014.827,189.877a76.565,76.565,0,1,1-76.565-76.565,76.565,76.565,0,0,1,76.565,76.565" transform="translate(-2861.698 -108.301)" fill="#5f5f5f"/>
          <path id="Trazado_625160" data-name="Trazado 625160" d="M3014.827,188.342a76.565,76.565,0,1,1-76.565-76.565,76.565,76.565,0,0,1,76.565,76.565" transform="translate(-2861.698 -107.221)" fill="#5b5b5b"/>
          <path id="Trazado_625161" data-name="Trazado 625161" d="M3014.827,186.807a76.565,76.565,0,1,1-76.565-76.565,76.565,76.565,0,0,1,76.565,76.565" transform="translate(-2861.698 -106.142)" fill="#575757"/>
          <path id="Trazado_625162" data-name="Trazado 625162" d="M3014.827,185.272a76.565,76.565,0,1,1-76.565-76.565,76.565,76.565,0,0,1,76.565,76.565" transform="translate(-2861.698 -105.062)" fill="#535353"/>
          <path id="Trazado_625163" data-name="Trazado 625163" d="M3014.827,183.737a76.565,76.565,0,1,1-76.565-76.565,76.565,76.565,0,0,1,76.565,76.565" transform="translate(-2861.698 -103.983)" fill="#4f4f4f"/>
          <path id="Trazado_625164" data-name="Trazado 625164" d="M3014.827,182.2a76.565,76.565,0,1,1-76.565-76.565,76.565,76.565,0,0,1,76.565,76.565" transform="translate(-2861.698 -102.903)" fill="#4b4b4b"/>
          <path id="Trazado_625165" data-name="Trazado 625165" d="M3014.827,180.666a76.565,76.565,0,1,1-76.565-76.565,76.565,76.565,0,0,1,76.565,76.565" transform="translate(-2861.698 -101.823)" fill="#474747"/>
          <path id="Trazado_625166" data-name="Trazado 625166" d="M3014.827,179.131a76.565,76.565,0,1,1-76.565-76.565,76.565,76.565,0,0,1,76.565,76.565" transform="translate(-2861.698 -100.744)" fill="#434343"/>
          <path id="Trazado_625167" data-name="Trazado 625167" d="M3014.827,177.6a76.565,76.565,0,1,1-76.565-76.565,76.565,76.565,0,0,1,76.565,76.565" transform="translate(-2861.698 -99.664)" fill="#3f3f3f"/>
          <path id="Trazado_625168" data-name="Trazado 625168" d="M3014.827,176.061A76.565,76.565,0,1,1,2938.262,99.5a76.565,76.565,0,0,1,76.565,76.565" transform="translate(-2861.698 -98.585)" fill="#3b3b3b"/>
          <path id="Trazado_625169" data-name="Trazado 625169" d="M3014.827,174.526a76.565,76.565,0,1,1-76.565-76.565,76.565,76.565,0,0,1,76.565,76.565" transform="translate(-2861.698 -97.505)" fill="#373737"/>
          <path id="Trazado_625170" data-name="Trazado 625170" d="M3014.827,172.991a76.565,76.565,0,1,1-76.565-76.565,76.565,76.565,0,0,1,76.565,76.565" transform="translate(-2861.698 -96.426)" fill="#333"/>
        </g>
      </g>
    </g>
    <path id="Trazado_625171" data-name="Trazado 625171" d="M3014.863,172.762A76.565,76.565,0,1,1,2938.3,96.2a76.565,76.565,0,0,1,76.564,76.565" transform="translate(-1728.029 8388.527)" fill="#99412d"/>
    <path id="Trazado_625176" data-name="Trazado 625176" d="M3033.447,749.9a101.792,101.792,0,0,1-35.039-6.178l35.039,26.3,35.039-26.3a101.793,101.793,0,0,1-35.039,6.178" transform="translate(-1824.146 7933.15)" fill="#99412d"/>
    <g id="XMLID_1487_" transform="translate(1117.502 8515.971)">
      <path id="XMLID_1492_" d="M182.633,117.669H157.5a3.85,3.85,0,1,1,0-7.7h25.132a3.85,3.85,0,1,1,0,7.7Z" transform="translate(-77.069 -92.329)" fill="#c6563d"/>
      <path id="XMLID_1491_" d="M108.772,213.152H94.17a22.185,22.185,0,0,1-18.7-34.116l13.439-21.067h25.132l13.439,21.067A22.185,22.185,0,0,1,108.772,213.152Z" transform="translate(-8.473 -132.629)" fill="#ffba5b"/>
      <path id="XMLID_1489_" d="M151.509,11.367a4.733,4.733,0,0,1,6.694,0l.012.012a4.734,4.734,0,0,0,6.683.012l.047-.047a4.734,4.734,0,0,1,6.683.012l.012.012a4.734,4.734,0,0,0,6.694,0,4.733,4.733,0,0,1,6.694,0l-4.188,14.643H155.708Z" transform="translate(-75.271 -8.37)" fill="#ffba5b"/>
      <g id="XMLID_1153_" transform="translate(61.857 -0.001)">
        <path id="XMLID_1329_" d="M120.355,45.544,108.092,26.321a5.451,5.451,0,0,0-.507-9.895L111.3,3.438a1.6,1.6,0,0,0-.408-1.575,6.345,6.345,0,0,0-8.963,0,3.109,3.109,0,0,1-2.213.917,3.112,3.112,0,0,1-2.217-.92l-.008-.008a6.35,6.35,0,0,0-8.948-.015l-.046.046a3.135,3.135,0,0,1-4.418-.008l-.012-.012a6.345,6.345,0,0,0-8.963,0A1.6,1.6,0,0,0,74.7,3.439l3.723,12.984a5.451,5.451,0,0,0-.515,9.9L65.641,45.544A23.789,23.789,0,0,0,85.7,82.127h14.6a23.789,23.789,0,0,0,20.056-36.583ZM81.8,4.131l.012.012a6.35,6.35,0,0,0,8.948.015l.046-.046a3.136,3.136,0,0,1,4.422.012l.008.008a6.345,6.345,0,0,0,8.963,0,3.135,3.135,0,0,1,3.719-.531l-3.557,12.436H81.646L78.08,3.6a3.135,3.135,0,0,1,3.718.531Zm36.547,64.1A20.312,20.312,0,0,1,100.3,78.919H85.7A20.581,20.581,0,0,1,68.346,47.27L81.311,26.944h4.468a1.6,1.6,0,0,0,0-3.208H80.432a2.246,2.246,0,1,1,0-4.492h25.132a2.246,2.246,0,0,1,0,4.492h-5.347a1.6,1.6,0,0,0,0,3.208h4.468L117.65,47.27a20.313,20.313,0,0,1,.7,20.962Z" transform="translate(-61.857 0.001)"/>
        <path id="XMLID_1341_" d="M219.016,252.184c-.4-.142-.813-.29-1.224-.444v-7.27a6.592,6.592,0,0,1,1.845.861,1.6,1.6,0,0,0,1.93-2.563,9.8,9.8,0,0,0-3.775-1.6v-1.6a1.6,1.6,0,0,0-3.208,0v1.585a8.275,8.275,0,0,0-.826.2,6.424,6.424,0,0,0-4.4,5.039,5.665,5.665,0,0,0,1.855,5.584,15.452,15.452,0,0,0,3.375,1.918v9.3a6.413,6.413,0,0,1-3.517-1.289,1.6,1.6,0,0,0-1.756,2.685,9.469,9.469,0,0,0,5.273,1.814v1.659a1.6,1.6,0,0,0,3.208,0v-1.825a7.733,7.733,0,0,0,5.895-6.3A6.785,6.785,0,0,0,219.016,252.184Zm-5.828-2.725a2.5,2.5,0,0,1-.682-2.464,3.267,3.267,0,0,1,2.078-2.528v5.875A9.591,9.591,0,0,1,213.188,249.459Zm7.335,9.957a4.6,4.6,0,0,1-2.731,3.475v-7.738l.155.056A3.63,3.63,0,0,1,220.523,259.417Z" transform="translate(-185.047 -199.796)"/>
        <path id="XMLID_1343_" d="M247.589,151.177a1.6,1.6,0,1,0-1.134-.47,1.616,1.616,0,0,0,1.134.47Z" transform="translate(-216.448 -124.232)"/>
      </g>
    </g>
  </g>
</svg>
