<svg id="Page-1" xmlns="http://www.w3.org/2000/svg" width="57.647" height="62.888" viewBox="0 0 57.647 62.888">
  <g id="_021---Tick-File" data-name="021---Tick-File">
    <g id="Icons" transform="translate(1.009 1.048)">
      <path id="Shape" d="M6,4.193A4.193,4.193,0,0,1,10.193,0H52.118A4.193,4.193,0,0,1,56.31,4.193V46.118L43.733,58.7H10.193A4.193,4.193,0,0,1,6,54.5Z" transform="translate(-0.721)" fill="#ffe9cb"/>
      <path id="Shape-2" data-name="Shape" d="M27.519,30.144l1.323-1.837a3.145,3.145,0,1,1,5.1,3.675L15.08,58.185a3.144,3.144,0,0,1-2.3,1.3,1.986,1.986,0,0,1-.251.01,3.144,3.144,0,0,1-2.223-.921L1.923,50.186a3.144,3.144,0,1,1,4.446-4.446l5.771,5.77L24.5,34.337" transform="translate(-0.963 1.299)" fill="#ff7758"/>
      <path id="Shape-3" data-name="Shape" d="M42,56.578V48.193A4.193,4.193,0,0,1,46.193,44h8.385" transform="translate(1.012 2.118)" fill="#ffd69f"/>
    </g>
    <g id="Layer_2">
      <path id="Shape-4" data-name="Shape" d="M57.406,5.241A5.247,5.247,0,0,0,52.166,0H10.241A5.247,5.247,0,0,0,5,5.241V41.925a1.048,1.048,0,0,0,2.1,0V5.241A3.144,3.144,0,0,1,10.241,2.1H52.166A3.144,3.144,0,0,1,55.31,5.241V46.118H47.973a5.247,5.247,0,0,0-5.241,5.241V58.7H22.818a1.048,1.048,0,0,0,0,2.1H43.781a1.048,1.048,0,0,0,.741-.307L57.1,47.907a1.048,1.048,0,0,0,.307-.741ZM47.973,48.214h5.855l-9,9V51.358A3.144,3.144,0,0,1,47.973,48.214Z" transform="translate(0.241)"/>
      <path id="Shape-5" data-name="Shape" d="M0,49.012a4.162,4.162,0,0,0,1.228,2.964l8.385,8.385a4.169,4.169,0,0,0,2.964,1.228,2.822,2.822,0,0,0,.337-.014,4.185,4.185,0,0,0,3.065-1.729l18.866-26.2a4.193,4.193,0,1,0-6.8-4.9l-1.323,1.837a1.048,1.048,0,1,0,1.7,1.224l1.323-1.836a2.1,2.1,0,1,1,3.4,2.448l-18.866,26.2a2.087,2.087,0,0,1-1.53.865,2.113,2.113,0,0,1-1.653-.607L2.71,50.494a2.1,2.1,0,0,1,0-2.964,2.146,2.146,0,0,1,2.964,0l5.771,5.77a1.034,1.034,0,0,0,.826.3,1.048,1.048,0,0,0,.765-.432L25.4,36a1.048,1.048,0,1,0-1.7-1.224L12.053,50.947l-4.9-4.9a4.3,4.3,0,0,0-5.929,0A4.162,4.162,0,0,0,0,49.012Z" transform="translate(0 1.298)"/>
      <path id="Shape-6" data-name="Shape" d="M14.144,6h-2.1a1.048,1.048,0,1,0,0,2.1h2.1a1.048,1.048,0,1,0,0-2.1Z" transform="translate(0.529 0.289)"/>
      <path id="Shape-7" data-name="Shape" d="M49.492,6H18.048a1.048,1.048,0,1,0,0,2.1H49.492a1.048,1.048,0,0,0,0-2.1Z" transform="translate(0.818 0.289)"/>
      <path id="Shape-8" data-name="Shape" d="M14.144,12h-2.1a1.048,1.048,0,1,0,0,2.1h2.1a1.048,1.048,0,1,0,0-2.1Z" transform="translate(0.529 0.578)"/>
      <path id="Shape-9" data-name="Shape" d="M18.048,14.1H42.155a1.048,1.048,0,0,0,0-2.1H18.048a1.048,1.048,0,1,0,0,2.1Z" transform="translate(0.818 0.578)"/>
      <path id="Shape-10" data-name="Shape" d="M14.144,18h-2.1a1.048,1.048,0,1,0,0,2.1h2.1a1.048,1.048,0,1,0,0-2.1Z" transform="translate(0.529 0.866)"/>
      <path id="Shape-11" data-name="Shape" d="M18.048,20.1h16.77a1.048,1.048,0,0,0,0-2.1H18.048a1.048,1.048,0,1,0,0,2.1Z" transform="translate(0.818 0.866)"/>
      <path id="Shape-12" data-name="Shape" d="M51.1,21.048a1.048,1.048,0,0,0-2.1,0V35.722a1.048,1.048,0,0,0,2.1,0Z" transform="translate(2.358 0.963)"/>
      <path id="Shape-13" data-name="Shape" d="M50.048,38A1.048,1.048,0,0,0,49,39.048v2.1a1.048,1.048,0,0,0,2.1,0v-2.1A1.048,1.048,0,0,0,50.048,38Z" transform="translate(2.358 1.829)"/>
    </g>
  </g>
</svg>
