<svg xmlns="http://www.w3.org/2000/svg" width="103.454" height="103.502" viewBox="0 0 103.454 103.502">
  <g id="ley" transform="translate(-0.003)">
    <g id="Grupo_85418" data-name="Grupo 85418" transform="translate(2.024 2.021)">
      <path id="Trazado_148497" data-name="Trazado 148497" d="M92.04,97.29,91.886,16.5A8.087,8.087,0,0,0,83.957,10H16.065A6.061,6.061,0,0,0,10,16.062v10.1H22.127v77.187a6.061,6.061,0,0,0,6.062,6.062H98.1a6.061,6.061,0,0,0,6.062-6.062V97.29Z" transform="translate(-10.003 -10)" fill="#eefaff"/>
      <path id="Trazado_148498" data-name="Trazado 148498" d="M289.313,43.459a56.708,56.708,0,0,0-22.9-.9,37.519,37.519,0,0,0-15.848,6.591c-19.923,14.728-14.378,51.113-14.462,51.427A116.493,116.493,0,0,0,255.64,87.644l-3.908-7.814h12.477a103.556,103.556,0,0,0,7.729-9,171.519,171.519,0,0,0,17.377-27.367Z" transform="translate(-189.901 -35.377)" fill="#ffba5b"/>
      <path id="Trazado_148502" data-name="Trazado 148502" d="M9.952,0A9.952,9.952,0,1,1,0,9.952,9.952,9.952,0,0,1,9.952,0Z" transform="translate(20.498 12.575)" fill="#ff7758"/>
    </g>
    <g id="Grupo_85419" data-name="Grupo 85419" transform="translate(0.003 0)">
      <path id="Trazado_148499" data-name="Trazado 148499" d="M2.024,20.206h10.1V95.373a8.092,8.092,0,0,0,8.082,8.082H52.741a2.021,2.021,0,0,0,0-4.041H27.2a8.03,8.03,0,0,0,1.087-4.041V91.332H94.163v4.041a4.046,4.046,0,0,1-4.041,4.041h-19.2a2.021,2.021,0,1,0,0,4.041h19.2A8.092,8.092,0,0,0,98.2,95.373V89.311a2.021,2.021,0,0,0-2.021-2.021h-10.1V38.161a171.7,171.7,0,0,0,17.176-27.178,2.026,2.026,0,0,0-1.312-2.836l-.016,0A59.32,59.32,0,0,0,85.4,6.456,10.133,10.133,0,0,0,75.978,0H8.085A8.092,8.092,0,0,0,0,8.082v10.1a2.021,2.021,0,0,0,2.021,2.021ZM78.482,41.122c-.951,1.115-1.96,2.233-3.009,3.332H63.854a2.021,2.021,0,0,0-1.807,2.924l3.178,6.355a121.507,121.507,0,0,1-14.587,9.875A58.853,58.853,0,0,1,61.929,36.371H76.206a2.021,2.021,0,1,0,0-4.041H65.226a62.774,62.774,0,0,1,8.69-8.082H84.692a2.021,2.021,0,1,0,0-4.041H79.845a62.956,62.956,0,0,1,17.841-7.284,169.935,169.935,0,0,1-19.2,28.2Zm-28.69,9.225c.606-9.846,3-21.862,10.262-29.546l-1.6,13.309c-.007.059-.01.118-.012.177a63.824,63.824,0,0,0-8.652,16.06Zm13.4-21.784,1.4-11.641A34.223,34.223,0,0,1,74.933,12.1l-4.371,9.259a2.015,2.015,0,0,0-.16.5,66.818,66.818,0,0,0-7.211,6.7ZM87.547,10.456c1.269,0,2.486.044,3.631.117a67.224,67.224,0,0,0-14.19,6.645l2.922-6.19a49.46,49.46,0,0,1,7.637-.573ZM75.978,4.041a6.08,6.08,0,0,1,5.078,2.752c-8.521,1.014-16.389,4.116-22.62,9.913-8.357,7.777-11.615,20.1-12.557,31.534A96.985,96.985,0,0,0,46.2,67.286l-.389,5.456H22.23a2.021,2.021,0,1,0,0,4.041H55.772a2.021,2.021,0,0,0,0-4.041H49.859l.3-4.245A121.311,121.311,0,0,0,69.039,55.854a2.021,2.021,0,0,0,.531-2.47l-2.445-4.889h9.207a2.021,2.021,0,0,0,1.448-.611c1.322-1.357,2.592-2.75,3.778-4.14.161-.189.322-.382.483-.573V87.29H26.271a2.021,2.021,0,0,0-2.021,2.021v6.062a4.041,4.041,0,0,1-8.082,0V8.082A8.03,8.03,0,0,0,15.08,4.041ZM4.044,8.082a4.041,4.041,0,1,1,8.082,0v8.082H4.044Z" transform="translate(-0.003 0)"/>
      <path id="Trazado_148500" data-name="Trazado 148500" d="M102.024,324.041H119.4a2.021,2.021,0,0,0,0-4.041H102.024a2.021,2.021,0,0,0,0,4.041Z" transform="translate(-79.797 -255.34)"/>
      <path id="Trazado_148501" data-name="Trazado 148501" d="M115.127,84.247A12.124,12.124,0,1,0,103,72.124,12.137,12.137,0,0,0,115.127,84.247Zm0-20.206a8.082,8.082,0,1,1-8.082,8.082A8.092,8.092,0,0,1,115.127,64.041Z" transform="translate(-82.191 -47.876)"/>
      <circle id="Elipse_4430" data-name="Elipse 4430" cx="1.99" cy="1.99" r="1.99" transform="translate(59.674 99.521)"/>
    </g>
  </g>
</svg>
