<svg xmlns="http://www.w3.org/2000/svg" width="111.387" height="91.135" viewBox="0 0 111.387 91.135">
  <g id="Grupo_899793" data-name="Grupo 899793" transform="translate(-1088.822 -4798.681)">
    <g id="caja" transform="translate(1088.822 4810.924)">
      <g id="Grupo_81942" data-name="Grupo 81942" transform="translate(1.023 34.348)">
        <path id="Trazado_116233" data-name="Trazado 116233" d="M116.849,117.958l9.481-6.884V95.43h-9.481" transform="translate(-105.916 -90.099)" fill="#d1a184"/>
        <g id="Grupo_81935" data-name="Grupo 81935" transform="translate(10.933 29.453)">
          <path id="Trazado_116234" data-name="Trazado 116234" d="M116.849,338.065v1.853h9.481v-8.737Z" transform="translate(-116.849 -331.181)" fill="#d1a184"/>
        </g>
        <g id="Grupo_81936" data-name="Grupo 81936">
          <path id="Trazado_116235" data-name="Trazado 116235" d="M10,43.325H60.341v5.331H10Z" transform="translate(-10 -43.325)" fill="#fff2a0"/>
          <path id="Trazado_116236" data-name="Trazado 116236" d="M10,416.57H60.341V421.9H10Z" transform="translate(-10 -378.38)" fill="#fff2a0"/>
        </g>
        <g id="Grupo_81937" data-name="Grupo 81937" transform="translate(1.452 5.331)">
          <path id="Trazado_116237" data-name="Trazado 116237" d="M91.9,400.31h2.552v-1.853Z" transform="translate(-84.976 -367.452)" fill="#ddb9a3"/>
          <path id="Trazado_116238" data-name="Trazado 116238" d="M33.671,95.43H24.19v29.412l9.481-6.884" transform="translate(-24.19 -95.43)" fill="#ddb9a3"/>
        </g>
        <g id="Grupo_81938" data-name="Grupo 81938" transform="translate(20.413 5.331)">
          <path id="Trazado_116239" data-name="Trazado 116239" d="M218.989,104.191V95.43h-9.481v15.645Z" transform="translate(-209.508 -95.43)" fill="#ddb9a3"/>
          <path id="Trazado_116240" data-name="Trazado 116240" d="M209.508,270.787v8.737h9.481V263.9Z" transform="translate(-209.508 -246.665)" fill="#ddb9a3"/>
        </g>
        <g id="Grupo_81940" data-name="Grupo 81940" transform="translate(29.894 5.331)">
          <path id="Trazado_116241" data-name="Trazado 116241" d="M302.167,203.51V219.13h9.481v-22.5Z" transform="translate(-302.167 -186.272)" fill="#d1a184"/>
          <g id="Grupo_81939" data-name="Grupo 81939">
            <path id="Trazado_116242" data-name="Trazado 116242" d="M311.648,97.307V95.43h-9.481v8.761Z" transform="translate(-302.167 -95.43)" fill="#d1a184"/>
          </g>
        </g>
        <g id="Grupo_81941" data-name="Grupo 81941" transform="translate(39.408 5.331)">
          <path id="Trazado_116243" data-name="Trazado 116243" d="M397.7,95.43H395.15v1.853Z" transform="translate(-395.15 -95.43)" fill="#ddb9a3"/>
          <path id="Trazado_116244" data-name="Trazado 116244" d="M395.15,136v22.528h9.481V129.113Z" transform="translate(-395.15 -125.667)" fill="#ddb9a3"/>
        </g>
        <path id="Trazado_116245" data-name="Trazado 116245" d="M71.627,95.43v3.447l-9.481,6.883L33.671,126.435l-2.553,1.853H24.19v-3.447l9.481-6.883L62.146,97.283,64.7,95.43Z" transform="translate(-22.738 -90.099)" fill="#fff7bf"/>
      </g>
      <g id="Grupo_81943" data-name="Grupo 81943" transform="translate(0 33.325)">
        <path id="Trazado_116246" data-name="Trazado 116246" d="M51.364,40.7a1.023,1.023,0,0,0,1.023-1.023V34.348a1.023,1.023,0,0,0-1.023-1.023H1.023A1.023,1.023,0,0,0,0,34.348v5.331A1.023,1.023,0,0,0,1.023,40.7h.429V71.515H1.023A1.023,1.023,0,0,0,0,72.538v5.331a1.023,1.023,0,0,0,1.023,1.023H51.364a1.023,1.023,0,0,0,1.023-1.023V72.538a1.023,1.023,0,0,0-1.023-1.023h-.429V40.7ZM50.341,76.846H2.046V73.561H50.341ZM11.956,48.323A1.023,1.023,0,0,0,12.979,47.3V40.7h7.434V54.8l-7.434,5.4v-3.65a1.023,1.023,0,0,0-2.046,0v5.136L3.5,67.084V40.7h7.434v6.6A1.023,1.023,0,0,0,11.956,48.323Zm31.36-7.62h5.573v1.9L9.071,71.515H3.5v-1.9ZM22.46,53.317V40.7h7.434v7.216Zm9.481-6.884V40.7h7.467v.308Zm16.948-1.3V71.515H41.454V50.531Zm-9.514,6.907V71.515H31.94V57.439Zm-9.481,6.884v12.59H22.46V64.323Zm-9.481,6.884v5.706H12.979v-.308ZM50.341,38.656H2.046V35.371H50.341Z" transform="translate(0 -33.325)" fill="#12263f"/>
        <path id="Trazado_116247" data-name="Trazado 116247" d="M107.182,207.056a1.023,1.023,0,1,0-.108-1.319,1.034,1.034,0,0,0,.108,1.319Z" transform="translate(-95.95 -187.713)" fill="#12263f"/>
      </g>
    </g>
    <g id="caja-2" data-name="caja" transform="translate(1101.822 4765.355)">
      <g id="Grupo_81942-2" data-name="Grupo 81942" transform="translate(1.023 34.348)">
        <path id="Trazado_116233-2" data-name="Trazado 116233" d="M116.849,117.958l9.481-6.884V95.43h-9.481" transform="translate(-105.916 -90.099)" fill="#d1a184"/>
        <g id="Grupo_81935-2" data-name="Grupo 81935" transform="translate(10.933 29.453)">
          <path id="Trazado_116234-2" data-name="Trazado 116234" d="M116.849,338.065v1.853h9.481v-8.737Z" transform="translate(-116.849 -331.181)" fill="#d1a184"/>
        </g>
        <g id="Grupo_81936-2" data-name="Grupo 81936">
          <path id="Trazado_116235-2" data-name="Trazado 116235" d="M10,43.325H60.341v5.331H10Z" transform="translate(-10 -43.325)" fill="#fff2a0"/>
          <path id="Trazado_116236-2" data-name="Trazado 116236" d="M10,416.57H60.341V421.9H10Z" transform="translate(-10 -378.38)" fill="#fff2a0"/>
        </g>
        <g id="Grupo_81937-2" data-name="Grupo 81937" transform="translate(1.452 5.331)">
          <path id="Trazado_116237-2" data-name="Trazado 116237" d="M91.9,400.31h2.552v-1.853Z" transform="translate(-84.976 -367.452)" fill="#ddb9a3"/>
          <path id="Trazado_116238-2" data-name="Trazado 116238" d="M33.671,95.43H24.19v29.412l9.481-6.884" transform="translate(-24.19 -95.43)" fill="#ddb9a3"/>
        </g>
        <g id="Grupo_81938-2" data-name="Grupo 81938" transform="translate(20.413 5.331)">
          <path id="Trazado_116239-2" data-name="Trazado 116239" d="M218.989,104.191V95.43h-9.481v15.645Z" transform="translate(-209.508 -95.43)" fill="#ddb9a3"/>
          <path id="Trazado_116240-2" data-name="Trazado 116240" d="M209.508,270.787v8.737h9.481V263.9Z" transform="translate(-209.508 -246.665)" fill="#ddb9a3"/>
        </g>
        <g id="Grupo_81940-2" data-name="Grupo 81940" transform="translate(29.894 5.331)">
          <path id="Trazado_116241-2" data-name="Trazado 116241" d="M302.167,203.51V219.13h9.481v-22.5Z" transform="translate(-302.167 -186.272)" fill="#d1a184"/>
          <g id="Grupo_81939-2" data-name="Grupo 81939">
            <path id="Trazado_116242-2" data-name="Trazado 116242" d="M311.648,97.307V95.43h-9.481v8.761Z" transform="translate(-302.167 -95.43)" fill="#d1a184"/>
          </g>
        </g>
        <g id="Grupo_81941-2" data-name="Grupo 81941" transform="translate(39.408 5.331)">
          <path id="Trazado_116243-2" data-name="Trazado 116243" d="M397.7,95.43H395.15v1.853Z" transform="translate(-395.15 -95.43)" fill="#ddb9a3"/>
          <path id="Trazado_116244-2" data-name="Trazado 116244" d="M395.15,136v22.528h9.481V129.113Z" transform="translate(-395.15 -125.667)" fill="#ddb9a3"/>
        </g>
        <path id="Trazado_116245-2" data-name="Trazado 116245" d="M71.627,95.43v3.447l-9.481,6.883L33.671,126.435l-2.553,1.853H24.19v-3.447l9.481-6.883L62.146,97.283,64.7,95.43Z" transform="translate(-22.738 -90.099)" fill="#fff7bf"/>
      </g>
      <g id="Grupo_81943-2" data-name="Grupo 81943" transform="translate(0 33.325)">
        <path id="Trazado_116246-2" data-name="Trazado 116246" d="M51.364,40.7a1.023,1.023,0,0,0,1.023-1.023V34.348a1.023,1.023,0,0,0-1.023-1.023H1.023A1.023,1.023,0,0,0,0,34.348v5.331A1.023,1.023,0,0,0,1.023,40.7h.429V71.515H1.023A1.023,1.023,0,0,0,0,72.538v5.331a1.023,1.023,0,0,0,1.023,1.023H51.364a1.023,1.023,0,0,0,1.023-1.023V72.538a1.023,1.023,0,0,0-1.023-1.023h-.429V40.7ZM50.341,76.846H2.046V73.561H50.341ZM11.956,48.323A1.023,1.023,0,0,0,12.979,47.3V40.7h7.434V54.8l-7.434,5.4v-3.65a1.023,1.023,0,0,0-2.046,0v5.136L3.5,67.084V40.7h7.434v6.6A1.023,1.023,0,0,0,11.956,48.323Zm31.36-7.62h5.573v1.9L9.071,71.515H3.5v-1.9ZM22.46,53.317V40.7h7.434v7.216Zm9.481-6.884V40.7h7.467v.308Zm16.948-1.3V71.515H41.454V50.531Zm-9.514,6.907V71.515H31.94V57.439Zm-9.481,6.884v12.59H22.46V64.323Zm-9.481,6.884v5.706H12.979v-.308ZM50.341,38.656H2.046V35.371H50.341Z" transform="translate(0 -33.325)" fill="#12263f"/>
        <path id="Trazado_116247-2" data-name="Trazado 116247" d="M107.182,207.056a1.023,1.023,0,1,0-.108-1.319,1.034,1.034,0,0,0,.108,1.319Z" transform="translate(-95.95 -187.713)" fill="#12263f"/>
      </g>
    </g>
    <g id="caja-3" data-name="caja" transform="translate(1147.822 4810.924)">
      <g id="Grupo_81942-3" data-name="Grupo 81942" transform="translate(1.023 34.348)">
        <path id="Trazado_116233-3" data-name="Trazado 116233" d="M116.849,117.958l9.481-6.884V95.43h-9.481" transform="translate(-105.916 -90.099)" fill="#d1a184"/>
        <g id="Grupo_81935-3" data-name="Grupo 81935" transform="translate(10.933 29.453)">
          <path id="Trazado_116234-3" data-name="Trazado 116234" d="M116.849,338.065v1.853h9.481v-8.737Z" transform="translate(-116.849 -331.181)" fill="#d1a184"/>
        </g>
        <g id="Grupo_81936-3" data-name="Grupo 81936">
          <path id="Trazado_116235-3" data-name="Trazado 116235" d="M10,43.325H60.341v5.331H10Z" transform="translate(-10 -43.325)" fill="#fff2a0"/>
          <path id="Trazado_116236-3" data-name="Trazado 116236" d="M10,416.57H60.341V421.9H10Z" transform="translate(-10 -378.38)" fill="#fff2a0"/>
        </g>
        <g id="Grupo_81937-3" data-name="Grupo 81937" transform="translate(1.452 5.331)">
          <path id="Trazado_116237-3" data-name="Trazado 116237" d="M91.9,400.31h2.552v-1.853Z" transform="translate(-84.976 -367.452)" fill="#ddb9a3"/>
          <path id="Trazado_116238-3" data-name="Trazado 116238" d="M33.671,95.43H24.19v29.412l9.481-6.884" transform="translate(-24.19 -95.43)" fill="#ddb9a3"/>
        </g>
        <g id="Grupo_81938-3" data-name="Grupo 81938" transform="translate(20.413 5.331)">
          <path id="Trazado_116239-3" data-name="Trazado 116239" d="M218.989,104.191V95.43h-9.481v15.645Z" transform="translate(-209.508 -95.43)" fill="#ddb9a3"/>
          <path id="Trazado_116240-3" data-name="Trazado 116240" d="M209.508,270.787v8.737h9.481V263.9Z" transform="translate(-209.508 -246.665)" fill="#ddb9a3"/>
        </g>
        <g id="Grupo_81940-3" data-name="Grupo 81940" transform="translate(29.894 5.331)">
          <path id="Trazado_116241-3" data-name="Trazado 116241" d="M302.167,203.51V219.13h9.481v-22.5Z" transform="translate(-302.167 -186.272)" fill="#d1a184"/>
          <g id="Grupo_81939-3" data-name="Grupo 81939">
            <path id="Trazado_116242-3" data-name="Trazado 116242" d="M311.648,97.307V95.43h-9.481v8.761Z" transform="translate(-302.167 -95.43)" fill="#d1a184"/>
          </g>
        </g>
        <g id="Grupo_81941-3" data-name="Grupo 81941" transform="translate(39.408 5.331)">
          <path id="Trazado_116243-3" data-name="Trazado 116243" d="M397.7,95.43H395.15v1.853Z" transform="translate(-395.15 -95.43)" fill="#ddb9a3"/>
          <path id="Trazado_116244-3" data-name="Trazado 116244" d="M395.15,136v22.528h9.481V129.113Z" transform="translate(-395.15 -125.667)" fill="#ddb9a3"/>
        </g>
        <path id="Trazado_116245-3" data-name="Trazado 116245" d="M71.627,95.43v3.447l-9.481,6.883L33.671,126.435l-2.553,1.853H24.19v-3.447l9.481-6.883L62.146,97.283,64.7,95.43Z" transform="translate(-22.738 -90.099)" fill="#fff7bf"/>
      </g>
      <g id="Grupo_81943-3" data-name="Grupo 81943" transform="translate(0 33.325)">
        <path id="Trazado_116246-3" data-name="Trazado 116246" d="M51.364,40.7a1.023,1.023,0,0,0,1.023-1.023V34.348a1.023,1.023,0,0,0-1.023-1.023H1.023A1.023,1.023,0,0,0,0,34.348v5.331A1.023,1.023,0,0,0,1.023,40.7h.429V71.515H1.023A1.023,1.023,0,0,0,0,72.538v5.331a1.023,1.023,0,0,0,1.023,1.023H51.364a1.023,1.023,0,0,0,1.023-1.023V72.538a1.023,1.023,0,0,0-1.023-1.023h-.429V40.7ZM50.341,76.846H2.046V73.561H50.341ZM11.956,48.323A1.023,1.023,0,0,0,12.979,47.3V40.7h7.434V54.8l-7.434,5.4v-3.65a1.023,1.023,0,0,0-2.046,0v5.136L3.5,67.084V40.7h7.434v6.6A1.023,1.023,0,0,0,11.956,48.323Zm31.36-7.62h5.573v1.9L9.071,71.515H3.5v-1.9ZM22.46,53.317V40.7h7.434v7.216Zm9.481-6.884V40.7h7.467v.308Zm16.948-1.3V71.515H41.454V50.531Zm-9.514,6.907V71.515H31.94V57.439Zm-9.481,6.884v12.59H22.46V64.323Zm-9.481,6.884v5.706H12.979v-.308ZM50.341,38.656H2.046V35.371H50.341Z" transform="translate(0 -33.325)" fill="#12263f"/>
        <path id="Trazado_116247-3" data-name="Trazado 116247" d="M107.182,207.056a1.023,1.023,0,1,0-.108-1.319,1.034,1.034,0,0,0,.108,1.319Z" transform="translate(-95.95 -187.713)" fill="#12263f"/>
      </g>
    </g>
  </g>
</svg>
