<svg id="_080---Trainset" data-name="080---Trainset" xmlns="http://www.w3.org/2000/svg" width="77.865" height="58.279" viewBox="0 0 77.865 58.279">
  <g id="Icons" transform="translate(1.295 1.295)">
    <circle id="Oval" cx="1.943" cy="1.943" r="1.943" transform="translate(45.328 45.328)" fill="#ffba5b"/>
    <circle id="Oval-2" data-name="Oval" cx="1.943" cy="1.943" r="1.943" transform="translate(56.984 45.328)" fill="#ffba5b"/>
  </g>
  <g id="Outline" transform="translate(0 0)">
    <path id="Shape" d="M3.885,49.214H6.864A9.041,9.041,0,0,0,23.312,51.25a9.022,9.022,0,0,0,15.182.554h3.735a7.111,7.111,0,0,0,12.165.844A7.11,7.11,0,0,0,66.559,51.8h8.725a2.59,2.59,0,0,0,2.154-4.015L73.783,42.3a5.863,5.863,0,0,0-2.553-4.157V28.492c0-2.654-2.769-5.011-3.966-5.9a5.7,5.7,0,0,0-4.475-4.171L65.983,5.973A5.18,5.18,0,0,0,60.869,0H53.112a5.18,5.18,0,0,0-5.1,6.1L51.18,18.424a5.88,5.88,0,0,0-4.315,3.593H45.107a3.893,3.893,0,0,0-3.664-2.59h-2.59a3.9,3.9,0,0,0-3.665,2.59H33.672V14.008a3.876,3.876,0,0,0-1.3-7.532H3.885a3.876,3.876,0,0,0-1.3,7.532v24.13A5.739,5.739,0,0,0,0,42.738v2.59a3.885,3.885,0,0,0,3.885,3.885Zm0-2.59a1.3,1.3,0,0,1-1.3-1.3v-1.3H6.864a9.02,9.02,0,0,0-.389,2.59Zm5.18,0a6.475,6.475,0,0,1,11.656-3.885h-5.18a3.885,3.885,0,1,0,0,7.771h5.18A6.475,6.475,0,0,1,9.066,46.623Zm6.475,1.3a1.3,1.3,0,1,1,0-2.59H31.082a1.3,1.3,0,0,1,0,2.59ZM25.9,50.509h5.18a3.885,3.885,0,1,0,0-7.771H25.9a6.475,6.475,0,1,1,0,7.771Zm13.858-1.3A9.046,9.046,0,0,0,23.312,42a9.022,9.022,0,0,0-15.182-.554H2.957a4.274,4.274,0,0,1,1.507-1.425,1.3,1.3,0,0,0,.716-1.166V34.968H68.64v3.885c0,1.3,1.3,1.021,2.224,2.59-12.342,0-11.45-.044-11.794.1a7.123,7.123,0,0,0-4.675,2.939,7.123,7.123,0,0,0-12.919,4.73ZM5.18,14.246h2.59V27.2H5.18Zm20.722,0V27.2h-5.18V14.246Zm5.18,0V27.2h-2.59V14.246ZM68.64,32.377H5.18v-2.59H68.64ZM18.131,27.2H10.361V14.246h7.771ZM48.566,53.1A4.533,4.533,0,1,1,53.1,48.566,4.533,4.533,0,0,1,48.566,53.1Zm11.656,0a4.533,4.533,0,1,1,4.533-4.533A4.533,4.533,0,0,1,60.222,53.1Zm11.609-9.066,3.453,5.18H67.313a7.073,7.073,0,0,0-1.6-5.18ZM53.112,2.59h7.758a2.59,2.59,0,0,1,2.59,2.59H55.689a1.3,1.3,0,0,0,0,2.59h7.163L60.188,18.131H53.779L50.541,5.579A2.59,2.59,0,0,1,53.112,2.59ZM36.263,24.607a1.3,1.3,0,0,0,1.3-1.3,1.265,1.265,0,0,1,.4-.923c.49-.5.872-.372,3.488-.372a1.3,1.3,0,0,1,1.3,1.3,1.3,1.3,0,0,0,1.3,1.3h3.885a1.3,1.3,0,0,0,1.3-1.3c0-.022.045-2.134,3.66-2.59H61.1c3.462.438,3.659,2.392,3.659,2.59a1.32,1.32,0,0,0,.576,1.078A10.9,10.9,0,0,1,68.174,27.2h-34.5v-2.59ZM3.885,9.066H32.377a1.3,1.3,0,0,1,0,2.59H3.885a1.3,1.3,0,0,1,0-2.59Z" transform="translate(0 0)" fill="#ffba5b"/>
    <path id="Shape-2" data-name="Shape" d="M38.238,35a3.238,3.238,0,1,0,3.238,3.238A3.238,3.238,0,0,0,38.238,35Zm0,3.885a.648.648,0,1,1,.648-.648A.648.648,0,0,1,38.238,38.885Z" transform="translate(10.328 10.328)" fill="#ffba5b"/>
    <path id="Shape-3" data-name="Shape" d="M47.238,35a3.238,3.238,0,1,0,3.238,3.238A3.238,3.238,0,0,0,47.238,35Zm0,3.885a.648.648,0,1,1,.648-.648A.648.648,0,0,1,47.238,38.885Z" transform="translate(12.984 10.328)" fill="#ffba5b"/>
    <path id="Shape-4" data-name="Shape" d="M6.3,43a1.3,1.3,0,0,0,0,2.59H68.46a1.3,1.3,0,0,0,0-2.59Z" transform="translate(1.475 12.689)" fill="#ffba5b"/>
    <path id="Shape-5" data-name="Shape" d="M1.3,45.59h1.3a1.3,1.3,0,0,0,0-2.59H1.3a1.3,1.3,0,0,0,0,2.59Z" transform="translate(0 12.689)" fill="#ffba5b"/>
    <path id="Shape-6" data-name="Shape" d="M59.59,43H58.3a1.3,1.3,0,0,0,0,2.59h1.3a1.3,1.3,0,1,0,0-2.59Z" transform="translate(16.82 12.689)" fill="#ffba5b"/>
  </g>
</svg>
