<svg xmlns="http://www.w3.org/2000/svg" width="88.058" height="108.7" viewBox="0 0 88.058 108.7">
  <g id="Grupo_148341" data-name="Grupo 148341" transform="translate(0)">
    <g id="Grupo_87976" data-name="Grupo 87976" transform="translate(0 4.929)">
      <path id="Trazado_144139" data-name="Trazado 144139" d="M109.8,186.969a9.7,9.7,0,0,0,6.67-6.8,7.428,7.428,0,0,0-.387-8.965,7.482,7.482,0,0,0-1.317-5.358,7.5,7.5,0,0,0-.873-4.026,9.491,9.491,0,0,0,.148-4.152c-1.071-5.665.382-8.959,3.566-16.175q.568-1.285,1.18-2.687a36.888,36.888,0,0,0-41.4-50.782c-.857.181-1.713.392-2.549.63a36.883,36.883,0,0,0-10.892,65.795l2.169,1.489c6.609,4.521,9.621,6.58,11.706,12a9.508,9.508,0,0,0,2.316,3.466,7.482,7.482,0,0,0,1.374,3.885,7.484,7.484,0,0,0,1.7,5.25,7.426,7.426,0,0,0,4.386,7.829,9.692,9.692,0,0,0,9.248,2.28Z" transform="translate(-48.073 -87.24)" fill="#fff"/>
      <g id="Grupo_87975" data-name="Grupo 87975" transform="translate(6.215 6.215)">
        <g id="Grupo_87974" data-name="Grupo 87974">
          <g id="Grupo_87971" data-name="Grupo 87971" transform="translate(31.056 63.678)">
            <rect id="Rectángulo_34040" data-name="Rectángulo 34040" width="20.307" height="23.829" rx="5.5" transform="translate(0 5.549) rotate(-15.86)" fill="#8d8382"/>
          </g>
          <path id="Trazado_144140" data-name="Trazado 144140" d="M56.524,133.587a30.672,30.672,0,0,0,12.033,16.82l2.154,1.479c6.991,4.781,11.21,7.668,13.989,14.9a3.283,3.283,0,0,0,3.974,1.991l18-5.113a3.281,3.281,0,0,0,2.334-3.78c-1.427-7.552.612-12.173,3.991-19.831q.56-1.27,1.164-2.65a30.668,30.668,0,1,0-57.636-3.814Z" transform="translate(-55.364 -94.53)" fill="#ffc50c"/>
          <path id="Trazado_144141" data-name="Trazado 144141" d="M98.374,103.554c3.4-1.015,6.685,1.276,9.21,3.29a24.756,24.756,0,0,1,6.286,7.446,22.152,22.152,0,0,1,.383,20.458c-.271.581-1.031.13-.951-.4a26.614,26.614,0,0,0-4.077-18.1,22.107,22.107,0,0,0-5.412-5.586c-2.183-1.569-4.775-2.532-6.382-4.79A1.592,1.592,0,0,1,98.374,103.554Z" transform="translate(-61.535 -95.825)" fill="#fff"/>
          <g id="Grupo_87973" data-name="Grupo 87973" transform="translate(32.057 70.622)">
            <g id="Grupo_87972" data-name="Grupo 87972">
              <path id="Trazado_144142" data-name="Trazado 144142" d="M94.1,182.9l19.234-5.464a1.423,1.423,0,0,1,1.808.868h0A1.423,1.423,0,0,1,114.057,180l-19.234,5.464a1.424,1.424,0,0,1-1.809-.868h0A1.424,1.424,0,0,1,94.1,182.9Z" transform="translate(-92.969 -177.374)" fill="#504742"/>
              <path id="Trazado_144143" data-name="Trazado 144143" d="M95.706,188.568,114.94,183.1a1.425,1.425,0,0,1,1.809.868h0a1.424,1.424,0,0,1-1.083,1.689l-19.234,5.465a1.423,1.423,0,0,1-1.808-.868h0A1.424,1.424,0,0,1,95.706,188.568Z" transform="translate(-93.206 -178.21)" fill="#504742"/>
              <path id="Trazado_144144" data-name="Trazado 144144" d="M97.632,195.348l19.234-5.464a1.424,1.424,0,0,1,1.809.868h0a1.424,1.424,0,0,1-1.083,1.689L98.358,197.9a1.423,1.423,0,0,1-1.808-.868h0A1.423,1.423,0,0,1,97.632,195.348Z" transform="translate(-93.491 -179.21)" fill="#504742"/>
            </g>
          </g>
        </g>
      </g>
    </g>
    <g id="Grupo_87977" data-name="Grupo 87977" transform="translate(56.158)">
      <path id="Trazado_144145" data-name="Trazado 144145" d="M129.6,98.606l18.558-2.247L145.334,91.7Z" transform="translate(-116.26 -82.968)" fill="#ffc50c"/>
      <path id="Trazado_144146" data-name="Trazado 144146" d="M126.172,96.666l6.548-7-5.532-2.7Z" transform="translate(-115.754 -82.27)" fill="#ffc50c"/>
      <path id="Trazado_144147" data-name="Trazado 144147" d="M120.807,94.353l-2.086-12.9-4.771,1.979Z" transform="translate(-113.951 -81.457)" fill="#ffc50c"/>
    </g>
  </g>
</svg>
