<svg id="files-document-protection-insurance-pen" xmlns="http://www.w3.org/2000/svg" width="72.312" height="72.313" viewBox="0 0 72.312 72.313">
  <path id="Trazado_140730" data-name="Trazado 140730" d="M53,23h4.821V59.156H53Z" transform="translate(8.465 2.309)" fill="#ffcbbf"/>
  <path id="Trazado_140731" data-name="Trazado 140731" d="M57.821,19.41v4.821H53V19.41a2.41,2.41,0,1,1,4.821,0Z" transform="translate(8.465 1.078)" fill="#898890"/>
  <path id="Trazado_140732" data-name="Trazado 140732" d="M57.821,53l-2.41,9.642L53,53Z" transform="translate(8.465 8.465)" fill="#898890"/>
  <path id="Trazado_140735" data-name="Trazado 140735" d="M57.41,53,55,62.642V53Z" transform="translate(8.876 8.465)" fill="#57565c"/>
  <rect id="Rectángulo_30810" data-name="Rectángulo 30810" width="45.179" height="69.822" rx="2" transform="translate(12.321 0.437)" fill="#f2edff"/>
  <path id="Trazado_140736" data-name="Trazado 140736" d="M43.694,11.821v7.725a9.654,9.654,0,0,1-3.242,7.207l-7.6,6.761-7.6-6.761A9.654,9.654,0,0,1,22,19.546V11.821L32.847,7Z" transform="translate(2.104 -0.974)" fill="#ffba5b"/>
  <path id="Trazado_140737" data-name="Trazado 140737" d="M27.1,30.616a3.616,3.616,0,0,1-3.616,3.616H15.052V48.694H6.628L3,46.283V29.41L9.026,27H23.488A3.616,3.616,0,0,1,27.1,30.616Z" transform="translate(-1.795 3.13)" fill="#ffc477"/>
  <path id="Trazado_140738" data-name="Trazado 140738" d="M11.917,27Z" transform="translate(9.776 3.13)" fill="#ffa733"/>
  <path id="Trazado_140741" data-name="Trazado 140741" d="M56.234,2H17.668a3.626,3.626,0,0,0-3.616,3.616V30.925H9.231a1.129,1.129,0,0,0-.446.084L2.759,33.42A1.205,1.205,0,0,0,2,34.541V51.413a1.205,1.205,0,0,0,.542,1l3.628,2.41a1.166,1.166,0,0,0,.663.2h7.219V70.7a3.626,3.626,0,0,0,3.616,3.616H56.234A3.626,3.626,0,0,0,59.85,70.7V5.616A3.626,3.626,0,0,0,56.234,2Zm-42.3,38.567h.121V52.619H7.194L4.41,50.763V35.36l5.05-2.025H23.694a2.41,2.41,0,1,1,0,4.821H12.847a1.205,1.205,0,0,0-1.205,1.205,3.626,3.626,0,0,1-3.616,3.616v2.41a6.037,6.037,0,0,0,5.906-4.821ZM57.439,70.7A1.205,1.205,0,0,1,56.234,71.9H17.668A1.205,1.205,0,0,1,16.462,70.7V40.567h7.231a4.821,4.821,0,1,0,0-9.642H16.462V5.616A1.205,1.205,0,0,1,17.668,4.41H56.234a1.205,1.205,0,0,1,1.205,1.205Z" transform="translate(-2 -2)"/>
  <path id="Trazado_140742" data-name="Trazado 140742" d="M31.726,21.511a1.205,1.205,0,0,0,.852-.353L39.4,14.34l-1.7-1.7L31.726,18.6l-2.557-2.557-1.7,1.7,3.41,3.41a1.205,1.205,0,0,0,.852.353Z" transform="translate(3.225 0.183)"/>
  <path id="Trazado_140743" data-name="Trazado 140743" d="M44.393,10.929,33.546,6.108a1.18,1.18,0,0,0-.988,0L21.711,10.929a1.19,1.19,0,0,0-.711,1.1v7.725a10.822,10.822,0,0,0,3.64,8.1l7.617,6.773a1.205,1.205,0,0,0,1.591,0l7.617-6.773a10.822,10.822,0,0,0,3.64-8.1V12.026a1.19,1.19,0,0,0-.711-1.1Zm-1.7,8.822a8.453,8.453,0,0,1-2.832,6.3L33.052,32.1l-6.809-6.05a8.453,8.453,0,0,1-2.832-6.3V12.809l9.642-4.291,9.642,4.291Z" transform="translate(1.899 -1.179)"/>
  <path id="Trazado_140744" data-name="Trazado 140744" d="M62.847,23.231H59.231V19.616a3.616,3.616,0,0,0-7.231,0V60.593a1.189,1.189,0,0,0,.036.289l2.41,9.642a1.205,1.205,0,0,0,2.338,0l2.41-9.642a1.188,1.188,0,0,0,.036-.289V25.642h2.41V36.488h2.41V24.436a1.205,1.205,0,0,0-1.205-1.205ZM55.616,65.269,54.748,61.8h1.735Zm1.205-5.881H54.41V25.642h2.41Zm0-36.156H54.41V19.616a1.205,1.205,0,1,1,2.41,0Z" transform="translate(8.26 0.873)"/>
  <path id="Trazado_140745" data-name="Trazado 140745" d="M18,38h4.821v2.41H18Z" transform="translate(1.283 5.387)"/>
  <path id="Trazado_140746" data-name="Trazado 140746" d="M24,38H48.1v2.41H24Z" transform="translate(2.515 5.387)"/>
  <path id="Trazado_140747" data-name="Trazado 140747" d="M18,44h4.821v2.41H18Z" transform="translate(1.283 6.619)"/>
  <path id="Trazado_140748" data-name="Trazado 140748" d="M24,44H48.1v2.41H24Z" transform="translate(2.515 6.619)"/>
  <path id="Trazado_140749" data-name="Trazado 140749" d="M18,50h4.821v2.41H18Z" transform="translate(1.283 7.85)"/>
  <path id="Trazado_140750" data-name="Trazado 140750" d="M24,50H48.1v2.41H24Z" transform="translate(2.515 7.85)"/>
  <path id="Trazado_140751" data-name="Trazado 140751" d="M18,56h4.821v2.41H18Z" transform="translate(1.283 9.081)"/>
  <path id="Trazado_140752" data-name="Trazado 140752" d="M24,56H48.1v2.41H24Z" transform="translate(2.515 9.081)"/>
</svg>
