<svg id="dolar-2" xmlns="http://www.w3.org/2000/svg" width="80.495" height="80.495" viewBox="0 0 80.495 80.495">
  <g id="Grupo_54008" data-name="Grupo 54008" transform="translate(1.179 1.168)">
    <g id="Grupo_54005" data-name="Grupo 54005" transform="translate(0 22.008)">
      <g id="Grupo_54004" data-name="Grupo 54004">
        <g id="Grupo_54002" data-name="Grupo 54002">
          <path id="Trazado_102148" data-name="Trazado 102148" d="M43.111,203.552H28.759a43.659,43.659,0,0,1,0-7.828A139.252,139.252,0,0,1,7.5,176.917c.917-15.2.926-15.344.027-29.1-.009-.134-.017-.269-.027-.406,8.505,0,8.51,5.347,8.51,23.07l4.358,3.976h0c5.064-3.783,9.2.824,22.653,12.536A104.8,104.8,0,0,1,43.111,203.552Z" transform="translate(-7.5 -147.412)" fill="#ffe6c7"/>
          <path id="Trazado_102150" data-name="Trazado 102150" d="M45.673,200.966c.5-9.179,2.037-21.168-6.65-21.168H36v21.133Z" transform="translate(-31.521 -174.706)" fill="#ffe6c7"/>
        </g>
        <g id="Grupo_54003" data-name="Grupo 54003" transform="translate(42.243)">
          <path id="Trazado_102152" data-name="Trazado 102152" d="M276.475,203.552h14.352a43.659,43.659,0,0,0,0-7.828,139.263,139.263,0,0,0,21.259-18.808c-.917-15.2-.926-15.344-.027-29.1.009-.134.017-.269.027-.406-8.505,0-8.51,5.347-8.51,23.07l-4.358,3.976h0c-5.064-3.783-9.2.824-22.653,12.536A104.8,104.8,0,0,0,276.475,203.552Z" transform="translate(-276.193 -147.412)" fill="#ffe6c7"/>
          <path id="Trazado_102154" data-name="Trazado 102154" d="M412.183,200.966c-.5-9.179-2.037-21.168,6.65-21.168h3.022v21.133Z" transform="translate(-390.442 -174.706)" fill="#ffe6c7"/>
        </g>
      </g>
    </g>
    <g id="Grupo_54007" data-name="Grupo 54007" transform="translate(17.476)">
      <g id="Grupo_54006" data-name="Grupo 54006">
        <path id="Trazado_102156" data-name="Trazado 102156" d="M161.994,29.092a21.666,21.666,0,0,1-21.668,21.663q-.993,0-1.965-.088a21.665,21.665,0,0,1,0-43.151q.972-.087,1.965-.088A21.666,21.666,0,0,1,161.994,29.092Z" transform="translate(-118.659 -7.427)" fill="#ffba5b"/>
      </g>
      <path id="Trazado_102158" data-name="Trazado 102158" d="M190.425,64.042A15.155,15.155,0,1,1,175.277,48.9,15.147,15.147,0,0,1,190.425,64.042Z" transform="translate(-153.609 -42.377)" fill="#ffd69f"/>
      <path id="Trazado_102159" data-name="Trazado 102159" d="M241.979,49.068a15.139,15.139,0,0,1,2.28-.171C252.624,48.9,249.263,50.167,241.979,49.068Z" transform="translate(-222.591 -42.377)" fill="#c3b5ec"/>
    </g>
  </g>
  <g id="Grupo_54009" data-name="Grupo 54009" transform="translate(0 0)">
    <path id="Trazado_102160" data-name="Trazado 102160" d="M366.639,426.737c-1.461,1.137-2.929,2.224-4.363,3.234a1.179,1.179,0,0,0-.495,1.081,42.5,42.5,0,0,1,0,7.571,1.179,1.179,0,0,0,1.041,1.3,1.2,1.2,0,0,0,.132.007,1.179,1.179,0,0,0,1.17-1.049,43.067,43.067,0,0,0,.059-7.376c1.287-.919,2.6-1.9,3.9-2.909a1.179,1.179,0,0,0-1.448-1.861Z" transform="translate(-304.899 -359.437)"/>
    <path id="Trazado_102161" data-name="Trazado 102161" d="M306.934,170.938a266.32,266.32,0,0,1,0-29.319,1.179,1.179,0,0,0-1.177-1.256c-4.559,0-7.1,1.54-8.378,5.123a6.9,6.9,0,0,0-4.569,2.123c-3.438,3.656-2.971,11.239-2.56,17.929q.018.3.036.6a7.1,7.1,0,0,0-3.806.591c-3.177,1.319-6.894,4.581-13.052,9.988-1.251,1.1-2.546,2.235-3.968,3.472a1.18,1.18,0,0,0-.4.771,104.708,104.708,0,0,0-.091,16.746,1.179,1.179,0,0,0,1.175,1.089c.03,0,.06,0,.091,0a1.179,1.179,0,0,0,1.086-1.265,105.874,105.874,0,0,1,.045-15.87c1.287-1.12,2.47-2.159,3.618-3.167,11.489-10.087,14.091-12.139,18.276-8.066-1.636,1.453-5.3,4.666-9.451,8.033a1.179,1.179,0,0,0,1.485,1.832c5.653-4.583,10.408-8.884,10.456-8.927a1.179,1.179,0,0,0,.079-1.669q-.585-.64-1.149-1.163l3.361-3.069a1.179,1.179,0,0,0,.384-.871c0-8.691,0-14.433,1.016-17.82.79-2.632,2.168-3.765,5.066-4a271.514,271.514,0,0,0,.043,27.817,141.093,141.093,0,0,1-12.045,11.495,1.179,1.179,0,1,0,1.526,1.8,140.015,140.015,0,0,0,12.607-12.083,1.178,1.178,0,0,0,.3-.855Zm-10.867-6.875-3.287,3-.078-.046q-.046-.8-.1-1.624c-.382-6.213-.816-13.256,1.924-16.169a4.313,4.313,0,0,1,2.213-1.255C296.083,151.609,296.068,156.812,296.067,164.063Z" transform="translate(-226.442 -118.296)"/>
    <path id="Trazado_102162" data-name="Trazado 102162" d="M183.4,353.242c-1.422-1.236-2.716-2.372-3.967-3.471-1.557-1.367-3.028-2.659-4.339-3.783a1.179,1.179,0,0,0-1.535,1.79c1.3,1.116,2.7,2.343,4.319,3.765,1.148,1.008,2.331,2.046,3.618,3.167a105.883,105.883,0,0,1,.045,15.87,1.179,1.179,0,0,0,1.086,1.265c.03,0,.061,0,.091,0a1.179,1.179,0,0,0,1.175-1.089,104.672,104.672,0,0,0-.091-16.746,1.179,1.179,0,0,0-.4-.771Z" transform="translate(-145.926 -291.353)"/>
    <path id="Trazado_102163" data-name="Trazado 102163" d="M24.524,169.164c-3.184-2.346-5.642-3.36-7.916-3.022l.041-.66c.415-6.673.885-14.236-2.54-17.88a6.87,6.87,0,0,0-4.552-2.116c-1.277-3.583-3.818-5.124-8.378-5.124A1.179,1.179,0,0,0,0,141.541c0,.027,0,.053,0,.079.921,14.062.921,14.062,0,29.317a1.18,1.18,0,0,0,.3.855,142.14,142.14,0,0,0,20.909,18.573,43.07,43.07,0,0,0,.059,7.376,1.179,1.179,0,0,0,1.17,1.049,1.2,1.2,0,0,0,.132-.007,1.179,1.179,0,0,0,1.041-1.3,42.593,42.593,0,0,1,0-7.571,1.18,1.18,0,0,0-.495-1.081A139.934,139.934,0,0,1,2.386,170.583c.872-14.433.89-15.034.055-27.816,2.889.233,4.265,1.368,5.054,4,1.016,3.387,1.016,9.128,1.016,17.82a1.18,1.18,0,0,0,.384.871l3.36,3.068q-.566.525-1.148,1.164a1.179,1.179,0,0,0,.079,1.669c.047.043,4.8,4.345,10.456,8.927a1.179,1.179,0,0,0,1.485-1.832c-4.151-3.365-7.813-6.576-9.449-8.031,1.4-1.35,2.554-1.953,3.746-1.981,1.436-.035,3.194.776,5.7,2.623a1.179,1.179,0,0,0,1.4-1.9ZM14.3,165.336c-.036.574-.071,1.142-.1,1.7l-.038.023-3.284-3c0-7.251-.016-12.454-.674-16.093a4.287,4.287,0,0,1,2.195,1.248C15.116,152.118,14.68,159.14,14.3,165.336Z" transform="translate(0 -118.295)"/>
    <path id="Trazado_102164" data-name="Trazado 102164" d="M155.933,62.81a1.179,1.179,0,1,0-2.2.854,16.324,16.324,0,1,0-1.1-5.9,1.179,1.179,0,1,0,2.358,0,13.925,13.925,0,1,1,.941,5.049Z" transform="translate(-128.637 -34.929)"/>
    <path id="Trazado_102165" data-name="Trazado 102165" d="M156.853,22.832a22.657,22.657,0,0,0-4.318-13.36,1.179,1.179,0,1,0-1.911,1.382,20.493,20.493,0,1,1-16.618-8.5,20.524,20.524,0,0,1,13.076,4.711,1.179,1.179,0,0,0,1.505-1.815,22.83,22.83,0,1,0,8.266,17.578Z" transform="translate(-93.683 0)"/>
    <path id="Trazado_102166" data-name="Trazado 102166" d="M231.277,92.873a2.345,2.345,0,0,1-2.343-2.341,1.179,1.179,0,1,0-2.358,0,4.708,4.708,0,0,0,3.523,4.55v1.611a1.179,1.179,0,1,0,2.358,0V95.081a4.7,4.7,0,0,0-1.179-9.249,2.341,2.341,0,1,1,2.343-2.341,1.179,1.179,0,1,0,2.358,0,4.708,4.708,0,0,0-3.523-4.55v-1.61a1.179,1.179,0,1,0-2.358,0v1.611a4.7,4.7,0,0,0,1.179,9.249,2.341,2.341,0,1,1,0,4.682Z" transform="translate(-190.954 -64.18)"/>
  </g>
</svg>
