<svg xmlns="http://www.w3.org/2000/svg" width="52.992" height="59.691" viewBox="0 0 52.992 59.691">
  <g id="contrato" transform="translate(-28.73)">
    <g id="Grupo_84352" data-name="Grupo 84352" transform="translate(29.605 0.874)">
      <g id="Grupo_84351" data-name="Grupo 84351" transform="translate(0)">
        <g id="Grupo_84350" data-name="Grupo 84350">
          <g id="Grupo_84339" data-name="Grupo 84339">
            <g id="Grupo_84338" data-name="Grupo 84338">
              <g id="Grupo_84337" data-name="Grupo 84337">
                <g id="Grupo_84336" data-name="Grupo 84336">
                  <g id="Grupo_84335" data-name="Grupo 84335">
                    <g id="Grupo_84334" data-name="Grupo 84334">
                      <g id="Grupo_84333" data-name="Grupo 84333">
                        <g id="Grupo_84332" data-name="Grupo 84332">
                          <g id="Grupo_84331" data-name="Grupo 84331">
                            <g id="Grupo_84330" data-name="Grupo 84330">
                              <path id="Trazado_147055" data-name="Trazado 147055" d="M39.836,7.5a3.6,3.6,0,0,0-3.6,3.6V57.5a3.6,3.6,0,0,0,3.6,3.6H73.7a3.6,3.6,0,0,0,3.6-3.6V18.606a2.729,2.729,0,0,0-.8-1.929L68.123,8.3a2.728,2.728,0,0,0-1.929-.8Z" transform="translate(-36.234 -7.5)" fill="#ffe9cb"/>
                              <path id="Trazado_147057" data-name="Trazado 147057" d="M312.084,18.539l-8.378-8.378a2.725,2.725,0,0,0-.8-.553v6.129a3.6,3.6,0,0,0,3.6,3.6h6.129A2.73,2.73,0,0,0,312.084,18.539Z" transform="translate(-271.817 -9.362)" fill="#ffba5b"/>
                            </g>
                          </g>
                        </g>
                      </g>
                    </g>
                  </g>
                </g>
              </g>
            </g>
          </g>
          <g id="Grupo_84349" data-name="Grupo 84349" transform="translate(6.829 29.489)">
            <g id="Grupo_84347" data-name="Grupo 84347" transform="translate(1.997 2.345)">
              <g id="Grupo_84346" data-name="Grupo 84346">
                <g id="Grupo_84341" data-name="Grupo 84341">
                  <g id="Grupo_84340" data-name="Grupo 84340">
                    <path id="Trazado_147058" data-name="Trazado 147058" d="M147.057,295.565l-12.864-7.618a1.389,1.389,0,0,1-.487-1.9l.658-1.111-2.6-1.54c-1.717-.985-2.52-1.167-4.069-.569l-1.688.653a3.594,3.594,0,0,1-3.128-.26l-4.518-2.664-6.418,10.832,5.786,3.415a3.593,3.593,0,0,1,1.014.9l1.95,2.528a22.435,22.435,0,0,0,4.725,3.738l7.441,4.408a2.067,2.067,0,0,0,2.107-3.557l2.325,1.377a2.067,2.067,0,0,0,2.107-3.557l1.55.918A2.067,2.067,0,1,0,143.053,298l1.9,1.124a2.067,2.067,0,1,0,2.107-3.557Z" transform="translate(-111.941 -280.553)" fill="#ffece3"/>
                  </g>
                </g>
                <g id="Grupo_84342" data-name="Grupo 84342" transform="translate(18.405 0.647)">
                  <path id="Trazado_147060" data-name="Trazado 147060" d="M285.4,286.1l-3.47,2.017a3.594,3.594,0,0,1-3.128.26l-1.9-.748a3.059,3.059,0,0,0-1.87-.118l-2.917.738a3.06,3.06,0,0,0-2.309,2.966v3.894a1,1,0,0,0,1,1,3,3,0,0,0,3.006-3v-.165l12.486,7.394a3.589,3.589,0,0,1,.788-.632l4.738-2.768Z" transform="translate(-269.805 -286.104)" fill="#fcd0a3"/>
                </g>
                <g id="Grupo_84345" data-name="Grupo 84345" transform="translate(3.406 13.27)">
                  <g id="Grupo_84344" data-name="Grupo 84344">
                    <path id="Trazado_147062" data-name="Trazado 147062" d="M146.067,397.646l-1.171,1.631a2.066,2.066,0,0,1-3.357-2.41l1.171-1.631a2.066,2.066,0,1,1,3.357,2.41Z" transform="translate(-141.151 -394.374)" fill="#fcd0a3"/>
                    <path id="Trazado_147063" data-name="Trazado 147063" d="M176.157,402.885l-2.462,3.43a2.067,2.067,0,0,1-3.357-2.41l2.463-3.43a2.066,2.066,0,1,1,3.357,2.41Z" transform="translate(-166.592 -399.003)" fill="#fcd0a3"/>
                    <path id="Trazado_147064" data-name="Trazado 147064" d="M204.955,423.56l-2.463,3.43a2.066,2.066,0,1,1-3.357-2.41l2.463-3.43a2.067,2.067,0,0,1,3.357,2.41Z" transform="translate(-192.033 -417.267)" fill="#fcd0a3"/>
                  </g>
                  <path id="Trazado_147065" data-name="Trazado 147065" d="M236.823,457.307,236,458.448a2.067,2.067,0,1,1-3.357-2.41l.819-1.141a2.067,2.067,0,0,1,3.357,2.41Z" transform="translate(-221.637 -447.08)" fill="#f3d2b0"/>
                </g>
              </g>
            </g>
            <g id="Grupo_84348" data-name="Grupo 84348">
              <path id="Trazado_147066" data-name="Trazado 147066" d="M105.645,261.659l-1.81-1.072a1.048,1.048,0,0,0-1.436.367l-7.441,12.561a1.048,1.048,0,0,0,.367,1.436l1.81,1.072a2.555,2.555,0,0,0,3.5-.9l5.9-9.967A2.555,2.555,0,0,0,105.645,261.659Z" transform="translate(-94.812 -260.441)" fill="#675d84"/>
              <path id="Trazado_147067" data-name="Trazado 147067" d="M375.157,260.587l-1.81,1.072a2.555,2.555,0,0,0-.9,3.5l5.9,9.967a2.555,2.555,0,0,0,3.5.9l1.81-1.072a1.048,1.048,0,0,0,.367-1.436l-7.441-12.56A1.048,1.048,0,0,0,375.157,260.587Z" transform="translate(-339.767 -260.441)" fill="#ff7758"/>
            </g>
          </g>
        </g>
      </g>
    </g>
    <g id="Grupo_84355" data-name="Grupo 84355" transform="translate(28.73 0)">
      <g id="Grupo_84354" data-name="Grupo 84354" transform="translate(0)">
        <g id="Grupo_84353" data-name="Grupo 84353">
          <path id="Trazado_147068" data-name="Trazado 147068" d="M111.7,137.8H83.111a.878.878,0,1,0,0,1.756H111.7a.878.878,0,1,0,0-1.756Z" transform="translate(-75.995 -121.738)"/>
          <path id="Trazado_147069" data-name="Trazado 147069" d="M83.111,87.313H97.4a.878.878,0,0,0,0-1.756H83.111a.878.878,0,0,0,0,1.756Z" transform="translate(-75.995 -75.582)"/>
          <path id="Trazado_147070" data-name="Trazado 147070" d="M111.7,184.1H83.111a.878.878,0,0,0,0,1.756H111.7a.878.878,0,1,0,0-1.756Z" transform="translate(-75.995 -162.633)"/>
          <path id="Trazado_147071" data-name="Trazado 147071" d="M42.357,53.59H33.209a2.726,2.726,0,0,1-2.723-2.723V4.479a2.726,2.726,0,0,1,2.723-2.723H59.564a1.879,1.879,0,0,1,.252.019V7.252A4.484,4.484,0,0,0,64.3,11.731h5.476a1.863,1.863,0,0,1,.019.252V26.936a.878.878,0,1,0,1.756,0V11.983a3.583,3.583,0,0,0-1.056-2.55L62.114,1.056A3.582,3.582,0,0,0,59.564,0H33.209A4.484,4.484,0,0,0,28.73,4.479V50.867a4.484,4.484,0,0,0,4.479,4.479h9.148a.878.878,0,1,0,0-1.756ZM68.549,9.975H64.3a2.726,2.726,0,0,1-2.723-2.723V3Z" transform="translate(-28.73 0)"/>
          <path id="Trazado_147072" data-name="Trazado 147072" d="M133.191,266.406l-7.44-12.558a1.925,1.925,0,0,0-2.638-.676l-1.81,1.072a3.438,3.438,0,0,0-1.516,4.009,2.692,2.692,0,0,1-1.894-.021c-1.429-.45-2.515-1.354-4.309-.9-3.046.776-2.954.737-3.229.831-1.784-1.016-2.856-1.318-4.75-.585l-1.688.653a2.7,2.7,0,0,1-2.365-.2l-.461-.272a3.43,3.43,0,0,0-1.637-3.517h0l-1.81-1.072a1.928,1.928,0,0,0-2.638.675l-7.44,12.559a1.925,1.925,0,0,0,.675,2.638l1.81,1.072a3.411,3.411,0,0,0,1.744.479,3.457,3.457,0,0,0,1.876-.554l.377.223-.8,1.109A2.942,2.942,0,0,0,96.1,276a2.94,2.94,0,0,0,3.357,2.412,2.943,2.943,0,0,0,4.062,2.209,2.941,2.941,0,0,0,5,.827l2.116,1.254a2.948,2.948,0,0,0,4.427-2.182l0,0a2.945,2.945,0,0,0,4.438-2.316,2.945,2.945,0,0,0,3.648-2.547,2.946,2.946,0,0,0,3.329-4.638l1.166-.681a3.425,3.425,0,0,0,3.056-.219l1.809-1.072A1.924,1.924,0,0,0,133.191,266.406Zm-42.245,2.2-1.81-1.072a.17.17,0,0,1-.06-.232l7.44-12.559a.17.17,0,0,1,.232-.059l1.809,1.072a1.677,1.677,0,0,1,.588,2.3l-5.9,9.966a1.679,1.679,0,0,1-2.3.588Zm4,5.449a1.187,1.187,0,0,1-.272-1.658l1.17-1.63a1.188,1.188,0,0,1,1.93,1.386l-1.171,1.63A1.19,1.19,0,0,1,94.949,274.055Zm3.357,2.41a1.19,1.19,0,0,1-.272-1.658l1.17-1.63h0l1.292-1.8a1.18,1.18,0,0,1,.773-.479,1.2,1.2,0,0,1,.195-.016,1.188,1.188,0,0,1,.963,1.881l-2.462,3.43A1.187,1.187,0,0,1,98.306,276.465Zm3.357,2.41a1.19,1.19,0,0,1-.273-1.657h0l2.462-3.43a1.188,1.188,0,1,1,1.93,1.386L104.69,276.7h0l-1.368,1.906A1.189,1.189,0,0,1,101.664,278.875Zm3.906,1.645a1.19,1.19,0,0,1-.273-1.657l.819-1.141a1.188,1.188,0,0,1,1.93,1.386l-.819,1.14A1.189,1.189,0,0,1,105.57,280.52Zm19.682-7a1.19,1.19,0,0,1-1.628.417l-7.773-4.6a.878.878,0,1,0-.9,1.511l5.876,3.481h0a1.189,1.189,0,0,1-1.212,2.046l-5.879-3.483a.878.878,0,1,0-.9,1.511l4.33,2.565h0a1.189,1.189,0,0,1-1.213,2.045l-2.324-1.377h0l-1.7-1a.878.878,0,1,0-.9,1.511l1.7,1h0a1.189,1.189,0,1,1-1.212,2.045l-1.979-1.172a2.943,2.943,0,0,0-1.978-4.5,2.942,2.942,0,0,0-3.212-3.939A2.944,2.944,0,0,0,99.369,270a2.941,2.941,0,0,0-4.094-1.05l-.4-.237,5.523-9.322.263.155a4.446,4.446,0,0,0,3.891.323l1.688-.653a2.591,2.591,0,0,1,2.454.053,3.931,3.931,0,0,0-1,2.618v3.893a1.878,1.878,0,0,0,1.874,1.877h0a3.889,3.889,0,0,0,3.676-2.629l11.587,6.862a1.188,1.188,0,0,1,.417,1.628Zm6.369-5.985-1.81,1.072a1.679,1.679,0,0,1-2.3-.588l-2.767-4.671a.878.878,0,0,0-1.511.9L126,268.913c.052.088.109.171.167.253l-.769.449a4.457,4.457,0,0,0-.448.3l-11.929-7.064a.879.879,0,0,0-1.325.755,2.243,2.243,0,0,1-.623,1.669,2.112,2.112,0,0,1-1.5.622h0a.12.12,0,0,1-.119-.121v-3.893a2.185,2.185,0,0,1,1.646-2.115l2.916-.738c1.058-.267,1.656.3,3.241.834a4.439,4.439,0,0,0,3.358-.054l.53.895a.878.878,0,1,0,1.511-.9l-1.044-1.762a1.676,1.676,0,0,1,.588-2.3l1.81-1.072a.169.169,0,0,1,.233.06l7.44,12.559A.169.169,0,0,1,131.62,267.533Z" transform="translate(-80.468 -223.417)"/>
        </g>
      </g>
    </g>
  </g>
</svg>
