<svg xmlns="http://www.w3.org/2000/svg" width="66.188" height="59.691" viewBox="0 0 66.188 59.691">
  <g id="charity" transform="translate(-32.105 -33.676)">
    <path id="Trazado_147092" data-name="Trazado 147092" d="M152.035,134.069l-.179-.02c-6.454-.717-9.888,3.562-15.541,6.757l-18.475,6.158a2.538,2.538,0,0,0,.923,4.943l20.921-1Z" transform="translate(-60.42 -72.141)" fill="#e7d1c4"/>
    <path id="Trazado_147093" data-name="Trazado 147093" d="M115.759,150.157a3.661,3.661,0,0,1-1.152-7.134l18.371-6.124c1.443-.823,2.75-1.724,4.014-2.6,3.589-2.477,6.98-4.817,12.111-4.246l.179.02a1.123,1.123,0,0,1,.781,1.78L137.712,148.7a1.122,1.122,0,0,1-.852.458l-20.92,1Q115.849,150.157,115.759,150.157ZM147,132.229c-3.3.171-5.753,1.863-8.737,3.922-1.332.919-2.709,1.869-4.277,2.755a1.124,1.124,0,0,1-.2.088l-18.475,6.158a1.415,1.415,0,0,0,.515,2.756l20.385-.971Z" transform="translate(-57.543 -69.264)"/>
    <path id="Trazado_147094" data-name="Trazado 147094" d="M36.1,184.019l11.228,13.373,4.548-3.017L40.266,179.857Z" transform="translate(-2.877 -105.148)" fill="#ff7758"/>
    <path id="Trazado_147095" data-name="Trazado 147095" d="M44.456,195.636a1.122,1.122,0,0,1-.86-.4L32.368,181.862a1.123,1.123,0,0,1,.066-1.516l4.162-4.162a1.123,1.123,0,0,1,1.67.093L49.88,190.795a1.123,1.123,0,0,1-.256,1.637l-4.548,3.017A1.118,1.118,0,0,1,44.456,195.636Zm-9.707-14.43,9.922,11.817,2.689-1.784L37.3,178.659Z" transform="translate(0 -102.269)"/>
    <path id="Trazado_147096" data-name="Trazado 147096" d="M109.793,132.543a3.265,3.265,0,0,0-4.728.054l-12.4,13.322a10.541,10.541,0,0,1-7.715,3.358h-6.1a2.916,2.916,0,1,1,0-5.832H86.38a5.108,5.108,0,0,0,4.568-2.823,3.422,3.422,0,0,0-3.061-4.953H66.206a14.075,14.075,0,0,0-9.953,4.122l-5.324,5.324,11.615,14.518,2.445-1.622a12.586,12.586,0,0,1,6.958-2.1H88.4a11.032,11.032,0,0,0,8.322-3.789l13.2-15.159a3.265,3.265,0,0,0-.125-4.422Z" transform="translate(-13.541 -70.405)" fill="#ffe8dc"/>
    <path id="Trazado_147097" data-name="Trazado 147097" d="M59.669,157.879a1.121,1.121,0,0,1-.877-.421L47.177,142.939a1.123,1.123,0,0,1,.083-1.5l5.324-5.324a15.1,15.1,0,0,1,10.747-4.451H85.01a4.545,4.545,0,0,1,4.065,6.578,6.2,6.2,0,0,1-5.572,3.444H75.967a1.793,1.793,0,0,0,0,3.587h6.1a9.449,9.449,0,0,0,6.893-3l12.4-13.322a4.388,4.388,0,0,1,6.354-.072,4.413,4.413,0,0,1,.168,5.943l-13.2,15.159a12.152,12.152,0,0,1-9.169,4.175H69.071a11.431,11.431,0,0,0-6.338,1.911l-2.445,1.622a1.122,1.122,0,0,1-.62.187ZM49.558,142.321,59.9,155.253l1.589-1.054a13.667,13.667,0,0,1,7.579-2.285H85.524A9.906,9.906,0,0,0,93,148.51l13.2-15.159a2.154,2.154,0,0,0-.082-2.9,2.123,2.123,0,0,0-1.533-.647h-.025a2.122,2.122,0,0,0-1.543.682l-12.4,13.322a11.7,11.7,0,0,1-8.537,3.716h-6.1a4.039,4.039,0,0,1,0-8.078H83.5a3.962,3.962,0,0,0,3.563-2.2,2.3,2.3,0,0,0-2.056-3.328H63.33a12.867,12.867,0,0,0-9.159,3.794Z" transform="translate(-10.664 -67.529)"/>
    <circle id="Elipse_4374" data-name="Elipse 4374" cx="9.062" cy="9.062" r="9.062" transform="translate(48.307 41.077)" fill="#ffba5b"/>
    <path id="Trazado_147098" data-name="Trazado 147098" d="M96.008,76.412a10.184,10.184,0,1,1,10.184-10.184A10.2,10.2,0,0,1,96.008,76.412Zm0-18.123a7.939,7.939,0,1,0,7.939,7.939A7.948,7.948,0,0,0,96.008,58.289Z" transform="translate(-38.64 -16.089)"/>
    <circle id="Elipse_4375" data-name="Elipse 4375" cx="4.746" cy="4.746" r="4.746" transform="translate(52.622 45.392)" fill="#ffd69f"/>
    <path id="Trazado_147099" data-name="Trazado 147099" d="M107.065,83.155a5.869,5.869,0,1,1,5.869-5.869A5.876,5.876,0,0,1,107.065,83.155Zm0-9.493a3.623,3.623,0,1,0,3.623,3.623A3.628,3.628,0,0,0,107.065,73.662Z" transform="translate(-49.697 -27.148)"/>
    <circle id="Elipse_4376" data-name="Elipse 4376" cx="10.849" cy="10.849" r="10.849" transform="translate(57.747 34.798)" fill="#ffba5b"/>
    <path id="Trazado_147100" data-name="Trazado 147100" d="M131.428,57.619A11.972,11.972,0,1,1,143.4,45.647,11.985,11.985,0,0,1,131.428,57.619Zm0-21.7a9.726,9.726,0,1,0,9.726,9.726A9.737,9.737,0,0,0,131.428,35.921Z" transform="translate(-62.831)"/>
    <path id="Trazado_147102" data-name="Trazado 147102" d="M7.081,0A7.081,7.081,0,1,1,0,7.081,7.081,7.081,0,0,1,7.081,0Z" transform="translate(61.515 38.565)" fill="#ffd69f"/>
    <path id="Trazado_147101" data-name="Trazado 147101" d="M141.081,63.506a8.2,8.2,0,1,1,8.2-8.2A8.214,8.214,0,0,1,141.081,63.506Zm0-14.163A5.959,5.959,0,1,0,147.04,55.3,5.965,5.965,0,0,0,141.081,49.343Z" transform="translate(-72.485 -9.655)"/>
  </g>
</svg>
