<svg xmlns="http://www.w3.org/2000/svg" width="97.894" height="53.708" viewBox="0 0 97.894 53.708">
  <g id="autobus-escolar" transform="translate(-0.804 -115.577)">
    <g id="Grupo_86189" data-name="Grupo 86189" transform="translate(0.804 117.012)">
      <path id="Trazado_150932" data-name="Trazado 150932" d="M7.494,265.45v12.1a2.256,2.256,0,0,0,2.25,2.25h87.4a2.256,2.256,0,0,0,2.25-2.25V267.64c0-.732-.03-1.462-.087-2.19Z" transform="translate(-7.494 -238.276)" fill="#ff7758"/>
      <path id="Trazado_150934" data-name="Trazado 150934" d="M80.44,237.388a4.09,4.09,0,0,0-2.561-.9H7.494v5.92H86.6Z" transform="translate(-7.494 -214.85)" fill="#ffba5b"/>
      <path id="Trazado_150936" data-name="Trazado 150936" d="M97.586,164.84l-4.17-14.215H7.494v16.8H77.88a4.091,4.091,0,0,1,2.561.9l7.074,5.681a4.09,4.09,0,0,0,2.561.9h9.313v-.138A28.238,28.238,0,0,0,97.586,164.84Z" transform="translate(-7.494 -145.405)" fill="#23a8fe"/>
      <path id="Trazado_150937" data-name="Trazado 150937" d="M384.783,239.388a4.09,4.09,0,0,0-2.561-.9h-6.6a4.091,4.091,0,0,1,2.561.9l7.074,5.681a4.09,4.09,0,0,0,2.561.9h6.6a4.089,4.089,0,0,1-2.561-.9Z" transform="translate(-305.24 -216.468)" fill="#0193fa"/>
      <path id="Trazado_150939" data-name="Trazado 150939" d="M9.744,123.323a2.256,2.256,0,0,0-2.25,2.25v3.353H93.528l-.462-1.575a6.212,6.212,0,0,0-5.815-4.028H9.744Z" transform="translate(-7.494 -123.323)" fill="#ffba5b"/>
      <g id="Grupo_86188" data-name="Grupo 86188" transform="translate(11.721 5.602)">
        <path id="Trazado_150941" data-name="Trazado 150941" d="M352.839,169.041H357.2a4.082,4.082,0,0,1,1.076.146V152.624h-5.433Z" transform="translate(-298.531 -152.624)" fill="#665e68"/>
        <path id="Trazado_150942" data-name="Trazado 150942" d="M258.159,152.624h5.433v16.417h-5.433Z" transform="translate(-221.954 -152.624)" fill="#665e68"/>
        <path id="Trazado_150943" data-name="Trazado 150943" d="M163.478,152.624h5.433v16.417h-5.433Z" transform="translate(-145.375 -152.624)" fill="#665e68"/>
        <path id="Trazado_150944" data-name="Trazado 150944" d="M68.8,152.624h5.433v16.417H68.8Z" transform="translate(-68.798 -152.624)" fill="#665e68"/>
      </g>
      <path id="Trazado_150945" data-name="Trazado 150945" d="M352.839,152.624h3.378v16.417h-3.378Z" transform="translate(-286.81 -147.022)" fill="#554e56"/>
      <path id="Trazado_150946" data-name="Trazado 150946" d="M258.159,152.624h3.378v16.417h-3.378Z" transform="translate(-210.233 -147.022)" fill="#554e56"/>
      <path id="Trazado_150947" data-name="Trazado 150947" d="M163.479,152.624h3.378v16.417h-3.378Z" transform="translate(-133.655 -147.022)" fill="#554e56"/>
      <path id="Trazado_150948" data-name="Trazado 150948" d="M68.8,152.624h3.378v16.417H68.8Z" transform="translate(-57.077 -147.022)" fill="#554e56"/>
      <circle id="Elipse_4537" data-name="Elipse 4537" cx="9.318" cy="9.318" r="9.318" transform="translate(62.507 32.204)" fill="#665e68"/>
      <path id="Trazado_150949" data-name="Trazado 150949" d="M339.439,301.077a9.32,9.32,0,0,1,6.807-8.973,9.318,9.318,0,1,0,0,17.946,9.32,9.32,0,0,1-6.807-8.973Z" transform="translate(-271.91 -259.555)" fill="#554e56"/>
      <circle id="Elipse_4538" data-name="Elipse 4538" cx="4.659" cy="4.659" r="4.659" transform="translate(67.165 36.863)" fill="#dfebfa"/>
      <path id="Trazado_150950" data-name="Trazado 150950" d="M363.807,320.786a4.654,4.654,0,0,1,2.148-3.923,4.659,4.659,0,1,0,0,7.847A4.654,4.654,0,0,1,363.807,320.786Z" transform="translate(-291.619 -279.263)" fill="#b1dbfc"/>
      <circle id="Elipse_4539" data-name="Elipse 4539" cx="9.318" cy="9.318" r="9.318" transform="translate(8.586 32.204)" fill="#665e68"/>
      <path id="Trazado_150951" data-name="Trazado 150951" d="M57.422,301.077a9.32,9.32,0,0,1,6.807-8.973,9.318,9.318,0,1,0,0,17.946,9.32,9.32,0,0,1-6.807-8.973Z" transform="translate(-43.814 -259.555)" fill="#554e56"/>
      <circle id="Elipse_4540" data-name="Elipse 4540" cx="4.659" cy="4.659" r="4.659" transform="translate(13.245 36.863)" fill="#dfebfa"/>
      <path id="Trazado_150952" data-name="Trazado 150952" d="M81.79,320.786a4.654,4.654,0,0,1,2.148-3.923,4.659,4.659,0,1,0,0,7.847A4.654,4.654,0,0,1,81.79,320.786Z" transform="translate(-63.523 -279.263)" fill="#b1dbfc"/>
    </g>
    <g id="Grupo_86190" data-name="Grupo 86190" transform="translate(0.804 115.577)">
      <path id="Trazado_150953" data-name="Trazado 150953" d="M357.383,308.353a6.093,6.093,0,1,0,6.093,6.093A6.1,6.1,0,0,0,357.383,308.353Zm0,9.318a3.225,3.225,0,1,1,3.225-3.225A3.229,3.229,0,0,1,357.383,317.671Z" transform="translate(-284.125 -271.489)" fill="#050402"/>
      <path id="Trazado_150954" data-name="Trazado 150954" d="M75.367,308.353a6.093,6.093,0,1,0,6.093,6.093A6.1,6.1,0,0,0,75.367,308.353Zm0,9.318a3.225,3.225,0,1,1,3.225-3.225A3.229,3.229,0,0,1,75.367,317.671Z" transform="translate(-56.029 -271.489)" fill="#050402"/>
      <path id="Trazado_150955" data-name="Trazado 150955" d="M95.632,125.444a1.434,1.434,0,0,0-1.366-1H89.509l-.665-2.266h0l-.462-1.575c-.01-.034-.021-.067-.033-.1a7.682,7.682,0,0,0-7.158-4.957H3.684A3.688,3.688,0,0,0,0,119.232v37.023a3.688,3.688,0,0,0,3.684,3.684h5a10.749,10.749,0,0,0,21.307,0H62.605a10.749,10.749,0,0,0,21.307,0H91.08a3.688,3.688,0,0,0,3.684-3.684v-9.909a29.574,29.574,0,0,0-1.876-10.383l-2.537-8.649H93.22l1.873,5.851a1.434,1.434,0,1,0,2.731-.875Zm-3.769,19.607H84.016a2.664,2.664,0,0,1-1.663-.585l-7.074-5.681a5.5,5.5,0,0,0-.949-.607V124.018H86.395l3.755,12.8a27.17,27.17,0,0,1,1.713,8.23Zm-35.636-7.483v-3.356a1.434,1.434,0,1,0-2.868,0v3.356H50.794V124.018h2.565v3.5a1.434,1.434,0,0,0,2.868,0v-3.5h9.8v13.549Zm-18.1,0V124.018h9.8v13.549Zm-18.1,0V124.018h9.8v13.549Zm-17.154,0V124.018h8.853v13.549Zm11.721-13.549h2.565v13.549H14.589Zm18.1,0h2.565v13.549H32.692Zm36.205,0h2.565v13.549H68.9ZM2.868,119.232a.827.827,0,0,1,.816-.816H81.191a4.819,4.819,0,0,1,4.318,2.734H2.868v-1.919Zm16.47,47.157a7.884,7.884,0,1,1,7.884-7.884A7.893,7.893,0,0,1,19.338,166.389Zm53.92,0a7.884,7.884,0,1,1,7.884-7.884A7.893,7.893,0,0,1,73.259,166.389Zm17.821-9.318H83.915a10.753,10.753,0,0,0-21.313,0H29.995a10.753,10.753,0,0,0-21.313,0h-5a.827.827,0,0,1-.816-.816V145.973H42.333a1.434,1.434,0,1,0,0-2.868H2.868v-2.67H71.82a2.686,2.686,0,0,1,1.663.585l2.6,2.084H49.025a1.434,1.434,0,1,0,0,2.868H79.649l.908.729a5.543,5.543,0,0,0,3.459,1.217H91.9v8.337A.826.826,0,0,1,91.08,157.071Z" transform="translate(0 -115.548)" fill="#050402"/>
    </g>
  </g>
</svg>
