<svg xmlns="http://www.w3.org/2000/svg" xmlns:xlink="http://www.w3.org/1999/xlink" width="208.384" height="247.032" viewBox="0 0 208.384 247.032">
  <defs>
    <clipPath id="clip-path">
      <rect id="Rectángulo_334232" data-name="Rectángulo 334232" width="153.131" height="176.362" fill="none"/>
    </clipPath>
  </defs>
  <g id="Grupo_912289" data-name="Grupo 912289" transform="translate(-489.832 -8456.179)">
    <path id="Trazado_624877" data-name="Trazado 624877" d="M718.911,475.193l-2.659,1.039c.654,1.674,1.362,3.353,2.1,4.99l2.6-1.177c-.721-1.593-1.409-3.225-2.045-4.852" transform="translate(-219.207 8121.996)" fill="#463c5f"/>
    <path id="Trazado_624878" data-name="Trazado 624878" d="M731.3,508.831c.825,1.6,1.7,3.193,2.614,4.747l2.464-1.442c-.885-1.511-1.74-3.065-2.542-4.616Z" transform="translate(-229.789 8099.263)" fill="#463c5f"/>
    <path id="Trazado_624879" data-name="Trazado 624879" d="M749.739,539.737c.989,1.505,2.03,3,3.094,4.451l2.3-1.69c-1.035-1.409-2.048-2.866-3.01-4.33Z" transform="translate(-242.758 8077.709)" fill="#463c5f"/>
    <path id="Trazado_624880" data-name="Trazado 624880" d="M707.5,441.453l-2.753.755c.476,1.737,1.005,3.484,1.572,5.193l2.71-.9c-.551-1.662-1.066-3.361-1.529-5.049" transform="translate(-211.115 8145.725)" fill="#463c5f"/>
    <path id="Trazado_624881" data-name="Trazado 624881" d="M699.755,406.725l-2.818.463c.292,1.777.635,3.57,1.02,5.329l2.789-.61c-.374-1.71-.707-3.453-.991-5.181" transform="translate(-205.625 8170.146)" fill="#463c5f"/>
    <path id="Trazado_624882" data-name="Trazado 624882" d="M952.825,683.6c1.743.463,3.519.885,5.278,1.255l.588-2.794c-1.711-.36-3.438-.771-5.133-1.221Z" transform="translate(-385.58 7977.372)" fill="#463c5f"/>
    <path id="Trazado_624883" data-name="Trazado 624883" d="M918,672.574c1.685.644,3.411,1.252,5.129,1.807l.877-2.717c-1.671-.539-3.349-1.131-4.988-1.756Z" transform="translate(-361.086 7985.063)" fill="#463c5f"/>
    <path id="Trazado_624884" data-name="Trazado 624884" d="M884.521,658.014c1.61.818,3.262,1.6,4.908,2.333l1.158-2.61c-1.6-.71-3.207-1.474-4.773-2.269Z" transform="translate(-337.545 7995.217)" fill="#463c5f"/>
    <path id="Trazado_624885" data-name="Trazado 624885" d="M695.745,371.391l-2.85.168c.106,1.8.261,3.617.46,5.405l2.838-.316c-.194-1.74-.344-3.508-.447-5.257" transform="translate(-202.781 8194.996)" fill="#463c5f"/>
    <path id="Trazado_624886" data-name="Trazado 624886" d="M795.922,595.16c1.277,1.268,2.6,2.521,3.948,3.723l1.9-2.127c-1.306-1.169-2.6-2.387-3.84-3.621Z" transform="translate(-275.236 8039.055)" fill="#463c5f"/>
    <path id="Trazado_624887" data-name="Trazado 624887" d="M771.359,568.615c1.139,1.394,2.33,2.776,3.54,4.11l2.114-1.919c-1.177-1.3-2.336-2.642-3.444-4Z" transform="translate(-257.963 8057.568)" fill="#463c5f"/>
    <path id="Trazado_624888" data-name="Trazado 624888" d="M852.8,640.112c1.516.981,3.076,1.933,4.635,2.831l1.424-2.475c-1.517-.873-3.033-1.8-4.508-2.753Z" transform="translate(-315.236 8007.702)" fill="#463c5f"/>
    <path id="Trazado_624889" data-name="Trazado 624889" d="M823.164,619.078c1.4,1.13,2.854,2.239,4.314,3.3l1.674-2.313c-1.42-1.028-2.832-2.107-4.2-3.206Z" transform="translate(-294.395 8022.372)" fill="#463c5f"/>
    <path id="Trazado_624898" data-name="Trazado 624898" d="M694.9,340.022c0-1.531-.034-3.082-.1-4.611l-2.852.124c.064,1.487.1,3,.1,4.487q0,.407,0,.813l2.855-.022q0-.395,0-.791" transform="translate(-202.115 8220.299)" fill="#463c5f"/>
    <path id="Trazado_624904" data-name="Trazado 624904" d="M988.6,690.985c1.774.278,3.584.512,5.38.7l.294-2.84c-1.747-.18-3.507-.409-5.233-.679Z" transform="translate(-410.736 7972.224)" fill="#463c5f"/>
    <path id="Trazado_624906" data-name="Trazado 624906" d="M1030.374,549.656c-1.755,0-3.53-.045-5.276-.135l-.146,2.852c1.794.092,3.619.139,5.422.139a104.291,104.291,0,0,0,95.207-61.875l-2.609-1.16a101.432,101.432,0,0,1-92.6,60.18" transform="translate(-436.303 8111.952)" fill="#463c5f"/>
    <path id="Trazado_624907" data-name="Trazado 624907" d="M817.029,2.855q.79,0,1.577.012l.044-2.855Q817.842,0,817.03,0V0a104.2,104.2,0,0,0-95.445,62.414l2.615,1.145a101.345,101.345,0,0,1,92.829-60.7" transform="translate(-222.959 8456.179)" fill="#463c5f"/>
    <path id="Trazado_624908" data-name="Trazado 624908" d="M1376.559,263.2l-2.765.712c.436,1.695.833,3.425,1.181,5.143l2.8-.566c-.357-1.767-.766-3.546-1.214-5.288" transform="translate(-681.629 8271.084)" fill="#463c5f"/>
    <path id="Trazado_624909" data-name="Trazado 624909" d="M1365.8,228.281l-2.675,1c.614,1.646,1.192,3.329,1.718,5l2.724-.856c-.541-1.721-1.135-3.451-1.767-5.144" transform="translate(-674.123 8295.639)" fill="#463c5f"/>
    <path id="Trazado_624910" data-name="Trazado 624910" d="M1071.9,1.29c-1.785-.212-3.6-.381-5.4-.5l-.191,2.849c1.75.117,3.518.281,5.254.488Z" transform="translate(-465.389 8455.624)" fill="#463c5f"/>
    <path id="Trazado_624911" data-name="Trazado 624911" d="M1383.665,299.029l-2.824.419c.257,1.732.471,3.494.638,5.238l2.842-.271c-.171-1.793-.392-3.6-.656-5.385" transform="translate(-686.584 8245.885)" fill="#463c5f"/>
    <path id="Trazado_624913" data-name="Trazado 624913" d="M1387.175,340.023c0-1.531-.034-3.082-.1-4.61l-2.852.124c.065,1.487.1,3,.1,4.486q0,.407,0,.813l2.855-.022q0-.395,0-.791" transform="translate(-688.963 8220.298)" fill="#463c5f"/>
    <path id="Trazado_624915" data-name="Trazado 624915" d="M1351.169,200.753l2.619-1.137c-.718-1.654-1.49-3.312-2.294-4.927l-2.556,1.273c.782,1.571,1.533,3.182,2.231,4.791" transform="translate(-664.148 8319.263)" fill="#463c5f"/>
    <path id="Trazado_624916" data-name="Trazado 624916" d="M1107.418,6.175c-1.754-.4-3.544-.755-5.321-1.061l-.485,2.813c1.728.3,3.469.645,5.174,1.032Z" transform="translate(-490.215 8452.582)" fill="#463c5f"/>
    <path id="Trazado_624917" data-name="Trazado 624917" d="M1316.291,137.363c-1.045-1.469-2.143-2.929-3.262-4.339l-2.237,1.774c1.089,1.372,2.156,2.792,3.173,4.221Z" transform="translate(-637.322 8362.629)" fill="#463c5f"/>
    <path id="Trazado_624918" data-name="Trazado 624918" d="M1267.041,84.392c-1.324-1.22-2.7-2.422-4.082-3.572l-1.824,2.2c1.347,1.118,2.683,2.288,3.97,3.475Z" transform="translate(-602.4 8399.342)" fill="#463c5f"/>
    <path id="Trazado_624920" data-name="Trazado 624920" d="M1293.008,109.569c-1.19-1.35-2.432-2.688-3.692-3.976l-2.041,2c1.226,1.254,2.434,2.556,3.592,3.868Z" transform="translate(-620.783 8381.92)" fill="#463c5f"/>
    <path id="Trazado_624921" data-name="Trazado 624921" d="M1142.237,14.814c-1.705-.58-3.449-1.123-5.181-1.613l-.776,2.748c1.685.476,3.38,1,5.037,1.568Z" transform="translate(-514.594 8446.896)" fill="#463c5f"/>
    <path id="Trazado_624922" data-name="Trazado 624922" d="M1175.967,27.122c-1.631-.753-3.3-1.474-4.973-2.142l-1.061,2.651c1.624.65,3.251,1.35,4.836,2.083Z" transform="translate(-538.262 8438.611)" fill="#463c5f"/>
    <path id="Trazado_624923" data-name="Trazado 624923" d="M1238.672,62.1c-1.443-1.077-2.933-2.13-4.428-3.129l-1.586,2.374c1.454.972,2.9,2,4.306,3.043Z" transform="translate(-582.373 8414.707)" fill="#463c5f"/>
    <path id="Trazado_624924" data-name="Trazado 624924" d="M1208.2,42.937c-1.546-.92-3.136-1.812-4.726-2.651l-1.332,2.526c1.547.815,3.093,1.683,4.6,2.578Z" transform="translate(-560.916 8427.848)" fill="#463c5f"/>
    <path id="Trazado_624925" data-name="Trazado 624925" d="M1336.629,167.482c-.887-1.57-1.828-3.137-2.795-4.657l-2.409,1.533c.941,1.478,1.855,3,2.718,4.529Z" transform="translate(-651.832 8341.672)" fill="#463c5f"/>
    <g id="Grupo_899773" data-name="Grupo 899773" transform="translate(517.674 8483.946)" opacity="0.35" style="mix-blend-mode: multiply;isolation: isolate">
      <g id="Grupo_899772" data-name="Grupo 899772">
        <g id="Grupo_899771" data-name="Grupo 899771" clip-path="url(#clip-path)">
          <path id="Trazado_625177" data-name="Trazado 625177" d="M938.906,248.43a76.565,76.565,0,1,1-76.565-76.565,76.565,76.565,0,0,1,76.565,76.565" transform="translate(-785.776 -148.632)" fill="#fff"/>
          <path id="Trazado_625178" data-name="Trazado 625178" d="M938.906,246.895a76.565,76.565,0,1,1-76.565-76.565,76.565,76.565,0,0,1,76.565,76.565" transform="translate(-785.776 -147.553)" fill="#fbfbfb"/>
          <path id="Trazado_625179" data-name="Trazado 625179" d="M938.906,245.36a76.565,76.565,0,1,1-76.565-76.565,76.565,76.565,0,0,1,76.565,76.565" transform="translate(-785.776 -146.473)" fill="#f7f7f7"/>
          <path id="Trazado_625180" data-name="Trazado 625180" d="M938.906,243.825a76.565,76.565,0,1,1-76.565-76.565,76.565,76.565,0,0,1,76.565,76.565" transform="translate(-785.776 -145.394)" fill="#f3f3f3"/>
          <path id="Trazado_625181" data-name="Trazado 625181" d="M938.906,242.29a76.565,76.565,0,1,1-76.565-76.565,76.565,76.565,0,0,1,76.565,76.565" transform="translate(-785.776 -144.314)" fill="#efefef"/>
          <path id="Trazado_625182" data-name="Trazado 625182" d="M938.906,240.754a76.565,76.565,0,1,1-76.565-76.565,76.565,76.565,0,0,1,76.565,76.565" transform="translate(-785.776 -143.234)" fill="#ebebeb"/>
          <path id="Trazado_625183" data-name="Trazado 625183" d="M938.906,239.219a76.565,76.565,0,1,1-76.565-76.565,76.565,76.565,0,0,1,76.565,76.565" transform="translate(-785.776 -142.155)" fill="#e7e7e7"/>
          <path id="Trazado_625184" data-name="Trazado 625184" d="M938.906,237.684a76.565,76.565,0,1,1-76.565-76.565,76.565,76.565,0,0,1,76.565,76.565" transform="translate(-785.776 -141.075)" fill="#e3e3e3"/>
          <path id="Trazado_625185" data-name="Trazado 625185" d="M938.906,236.149a76.565,76.565,0,1,1-76.565-76.565,76.565,76.565,0,0,1,76.565,76.565" transform="translate(-785.776 -139.996)" fill="#dfdfdf"/>
          <path id="Trazado_625186" data-name="Trazado 625186" d="M938.906,234.614a76.565,76.565,0,1,1-76.565-76.565,76.565,76.565,0,0,1,76.565,76.565" transform="translate(-785.776 -138.916)" fill="#dbdbdb"/>
          <path id="Trazado_625187" data-name="Trazado 625187" d="M938.906,233.079a76.565,76.565,0,1,1-76.565-76.565,76.565,76.565,0,0,1,76.565,76.565" transform="translate(-785.776 -137.837)" fill="#d7d7d7"/>
          <path id="Trazado_625188" data-name="Trazado 625188" d="M938.906,231.544a76.565,76.565,0,1,1-76.565-76.565,76.565,76.565,0,0,1,76.565,76.565" transform="translate(-785.776 -136.757)" fill="#d3d3d3"/>
          <path id="Trazado_625189" data-name="Trazado 625189" d="M938.906,230.009a76.565,76.565,0,1,1-76.565-76.565,76.565,76.565,0,0,1,76.565,76.565" transform="translate(-785.776 -135.678)" fill="#cfcfcf"/>
          <path id="Trazado_625190" data-name="Trazado 625190" d="M938.906,228.473a76.565,76.565,0,1,1-76.565-76.565,76.565,76.565,0,0,1,76.565,76.565" transform="translate(-785.776 -134.597)" fill="#cbcbcb"/>
          <path id="Trazado_625191" data-name="Trazado 625191" d="M938.906,226.938a76.565,76.565,0,1,1-76.565-76.565,76.565,76.565,0,0,1,76.565,76.565" transform="translate(-785.776 -133.518)" fill="#c7c7c7"/>
          <path id="Trazado_625192" data-name="Trazado 625192" d="M938.906,225.4a76.565,76.565,0,1,1-76.565-76.565A76.565,76.565,0,0,1,938.906,225.4" transform="translate(-785.776 -132.438)" fill="#c3c3c3"/>
          <path id="Trazado_625193" data-name="Trazado 625193" d="M938.906,223.868A76.565,76.565,0,1,1,862.341,147.3a76.565,76.565,0,0,1,76.565,76.565" transform="translate(-785.776 -131.359)" fill="#bfbfbf"/>
          <path id="Trazado_625194" data-name="Trazado 625194" d="M938.906,222.333a76.565,76.565,0,1,1-76.565-76.565,76.565,76.565,0,0,1,76.565,76.565" transform="translate(-785.776 -130.279)" fill="#bbb"/>
          <path id="Trazado_625195" data-name="Trazado 625195" d="M938.906,220.8a76.565,76.565,0,1,1-76.565-76.565A76.565,76.565,0,0,1,938.906,220.8" transform="translate(-785.776 -129.2)" fill="#b7b7b7"/>
          <path id="Trazado_625196" data-name="Trazado 625196" d="M938.906,219.263A76.565,76.565,0,1,1,862.341,142.7a76.565,76.565,0,0,1,76.565,76.565" transform="translate(-785.776 -128.12)" fill="#b3b3b3"/>
          <path id="Trazado_625197" data-name="Trazado 625197" d="M938.906,217.727a76.565,76.565,0,1,1-76.565-76.565,76.565,76.565,0,0,1,76.565,76.565" transform="translate(-785.776 -127.04)" fill="#afafaf"/>
          <path id="Trazado_625198" data-name="Trazado 625198" d="M938.906,216.192a76.565,76.565,0,1,1-76.565-76.565,76.565,76.565,0,0,1,76.565,76.565" transform="translate(-785.776 -125.961)" fill="#ababab"/>
          <path id="Trazado_625199" data-name="Trazado 625199" d="M938.906,214.657a76.565,76.565,0,1,1-76.565-76.565,76.565,76.565,0,0,1,76.565,76.565" transform="translate(-785.776 -124.881)" fill="#a7a7a7"/>
          <path id="Trazado_625200" data-name="Trazado 625200" d="M938.906,213.122a76.565,76.565,0,1,1-76.565-76.565,76.565,76.565,0,0,1,76.565,76.565" transform="translate(-785.776 -123.802)" fill="#a3a3a3"/>
          <path id="Trazado_625201" data-name="Trazado 625201" d="M938.906,211.587a76.565,76.565,0,1,1-76.565-76.565,76.565,76.565,0,0,1,76.565,76.565" transform="translate(-785.776 -122.722)" fill="#9f9f9f"/>
          <path id="Trazado_625202" data-name="Trazado 625202" d="M938.906,210.052a76.565,76.565,0,1,1-76.565-76.565,76.565,76.565,0,0,1,76.565,76.565" transform="translate(-785.776 -121.643)" fill="#9b9b9b"/>
          <path id="Trazado_625203" data-name="Trazado 625203" d="M938.906,208.517a76.565,76.565,0,1,1-76.565-76.565,76.565,76.565,0,0,1,76.565,76.565" transform="translate(-785.776 -120.563)" fill="#979797"/>
          <path id="Trazado_625204" data-name="Trazado 625204" d="M938.906,206.982a76.565,76.565,0,1,1-76.565-76.565,76.565,76.565,0,0,1,76.565,76.565" transform="translate(-785.776 -119.484)" fill="#939393"/>
          <path id="Trazado_625205" data-name="Trazado 625205" d="M938.906,205.446a76.565,76.565,0,1,1-76.565-76.565,76.565,76.565,0,0,1,76.565,76.565" transform="translate(-785.776 -118.404)" fill="#8f8f8f"/>
          <path id="Trazado_625206" data-name="Trazado 625206" d="M938.906,203.911a76.565,76.565,0,1,1-76.565-76.565,76.565,76.565,0,0,1,76.565,76.565" transform="translate(-785.776 -117.324)" fill="#8b8b8b"/>
          <path id="Trazado_625207" data-name="Trazado 625207" d="M938.906,202.376a76.565,76.565,0,1,1-76.565-76.565,76.565,76.565,0,0,1,76.565,76.565" transform="translate(-785.776 -116.245)" fill="#878787"/>
          <path id="Trazado_625208" data-name="Trazado 625208" d="M938.906,200.841a76.565,76.565,0,1,1-76.565-76.565,76.565,76.565,0,0,1,76.565,76.565" transform="translate(-785.776 -115.165)" fill="#838383"/>
          <path id="Trazado_625209" data-name="Trazado 625209" d="M938.906,199.306a76.565,76.565,0,1,1-76.565-76.565,76.565,76.565,0,0,1,76.565,76.565" transform="translate(-785.776 -114.086)" fill="#7f7f7f"/>
          <path id="Trazado_625210" data-name="Trazado 625210" d="M938.906,197.771a76.565,76.565,0,1,1-76.565-76.565,76.565,76.565,0,0,1,76.565,76.565" transform="translate(-785.776 -113.006)" fill="#7b7b7b"/>
          <path id="Trazado_625211" data-name="Trazado 625211" d="M938.906,196.236a76.565,76.565,0,1,1-76.565-76.565,76.565,76.565,0,0,1,76.565,76.565" transform="translate(-785.776 -111.927)" fill="#777"/>
          <path id="Trazado_625212" data-name="Trazado 625212" d="M938.906,194.7a76.565,76.565,0,1,1-76.565-76.565A76.565,76.565,0,0,1,938.906,194.7" transform="translate(-785.776 -110.846)" fill="#737373"/>
          <path id="Trazado_625213" data-name="Trazado 625213" d="M938.906,193.165A76.565,76.565,0,1,1,862.341,116.6a76.565,76.565,0,0,1,76.565,76.565" transform="translate(-785.776 -109.767)" fill="#6f6f6f"/>
          <path id="Trazado_625214" data-name="Trazado 625214" d="M938.906,191.63a76.565,76.565,0,1,1-76.565-76.565,76.565,76.565,0,0,1,76.565,76.565" transform="translate(-785.776 -108.687)" fill="#6b6b6b"/>
          <path id="Trazado_625215" data-name="Trazado 625215" d="M938.906,190.095a76.565,76.565,0,1,1-76.565-76.565,76.565,76.565,0,0,1,76.565,76.565" transform="translate(-785.776 -107.608)" fill="#676767"/>
          <path id="Trazado_625216" data-name="Trazado 625216" d="M938.906,188.56A76.565,76.565,0,1,1,862.341,112a76.565,76.565,0,0,1,76.565,76.565" transform="translate(-785.776 -106.528)" fill="#636363"/>
          <path id="Trazado_625217" data-name="Trazado 625217" d="M938.906,187.025a76.565,76.565,0,1,1-76.565-76.565,76.565,76.565,0,0,1,76.565,76.565" transform="translate(-785.776 -105.449)" fill="#5f5f5f"/>
          <path id="Trazado_625218" data-name="Trazado 625218" d="M938.906,185.49a76.565,76.565,0,1,1-76.565-76.565,76.565,76.565,0,0,1,76.565,76.565" transform="translate(-785.776 -104.369)" fill="#5b5b5b"/>
          <path id="Trazado_625219" data-name="Trazado 625219" d="M938.906,183.955a76.565,76.565,0,1,1-76.565-76.565,76.565,76.565,0,0,1,76.565,76.565" transform="translate(-785.776 -103.29)" fill="#575757"/>
          <path id="Trazado_625220" data-name="Trazado 625220" d="M938.906,182.419a76.565,76.565,0,1,1-76.565-76.565,76.565,76.565,0,0,1,76.565,76.565" transform="translate(-785.776 -102.21)" fill="#535353"/>
          <path id="Trazado_625221" data-name="Trazado 625221" d="M938.906,180.884a76.565,76.565,0,1,1-76.565-76.565,76.565,76.565,0,0,1,76.565,76.565" transform="translate(-785.776 -101.13)" fill="#4f4f4f"/>
          <path id="Trazado_625222" data-name="Trazado 625222" d="M938.906,179.349a76.565,76.565,0,1,1-76.565-76.565,76.565,76.565,0,0,1,76.565,76.565" transform="translate(-785.776 -100.051)" fill="#4b4b4b"/>
          <path id="Trazado_625223" data-name="Trazado 625223" d="M938.906,177.814a76.565,76.565,0,1,1-76.565-76.565,76.565,76.565,0,0,1,76.565,76.565" transform="translate(-785.776 -98.971)" fill="#474747"/>
          <path id="Trazado_625224" data-name="Trazado 625224" d="M938.906,176.279a76.565,76.565,0,1,1-76.565-76.565,76.565,76.565,0,0,1,76.565,76.565" transform="translate(-785.776 -97.892)" fill="#434343"/>
          <path id="Trazado_625225" data-name="Trazado 625225" d="M938.906,174.744a76.565,76.565,0,1,1-76.565-76.565,76.565,76.565,0,0,1,76.565,76.565" transform="translate(-785.776 -96.812)" fill="#3f3f3f"/>
          <path id="Trazado_625226" data-name="Trazado 625226" d="M938.906,173.209a76.565,76.565,0,1,1-76.565-76.565,76.565,76.565,0,0,1,76.565,76.565" transform="translate(-785.776 -95.733)" fill="#3b3b3b"/>
          <path id="Trazado_625227" data-name="Trazado 625227" d="M938.906,171.673a76.565,76.565,0,1,1-76.565-76.565,76.565,76.565,0,0,1,76.565,76.565" transform="translate(-785.776 -94.652)" fill="#373737"/>
          <path id="Trazado_625228" data-name="Trazado 625228" d="M938.906,170.138a76.565,76.565,0,1,1-76.565-76.565,76.565,76.565,0,0,1,76.565,76.565" transform="translate(-785.776 -93.573)" fill="#333"/>
        </g>
      </g>
    </g>
    <path id="Trazado_625229" data-name="Trazado 625229" d="M938.94,169.909a76.565,76.565,0,1,1-76.565-76.565,76.565,76.565,0,0,1,76.565,76.565" transform="translate(-268.125 8390.534)" fill="#ffccc0"/>
    <path id="Trazado_625230" data-name="Trazado 625230" d="M961.184,750.006a101.8,101.8,0,0,1-35.039-6.178l35.039,26.3,35.039-26.3a101.8,101.8,0,0,1-35.039,6.178" transform="translate(-366.816 7933.078)" fill="#ffccc0"/>
    <g id="mapa-2" transform="translate(551.938 8517.285)">
      <path id="Trazado_102206" data-name="Trazado 102206" d="M89.629,355.331H7.478l12.2-29.53H77.43Z" transform="translate(-6.242 -271.953)" fill="#2ac164"/>
      <path id="Trazado_102208" data-name="Trazado 102208" d="M111.456,342.285l-2.712-6.565H76.632L65.289,325.8H57.984l-4.1,9.919H42.795l-2.712,6.565H51.174l-5.389,13.046h7.306l9.086-21.995,25.856,21.995H99.056L84.138,342.285Z" transform="translate(-33.458 -271.953)" fill="#7c7c7c"/>
      <g id="Grupo_54011" data-name="Grupo 54011" transform="translate(9.337 53.848)">
        <path id="Trazado_102210" data-name="Trazado 102210" d="M67.582,335.72H56.491l4.1-9.919H71.68Z" transform="translate(-56.491 -325.801)" fill="#2ac164"/>
        <path id="Trazado_102211" data-name="Trazado 102211" d="M236.045,335.72H203.933L192.59,325.8h39.357Z" transform="translate(-170.096 -325.801)" fill="#2ac164"/>
      </g>
      <path id="Trazado_102213" data-name="Trazado 102213" d="M127.872,371.389l-9.086,21.995h34.942Z" transform="translate(-99.153 -310.006)" fill="#2ac164"/>
      <path id="Trazado_102214" data-name="Trazado 102214" d="M127.42,7.534a25.556,25.556,0,0,0-25.459,25.651c0,21.573,25.459,41.422,25.459,41.422S152.88,54.758,152.88,33.185A25.556,25.556,0,0,0,127.42,7.534Zm0,35.882a10.231,10.231,0,1,1,10.154-10.231A10.193,10.193,0,0,1,127.42,43.416Z" transform="translate(-85.109 -6.289)" fill="#1d1da0"/>
      <path id="Trazado_102216" data-name="Trazado 102216" d="M198.474,116.249a11.476,11.476,0,0,0,0-22.952,11.268,11.268,0,0,0-6.45,2.016,1.251,1.251,0,0,0-.318,1.732,1.23,1.23,0,0,0,1.719.32,8.82,8.82,0,0,1,5.049-1.577,8.96,8.96,0,1,1-7.917,4.844,1.25,1.25,0,0,0-.526-1.679,1.231,1.231,0,0,0-1.667.53,11.578,11.578,0,0,0-1.28,5.291A11.447,11.447,0,0,0,198.474,116.249Z" transform="translate(-156.163 -77.877)"/>
      <path id="Trazado_102217" data-name="Trazado 102217" d="M84.528,82.9,72.33,53.37h0a1.236,1.236,0,0,0-1.141-.767H59.033A63.03,63.03,0,0,0,64.9,43.019a36.949,36.949,0,0,0,4.1-16.122,26.7,26.7,0,1,0-53.391,0,36.948,36.948,0,0,0,4.1,16.122A63,63,0,0,0,25.59,52.6H13.435a1.236,1.236,0,0,0-1.141.767L3.982,73.492a1.248,1.248,0,0,0,.666,1.628,1.224,1.224,0,0,0,.474.1,1.236,1.236,0,0,0,1.141-.767l1.186-2.871h8.414L11.5,82.132H3.089l1.264-3.06a1.248,1.248,0,0,0-.666-1.628,1.232,1.232,0,0,0-1.616.671L.1,82.9a1.252,1.252,0,0,0,.113,1.169,1.233,1.233,0,0,0,1.028.554H83.387a1.234,1.234,0,0,0,1.028-.554A1.253,1.253,0,0,0,84.528,82.9Zm-66.44-56a24.224,24.224,0,1,1,48.447,0c0,5.643-1.946,14.661-10.949,26.152l-.026.033q-.69.879-1.435,1.778A95.091,95.091,0,0,1,42.312,66.718,94.943,94.943,0,0,1,30.53,54.9q-.765-.92-1.469-1.82l-.023-.029C20.036,41.559,18.088,32.541,18.088,26.9Zm-3.83,28.2h8.414L19.6,62.522H11.19Zm7.227,27.039,7.725-18.7L51.2,82.132Zm33.541,0-25.511-21.7a1.231,1.231,0,0,0-1.938.473L18.809,82.132H14.181L18.857,70.81a1.252,1.252,0,0,0-.113-1.169,1.233,1.233,0,0,0-1.028-.554H8.479l1.683-4.074H20.428a1.236,1.236,0,0,0,1.141-.767l3.781-9.153H27.5q.559.7,1.139,1.4A93.248,93.248,0,0,0,41.556,69.3a1.229,1.229,0,0,0,1.513,0c.145-.113,2.108-1.654,4.9-4.291h14a1.245,1.245,0,0,0,0-2.49H50.52c1.714-1.736,3.587-3.76,5.47-6.026q.583-.7,1.139-1.4H70.365l3.069,7.429H66.912a1.245,1.245,0,0,0,0,2.49h7.55l1.683,4.074H50.681a1.236,1.236,0,0,0-1.158.81,1.252,1.252,0,0,0,.348,1.376l12.418,10.86Zm11.032,0L53.99,71.577H77.174l4.36,10.555Z" transform="translate(-0.001 0)"/>
    </g>
  </g>
</svg>
