<svg xmlns="http://www.w3.org/2000/svg" xmlns:xlink="http://www.w3.org/1999/xlink" width="208.103" height="247.032" viewBox="0 0 208.103 247.032">
  <defs>
    <clipPath id="clip-path">
      <rect id="Rectángulo_334233" data-name="Rectángulo 334233" width="153.129" height="176.362" fill="none"/>
    </clipPath>
  </defs>
  <g id="Grupo_912291" data-name="Grupo 912291" transform="translate(-900.971 -8456.179)">
    <path id="Trazado_624948" data-name="Trazado 624948" d="M2080.3,371.392l-2.85.168c.106,1.8.26,3.617.459,5.405l2.838-.316c-.194-1.74-.344-3.508-.447-5.257" transform="translate(-1176.475 8194.995)" fill="#463c5f"/>
    <path id="Trazado_624950" data-name="Trazado 624950" d="M2103.464,475.194l-2.659,1.039c.653,1.672,1.36,3.351,2.1,4.99l2.6-1.177c-.722-1.594-1.409-3.226-2.044-4.852" transform="translate(-1192.902 8121.996)" fill="#463c5f"/>
    <path id="Trazado_624951" data-name="Trazado 624951" d="M2092.049,441.452l-2.753.756c.477,1.737,1.006,3.484,1.572,5.193l2.71-.9c-.551-1.661-1.065-3.36-1.529-5.05" transform="translate(-1184.809 8145.725)" fill="#463c5f"/>
    <path id="Trazado_624952" data-name="Trazado 624952" d="M2084.306,406.726l-2.817.462c.291,1.776.634,3.569,1.02,5.329l2.789-.61c-.374-1.712-.708-3.455-.991-5.181" transform="translate(-1179.318 8170.146)" fill="#463c5f"/>
    <path id="Trazado_624954" data-name="Trazado 624954" d="M2373.147,690.985c1.775.278,3.585.513,5.381.7l.293-2.84c-1.746-.18-3.507-.409-5.233-.679Z" transform="translate(-1384.428 7972.224)" fill="#463c5f"/>
    <path id="Trazado_624955" data-name="Trazado 624955" d="M2337.379,683.6c1.742.463,3.517.885,5.277,1.255l.589-2.794c-1.712-.36-3.439-.771-5.133-1.221Z" transform="translate(-1359.273 7977.372)" fill="#463c5f"/>
    <path id="Trazado_624957" data-name="Trazado 624957" d="M2302.549,672.574c1.686.644,3.411,1.252,5.129,1.807l.878-2.717c-1.671-.539-3.349-1.131-4.988-1.756Z" transform="translate(-1334.779 7985.063)" fill="#463c5f"/>
    <path id="Trazado_624959" data-name="Trazado 624959" d="M2237.352,640.112c1.514.98,3.073,1.932,4.635,2.831l1.424-2.475c-1.519-.874-3.035-1.8-4.508-2.753Z" transform="translate(-1288.93 8007.702)" fill="#463c5f"/>
    <path id="Trazado_624960" data-name="Trazado 624960" d="M2269.075,658.014c1.61.817,3.261,1.6,4.907,2.333l1.158-2.61c-1.6-.711-3.208-1.474-4.773-2.269Z" transform="translate(-1311.238 7995.217)" fill="#463c5f"/>
    <path id="Trazado_624961" data-name="Trazado 624961" d="M2180.475,595.16c1.278,1.27,2.606,2.522,3.948,3.723l1.9-2.127c-1.3-1.168-2.6-2.386-3.84-3.621Z" transform="translate(-1248.932 8039.055)" fill="#463c5f"/>
    <path id="Trazado_624962" data-name="Trazado 624962" d="M2134.29,539.737c.99,1.506,2.031,3,3.094,4.451l2.3-1.69c-1.034-1.409-2.047-2.866-3.01-4.33Z" transform="translate(-1216.451 8077.709)" fill="#463c5f"/>
    <path id="Trazado_624963" data-name="Trazado 624963" d="M2155.912,568.615c1.139,1.394,2.33,2.776,3.54,4.11l2.114-1.919c-1.177-1.3-2.335-2.642-3.444-4Z" transform="translate(-1231.656 8057.568)" fill="#463c5f"/>
    <path id="Trazado_624965" data-name="Trazado 624965" d="M2207.716,619.078c1.4,1.129,2.852,2.238,4.313,3.3l1.674-2.313c-1.422-1.029-2.833-2.107-4.2-3.206Z" transform="translate(-1268.088 8022.372)" fill="#463c5f"/>
    <path id="Trazado_624966" data-name="Trazado 624966" d="M2115.85,508.831c.823,1.593,1.7,3.19,2.614,4.747l2.464-1.442c-.886-1.514-1.741-3.067-2.542-4.616Z" transform="translate(-1203.482 8099.263)" fill="#463c5f"/>
    <path id="Trazado_624968" data-name="Trazado 624968" d="M2414.926,549.656c-1.755,0-3.53-.045-5.276-.135l-.146,2.852c1.794.092,3.618.139,5.422.139a104.291,104.291,0,0,0,95.207-61.875l-2.609-1.16a101.433,101.433,0,0,1-92.6,60.18" transform="translate(-1409.996 8111.952)" fill="#463c5f"/>
    <path id="Trazado_624969" data-name="Trazado 624969" d="M2202.6,2.855q.791,0,1.577.012l.044-2.855Q2203.411,0,2202.6,0V0a104.161,104.161,0,0,0-95.015,61.446l2.6,1.172A101.5,101.5,0,0,1,2202.6,2.855" transform="translate(-1197.67 8456.179)" fill="#463c5f"/>
    <path id="Trazado_624971" data-name="Trazado 624971" d="M2456.454,1.29c-1.785-.212-3.6-.381-5.4-.5l-.19,2.849c1.75.117,3.519.281,5.254.488Z" transform="translate(-1439.082 8455.624)" fill="#463c5f"/>
    <path id="Trazado_624972" data-name="Trazado 624972" d="M2623.223,62.1c-1.443-1.077-2.933-2.13-4.428-3.129l-1.586,2.374c1.454.972,2.9,2,4.306,3.043Z" transform="translate(-1556.066 8414.709)" fill="#463c5f"/>
    <path id="Trazado_624973" data-name="Trazado 624973" d="M2560.519,27.121c-1.632-.754-3.3-1.475-4.974-2.142l-1.06,2.651c1.622.649,3.249,1.35,4.836,2.083Z" transform="translate(-1511.955 8438.612)" fill="#463c5f"/>
    <path id="Trazado_624974" data-name="Trazado 624974" d="M2526.788,14.814c-1.7-.58-3.448-1.123-5.181-1.613l-.776,2.748c1.685.476,3.38,1,5.037,1.568Z" transform="translate(-1488.287 8446.896)" fill="#463c5f"/>
    <path id="Trazado_624975" data-name="Trazado 624975" d="M2491.97,6.175c-1.754-.4-3.543-.755-5.32-1.061l-.485,2.813c1.728.3,3.469.645,5.174,1.032Z" transform="translate(-1463.908 8452.582)" fill="#463c5f"/>
    <path id="Trazado_624976" data-name="Trazado 624976" d="M2592.754,42.937c-1.547-.921-3.137-1.813-4.726-2.651l-1.331,2.526c1.545.814,3.092,1.682,4.6,2.578Z" transform="translate(-1534.609 8427.848)" fill="#463c5f"/>
    <path id="Trazado_624977" data-name="Trazado 624977" d="M2651.592,84.392c-1.323-1.219-2.7-2.421-4.082-3.572l-1.824,2.2c1.348,1.119,2.683,2.288,3.97,3.475Z" transform="translate(-1576.094 8399.342)" fill="#463c5f"/>
    <path id="Trazado_624978" data-name="Trazado 624978" d="M2721.179,167.482c-.887-1.569-1.827-3.136-2.795-4.657l-2.409,1.533c.941,1.479,1.856,3,2.719,4.529Z" transform="translate(-1625.523 8341.672)" fill="#463c5f"/>
    <path id="Trazado_624979" data-name="Trazado 624979" d="M2735.722,200.752l2.619-1.137c-.717-1.652-1.49-3.309-2.295-4.927l-2.555,1.273c.783,1.572,1.534,3.184,2.231,4.791" transform="translate(-1637.842 8319.264)" fill="#463c5f"/>
    <path id="Trazado_624980" data-name="Trazado 624980" d="M2700.843,137.362c-1.043-1.466-2.141-2.926-3.262-4.339l-2.237,1.774c1.091,1.375,2.158,2.8,3.173,4.221Z" transform="translate(-1611.016 8362.629)" fill="#463c5f"/>
    <path id="Trazado_624981" data-name="Trazado 624981" d="M2677.558,109.568c-1.192-1.353-2.435-2.691-3.692-3.977l-2.041,2c1.223,1.251,2.431,2.552,3.592,3.868Z" transform="translate(-1594.475 8381.922)" fill="#463c5f"/>
    <path id="Trazado_624982" data-name="Trazado 624982" d="M2750.349,228.28l-2.675,1c.614,1.644,1.191,3.326,1.717,5l2.724-.856c-.542-1.723-1.135-3.454-1.766-5.144" transform="translate(-1647.816 8295.64)" fill="#463c5f"/>
    <path id="Trazado_624993" data-name="Trazado 624993" d="M2771.728,340.021c0-1.535-.034-3.086-.1-4.611l-2.852.125c.065,1.483.1,2.992.1,4.486,0,.271,0,.542,0,.813l2.855-.022q0-.395,0-.79" transform="translate(-1662.656 8220.3)" fill="#463c5f"/>
    <path id="Trazado_624995" data-name="Trazado 624995" d="M2768.216,299.027l-2.824.419c.257,1.729.471,3.492.639,5.238l2.842-.271c-.171-1.8-.392-3.607-.656-5.386" transform="translate(-1660.277 8245.887)" fill="#463c5f"/>
    <path id="Trazado_624997" data-name="Trazado 624997" d="M2761.111,263.2l-2.766.711c.437,1.7.834,3.429,1.181,5.143l2.8-.566c-.356-1.762-.765-3.542-1.214-5.288" transform="translate(-1655.32 8271.084)" fill="#463c5f"/>
    <path id="Trazado_625243" data-name="Trazado 625243" d="M2344.285,750.006a101.794,101.794,0,0,1-35.039-6.178l35.039,26.3,35.038-26.3a101.793,101.793,0,0,1-35.038,6.178" transform="translate(-1339.49 7933.078)" fill="#cc573c"/>
    <g id="Grupo_899776" data-name="Grupo 899776" transform="translate(928.602 8483.946)" opacity="0.35" style="mix-blend-mode: multiply;isolation: isolate">
      <g id="Grupo_899775" data-name="Grupo 899775">
        <g id="Grupo_899774" data-name="Grupo 899774" clip-path="url(#clip-path)">
          <path id="Trazado_625244" data-name="Trazado 625244" d="M2323.688,248.43a76.565,76.565,0,1,1-76.565-76.565,76.565,76.565,0,0,1,76.565,76.565" transform="translate(-2170.559 -148.632)" fill="#fff"/>
          <path id="Trazado_625245" data-name="Trazado 625245" d="M2323.688,246.895a76.565,76.565,0,1,1-76.565-76.565,76.565,76.565,0,0,1,76.565,76.565" transform="translate(-2170.559 -147.553)" fill="#fbfbfb"/>
          <path id="Trazado_625246" data-name="Trazado 625246" d="M2323.688,245.36a76.565,76.565,0,1,1-76.565-76.565,76.565,76.565,0,0,1,76.565,76.565" transform="translate(-2170.559 -146.473)" fill="#f7f7f7"/>
          <path id="Trazado_625247" data-name="Trazado 625247" d="M2323.688,243.825a76.565,76.565,0,1,1-76.565-76.565,76.565,76.565,0,0,1,76.565,76.565" transform="translate(-2170.559 -145.394)" fill="#f3f3f3"/>
          <path id="Trazado_625248" data-name="Trazado 625248" d="M2323.688,242.29a76.565,76.565,0,1,1-76.565-76.565,76.565,76.565,0,0,1,76.565,76.565" transform="translate(-2170.559 -144.314)" fill="#efefef"/>
          <path id="Trazado_625249" data-name="Trazado 625249" d="M2323.688,240.754a76.565,76.565,0,1,1-76.565-76.565,76.565,76.565,0,0,1,76.565,76.565" transform="translate(-2170.559 -143.234)" fill="#ebebeb"/>
          <path id="Trazado_625250" data-name="Trazado 625250" d="M2323.688,239.219a76.565,76.565,0,1,1-76.565-76.565,76.565,76.565,0,0,1,76.565,76.565" transform="translate(-2170.559 -142.155)" fill="#e7e7e7"/>
          <path id="Trazado_625251" data-name="Trazado 625251" d="M2323.688,237.684a76.565,76.565,0,1,1-76.565-76.565,76.565,76.565,0,0,1,76.565,76.565" transform="translate(-2170.559 -141.075)" fill="#e3e3e3"/>
          <path id="Trazado_625252" data-name="Trazado 625252" d="M2323.688,236.149a76.565,76.565,0,1,1-76.565-76.565,76.565,76.565,0,0,1,76.565,76.565" transform="translate(-2170.559 -139.996)" fill="#dfdfdf"/>
          <path id="Trazado_625253" data-name="Trazado 625253" d="M2323.688,234.614a76.565,76.565,0,1,1-76.565-76.565,76.565,76.565,0,0,1,76.565,76.565" transform="translate(-2170.559 -138.916)" fill="#dbdbdb"/>
          <path id="Trazado_625254" data-name="Trazado 625254" d="M2323.688,233.079a76.565,76.565,0,1,1-76.565-76.565,76.565,76.565,0,0,1,76.565,76.565" transform="translate(-2170.559 -137.837)" fill="#d7d7d7"/>
          <path id="Trazado_625255" data-name="Trazado 625255" d="M2323.688,231.544a76.565,76.565,0,1,1-76.565-76.565,76.565,76.565,0,0,1,76.565,76.565" transform="translate(-2170.559 -136.757)" fill="#d3d3d3"/>
          <path id="Trazado_625256" data-name="Trazado 625256" d="M2323.688,230.009a76.565,76.565,0,1,1-76.565-76.565,76.565,76.565,0,0,1,76.565,76.565" transform="translate(-2170.559 -135.678)" fill="#cfcfcf"/>
          <path id="Trazado_625257" data-name="Trazado 625257" d="M2323.688,228.473a76.565,76.565,0,1,1-76.565-76.565,76.565,76.565,0,0,1,76.565,76.565" transform="translate(-2170.559 -134.597)" fill="#cbcbcb"/>
          <path id="Trazado_625258" data-name="Trazado 625258" d="M2323.688,226.938a76.565,76.565,0,1,1-76.565-76.565,76.565,76.565,0,0,1,76.565,76.565" transform="translate(-2170.559 -133.518)" fill="#c7c7c7"/>
          <path id="Trazado_625259" data-name="Trazado 625259" d="M2323.688,225.4a76.565,76.565,0,1,1-76.565-76.565,76.565,76.565,0,0,1,76.565,76.565" transform="translate(-2170.559 -132.438)" fill="#c3c3c3"/>
          <path id="Trazado_625260" data-name="Trazado 625260" d="M2323.688,223.868a76.565,76.565,0,1,1-76.565-76.565,76.565,76.565,0,0,1,76.565,76.565" transform="translate(-2170.559 -131.359)" fill="#bfbfbf"/>
          <path id="Trazado_625261" data-name="Trazado 625261" d="M2323.688,222.333a76.565,76.565,0,1,1-76.565-76.565,76.565,76.565,0,0,1,76.565,76.565" transform="translate(-2170.559 -130.279)" fill="#bbb"/>
          <path id="Trazado_625262" data-name="Trazado 625262" d="M2323.688,220.8a76.565,76.565,0,1,1-76.565-76.565,76.565,76.565,0,0,1,76.565,76.565" transform="translate(-2170.559 -129.2)" fill="#b7b7b7"/>
          <path id="Trazado_625263" data-name="Trazado 625263" d="M2323.688,219.263a76.565,76.565,0,1,1-76.565-76.565,76.565,76.565,0,0,1,76.565,76.565" transform="translate(-2170.559 -128.12)" fill="#b3b3b3"/>
          <path id="Trazado_625264" data-name="Trazado 625264" d="M2323.688,217.727a76.565,76.565,0,1,1-76.565-76.565,76.565,76.565,0,0,1,76.565,76.565" transform="translate(-2170.559 -127.04)" fill="#afafaf"/>
          <path id="Trazado_625265" data-name="Trazado 625265" d="M2323.688,216.192a76.565,76.565,0,1,1-76.565-76.565,76.565,76.565,0,0,1,76.565,76.565" transform="translate(-2170.559 -125.961)" fill="#ababab"/>
          <path id="Trazado_625266" data-name="Trazado 625266" d="M2323.688,214.657a76.565,76.565,0,1,1-76.565-76.565,76.565,76.565,0,0,1,76.565,76.565" transform="translate(-2170.559 -124.881)" fill="#a7a7a7"/>
          <path id="Trazado_625267" data-name="Trazado 625267" d="M2323.688,213.122a76.565,76.565,0,1,1-76.565-76.565,76.565,76.565,0,0,1,76.565,76.565" transform="translate(-2170.559 -123.802)" fill="#a3a3a3"/>
          <path id="Trazado_625268" data-name="Trazado 625268" d="M2323.688,211.587a76.565,76.565,0,1,1-76.565-76.565,76.565,76.565,0,0,1,76.565,76.565" transform="translate(-2170.559 -122.722)" fill="#9f9f9f"/>
          <path id="Trazado_625269" data-name="Trazado 625269" d="M2323.688,210.052a76.565,76.565,0,1,1-76.565-76.565,76.565,76.565,0,0,1,76.565,76.565" transform="translate(-2170.559 -121.643)" fill="#9b9b9b"/>
          <path id="Trazado_625270" data-name="Trazado 625270" d="M2323.688,208.517a76.565,76.565,0,1,1-76.565-76.565,76.565,76.565,0,0,1,76.565,76.565" transform="translate(-2170.559 -120.563)" fill="#979797"/>
          <path id="Trazado_625271" data-name="Trazado 625271" d="M2323.688,206.982a76.565,76.565,0,1,1-76.565-76.565,76.565,76.565,0,0,1,76.565,76.565" transform="translate(-2170.559 -119.484)" fill="#939393"/>
          <path id="Trazado_625272" data-name="Trazado 625272" d="M2323.688,205.446a76.565,76.565,0,1,1-76.565-76.565,76.565,76.565,0,0,1,76.565,76.565" transform="translate(-2170.559 -118.404)" fill="#8f8f8f"/>
          <path id="Trazado_625273" data-name="Trazado 625273" d="M2323.688,203.911a76.565,76.565,0,1,1-76.565-76.565,76.565,76.565,0,0,1,76.565,76.565" transform="translate(-2170.559 -117.324)" fill="#8b8b8b"/>
          <path id="Trazado_625274" data-name="Trazado 625274" d="M2323.688,202.376a76.565,76.565,0,1,1-76.565-76.565,76.565,76.565,0,0,1,76.565,76.565" transform="translate(-2170.559 -116.245)" fill="#878787"/>
          <path id="Trazado_625275" data-name="Trazado 625275" d="M2323.688,200.841a76.565,76.565,0,1,1-76.565-76.565,76.565,76.565,0,0,1,76.565,76.565" transform="translate(-2170.559 -115.165)" fill="#838383"/>
          <path id="Trazado_625276" data-name="Trazado 625276" d="M2323.688,199.306a76.565,76.565,0,1,1-76.565-76.565,76.565,76.565,0,0,1,76.565,76.565" transform="translate(-2170.559 -114.086)" fill="#7f7f7f"/>
          <path id="Trazado_625277" data-name="Trazado 625277" d="M2323.688,197.771a76.565,76.565,0,1,1-76.565-76.565,76.565,76.565,0,0,1,76.565,76.565" transform="translate(-2170.559 -113.006)" fill="#7b7b7b"/>
          <path id="Trazado_625278" data-name="Trazado 625278" d="M2323.688,196.236a76.565,76.565,0,1,1-76.565-76.565,76.565,76.565,0,0,1,76.565,76.565" transform="translate(-2170.559 -111.927)" fill="#777"/>
          <path id="Trazado_625279" data-name="Trazado 625279" d="M2323.688,194.7a76.565,76.565,0,1,1-76.565-76.565,76.565,76.565,0,0,1,76.565,76.565" transform="translate(-2170.559 -110.846)" fill="#737373"/>
          <path id="Trazado_625280" data-name="Trazado 625280" d="M2323.688,193.165a76.565,76.565,0,1,1-76.565-76.565,76.565,76.565,0,0,1,76.565,76.565" transform="translate(-2170.559 -109.767)" fill="#6f6f6f"/>
          <path id="Trazado_625281" data-name="Trazado 625281" d="M2323.688,191.63a76.565,76.565,0,1,1-76.565-76.565,76.565,76.565,0,0,1,76.565,76.565" transform="translate(-2170.559 -108.687)" fill="#6b6b6b"/>
          <path id="Trazado_625282" data-name="Trazado 625282" d="M2323.688,190.095a76.565,76.565,0,1,1-76.565-76.565,76.565,76.565,0,0,1,76.565,76.565" transform="translate(-2170.559 -107.608)" fill="#676767"/>
          <path id="Trazado_625283" data-name="Trazado 625283" d="M2323.688,188.56A76.565,76.565,0,1,1,2247.123,112a76.565,76.565,0,0,1,76.565,76.565" transform="translate(-2170.559 -106.528)" fill="#636363"/>
          <path id="Trazado_625284" data-name="Trazado 625284" d="M2323.688,187.025a76.565,76.565,0,1,1-76.565-76.565,76.565,76.565,0,0,1,76.565,76.565" transform="translate(-2170.559 -105.449)" fill="#5f5f5f"/>
          <path id="Trazado_625285" data-name="Trazado 625285" d="M2323.688,185.49a76.565,76.565,0,1,1-76.565-76.565,76.565,76.565,0,0,1,76.565,76.565" transform="translate(-2170.559 -104.369)" fill="#5b5b5b"/>
          <path id="Trazado_625286" data-name="Trazado 625286" d="M2323.688,183.955a76.565,76.565,0,1,1-76.565-76.565,76.565,76.565,0,0,1,76.565,76.565" transform="translate(-2170.559 -103.29)" fill="#575757"/>
          <path id="Trazado_625287" data-name="Trazado 625287" d="M2323.688,182.419a76.565,76.565,0,1,1-76.565-76.565,76.565,76.565,0,0,1,76.565,76.565" transform="translate(-2170.559 -102.21)" fill="#535353"/>
          <path id="Trazado_625288" data-name="Trazado 625288" d="M2323.688,180.884a76.565,76.565,0,1,1-76.565-76.565,76.565,76.565,0,0,1,76.565,76.565" transform="translate(-2170.559 -101.13)" fill="#4f4f4f"/>
          <path id="Trazado_625289" data-name="Trazado 625289" d="M2323.688,179.349a76.565,76.565,0,1,1-76.565-76.565,76.565,76.565,0,0,1,76.565,76.565" transform="translate(-2170.559 -100.051)" fill="#4b4b4b"/>
          <path id="Trazado_625290" data-name="Trazado 625290" d="M2323.688,177.814a76.565,76.565,0,1,1-76.565-76.565,76.565,76.565,0,0,1,76.565,76.565" transform="translate(-2170.559 -98.971)" fill="#474747"/>
          <path id="Trazado_625291" data-name="Trazado 625291" d="M2323.688,176.279a76.565,76.565,0,1,1-76.565-76.565,76.565,76.565,0,0,1,76.565,76.565" transform="translate(-2170.559 -97.892)" fill="#434343"/>
          <path id="Trazado_625292" data-name="Trazado 625292" d="M2323.688,174.744a76.565,76.565,0,1,1-76.565-76.565,76.565,76.565,0,0,1,76.565,76.565" transform="translate(-2170.559 -96.812)" fill="#3f3f3f"/>
          <path id="Trazado_625293" data-name="Trazado 625293" d="M2323.688,173.209a76.565,76.565,0,1,1-76.565-76.565,76.565,76.565,0,0,1,76.565,76.565" transform="translate(-2170.559 -95.733)" fill="#3b3b3b"/>
          <path id="Trazado_625294" data-name="Trazado 625294" d="M2323.688,171.673a76.565,76.565,0,1,1-76.565-76.565,76.565,76.565,0,0,1,76.565,76.565" transform="translate(-2170.559 -94.652)" fill="#373737"/>
          <path id="Trazado_625295" data-name="Trazado 625295" d="M2323.688,170.138a76.565,76.565,0,1,1-76.565-76.565,76.565,76.565,0,0,1,76.565,76.565" transform="translate(-2170.559 -93.573)" fill="#333"/>
        </g>
      </g>
    </g>
    <path id="Trazado_625296" data-name="Trazado 625296" d="M2322.521,170.138a76.565,76.565,0,1,1-76.565-76.565,76.565,76.565,0,0,1,76.565,76.565" transform="translate(-1241.137 8390.373)" fill="#cc573c"/>
    <g id="lista-de-verificacion" transform="translate(969.754 8515.42)">
      <path id="Trazado_150769" data-name="Trazado 150769" d="M66.282,75.266H12.641A5.141,5.141,0,0,0,7.5,80.407V139.9a5.141,5.141,0,0,0,5.141,5.141h53.64a5.142,5.142,0,0,0,5.142-5.141V80.407A5.142,5.142,0,0,0,66.282,75.266Zm0,0" transform="translate(-6.281 -63.031)" fill="#525252"/>
      <path id="Trazado_150771" data-name="Trazado 150771" d="M47.293,109.113H98.279v56.092H47.293Zm0,0" transform="translate(-39.605 -91.376)" fill="#f2edff"/>
      <path id="Trazado_150773" data-name="Trazado 150773" d="M129.906,14.337h-7.961c.008-.126.012-.253.012-.38a6.457,6.457,0,1,0-12.915,0c0,.128.005.254.012.38h-7.961a2.8,2.8,0,0,0-2.8,2.8v7.325a2.8,2.8,0,0,0,2.8,2.8h28.814a2.8,2.8,0,0,0,2.8-2.8V17.133A2.8,2.8,0,0,0,129.906,14.337Zm0,0" transform="translate(-82.318 -6.281)" fill="#bab8b9"/>
      <path id="Trazado_150774" data-name="Trazado 150774" d="M195.334,36.323a2.116,2.116,0,1,1-2.116-2.116A2.116,2.116,0,0,1,195.334,36.323Zm0,0" transform="translate(-160.037 -28.646)"/>
      <path id="Trazado_150775" data-name="Trazado 150775" d="M134.637,76.68a1.219,1.219,0,0,0,1.219-1.219V73.6a1.219,1.219,0,1,0-2.438,0v1.859A1.219,1.219,0,0,0,134.637,76.68Zm0,0" transform="translate(-111.73 -60.617)"/>
      <path id="Trazado_150776" data-name="Trazado 150776" d="M261.039,76.68a1.219,1.219,0,0,0,1.219-1.219V73.6a1.219,1.219,0,0,0-2.438,0v1.859A1.219,1.219,0,0,0,261.039,76.68Zm0,0" transform="translate(-217.585 -60.617)"/>
      <path id="Trazado_150777" data-name="Trazado 150777" d="M184.776,86.585a4.574,4.574,0,0,0,3.454-1.539,1.219,1.219,0,0,0-1.836-1.6,2.209,2.209,0,0,1-3.236,0,1.219,1.219,0,1,0-1.836,1.6A4.572,4.572,0,0,0,184.776,86.585Zm0,0" transform="translate(-151.595 -69.529)"/>
      <path id="Trazado_150778" data-name="Trazado 150778" d="M102.729,180.094a1.218,1.218,0,0,0-1.542-.771,24.074,24.074,0,0,0-7.62,4.158v-1.591a1.219,1.219,0,0,0-2.438,0v2.066a2.233,2.233,0,0,0,3.657,1.684,21.489,21.489,0,0,1,7.172-4A1.218,1.218,0,0,0,102.729,180.094Zm0,0" transform="translate(-76.315 -150.121)"/>
      <path id="Trazado_150779" data-name="Trazado 150779" d="M205.18,195.473h15.955a1.219,1.219,0,1,0,0-2.438H205.18a1.219,1.219,0,1,0,0,2.438Zm0,0" transform="translate(-170.806 -161.656)"/>
      <path id="Trazado_150780" data-name="Trazado 150780" d="M102.729,241.675a1.219,1.219,0,0,0-1.542-.772,24.086,24.086,0,0,0-7.62,4.159v-1.591a1.219,1.219,0,1,0-2.438,0v2.066a2.234,2.234,0,0,0,3.657,1.684,21.479,21.479,0,0,1,7.172-4A1.218,1.218,0,0,0,102.729,241.675Zm0,0" transform="translate(-76.315 -201.691)"/>
      <path id="Trazado_150781" data-name="Trazado 150781" d="M205.18,257.055h15.955a1.219,1.219,0,1,0,0-2.438H205.18a1.219,1.219,0,1,0,0,2.438Zm0,0" transform="translate(-170.806 -213.228)"/>
      <path id="Trazado_150782" data-name="Trazado 150782" d="M102.729,303.257a1.219,1.219,0,0,0-1.542-.771,24.086,24.086,0,0,0-7.62,4.159v-1.591a1.219,1.219,0,1,0-2.438,0v2.066a2.234,2.234,0,0,0,3.657,1.684,21.485,21.485,0,0,1,7.172-4A1.218,1.218,0,0,0,102.729,303.257Zm0,0" transform="translate(-76.315 -253.262)"/>
      <path id="Trazado_150783" data-name="Trazado 150783" d="M205.18,318.638h15.955a1.219,1.219,0,1,0,0-2.438H205.18a1.219,1.219,0,1,0,0,2.438Zm0,0" transform="translate(-170.806 -264.799)"/>
      <path id="Trazado_150784" data-name="Trazado 150784" d="M92.348,365.416a1.219,1.219,0,0,0-1.219,1.219V368.7a2.234,2.234,0,0,0,3.657,1.684,21.485,21.485,0,0,1,7.172-4,1.219,1.219,0,1,0-.771-2.313,24.094,24.094,0,0,0-7.62,4.159v-1.591A1.219,1.219,0,0,0,92.348,365.416Zm0,0" transform="translate(-76.315 -304.833)"/>
      <path id="Trazado_150785" data-name="Trazado 150785" d="M205.18,380.216h15.955a1.219,1.219,0,0,0,0-2.438H205.18a1.219,1.219,0,0,0,0,2.438Zm0,0" transform="translate(-170.806 -316.368)"/>
      <path id="Trazado_150786" data-name="Trazado 150786" d="M60,11.016H51.6v-.164a4.019,4.019,0,0,0-4.014-4.014H40.812a7.677,7.677,0,0,0-15.262,0H18.775a4.019,4.019,0,0,0-4.014,4.014v.164h-8.4A6.368,6.368,0,0,0,0,17.376v7.949a1.219,1.219,0,1,0,2.438,0V17.376a3.927,3.927,0,0,1,3.922-3.922h8.4v3.064H7.688a1.219,1.219,0,0,0-1.219,1.219V73.829a1.219,1.219,0,0,0,1.219,1.219H45.855a1.219,1.219,0,1,0,0-2.438H8.907V18.956h5.929l0,.01c0,.006,0,.013,0,.018a4.062,4.062,0,0,0,3.933,3.207H47.587a4.082,4.082,0,0,0,3.932-3.207l0-.018,0-.01h5.929V72.61H50.732a1.219,1.219,0,1,0,0,2.438h7.942a1.219,1.219,0,0,0,1.219-1.219V17.737a1.219,1.219,0,0,0-1.219-1.219H51.6V13.454H60a3.927,3.927,0,0,1,3.922,3.922V76.868A3.927,3.927,0,0,1,60,80.79H6.361a3.927,3.927,0,0,1-3.922-3.922V30.2A1.219,1.219,0,1,0,0,30.2V76.868a6.368,6.368,0,0,0,6.361,6.361H60a6.368,6.368,0,0,0,6.361-6.361V17.376A6.367,6.367,0,0,0,60,11.016Zm-42.8-.164a1.577,1.577,0,0,1,1.576-1.576h7.961c.942,0,1.207-.815,1.207-1.6a5.238,5.238,0,0,1,10.477,0c0,.782.275,1.6,1.207,1.6h7.961a1.577,1.577,0,0,1,1.576,1.576v6.885a3,3,0,0,1-.071.907,1.578,1.578,0,0,1-1.5,1.108H18.775a1.58,1.58,0,0,1-1.506-1.108,3.039,3.039,0,0,1-.07-.907Zm0,0"/>
    </g>
  </g>
</svg>
