<svg xmlns="http://www.w3.org/2000/svg" xmlns:xlink="http://www.w3.org/1999/xlink" width="59" height="69" viewBox="0 0 59 69">
  <defs>
    <clipPath id="clip-path">
      <rect id="Rectángulo_34799" data-name="Rectángulo 34799" width="59" height="69" transform="translate(186 827.791)" fill="#fff" stroke="#707070" stroke-width="1"/>
    </clipPath>
  </defs>
  <g id="Enmascarar_grupo_46" data-name="Enmascarar grupo 46" transform="translate(-186 -827.791)" clip-path="url(#clip-path)">
    <g id="diagrama-de-flujo" transform="translate(185.822 829.945)">
      <g id="Grupo_82174" data-name="Grupo 82174" transform="translate(1.292 1.29)">
        <path id="Trazado_140649" data-name="Trazado 140649" d="M45.741,140.342H67.548V169.5H45.741Z" transform="translate(-45.741 -123.549)" fill="#ffba5b"/>
        <path id="Trazado_140650" data-name="Trazado 140650" d="M348.223,10.014H362.8V24.592H348.223Z" transform="translate(-309.247 -10.014)" fill="#ff7758"/>
        <path id="Trazado_140651" data-name="Trazado 140651" d="M348.178,196.976h14.578v14.578H348.178Z" transform="translate(-309.208 -172.885)" fill="#c3b5ec"/>
        <path id="Trazado_140652" data-name="Trazado 140652" d="M348.134,383.939h14.578v14.578H348.134Z" transform="translate(-309.17 -335.758)" fill="#ff7758"/>
      </g>
      <g id="Grupo_82175" data-name="Grupo 82175" transform="translate(0 0)">
        <path id="Trazado_140653" data-name="Trazado 140653" d="M296.065,0,281.486,0A1.289,1.289,0,0,0,280.2,1.288v6l-7.293,0a1.289,1.289,0,0,0-1.289,1.288l0,7a1.289,1.289,0,0,0,2.577,0V9.864h6v6a1.289,1.289,0,0,0,1.288,1.289l14.578,0a1.289,1.289,0,0,0,1.289-1.288l0-14.578A1.289,1.289,0,0,0,296.065,0Zm-1.292,14.578-12,0v-6h0v-6l12,0Z" transform="translate(-241.217 0)"/>
        <path id="Trazado_140654" data-name="Trazado 140654" d="M90.557,137.624l-14.578,0a1.289,1.289,0,0,0-1.289,1.288v6h-6v-5.437a1.289,1.289,0,0,0-2.577,0v5.437h-6l0-13.289a1.289,1.289,0,0,0-1.288-1.289l-21.807-.005a1.289,1.289,0,0,0-1.289,1.288l-.007,29.156A1.289,1.289,0,0,0,37,162.055l21.807.005a1.289,1.289,0,0,0,1.289-1.288l0-13.29h6l-.005,22.8a1.289,1.289,0,0,0,1.288,1.289l7.293,0v6a1.289,1.289,0,0,0,1.288,1.289l14.578,0a1.289,1.289,0,0,0,1.289-1.288l0-14.578a1.289,1.289,0,0,0-1.288-1.289l-14.578,0A1.289,1.289,0,0,0,74.684,163v6h-6l.005-21.514h6v6a1.289,1.289,0,0,0,1.288,1.289l14.578,0a1.289,1.289,0,0,0,1.289-1.288l0-14.578a1.289,1.289,0,0,0-1.289-1.289ZM57.522,159.483l-19.23,0L38.3,132.9l19.23,0Zm31.74,4.808,0,12-12,0,0-12Zm0-12.09-12,0v-6h0v-6l12,0Z" transform="translate(-35.715 -113.53)"/>
        <path id="Trazado_140655" data-name="Trazado 140655" d="M271.707,153.433a1.288,1.288,0,1,0,.7-1.683A1.3,1.3,0,0,0,271.707,153.433Z" transform="translate(-241.215 -132.114)"/>
      </g>
    </g>
  </g>
</svg>
