<svg id="Grupo_899797" data-name="Grupo 899797" xmlns="http://www.w3.org/2000/svg" width="75.286" height="64.995" viewBox="0 0 75.286 64.995">
  <g id="logistica-2">
    <path id="Trazado_151017" data-name="Trazado 151017" d="M122.319,8l4.193,6.29H72L76.193,8Zm0,0" transform="translate(-62.565 -6.952)" fill="#fcd770"/>
    <path id="Trazado_151018" data-name="Trazado 151018" d="M126.512,56v4.193H72V56Zm0,0" transform="translate(-62.565 -48.662)" fill="#ffeaa7"/>
    <path id="Trazado_151019" data-name="Trazado 151019" d="M138.318,88v29.352h-4.193V98.483H115.256v-6.29H92.193v20.966h2.1V118.4H88V88Zm0,0" transform="translate(-76.469 -76.469)" fill="#ccd1d9"/>
    <path id="Trazado_151020" data-name="Trazado 151020" d="M167.449,296.773v3.145H161.83a4.189,4.189,0,0,0-6.961,3.145,4.189,4.189,0,0,0-6.961-3.145H136V280h31.449Zm0,0" transform="translate(-118.179 -243.309)" fill="#ff826e"/>
    <path id="Trazado_151021" data-name="Trazado 151021" d="M16.386,333.628a4.193,4.193,0,0,0-2.768,1.048H8v-9.435L13.242,320H24.773v14.676H19.154A4.173,4.173,0,0,0,16.386,333.628Zm0,0" transform="translate(-6.952 -278.068)" fill="#ff826e"/>
    <path id="Trazado_151022" data-name="Trazado 151022" d="M143.063,120v6.29h-4.193v14.676h-4.193v-4.193h-6.29v4.193H120V120h8.386v4.193h6.29V120Zm0,0" transform="translate(-104.275 -104.275)" fill="#d3a06c"/>
    <path id="Trazado_151023" data-name="Trazado 151023" d="M184,248h6.29v4.193H184Zm0,0" transform="translate(-159.889 -215.503)" fill="#e6e9ed"/>
    <path id="Trazado_151024" data-name="Trazado 151024" d="M184,120h6.29v4.193H184Zm0,0" transform="translate(-159.889 -104.275)" fill="#e6e9ed"/>
    <path id="Trazado_151025" data-name="Trazado 151025" d="M287.063,168v18.869h-6.29a2.1,2.1,0,0,0-2.1,2.1v-6.29H264V168h8.386v4.193h6.29V168Zm0,0" transform="translate(-229.406 -145.986)" fill="#cf9e76"/>
    <path id="Trazado_151026" data-name="Trazado 151026" d="M328,168h6.29v4.193H328Zm0,0" transform="translate(-285.02 -145.986)" fill="#e6e9ed"/>
    <path id="Trazado_151027" data-name="Trazado 151027" d="M388.58,312a2.1,2.1,0,0,1,2.1,2.1V324.58a2.1,2.1,0,0,1-2.1,2.1h-2.1v-4.193h-6.29v4.193h-2.1a2.1,2.1,0,0,1-2.1-2.1V314.1a2.1,2.1,0,0,1,2.1-2.1h2.1v4.193h6.29V312Zm0,0" transform="translate(-326.73 -271.116)" fill="#cf9e76"/>
    <g id="Grupo_86193" data-name="Grupo 86193" transform="translate(1.048 40.884)">
      <path id="Trazado_151028" data-name="Trazado 151028" d="M414.29,312v4.193H408V312Zm0,0" transform="translate(-355.585 -312)" fill="#e6e9ed"/>
      <path id="Trazado_151029" data-name="Trazado 151029" d="M408,392h6.29v4.193H408Zm0,0" transform="translate(-355.585 -381.517)" fill="#e6e9ed"/>
      <path id="Trazado_151030" data-name="Trazado 151030" d="M338.74,434.1a2.1,2.1,0,0,1-2.1,2.1h-2.1l-.126-.031a4.032,4.032,0,0,0,.126-1.017A4.175,4.175,0,0,0,333.121,432h5.619Zm0,0" transform="translate(-290.518 -416.275)" fill="#e6e9ed"/>
      <path id="Trazado_151031" data-name="Trazado 151031" d="M110.648,432H93.121a4.175,4.175,0,0,1,1.426,3.145,4.092,4.092,0,0,1-.126,1.017l.126.031h14.676l.126-.031a4.033,4.033,0,0,1-.126-1.017A4.175,4.175,0,0,1,110.648,432Zm0,0" transform="translate(-81.967 -416.275)" fill="#e6e9ed"/>
      <path id="Trazado_151032" data-name="Trazado 151032" d="M10.1,436.193A2.1,2.1,0,0,1,8,434.1V432h5.619a4.175,4.175,0,0,0-1.426,3.145,4.033,4.033,0,0,0,.126,1.017l-.126.031Zm0,0" transform="translate(-8 -416.275)" fill="#e6e9ed"/>
    </g>
    <path id="Trazado_151033" data-name="Trazado 151033" d="M40.126,429.21A4.033,4.033,0,0,1,40,428.193a4.193,4.193,0,0,1,8.386,0,4.092,4.092,0,0,1-.126,1.017,4.192,4.192,0,0,1-8.135,0Zm0,0" transform="translate(-34.758 -368.44)" fill="#838f9b"/>
    <path id="Trazado_151034" data-name="Trazado 151034" d="M220.193,424a4.193,4.193,0,1,1-4.067,5.21,4.033,4.033,0,0,1-.126-1.017A4.2,4.2,0,0,1,220.193,424Zm0,0" transform="translate(-187.696 -368.44)" fill="#838f9b"/>
    <path id="Trazado_151035" data-name="Trazado 151035" d="M286.961,425.048a4.175,4.175,0,0,1,1.426,3.145,4.034,4.034,0,0,1-.126,1.017,4.2,4.2,0,1,1-1.3-4.162Zm0,0" transform="translate(-243.309 -368.44)" fill="#838f9b"/>
    <path id="Trazado_151036" data-name="Trazado 151036" d="M208,312h12.58v11.531H208Zm0,0" transform="translate(-180.744 -271.116)" fill="#cf9e76"/>
    <path id="Trazado_151037" data-name="Trazado 151037" d="M48.386,352v6.29H40v-3.145L43.145,352Zm0,0" transform="translate(-34.758 -305.875)" fill="#69d6f4"/>
    <path id="Trazado_151038" data-name="Trazado 151038" d="M66.1,449.048A1.048,1.048,0,1,1,65.048,448,1.048,1.048,0,0,1,66.1,449.048Zm0,0" transform="translate(-55.614 -389.295)"/>
    <path id="Trazado_151039" data-name="Trazado 151039" d="M306.1,449.048A1.048,1.048,0,1,1,305.048,448,1.048,1.048,0,0,1,306.1,449.048Zm0,0" transform="translate(-264.164 -389.295)"/>
    <path id="Trazado_151040" data-name="Trazado 151040" d="M242.1,449.048A1.048,1.048,0,1,1,241.048,448,1.048,1.048,0,0,1,242.1,449.048Zm0,0" transform="translate(-208.551 -389.295)"/>
    <path id="Trazado_151041" data-name="Trazado 151041" d="M42.483,344H35.759L32,347.759v4.627H42.483Zm-2.1,6.29H34.1v-1.662l2.531-2.531h3.759Zm0,0" transform="translate(-27.807 -298.923)"/>
    <path id="Trazado_151042" data-name="Trazado 151042" d="M64.995,12.58V7.02L60.314,0H13.067L8.386,7.02V12.58h2.1v28.3H5.856L0,46.74V58.7A3.149,3.149,0,0,0,3.145,61.85H4.638a5.231,5.231,0,0,0,9.594,0H27.7a5.215,5.215,0,0,0,8.99,1.016,5.215,5.215,0,0,0,8.99-1.016h1.493A3.149,3.149,0,0,0,50.319,58.7v-2.29a3.1,3.1,0,0,0,1.048.193H61.85a3.149,3.149,0,0,0,3.145-3.145V42.98a3.141,3.141,0,0,0-2.1-2.952V12.58ZM14.189,2.1h45l2.8,4.193H60.8v2.1h2.1v2.1H10.483v-2.1h2.1V6.29H11.393ZM6.724,42.98H16.773V55.56H12.547a5.145,5.145,0,0,0-6.225,0H2.1V47.608ZM25.159,16.773h4.193v2.1H25.159Zm6.29,4.193V16.773h6.29v4.193H33.546V35.642h-2.1V31.449H23.063v4.193h-6.29V16.773h6.29v4.193Zm12.58,2.1h4.193v2.1H44.029Zm6.29,4.193V23.063h6.29V39.836H51.367a3.1,3.1,0,0,0-1.048.193V35.642H35.642V23.063h6.29v4.193Zm4.193,14.676H58.7v2.1H54.512ZM44,55.56a5.175,5.175,0,0,0-7.306,1.081,5.175,5.175,0,0,0-7.306-1.081H18.869V37.739H48.222V55.56ZM29.352,35.642H25.159v-2.1h4.193ZM3.145,59.753A1.05,1.05,0,0,1,2.1,58.7V57.657H4.638a5.188,5.188,0,0,0-.444,2.1ZM9.435,62.9a3.145,3.145,0,1,1,3.145-3.145A3.149,3.149,0,0,1,9.435,62.9Zm4.8-5.242h2.541v2.1h-2.1A5.188,5.188,0,0,0,14.232,57.657Zm4.638,2.1v-2.1H27.7a5.188,5.188,0,0,0-.444,2.1ZM32.5,62.9a3.145,3.145,0,1,1,3.145-3.145A3.149,3.149,0,0,1,32.5,62.9Zm8.386,0a3.145,3.145,0,1,1,3.145-3.145A3.149,3.149,0,0,1,40.884,62.9Zm6.29-3.145H46.125a5.188,5.188,0,0,0-.444-2.1h2.541V58.7A1.05,1.05,0,0,1,47.174,59.753ZM58.7,54.512H54.512v-2.1H58.7ZM62.9,53.463a1.05,1.05,0,0,1-1.048,1.048H60.8V50.319H52.415v4.193H51.367a1.05,1.05,0,0,1-1.048-1.048V42.98a1.05,1.05,0,0,1,1.048-1.048h1.048v4.193H60.8V41.932H61.85A1.05,1.05,0,0,1,62.9,42.98ZM60.8,39.836H58.7V20.966H39.836v-6.29H14.676V37.739h2.1v3.145H12.58V12.58H60.8Zm0,0"/>
    <path id="Trazado_151043" data-name="Trazado 151043" d="M200,304v13.628h14.676V304Zm12.58,11.531H202.1V306.1H212.58Zm0,0" transform="translate(-173.792 -264.164)"/>
    <path id="Trazado_151044" data-name="Trazado 151044" d="M112,48h44.029v2.1H112Zm0,0" transform="translate(-97.324 -41.71)"/>
  </g>
  <g id="XMLID_1487_" transform="translate(43.625 23.247)">
    <path id="XMLID_1492_" d="M168.384,113.883H155.608a1.957,1.957,0,1,1,0-3.914h12.775a1.957,1.957,0,1,1,0,3.914Z" transform="translate(-146.166 -101.001)" fill="#c6563d"/>
    <path id="XMLID_1491_" d="M90.668,186.021H83.245a11.278,11.278,0,0,1-9.508-17.343l6.831-10.709H93.344l6.831,10.709A11.278,11.278,0,0,1,90.668,186.021Z" transform="translate(-71.126 -145.087)" fill="#ffba5b"/>
    <path id="XMLID_1489_" d="M151.509,10.68a2.406,2.406,0,0,1,3.4,0l.006.006a2.406,2.406,0,0,0,3.4.006l.024-.024a2.406,2.406,0,0,1,3.4.006l.006.006a2.406,2.406,0,0,0,3.4,0,2.406,2.406,0,0,1,3.4,0l-2.129,7.444H153.643Z" transform="translate(-144.198 -9.156)" fill="#ffba5b"/>
    <g id="XMLID_1153_" transform="translate(0 0)">
      <path id="XMLID_1329_" d="M91.594,23.152,85.36,13.38A2.771,2.771,0,0,0,85.1,8.35l1.888-6.6a.816.816,0,0,0-.207-.8,3.225,3.225,0,0,0-4.556,0,1.58,1.58,0,0,1-1.125.466A1.582,1.582,0,0,1,79.975.945l0,0A3.228,3.228,0,0,0,75.422.933L75.4.957a1.594,1.594,0,0,1-2.246,0L73.147.947a3.225,3.225,0,0,0-4.556,0,.816.816,0,0,0-.207.8l1.893,6.6a2.771,2.771,0,0,0-.262,5.032L63.78,23.152a12.093,12.093,0,0,0,10.2,18.6H81.4a12.093,12.093,0,0,0,10.2-18.6ZM71.994,2.1,72,2.106a3.228,3.228,0,0,0,4.549.007l.023-.023A1.594,1.594,0,0,1,78.82,2.1l0,0a3.225,3.225,0,0,0,4.556,0,1.594,1.594,0,0,1,1.89-.27L83.462,8.152H71.916L70.1,1.83a1.594,1.594,0,0,1,1.89.27ZM90.572,34.685A10.326,10.326,0,0,1,81.4,40.117H73.976a10.462,10.462,0,0,1-8.82-16.089L71.746,13.7h2.271a.815.815,0,0,0,0-1.631H71.3a1.142,1.142,0,1,1,0-2.283H84.075a1.142,1.142,0,1,1,0,2.283H81.357a.815.815,0,0,0,0,1.631h2.271l6.591,10.332a10.326,10.326,0,0,1,.354,10.656Z" transform="translate(-61.857 0.001)"/>
      <path id="XMLID_1341_" d="M213.887,245.2c-.2-.072-.413-.148-.622-.226v-3.7a3.351,3.351,0,0,1,.938.438.815.815,0,0,0,.981-1.3,4.98,4.98,0,0,0-1.919-.812v-.812a.815.815,0,0,0-1.631,0v.806a4.208,4.208,0,0,0-.42.1,3.266,3.266,0,0,0-2.239,2.561,2.88,2.88,0,0,0,.943,2.839,7.855,7.855,0,0,0,1.716.975V250.8a3.26,3.26,0,0,1-1.788-.655.815.815,0,0,0-.893,1.365,4.813,4.813,0,0,0,2.681.922v.843a.815.815,0,1,0,1.631,0v-.928a3.931,3.931,0,0,0,3-3.2A3.449,3.449,0,0,0,213.887,245.2Zm-2.962-1.385a1.271,1.271,0,0,1-.347-1.253,1.661,1.661,0,0,1,1.056-1.285v2.986A4.879,4.879,0,0,1,210.924,243.81Zm3.728,5.062a2.338,2.338,0,0,1-1.388,1.767v-3.934l.079.028A1.845,1.845,0,0,1,214.653,248.872Z" transform="translate(-196.619 -218.565)"/>
      <path id="XMLID_1343_" d="M246.8,149.6a.816.816,0,1,0-.577-.239A.822.822,0,0,0,246.8,149.6Z" transform="translate(-230.97 -135.903)"/>
    </g>
  </g>
</svg>
