<svg id="Grupo_902691" data-name="Grupo 902691" xmlns="http://www.w3.org/2000/svg" width="75.286" height="64.273" viewBox="0 0 75.286 64.273">
  <g id="caja" transform="translate(36.946 32.137)">
    <g id="Grupo_81942" data-name="Grupo 81942" transform="translate(0.722 0.722)">
      <path id="Trazado_116233" data-name="Trazado 116233" d="M116.849,111.318l6.686-4.855V95.43h-6.686" transform="translate(-109.139 -91.67)" fill="#d1a184"/>
      <g id="Grupo_81935" data-name="Grupo 81935" transform="translate(7.71 20.772)">
        <path id="Trazado_116234" data-name="Trazado 116234" d="M116.849,336.036v1.307h6.686v-6.162Z" transform="translate(-116.849 -331.181)" fill="#d1a184"/>
      </g>
      <g id="Grupo_81936" data-name="Grupo 81936">
        <path id="Trazado_116235" data-name="Trazado 116235" d="M10,43.325H45.5v3.76H10Z" transform="translate(-10 -43.325)" fill="#fff2a0"/>
        <path id="Trazado_116236" data-name="Trazado 116236" d="M10,416.57H45.5v3.76H10Z" transform="translate(-10 -389.637)" fill="#fff2a0"/>
      </g>
      <g id="Grupo_81937" data-name="Grupo 81937" transform="translate(1.024 3.76)">
        <path id="Trazado_116237" data-name="Trazado 116237" d="M91.9,399.764h1.8v-1.307Z" transform="translate(-87.018 -376.591)" fill="#ddb9a3"/>
        <path id="Trazado_116238" data-name="Trazado 116238" d="M30.876,95.43H24.19v20.743l6.686-4.855" transform="translate(-24.19 -95.43)" fill="#ddb9a3"/>
      </g>
      <g id="Grupo_81938" data-name="Grupo 81938" transform="translate(14.397 3.76)">
        <path id="Trazado_116239" data-name="Trazado 116239" d="M216.194,101.609V95.43h-6.686v11.033Z" transform="translate(-209.508 -95.43)" fill="#ddb9a3"/>
        <path id="Trazado_116240" data-name="Trazado 116240" d="M209.508,268.758v6.162h6.686V263.9Z" transform="translate(-209.508 -251.746)" fill="#ddb9a3"/>
      </g>
      <g id="Grupo_81940" data-name="Grupo 81940" transform="translate(21.083 3.76)">
        <path id="Trazado_116241" data-name="Trazado 116241" d="M302.167,201.481V212.5h6.686V196.626Z" transform="translate(-302.167 -189.324)" fill="#d1a184"/>
        <g id="Grupo_81939" data-name="Grupo 81939">
          <path id="Trazado_116242" data-name="Trazado 116242" d="M308.853,96.754V95.43h-6.686v6.179Z" transform="translate(-302.167 -95.43)" fill="#d1a184"/>
        </g>
      </g>
      <g id="Grupo_81941" data-name="Grupo 81941" transform="translate(27.792 3.76)">
        <path id="Trazado_116243" data-name="Trazado 116243" d="M396.95,95.43h-1.8v1.307Z" transform="translate(-395.15 -95.43)" fill="#ddb9a3"/>
        <path id="Trazado_116244" data-name="Trazado 116244" d="M395.15,133.968v15.888h6.686V129.113Z" transform="translate(-395.15 -126.682)" fill="#ddb9a3"/>
      </g>
      <path id="Trazado_116245" data-name="Trazado 116245" d="M57.645,95.43v2.431l-6.686,4.854L30.876,117.3l-1.8,1.307H24.19v-2.431l6.686-4.854L50.959,96.737l1.8-1.307Z" transform="translate(-23.166 -91.67)" fill="#fff7bf"/>
    </g>
    <g id="Grupo_81943" data-name="Grupo 81943" transform="translate(0 0)">
      <path id="Trazado_116246" data-name="Trazado 116246" d="M36.224,38.528a.722.722,0,0,0,.722-.722v-3.76a.722.722,0,0,0-.722-.722H.722A.722.722,0,0,0,0,34.047v3.76a.722.722,0,0,0,.722.722h.3v21.73h-.3A.722.722,0,0,0,0,60.98v3.76a.722.722,0,0,0,.722.722h35.5a.722.722,0,0,0,.722-.722V60.98a.722.722,0,0,0-.722-.722h-.3V38.528ZM35.5,64.018H1.443V61.7H35.5ZM8.432,43.9a.722.722,0,0,0,.722-.722V38.528H14.4v9.944L9.154,52.279V49.7a.722.722,0,0,0-1.443,0v3.622L2.467,57.133V38.528H7.71v4.653A.722.722,0,0,0,8.432,43.9Zm22.117-5.374h3.93v1.341L6.4,60.258H2.467V58.917Zm-14.709,8.9v-8.9h5.243v5.089Zm6.686-4.855V38.528h5.266v.217Zm11.953-.916V60.258H29.236V45.46Zm-6.71,4.871V60.258H22.526V50.331Zm-6.686,4.855v8.879H15.84V55.186ZM14.4,56.234v4.024H9.154v-.217ZM35.5,37.085H1.443V34.768H35.5Z" transform="translate(0 -33.325)" fill="#12263f"/>
      <path id="Trazado_116247" data-name="Trazado 116247" d="M107.1,206.541a.721.721,0,1,0-.076-.93.729.729,0,0,0,.076.93Z" transform="translate(-99.173 -192.9)" fill="#12263f"/>
    </g>
  </g>
  <g id="Grupo_899796" data-name="Grupo 899796" transform="translate(0 0)">
    <g id="caja-2" data-name="caja" transform="translate(0 32.137)">
      <g id="Grupo_81942-2" data-name="Grupo 81942" transform="translate(0.722 0.722)">
        <path id="Trazado_116233-2" data-name="Trazado 116233" d="M116.849,111.318l6.686-4.855V95.43h-6.686" transform="translate(-109.139 -91.67)" fill="#d1a184"/>
        <g id="Grupo_81935-2" data-name="Grupo 81935" transform="translate(7.71 20.772)">
          <path id="Trazado_116234-2" data-name="Trazado 116234" d="M116.849,336.036v1.307h6.686v-6.162Z" transform="translate(-116.849 -331.181)" fill="#d1a184"/>
        </g>
        <g id="Grupo_81936-2" data-name="Grupo 81936">
          <path id="Trazado_116235-2" data-name="Trazado 116235" d="M10,43.325H45.5v3.76H10Z" transform="translate(-10 -43.325)" fill="#fff2a0"/>
          <path id="Trazado_116236-2" data-name="Trazado 116236" d="M10,416.57H45.5v3.76H10Z" transform="translate(-10 -389.637)" fill="#fff2a0"/>
        </g>
        <g id="Grupo_81937-2" data-name="Grupo 81937" transform="translate(1.024 3.76)">
          <path id="Trazado_116237-2" data-name="Trazado 116237" d="M91.9,399.764h1.8v-1.307Z" transform="translate(-87.018 -376.591)" fill="#ddb9a3"/>
          <path id="Trazado_116238-2" data-name="Trazado 116238" d="M30.876,95.43H24.19v20.743l6.686-4.855" transform="translate(-24.19 -95.43)" fill="#ddb9a3"/>
        </g>
        <g id="Grupo_81938-2" data-name="Grupo 81938" transform="translate(14.397 3.76)">
          <path id="Trazado_116239-2" data-name="Trazado 116239" d="M216.194,101.609V95.43h-6.686v11.033Z" transform="translate(-209.508 -95.43)" fill="#ddb9a3"/>
          <path id="Trazado_116240-2" data-name="Trazado 116240" d="M209.508,268.758v6.162h6.686V263.9Z" transform="translate(-209.508 -251.746)" fill="#ddb9a3"/>
        </g>
        <g id="Grupo_81940-2" data-name="Grupo 81940" transform="translate(21.083 3.76)">
          <path id="Trazado_116241-2" data-name="Trazado 116241" d="M302.167,201.481V212.5h6.686V196.626Z" transform="translate(-302.167 -189.324)" fill="#d1a184"/>
          <g id="Grupo_81939-2" data-name="Grupo 81939">
            <path id="Trazado_116242-2" data-name="Trazado 116242" d="M308.853,96.754V95.43h-6.686v6.179Z" transform="translate(-302.167 -95.43)" fill="#d1a184"/>
          </g>
        </g>
        <g id="Grupo_81941-2" data-name="Grupo 81941" transform="translate(27.792 3.76)">
          <path id="Trazado_116243-2" data-name="Trazado 116243" d="M396.95,95.43h-1.8v1.307Z" transform="translate(-395.15 -95.43)" fill="#ddb9a3"/>
          <path id="Trazado_116244-2" data-name="Trazado 116244" d="M395.15,133.968v15.888h6.686V129.113Z" transform="translate(-395.15 -126.682)" fill="#ddb9a3"/>
        </g>
        <path id="Trazado_116245-2" data-name="Trazado 116245" d="M57.645,95.43v2.431l-6.686,4.854L30.876,117.3l-1.8,1.307H24.19v-2.431l6.686-4.854L50.959,96.737l1.8-1.307Z" transform="translate(-23.166 -91.67)" fill="#fff7bf"/>
      </g>
      <g id="Grupo_81943-2" data-name="Grupo 81943" transform="translate(0 0)">
        <path id="Trazado_116246-2" data-name="Trazado 116246" d="M36.224,38.528a.722.722,0,0,0,.722-.722v-3.76a.722.722,0,0,0-.722-.722H.722A.722.722,0,0,0,0,34.047v3.76a.722.722,0,0,0,.722.722h.3v21.73h-.3A.722.722,0,0,0,0,60.98v3.76a.722.722,0,0,0,.722.722h35.5a.722.722,0,0,0,.722-.722V60.98a.722.722,0,0,0-.722-.722h-.3V38.528ZM35.5,64.018H1.443V61.7H35.5ZM8.432,43.9a.722.722,0,0,0,.722-.722V38.528H14.4v9.944L9.154,52.279V49.7a.722.722,0,0,0-1.443,0v3.622L2.467,57.133V38.528H7.71v4.653A.722.722,0,0,0,8.432,43.9Zm22.117-5.374h3.93v1.341L6.4,60.258H2.467V58.917Zm-14.709,8.9v-8.9h5.243v5.089Zm6.686-4.855V38.528h5.266v.217Zm11.953-.916V60.258H29.236V45.46Zm-6.71,4.871V60.258H22.526V50.331Zm-6.686,4.855v8.879H15.84V55.186ZM14.4,56.234v4.024H9.154v-.217ZM35.5,37.085H1.443V34.768H35.5Z" transform="translate(0 -33.325)" fill="#12263f"/>
        <path id="Trazado_116247-2" data-name="Trazado 116247" d="M107.1,206.541a.721.721,0,1,0-.076-.93.729.729,0,0,0,.076.93Z" transform="translate(-99.173 -192.9)" fill="#12263f"/>
      </g>
    </g>
    <g id="caja-3" data-name="caja" transform="translate(7.053 0)">
      <g id="Grupo_81942-3" data-name="Grupo 81942" transform="translate(0.722 0.722)">
        <path id="Trazado_116233-3" data-name="Trazado 116233" d="M116.849,111.318l6.686-4.855V95.43h-6.686" transform="translate(-109.139 -91.67)" fill="#d1a184"/>
        <g id="Grupo_81935-3" data-name="Grupo 81935" transform="translate(7.71 20.772)">
          <path id="Trazado_116234-3" data-name="Trazado 116234" d="M116.849,336.036v1.307h6.686v-6.162Z" transform="translate(-116.849 -331.181)" fill="#d1a184"/>
        </g>
        <g id="Grupo_81936-3" data-name="Grupo 81936">
          <path id="Trazado_116235-3" data-name="Trazado 116235" d="M10,43.325H45.5v3.76H10Z" transform="translate(-10 -43.325)" fill="#fff2a0"/>
          <path id="Trazado_116236-3" data-name="Trazado 116236" d="M10,416.57H45.5v3.76H10Z" transform="translate(-10 -389.637)" fill="#fff2a0"/>
        </g>
        <g id="Grupo_81937-3" data-name="Grupo 81937" transform="translate(1.024 3.76)">
          <path id="Trazado_116237-3" data-name="Trazado 116237" d="M91.9,399.764h1.8v-1.307Z" transform="translate(-87.018 -376.591)" fill="#ddb9a3"/>
          <path id="Trazado_116238-3" data-name="Trazado 116238" d="M30.876,95.43H24.19v20.743l6.686-4.855" transform="translate(-24.19 -95.43)" fill="#ddb9a3"/>
        </g>
        <g id="Grupo_81938-3" data-name="Grupo 81938" transform="translate(14.397 3.76)">
          <path id="Trazado_116239-3" data-name="Trazado 116239" d="M216.194,101.609V95.43h-6.686v11.033Z" transform="translate(-209.508 -95.43)" fill="#ddb9a3"/>
          <path id="Trazado_116240-3" data-name="Trazado 116240" d="M209.508,268.758v6.162h6.686V263.9Z" transform="translate(-209.508 -251.746)" fill="#ddb9a3"/>
        </g>
        <g id="Grupo_81940-3" data-name="Grupo 81940" transform="translate(21.083 3.76)">
          <path id="Trazado_116241-3" data-name="Trazado 116241" d="M302.167,201.481V212.5h6.686V196.626Z" transform="translate(-302.167 -189.324)" fill="#d1a184"/>
          <g id="Grupo_81939-3" data-name="Grupo 81939">
            <path id="Trazado_116242-3" data-name="Trazado 116242" d="M308.853,96.754V95.43h-6.686v6.179Z" transform="translate(-302.167 -95.43)" fill="#d1a184"/>
          </g>
        </g>
        <g id="Grupo_81941-3" data-name="Grupo 81941" transform="translate(27.792 3.76)">
          <path id="Trazado_116243-3" data-name="Trazado 116243" d="M396.95,95.43h-1.8v1.307Z" transform="translate(-395.15 -95.43)" fill="#ddb9a3"/>
          <path id="Trazado_116244-3" data-name="Trazado 116244" d="M395.15,133.968v15.888h6.686V129.113Z" transform="translate(-395.15 -126.682)" fill="#ddb9a3"/>
        </g>
        <path id="Trazado_116245-3" data-name="Trazado 116245" d="M57.645,95.43v2.431l-6.686,4.854L30.876,117.3l-1.8,1.307H24.19v-2.431l6.686-4.854L50.959,96.737l1.8-1.307Z" transform="translate(-23.166 -91.67)" fill="#fff7bf"/>
      </g>
      <g id="Grupo_81943-3" data-name="Grupo 81943">
        <path id="Trazado_116246-3" data-name="Trazado 116246" d="M36.224,38.528a.722.722,0,0,0,.722-.722v-3.76a.722.722,0,0,0-.722-.722H.722A.722.722,0,0,0,0,34.047v3.76a.722.722,0,0,0,.722.722h.3v21.73h-.3A.722.722,0,0,0,0,60.98v3.76a.722.722,0,0,0,.722.722h35.5a.722.722,0,0,0,.722-.722V60.98a.722.722,0,0,0-.722-.722h-.3V38.528ZM35.5,64.018H1.443V61.7H35.5ZM8.432,43.9a.722.722,0,0,0,.722-.722V38.528H14.4v9.944L9.154,52.279V49.7a.722.722,0,0,0-1.443,0v3.622L2.467,57.133V38.528H7.71v4.653A.722.722,0,0,0,8.432,43.9Zm22.117-5.374h3.93v1.341L6.4,60.258H2.467V58.917Zm-14.709,8.9v-8.9h5.243v5.089Zm6.686-4.855V38.528h5.266v.217Zm11.953-.916V60.258H29.236V45.46Zm-6.71,4.871V60.258H22.526V50.331Zm-6.686,4.855v8.879H15.84V55.186ZM14.4,56.234v4.024H9.154v-.217ZM35.5,37.085H1.443V34.768H35.5Z" transform="translate(0 -33.325)" fill="#12263f"/>
        <path id="Trazado_116247-3" data-name="Trazado 116247" d="M107.1,206.541a.721.721,0,1,0-.076-.93.729.729,0,0,0,.076.93Z" transform="translate(-99.173 -192.9)" fill="#12263f"/>
      </g>
    </g>
    <g id="XMLID_1487_" transform="translate(42.587 21.156)">
      <path id="XMLID_1492_" d="M168.867,114.012H155.672a2.021,2.021,0,1,1,0-4.043h13.194a2.021,2.021,0,1,1,0,4.043Z" transform="translate(-145.92 -100.707)" fill="#c6563d"/>
      <path id="XMLID_1491_" d="M91.282,186.94H83.615a11.647,11.647,0,0,1-9.82-17.911l7.055-11.06H94.046l7.055,11.06A11.647,11.647,0,0,1,91.282,186.94Z" transform="translate(-71.099 -144.665)" fill="#ffba5b"/>
      <path id="XMLID_1489_" d="M151.509,10.7a2.485,2.485,0,0,1,3.515,0l.006.006a2.485,2.485,0,0,0,3.508.006l.025-.025a2.485,2.485,0,0,1,3.508.006l.006.006a2.485,2.485,0,0,0,3.515,0,2.485,2.485,0,0,1,3.515,0l-2.2,7.688H153.713Z" transform="translate(-143.959 -9.13)" fill="#ffba5b"/>
      <g id="XMLID_1153_" transform="translate(0 0)">
        <path id="XMLID_1329_" d="M92.569,23.911,86.13,13.818a2.862,2.862,0,0,0-.266-5.195L87.815,1.8A.842.842,0,0,0,87.6.978a3.331,3.331,0,0,0-4.706,0,1.632,1.632,0,0,1-1.162.481A1.634,1.634,0,0,1,80.569.976l0,0a3.334,3.334,0,0,0-4.7-.008l-.024.024a1.646,1.646,0,0,1-2.319,0L73.517.978a3.331,3.331,0,0,0-4.706,0,.843.843,0,0,0-.214.828l1.955,6.817a2.862,2.862,0,0,0-.271,5.2L63.843,23.911A12.489,12.489,0,0,0,74.373,43.117h7.666a12.49,12.49,0,0,0,10.53-19.206ZM72.326,2.169l.006.006a3.334,3.334,0,0,0,4.7.008l.024-.024a1.647,1.647,0,0,1,2.321.006l0,0a3.331,3.331,0,0,0,4.706,0,1.646,1.646,0,0,1,1.952-.279L84.171,8.419H72.246L70.374,1.89a1.646,1.646,0,0,1,1.952.279ZM91.514,35.822a10.664,10.664,0,0,1-9.475,5.611H74.373a10.805,10.805,0,0,1-9.109-16.616L72.07,14.146h2.346a.842.842,0,0,0,0-1.684H71.609a1.179,1.179,0,1,1,0-2.358H84.8a1.179,1.179,0,1,1,0,2.358H82a.842.842,0,0,0,0,1.684h2.346l6.807,10.671a10.664,10.664,0,0,1,.365,11.005Z" transform="translate(-61.857 0.001)"/>
        <path id="XMLID_1341_" d="M214.061,245.433c-.211-.075-.427-.152-.643-.233v-3.817a3.46,3.46,0,0,1,.969.452.842.842,0,0,0,1.013-1.346,5.144,5.144,0,0,0-1.982-.839v-.838a.842.842,0,0,0-1.684,0v.832a4.35,4.35,0,0,0-.434.106,3.373,3.373,0,0,0-2.312,2.645,2.974,2.974,0,0,0,.974,2.932,8.113,8.113,0,0,0,1.772,1.007v4.884a3.367,3.367,0,0,1-1.846-.677.842.842,0,0,0-.922,1.41,4.971,4.971,0,0,0,2.769.953v.871a.842.842,0,0,0,1.684,0v-.958a4.06,4.06,0,0,0,3.095-3.308A3.562,3.562,0,0,0,214.061,245.433ZM211,244a1.312,1.312,0,0,1-.358-1.294,1.715,1.715,0,0,1,1.091-1.327v3.084A5.038,5.038,0,0,1,211,244Zm3.851,5.228a2.414,2.414,0,0,1-1.434,1.824v-4.063l.081.029A1.906,1.906,0,0,1,214.852,249.23Z" transform="translate(-196.227 -217.928)"/>
        <path id="XMLID_1343_" d="M246.827,149.653a.842.842,0,1,0-.6-.247.849.849,0,0,0,.6.247Z" transform="translate(-230.478 -135.507)"/>
      </g>
    </g>
  </g>
</svg>
