<svg xmlns="http://www.w3.org/2000/svg" width="117.512" height="117.512" viewBox="0 0 117.512 117.512">
  <g id="transporte" transform="translate(0)">
    <path id="Trazado_126457" data-name="Trazado 126457" d="M67.254,285.544,63.336,264H35.917L32,285.544l17.627-5.876Z" transform="translate(-24.166 -199.368)" fill="#f7ec2f"/>
    <path id="Trazado_126458" data-name="Trazado 126458" d="M23.03,363.254c4.244,0,4.244-3.917,8.488-3.917s4.24,3.917,8.48,3.917c3.42,0,4.111-2.519,6.463-3.506L55,335.834,31.5,328,8,335.834l8.537,23.908c2.372.979,3.059,3.512,6.493,3.512Z" transform="translate(-6.042 -247.7)" fill="#3f4e56"/>
    <path id="Trazado_126459" data-name="Trazado 126459" d="M166.892,94.475A22.079,22.079,0,0,0,151.272,88H88L99.751,99.759l72.466.043Z" transform="translate(-66.456 -66.456)" fill="#f5fafc"/>
    <path id="Trazado_126460" data-name="Trazado 126460" d="M209.208,136.817l-.742-.742L136,136.032l.484.484a25.051,25.051,0,0,0,17.717,7.342h3.539l1.739-3.917h11.743l-2.74,3.917h37.809a4.125,4.125,0,0,0,2.916-7.041Z" transform="translate(-102.705 -102.729)" fill="#1493b0"/>
    <path id="Trazado_126461" data-name="Trazado 126461" d="M88,232h7.834v7.834H88Z" transform="translate(-66.456 -175.203)" fill="#ed4720"/>
    <path id="Trazado_126462" data-name="Trazado 126462" d="M232,304v35.254h9.793a5.876,5.876,0,0,1,11.751,0h17.627V304Z" transform="translate(-175.203 -229.576)" fill="#d3d3d3"/>
    <circle id="Elipse_4191" data-name="Elipse 4191" cx="5.578" cy="5.578" r="5.578" transform="translate(66.937 104.124)" fill="#3f4e56"/>
    <path id="Trazado_126463" data-name="Trazado 126463" d="M405.71,336H392v27.419a5.876,5.876,0,1,1,11.751,0h7.834V347.751Z" transform="translate(-296.032 -253.742)" fill="#55d5f2"/>
    <ellipse id="Elipse_4192" data-name="Elipse 4192" cx="6.694" cy="5.578" rx="6.694" ry="5.578" transform="translate(95.943 104.124)" fill="#3f4e56"/>
    <g id="Grupo_86883" data-name="Grupo 86883" transform="translate(21.544 1.959)">
      <path id="Trazado_126464" data-name="Trazado 126464" d="M97.793,8H88V27.585h15.668Z" transform="translate(-88 -8)" fill="#55d5f2"/>
      <path id="Trazado_126465" data-name="Trazado 126465" d="M216,24l3.917,15.668h11.751L221.876,24Z" transform="translate(-184.663 -20.083)" fill="#55d5f2"/>
      <path id="Trazado_126466" data-name="Trazado 126466" d="M207.764,152l-7.828,17.627,5.872,1.959L219.51,152Z" transform="translate(-172.532 -116.746)" fill="#55d5f2"/>
    </g>
    <path id="Trazado_126467" data-name="Trazado 126467" d="M50.922,455.834a7.593,7.593,0,0,1-5.57-2.478c-.971-.9-1.559-1.439-2.912-1.439s-1.941.541-2.91,1.438a7.5,7.5,0,0,1-11.14,0c-.969-.9-1.557-1.438-2.91-1.438s-1.945.543-2.916,1.439a7.511,7.511,0,0,1-11.15,0c-.971-.9-1.559-1.439-2.918-1.439s-1.947.543-2.92,1.439A7.6,7.6,0,0,1,0,455.834v-3.917c1.357,0,1.947-.543,2.92-1.44a7.511,7.511,0,0,1,11.15,0c.973.9,1.561,1.44,2.918,1.44s1.943-.541,2.916-1.44a7.5,7.5,0,0,1,11.144,0c.969.9,1.555,1.438,2.91,1.438s1.941-.541,2.91-1.438a7.5,7.5,0,0,1,11.14,0c.971.9,1.559,1.44,2.912,1.44v3.917Z" transform="translate(0 -338.322)" fill="#1493b0"/>
    <path id="Trazado_126468" data-name="Trazado 126468" d="M424,336v11.751h11.751L429.876,336Z" transform="translate(-320.198 -253.742)" fill="#f5fafc"/>
    <path id="Trazado_126469" data-name="Trazado 126469" d="M12.062,279.759l-7.587-21.24,19.027-6.34v26.914a7.806,7.806,0,0,1,3.917-.01v-26.9l19.027,6.342-7.589,21.252a6.909,6.909,0,0,1,3.582-.934,7.945,7.945,0,0,1,.889.055l7.478-20.941a1.96,1.96,0,0,0-1.226-2.517l-4.775-1.592-3.709-20.4a1.957,1.957,0,0,0-1.925-1.608H31.336v-5.876A1.959,1.959,0,0,0,29.378,224H21.544a1.959,1.959,0,0,0-1.959,1.959v5.876H11.751a1.961,1.961,0,0,0-1.927,1.608l-3.709,20.4L1.34,255.436a1.96,1.96,0,0,0-1.226,2.517l7.48,20.941a8.191,8.191,0,0,1,.9-.055,6.943,6.943,0,0,1,3.568.921ZM23.5,227.917h3.917v3.917H23.5Zm-1.959,7.834H37.537l3.032,16.681L26.082,247.6a1.989,1.989,0,0,0-.621-.1,1.968,1.968,0,0,0-.619.1l-14.487,4.83,3.03-16.681Z" transform="translate(0 -169.161)"/>
    <path id="Trazado_126470" data-name="Trazado 126470" d="M80.129,22.184c.022.061.037.123.065.182a1.921,1.921,0,0,0,.38.564L92.809,35.171a26.834,26.834,0,0,0,19.1,7.916h.527L107.57,54.044a1.959,1.959,0,0,0,1.171,2.654l5.872,1.959a2,2,0,0,0,.621.1,1.957,1.957,0,0,0,1.6-.836l10.376-14.832h36.791A6.084,6.084,0,0,0,168.3,32.7l-6.068-6.071a23.892,23.892,0,0,0-17.006-7.047H130.05L120.833,4.838a1.966,1.966,0,0,0-1.663-.921H113.3a1.96,1.96,0,0,0-1.9,2.434L114.7,19.585H99.084L93.627,1.4A1.961,1.961,0,0,0,91.751,0H81.959A1.959,1.959,0,0,0,80,1.959V21.544c0,.043.022.078.023.121A1.972,1.972,0,0,0,80.129,22.184ZM83.917,3.917h6.377l4.7,15.668H83.917Zm34.169,3.917,7.344,11.751h-6.688L115.8,7.834ZM117.212,23.5h28.019a19.948,19.948,0,0,1,11.894,3.917H142.673v3.917H161.4l2.006,2.007,2.129,2.129a2.165,2.165,0,0,1-1.528,3.7H129.954l.584-.836a1.959,1.959,0,0,0-1.6-3.081H117.191a2.074,2.074,0,0,0-1.79,1.163l-1.222,2.754h-2.266A22.893,22.893,0,0,1,96.575,33.3c-.333-.3-.676-.584-.993-.9l-8.9-8.9h30.528Zm-5.184,30.161,6.438-14.493h6.71L114.468,54.477Z" transform="translate(-60.415)"/>
    <path id="Trazado_126471" data-name="Trazado 126471" d="M72,288H87.668v3.917H72Z" transform="translate(-54.373 -217.493)"/>
    <path id="Trazado_126472" data-name="Trazado 126472" d="M176,112h3.915v3.917H176Z" transform="translate(-132.912 -84.581)"/>
    <path id="Trazado_126473" data-name="Trazado 126473" d="M208,112h3.915v3.917H208Z" transform="translate(-157.078 -84.581)"/>
    <path id="Trazado_126474" data-name="Trazado 126474" d="M240,112h3.915v3.917H240Z" transform="translate(-181.244 -84.581)"/>
    <path id="Trazado_126475" data-name="Trazado 126475" d="M272,112h3.915v3.917H272Z" transform="translate(-205.41 -84.581)"/>
    <path id="Trazado_126476" data-name="Trazado 126476" d="M304.008,112h3.915v3.917h-3.915Z" transform="translate(-229.582 -84.581)"/>
    <path id="Trazado_126477" data-name="Trazado 126477" d="M286.467,316.668l-5.876-11.751a1.961,1.961,0,0,0-1.753-1.083H267.088v-5.876A1.959,1.959,0,0,0,265.129,296H225.959A1.959,1.959,0,0,0,224,297.959v35.254a1.959,1.959,0,0,0,1.959,1.959h8.112a7.8,7.8,0,0,0,15.112,0h14.266a7.8,7.8,0,0,0,15.112,0h6.154a1.959,1.959,0,0,0,1.958-1.959V317.544c0-.022-.014-.039-.014-.061a1.98,1.98,0,0,0-.192-.815Zm-8.153,13.794c-.045-.117-.074-.241-.123-.355a7.748,7.748,0,0,0-.672-1.234c-.057-.084-.127-.157-.186-.239a8.233,8.233,0,0,0-.7-.846c-.114-.118-.239-.223-.36-.333a8.319,8.319,0,0,0-.7-.582c-.145-.1-.294-.2-.445-.3a7.773,7.773,0,0,0-.785-.427c-.161-.076-.319-.153-.486-.217a7.724,7.724,0,0,0-.928-.288c-.151-.039-.3-.088-.452-.118a7.616,7.616,0,0,0-1.471-.151,7.749,7.749,0,0,0-1.406.143c-.112.02-.219.041-.329.067a7.663,7.663,0,0,0-1.3.405c-.018.008-.031.018-.049.024a7.791,7.791,0,0,0-.83.413V307.751h3.917v9.793a1.959,1.959,0,0,0,1.958,1.959h9.793v11.751h-4.164a8.212,8.212,0,0,0-.28-.791ZM271,337.129a3.917,3.917,0,1,1,3.917-3.917A3.921,3.921,0,0,1,271,337.129Zm-22.069-6.667c-.045-.117-.074-.241-.123-.355a7.744,7.744,0,0,0-.672-1.234c-.057-.084-.127-.157-.186-.239a8.241,8.241,0,0,0-.7-.846c-.114-.118-.239-.223-.36-.333a8.308,8.308,0,0,0-.7-.582c-.145-.1-.294-.2-.445-.3a7.767,7.767,0,0,0-.785-.427c-.161-.076-.319-.153-.486-.217a7.725,7.725,0,0,0-.928-.288c-.151-.039-.3-.088-.452-.118a7.616,7.616,0,0,0-1.471-.151,7.737,7.737,0,0,0-1.469.149c-.155.029-.3.08-.452.117a7.869,7.869,0,0,0-.928.288c-.166.065-.325.141-.486.217a7.81,7.81,0,0,0-.785.427c-.153.094-.3.19-.445.3a7.144,7.144,0,0,0-.7.582c-.121.112-.247.215-.36.333a7.793,7.793,0,0,0-.7.846c-.059.082-.131.155-.186.239a7.736,7.736,0,0,0-.672,1.234c-.049.116-.08.237-.123.354a7.874,7.874,0,0,0-.276.791h-6.126V299.917h35.254v31.337H249.214a7.692,7.692,0,0,0-.278-.791Zm-7.309,6.667a3.917,3.917,0,1,1,3.917-3.917A3.921,3.921,0,0,1,241.627,337.129Zm39.919-21.544h-6.624v-7.834h2.707Z" transform="translate(-169.161 -223.534)"/>
  </g>
</svg>
