<svg xmlns="http://www.w3.org/2000/svg" width="114.248" height="114.249" viewBox="0 0 114.248 114.249">
  <g id="dolar-2" transform="translate(0 0.001)">
    <g id="Grupo_54008" data-name="Grupo 54008" transform="translate(1.674 1.656)">
      <g id="Grupo_54005" data-name="Grupo 54005" transform="translate(0 31.236)">
        <g id="Grupo_54004" data-name="Grupo 54004">
          <g id="Grupo_54002" data-name="Grupo 54002">
            <path id="Trazado_102148" data-name="Trazado 102148" d="M58.044,227.093H37.673a61.967,61.967,0,0,1,0-11.11A197.642,197.642,0,0,1,7.5,189.289c1.3-21.575,1.314-21.779.038-41.3-.013-.19-.025-.382-.038-.576,12.072,0,12.079,7.589,12.079,32.744l6.185,5.643h0c7.187-5.369,13.054,1.169,32.152,17.793A148.743,148.743,0,0,1,58.044,227.093Z" transform="translate(-7.5 -147.412)" fill="#ffe6c7"/>
            <path id="Trazado_102150" data-name="Trazado 102150" d="M49.729,209.842c.705-13.028,2.891-30.044-9.438-30.044H36v29.994Z" transform="translate(-29.642 -172.571)" fill="#ffe6c7"/>
          </g>
          <g id="Grupo_54003" data-name="Grupo 54003" transform="translate(59.956)">
            <path id="Trazado_102152" data-name="Trazado 102152" d="M276.594,227.093h20.37a61.963,61.963,0,0,0,0-11.11,197.656,197.656,0,0,0,30.173-26.694c-1.3-21.575-1.314-21.779-.038-41.3.013-.19.025-.382.038-.576-12.072,0-12.079,7.589-12.079,32.744l-6.185,5.643h0c-7.187-5.369-13.054,1.169-32.152,17.793A148.744,148.744,0,0,0,276.594,227.093Z" transform="translate(-276.193 -147.412)" fill="#ffe6c7"/>
            <path id="Trazado_102154" data-name="Trazado 102154" d="M412.363,209.842c-.705-13.028-2.891-30.044,9.438-30.044h4.289v29.994Z" transform="translate(-381.506 -172.571)" fill="#ffe6c7"/>
          </g>
        </g>
      </g>
      <g id="Grupo_54007" data-name="Grupo 54007" transform="translate(24.804)">
        <g id="Grupo_54006" data-name="Grupo 54006">
          <path id="Trazado_102156" data-name="Trazado 102156" d="M180.165,38.176a30.751,30.751,0,0,1-30.753,30.747q-1.409,0-2.789-.125a30.749,30.749,0,0,1,0-61.246q1.379-.124,2.789-.125A30.751,30.751,0,0,1,180.165,38.176Z" transform="translate(-118.659 -7.427)" fill="#ffba5b"/>
        </g>
        <path id="Trazado_102158" data-name="Trazado 102158" d="M203.128,70.392a21.51,21.51,0,1,1-21.5-21.5A21.5,21.5,0,0,1,203.128,70.392Z" transform="translate(-150.875 -39.643)" fill="#ffd69f"/>
        <path id="Trazado_102159" data-name="Trazado 102159" d="M241.979,49.14a21.487,21.487,0,0,1,3.236-.243C257.088,48.9,252.317,50.7,241.979,49.14Z" transform="translate(-214.461 -39.643)" fill="#c3b5ec"/>
      </g>
    </g>
    <g id="Grupo_54009" data-name="Grupo 54009" transform="translate(0 -0.001)">
      <path id="Trazado_102160" data-name="Trazado 102160" d="M368.679,426.841c-2.074,1.613-4.157,3.157-6.192,4.59a1.674,1.674,0,0,0-.7,1.534,60.313,60.313,0,0,1,0,10.745,1.674,1.674,0,0,0,1.478,1.849,1.713,1.713,0,0,0,.188.011,1.674,1.674,0,0,0,1.661-1.488,61.126,61.126,0,0,0,.084-10.469c1.827-1.3,3.686-2.69,5.536-4.129a1.673,1.673,0,0,0-2.055-2.642Z" transform="translate(-281.049 -331.321)"/>
      <path id="Trazado_102161" data-name="Trazado 102161" d="M322.974,183.759a377.994,377.994,0,0,1,0-41.613,1.674,1.674,0,0,0-1.67-1.783c-6.471,0-10.079,2.186-11.891,7.272a9.786,9.786,0,0,0-6.485,3.013c-4.88,5.189-4.217,15.952-3.633,25.448q.026.424.052.846a10.083,10.083,0,0,0-5.4.839c-4.509,1.872-9.785,6.5-18.524,14.176-1.776,1.56-3.613,3.172-5.632,4.927a1.675,1.675,0,0,0-.567,1.094,148.607,148.607,0,0,0-.129,23.768,1.674,1.674,0,0,0,1.667,1.546c.043,0,.086,0,.129,0a1.674,1.674,0,0,0,1.542-1.8,150.265,150.265,0,0,1,.064-22.524c1.826-1.59,3.506-3.065,5.135-4.5,16.307-14.317,20-17.229,25.939-11.449-2.322,2.063-7.521,6.623-13.415,11.4a1.674,1.674,0,0,0,2.108,2.6c8.023-6.5,14.773-12.61,14.84-12.671a1.673,1.673,0,0,0,.112-2.369q-.83-.908-1.631-1.651l4.771-4.356a1.673,1.673,0,0,0,.545-1.236c0-12.335,0-20.485,1.442-25.292,1.121-3.735,3.077-5.344,7.19-5.673a385.358,385.358,0,0,0,.062,39.481,200.252,200.252,0,0,1-17.1,16.315,1.673,1.673,0,1,0,2.166,2.552,198.72,198.72,0,0,0,17.893-17.15,1.673,1.673,0,0,0,.42-1.213ZM307.55,174l-4.665,4.259-.111-.066q-.066-1.138-.139-2.306c-.543-8.819-1.158-18.814,2.731-22.949a6.121,6.121,0,0,1,3.141-1.782C307.572,156.324,307.551,163.709,307.55,174Z" transform="translate(-208.729 -109.042)"/>
      <path id="Trazado_102162" data-name="Trazado 102162" d="M187.7,356.4c-2.019-1.755-3.855-3.367-5.631-4.926-2.21-1.94-4.3-3.773-6.159-5.369a1.674,1.674,0,0,0-2.179,2.541c1.846,1.583,3.831,3.326,6.13,5.344,1.629,1.43,3.309,2.9,5.135,4.495a150.284,150.284,0,0,1,.064,22.524,1.674,1.674,0,0,0,1.542,1.8c.043,0,.086,0,.129,0a1.674,1.674,0,0,0,1.667-1.546,148.567,148.567,0,0,0-.13-23.768,1.674,1.674,0,0,0-.567-1.094Z" transform="translate(-134.511 -268.563)"/>
      <path id="Trazado_102163" data-name="Trazado 102163" d="M34.808,181.241c-4.519-3.33-8.007-4.769-11.236-4.289q.029-.466.058-.937c.589-9.471,1.256-20.205-3.605-25.378a9.751,9.751,0,0,0-6.46-3c-1.812-5.086-5.42-7.272-11.891-7.272A1.673,1.673,0,0,0,0,142.036c0,.038,0,.075,0,.113,1.307,19.959,1.307,19.959,0,41.61a1.674,1.674,0,0,0,.42,1.213A201.743,201.743,0,0,0,30.1,211.332a61.129,61.129,0,0,0,.084,10.469,1.674,1.674,0,0,0,1.661,1.488,1.716,1.716,0,0,0,.188-.01,1.673,1.673,0,0,0,1.478-1.849,60.454,60.454,0,0,1,0-10.746,1.675,1.675,0,0,0-.7-1.534,198.61,198.61,0,0,1-29.424-25.9c1.237-20.485,1.263-21.338.078-39.48,4.1.331,6.053,1.941,7.173,5.671,1.442,4.807,1.442,12.956,1.442,25.292a1.674,1.674,0,0,0,.545,1.236l4.77,4.355q-.8.746-1.63,1.652a1.673,1.673,0,0,0,.112,2.369c.067.061,6.817,6.166,14.84,12.671a1.674,1.674,0,0,0,2.108-2.6c-5.891-4.776-11.089-9.334-13.412-11.4,1.984-1.917,3.625-2.772,5.317-2.811,2.039-.05,4.533,1.1,8.092,3.723a1.674,1.674,0,0,0,1.986-2.695Zm-14.519-5.433q-.076,1.222-.147,2.416l-.054.033L15.427,174c0-10.291-.022-17.676-.957-22.841a6.085,6.085,0,0,1,3.115,1.771C21.455,157.048,20.836,167.015,20.289,175.808Z" transform="translate(0 -109.041)"/>
      <path id="Trazado_102164" data-name="Trazado 102164" d="M157.316,71.769a1.674,1.674,0,1,0-3.12,1.212,23.169,23.169,0,1,0-1.563-8.378,1.674,1.674,0,1,0,3.347,0,19.764,19.764,0,1,1,1.336,7.166Z" transform="translate(-118.574 -32.197)"/>
      <path id="Trazado_102165" data-name="Trazado 102165" d="M176.013,32.406a32.158,32.158,0,0,0-6.129-18.962,1.673,1.673,0,1,0-2.712,1.961A29.086,29.086,0,1,1,143.586,3.347a29.13,29.13,0,0,1,18.559,6.686,1.674,1.674,0,0,0,2.137-2.577,32.4,32.4,0,1,0,11.732,24.949Z" transform="translate(-86.355 0)"/>
      <path id="Trazado_102166" data-name="Trazado 102166" d="M233.248,99.884a3.328,3.328,0,0,1-3.326-3.323,1.674,1.674,0,1,0-3.347,0,6.683,6.683,0,0,0,5,6.457v2.286a1.674,1.674,0,1,0,3.347,0v-2.286a6.67,6.67,0,0,0-1.674-13.127,3.323,3.323,0,1,1,3.326-3.323,1.674,1.674,0,1,0,3.347,0,6.683,6.683,0,0,0-5-6.457V77.826a1.674,1.674,0,1,0-3.347,0v2.286a6.67,6.67,0,0,0,1.674,13.127,3.323,3.323,0,1,1,0,6.645Z" transform="translate(-176.017 -59.159)"/>
    </g>
  </g>
</svg>
