<svg xmlns="http://www.w3.org/2000/svg" xmlns:xlink="http://www.w3.org/1999/xlink" width="172" height="172" viewBox="0 0 172 172">
  <defs>
    <filter id="Elipse_5849" x="0" y="0" width="172" height="172" filterUnits="userSpaceOnUse">
      <feOffset dy="3" input="SourceAlpha"/>
      <feGaussianBlur stdDeviation="3" result="blur"/>
      <feFlood flood-opacity="0.161"/>
      <feComposite operator="in" in2="blur"/>
      <feComposite in="SourceGraphic"/>
    </filter>
  </defs>
  <g id="Grupo_912291" data-name="Grupo 912291" transform="translate(987.717 5413.891)">
    <g transform="matrix(1, 0, 0, 1, -987.72, -5413.89)" filter="url(#Elipse_5849)">
      <circle id="Elipse_5849-2" data-name="Elipse 5849" cx="77" cy="77" r="77" transform="translate(9 6)" fill="#fff"/>
    </g>
    <g id="surface1" transform="translate(-942.21 -5377.863)">
      <path id="Trazado_140823" data-name="Trazado 140823" d="M112.062,343.524v-6h-22l-.22,1.76a14.48,14.48,0,0,1-28.74,0l-.22-1.76h-22v6H47.4a28.41,28.41,0,0,0,4,9.46l-6.2,6.2,8.54,8.48,6.2-6.2a28.242,28.242,0,0,0,9.46,4v8.74h12v-8.78a28.236,28.236,0,0,0,9.46-4l6.2,6.2,8.5-8.5-6.16-6.14a28.238,28.238,0,0,0,4-9.46Zm0,0" transform="translate(-32.05 -279.164)" fill="#ff7758"/>
      <path id="Trazado_140824" data-name="Trazado 140824" d="M89,55.266v-4a36,36,0,0,0-22.72-33.6l-2.74-1.1v-5H42.1v5.02l-2.739,1.1a36,36,0,0,0-22.72,33.6v4l-5.06,2.18v10.5h82.5V57.427Zm0,0" transform="translate(-9.47 -9.567)" fill="#194fa5"/>
      <path id="Trazado_140825" data-name="Trazado 140825" d="M85.352,46.02l-3.86-1.66V41.72a38,38,0,0,0-25.46-36V2a2,2,0,0,0-2-2h-21.4a2,2,0,0,0-2,2V5.74a38,38,0,0,0-25.46,36V44.4l-3.82,1.62a2,2,0,0,0-1.22,1.84v10.5a2,2,0,0,0,2,2h2.6v4a2,2,0,0,0,2,2h7.18a30.249,30.249,0,0,0,2.98,7.16l-5.08,5.08a2,2,0,0,0,0,2.821l8.5,8.5a2,2,0,0,0,2.82,0l5.08-5.08a30.181,30.181,0,0,0,7.14,2.98V95a2,2,0,0,0,2,2h12a2,2,0,0,0,2-2V87.82a30.165,30.165,0,0,0,7.16-2.98l5.08,5.08a2,2,0,0,0,2.82,0l8.5-8.5a2,2,0,0,0,0-2.821l-5.08-5.08a30.266,30.266,0,0,0,2.98-7.16h7.18a2,2,0,0,0,2-2v-4h2.6a2,2,0,0,0,2-2V47.86A2,2,0,0,0,85.352,46.02Zm-50.76-42h17.44V37.44h-17.4Zm43.42,58.34h-6.66a2,2,0,0,0-2,1.58,26.287,26.287,0,0,1-3.66,8.8,2,2,0,0,0,.26,2.5l4.781,4.78-5.72,5.68-4.78-4.781a2,2,0,0,0-2.5-.26,26.3,26.3,0,0,1-8.8,3.66,2,2,0,0,0-1.58,2V93.06h-8v-6.8a2,2,0,0,0-1.58-2,26.211,26.211,0,0,1-8.8-3.66,2,2,0,0,0-2.5.26l-4.78,4.78-5.66-5.66,4.78-4.78a2,2,0,0,0,.26-2.5,26.333,26.333,0,0,1-3.719-8.76,2,2,0,0,0-2-1.58H8.693v-2h18.28a16.48,16.48,0,0,0,32.72,0h18.3Zm-46.96-2h24.62a12.48,12.48,0,0,1-24.64,0Zm51.56-4H4.112V49.18l3.86-1.66a2,2,0,0,0,1.22-1.84v-4a34,34,0,0,1,21.44-31.7V39.44a2,2,0,0,0,2,2h21.44a2,2,0,0,0,2-2V9.98a34,34,0,0,1,21.46,31.74v4a2,2,0,0,0,1.22,1.84l3.86,1.66Zm0,0"/>
    </g>
  </g>
</svg>
