<svg id="logistica-2" xmlns="http://www.w3.org/2000/svg" width="114.801" height="114.801" viewBox="0 0 114.801 114.801">
  <path id="Trazado_151017" data-name="Trazado 151017" d="M160.878,8l7.407,11.11H72L79.406,8Zm0,0" transform="translate(-55.335 -6.148)" fill="#fcd770"/>
  <path id="Trazado_151018" data-name="Trazado 151018" d="M168.285,56v7.407H72V56Zm0,0" transform="translate(-55.335 -43.039)" fill="#ffeaa7"/>
  <path id="Trazado_151019" data-name="Trazado 151019" d="M176.878,88v51.846h-7.406V106.516H136.142V95.407H95.407v37.033h3.7V141.7H88V88Zm0,0" transform="translate(-67.632 -67.632)" fill="#ccd1d9"/>
  <path id="Trazado_151020" data-name="Trazado 151020" d="M191.549,309.626v5.555h-9.924a7.4,7.4,0,0,0-12.3,5.555,7.4,7.4,0,0,0-12.3-5.555H136V280h55.549Zm0,0" transform="translate(-104.522 -215.193)" fill="#ff826e"/>
  <path id="Trazado_151021" data-name="Trazado 151021" d="M22.813,344.071a7.406,7.406,0,0,0-4.889,1.852H8V329.258L17.258,320H37.626v25.923H27.7A7.371,7.371,0,0,0,22.813,344.071Zm0,0" transform="translate(-6.148 -245.935)" fill="#ff826e"/>
  <path id="Trazado_151022" data-name="Trazado 151022" d="M160.736,120v11.11h-7.406v25.923h-7.407v-7.406h-11.11v7.406H120V120h14.813v7.406h11.11V120Zm0,0" transform="translate(-92.226 -92.226)" fill="#d3a06c"/>
  <path id="Trazado_151023" data-name="Trazado 151023" d="M184,248h11.11v7.406H184Zm0,0" transform="translate(-141.413 -190.6)" fill="#e6e9ed"/>
  <path id="Trazado_151024" data-name="Trazado 151024" d="M184,120h11.11v7.406H184Zm0,0" transform="translate(-141.413 -92.226)" fill="#e6e9ed"/>
  <path id="Trazado_151025" data-name="Trazado 151025" d="M304.736,168v33.329h-11.11a3.714,3.714,0,0,0-3.7,3.7v-11.11H264V168h14.813v7.406h11.11V168Zm0,0" transform="translate(-202.896 -129.116)" fill="#cf9e76"/>
  <path id="Trazado_151026" data-name="Trazado 151026" d="M328,168h11.11v7.406H328Zm0,0" transform="translate(-252.083 -129.116)" fill="#e6e9ed"/>
  <path id="Trazado_151027" data-name="Trazado 151027" d="M398.22,312a3.714,3.714,0,0,1,3.7,3.7V334.22a3.714,3.714,0,0,1-3.7,3.7h-3.7v-7.407h-11.11v7.407h-3.7a3.714,3.714,0,0,1-3.7-3.7V315.7a3.714,3.714,0,0,1,3.7-3.7h3.7v7.407h11.11V312Zm0,0" transform="translate(-288.974 -239.787)" fill="#cf9e76"/>
  <g id="Grupo_86193" data-name="Grupo 86193" transform="translate(1.852 72.213)">
    <path id="Trazado_151028" data-name="Trazado 151028" d="M419.11,312v7.407H408V312Zm0,0" transform="translate(-315.419 -312)" fill="#e6e9ed"/>
    <path id="Trazado_151029" data-name="Trazado 151029" d="M408,392h11.11v7.406H408Zm0,0" transform="translate(-315.419 -373.484)" fill="#e6e9ed"/>
    <path id="Trazado_151030" data-name="Trazado 151030" d="M343.046,435.7a3.714,3.714,0,0,1-3.7,3.7h-3.7l-.222-.055a7.121,7.121,0,0,0,.222-1.8A7.374,7.374,0,0,0,333.121,432h9.924Zm0,0" transform="translate(-257.871 -404.226)" fill="#e6e9ed"/>
    <path id="Trazado_151031" data-name="Trazado 151031" d="M124.08,432H93.121a7.374,7.374,0,0,1,2.518,5.555,7.227,7.227,0,0,1-.222,1.8l.222.055h25.923l.222-.055a7.124,7.124,0,0,1-.222-1.8A7.375,7.375,0,0,1,124.08,432Zm0,0" transform="translate(-73.42 -404.226)" fill="#e6e9ed"/>
    <path id="Trazado_151032" data-name="Trazado 151032" d="M11.7,439.407A3.714,3.714,0,0,1,8,435.7V432h9.924a7.374,7.374,0,0,0-2.518,5.555,7.124,7.124,0,0,0,.222,1.8l-.222.055Zm0,0" transform="translate(-8 -404.226)" fill="#e6e9ed"/>
  </g>
  <path id="Trazado_151033" data-name="Trazado 151033" d="M40.222,433.2a7.124,7.124,0,0,1-.222-1.8,7.407,7.407,0,0,1,14.813,0,7.228,7.228,0,0,1-.222,1.8,7.4,7.4,0,0,1-14.368,0Zm0,0" transform="translate(-30.742 -325.864)" fill="#838f9b"/>
  <path id="Trazado_151034" data-name="Trazado 151034" d="M223.406,424a7.407,7.407,0,1,1-7.184,9.2,7.125,7.125,0,0,1-.222-1.8A7.423,7.423,0,0,1,223.406,424Zm0,0" transform="translate(-166.006 -325.864)" fill="#838f9b"/>
  <path id="Trazado_151035" data-name="Trazado 151035" d="M292.3,425.852a7.375,7.375,0,0,1,2.518,5.555,7.122,7.122,0,0,1-.222,1.8,7.417,7.417,0,1,1-2.3-7.351Zm0,0" transform="translate(-215.193 -325.864)" fill="#838f9b"/>
  <path id="Trazado_151036" data-name="Trazado 151036" d="M208,312h22.22v20.368H208Zm0,0" transform="translate(-159.858 -239.787)" fill="#cf9e76"/>
  <path id="Trazado_151037" data-name="Trazado 151037" d="M54.813,352v11.11H40v-5.555L45.555,352Zm0,0" transform="translate(-30.742 -270.529)" fill="#69d6f4"/>
  <path id="Trazado_151038" data-name="Trazado 151038" d="M67.7,449.852A1.852,1.852,0,1,1,65.852,448,1.852,1.852,0,0,1,67.7,449.852Zm0,0" transform="translate(-49.187 -344.309)"/>
  <path id="Trazado_151039" data-name="Trazado 151039" d="M307.7,449.852A1.852,1.852,0,1,1,305.852,448,1.852,1.852,0,0,1,307.7,449.852Zm0,0" transform="translate(-233.638 -344.309)"/>
  <path id="Trazado_151040" data-name="Trazado 151040" d="M243.7,449.852A1.852,1.852,0,1,1,241.852,448,1.852,1.852,0,0,1,243.7,449.852Zm0,0" transform="translate(-184.451 -344.309)"/>
  <path id="Trazado_151041" data-name="Trazado 151041" d="M50.516,344H38.64L32,350.64v8.173H50.516Zm-3.7,11.11H35.7v-2.936l4.47-4.47h6.64Zm0,0" transform="translate(-24.594 -264.38)"/>
  <path id="Trazado_151042" data-name="Trazado 151042" d="M114.8,22.22V12.4L106.534,0H23.08L14.813,12.4v9.82h3.7V72.213H10.343L0,82.556v21.135a5.562,5.562,0,0,0,5.555,5.555H8.191a9.24,9.24,0,0,0,16.947,0H48.927a9.211,9.211,0,0,0,15.88,1.795,9.211,9.211,0,0,0,15.88-1.795h2.636a5.562,5.562,0,0,0,5.555-5.555V99.647a5.478,5.478,0,0,0,1.852.341h18.516a5.562,5.562,0,0,0,5.555-5.555V75.917a5.547,5.547,0,0,0-3.7-5.214V22.22ZM25.062,3.7h79.49l4.938,7.407h-2.1v3.7h3.7v3.7H18.516v-3.7h3.7v-3.7h-2.1ZM11.876,75.917h17.75v22.22H22.163a9.088,9.088,0,0,0-11,0H3.7V84.09ZM44.439,29.626h7.407v3.7H44.439Zm11.11,7.407V29.626h11.11v7.407H59.252V62.955h-3.7V55.549H40.736v7.406H29.626V29.626h11.11v7.407Zm22.22,3.7h7.407v3.7H77.768Zm11.11,7.407V40.736h11.11V70.362H90.73a5.478,5.478,0,0,0-1.852.341V62.955H62.955V40.736h11.11v7.407Zm7.407,25.923h7.407v3.7H96.285ZM77.711,98.136a9.14,9.14,0,0,0-12.9,1.909,9.14,9.14,0,0,0-12.9-1.909H33.329V66.659H85.175V98.136ZM51.846,62.955H44.439v-3.7h7.407ZM5.555,105.543A1.855,1.855,0,0,1,3.7,103.691v-1.852H8.191a9.164,9.164,0,0,0-.785,3.7Zm11.11,5.555a5.555,5.555,0,1,1,5.555-5.555A5.562,5.562,0,0,1,16.665,111.1Zm8.473-9.258h4.488v3.7h-3.7A9.164,9.164,0,0,0,25.138,101.839Zm8.191,3.7v-3.7h15.6a9.165,9.165,0,0,0-.785,3.7ZM57.4,111.1a5.555,5.555,0,1,1,5.555-5.555A5.562,5.562,0,0,1,57.4,111.1Zm14.813,0a5.555,5.555,0,1,1,5.555-5.555A5.562,5.562,0,0,1,72.213,111.1Zm11.11-5.555H81.472a9.165,9.165,0,0,0-.785-3.7h4.488v1.852A1.855,1.855,0,0,1,83.323,105.543Zm20.368-9.258H96.285v-3.7h7.407Zm7.407-1.852a1.855,1.855,0,0,1-1.852,1.852h-1.852V88.878H92.581v7.407H90.73a1.855,1.855,0,0,1-1.852-1.852V75.917a1.855,1.855,0,0,1,1.852-1.852h1.852v7.406h14.813V74.065h1.852a1.855,1.855,0,0,1,1.852,1.852Zm-3.7-24.071h-3.7V37.033H70.362V25.923H25.923V66.659h3.7v5.555H22.22V22.22h85.175Zm0,0"/>
  <path id="Trazado_151043" data-name="Trazado 151043" d="M200,304v24.071h25.923V304Zm22.22,20.368H203.7V307.7H222.22Zm0,0" transform="translate(-153.709 -233.638)"/>
  <path id="Trazado_151044" data-name="Trazado 151044" d="M112,48h77.768v3.7H112Zm0,0" transform="translate(-86.077 -36.89)"/>
</svg>
