<svg id="presupuesto" xmlns="http://www.w3.org/2000/svg" width="74.974" height="75.136" viewBox="0 0 74.974 75.136">
  <path id="Trazado_140851" data-name="Trazado 140851" d="M150.153,20.765V65.1c0,.088,0,.177-.006.266a5.724,5.724,0,0,1-5.719,5.457H112.248a5.724,5.724,0,0,1-5.725-5.723V13.768a5.716,5.716,0,0,1,5.725-5.724H137.81a5.706,5.706,0,0,1,2.486.57c1.546.744,1.982,1.685,4.761,4.526,3.2,3.472,3.961,3.828,4.612,5.331A5.661,5.661,0,0,1,150.153,20.765Z" transform="translate(-90.971 -6.864)" fill="#f2edff"/>
  <path id="Trazado_140853" data-name="Trazado 140853" d="M287.614,182.986V215.17a8.09,8.09,0,0,1-8.09,8.09H258.5a8.09,8.09,0,0,1-8.09-8.09V182.986a8.086,8.086,0,0,1,8.09-8.09h21.021A8.089,8.089,0,0,1,287.614,182.986Z" transform="translate(-213.746 -149.23)" fill="#ffba5b"/>
  <path id="Trazado_140855" data-name="Trazado 140855" d="M362.239,367.179v3.78a1.209,1.209,0,0,1-1.208,1.21h-3.781a1.21,1.21,0,0,1-1.21-1.21v-3.78a1.21,1.21,0,0,1,1.21-1.21h3.781A1.209,1.209,0,0,1,362.239,367.179Z" transform="translate(-303.871 -312.263)" fill="#ffcbbf"/>
  <path id="Trazado_140856" data-name="Trazado 140856" d="M314.379,209.686v4.05a2.608,2.608,0,0,1-2.608,2.608H290.905a2.609,2.609,0,0,1-2.609-2.608v-4.05a2.609,2.609,0,0,1,2.609-2.608H311.77A2.608,2.608,0,0,1,314.379,209.686Z" transform="translate(-246.07 -176.689)" fill="#1e81ce"/>
  <g id="Grupo_82183" data-name="Grupo 82183" transform="translate(42.227 43.821)">
    <path id="Trazado_140858" data-name="Trazado 140858" d="M294.5,367.179v3.78a1.21,1.21,0,0,1-1.21,1.21h-3.781a1.211,1.211,0,0,1-1.21-1.21v-3.78a1.211,1.211,0,0,1,1.21-1.21h3.781A1.21,1.21,0,0,1,294.5,367.179Z" transform="translate(-288.297 -356.084)" fill="#ffcbbf"/>
    <path id="Trazado_140859" data-name="Trazado 140859" d="M362.239,299.818v3.78a1.209,1.209,0,0,1-1.208,1.21h-3.781a1.21,1.21,0,0,1-1.21-1.21v-3.78a1.21,1.21,0,0,1,1.21-1.21h3.781A1.209,1.209,0,0,1,362.239,299.818Z" transform="translate(-346.098 -298.608)" fill="#ffcbbf"/>
  </g>
  <path id="Trazado_140860" data-name="Trazado 140860" d="M430.8,299.818v3.78a1.21,1.21,0,0,1-1.21,1.21h-3.78a1.21,1.21,0,0,1-1.21-1.21v-3.78a1.21,1.21,0,0,1,1.21-1.21h3.78A1.21,1.21,0,0,1,430.8,299.818Z" transform="translate(-362.367 -254.787)" fill="#c3b5ec"/>
  <g id="Grupo_82184" data-name="Grupo 82184" transform="translate(42.227 43.821)">
    <path id="Trazado_140861" data-name="Trazado 140861" d="M294.5,299.818v3.78a1.21,1.21,0,0,1-1.21,1.21h-3.781a1.211,1.211,0,0,1-1.21-1.21v-3.78a1.211,1.211,0,0,1,1.21-1.21h3.781A1.21,1.21,0,0,1,294.5,299.818Z" transform="translate(-288.297 -298.608)" fill="#ffcbbf"/>
    <path id="Trazado_140862" data-name="Trazado 140862" d="M362.239,431.239v3.781a1.209,1.209,0,0,1-1.208,1.21h-3.781a1.21,1.21,0,0,1-1.21-1.21v-3.781a1.209,1.209,0,0,1,1.21-1.208h3.781A1.209,1.209,0,0,1,362.239,431.239Z" transform="translate(-346.098 -410.745)" fill="#ffcbbf"/>
    <path id="Trazado_140863" data-name="Trazado 140863" d="M294.5,431.239v3.781a1.21,1.21,0,0,1-1.21,1.21h-3.781a1.211,1.211,0,0,1-1.21-1.21v-3.781a1.21,1.21,0,0,1,1.21-1.208h3.781A1.209,1.209,0,0,1,294.5,431.239Z" transform="translate(-288.297 -410.745)" fill="#ffcbbf"/>
  </g>
  <path id="Trazado_140864" data-name="Trazado 140864" d="M430.8,367.765V379.5a2.063,2.063,0,0,1-2.063,2.064h-2.074A2.063,2.063,0,0,1,424.6,379.5v-11.74a1.8,1.8,0,0,1,1.8-1.8H429A1.8,1.8,0,0,1,430.8,367.765Z" transform="translate(-362.367 -312.262)" fill="#c3b5ec"/>
  <path id="Trazado_140873" data-name="Trazado 140873" d="M346.035,21.781h-7.173a2.2,2.2,0,0,1-2.2-2.2V11.924a5.718,5.718,0,0,1,1.7,1.247l3.065,3.279,3.508,3.671A5.668,5.668,0,0,1,346.035,21.781Z" transform="translate(-287.337 -10.174)" fill="#c3b5ec"/>
  <path id="Trazado_140874" data-name="Trazado 140874" d="M92.236,464.454a2.811,2.811,0,0,1-2.8,2.8H72.259a2.8,2.8,0,0,1,0-5.606H89.433A2.811,2.811,0,0,1,92.236,464.454Z" transform="translate(-59.344 -393.904)" fill="#ddd4f8"/>
  <path id="Trazado_140875" data-name="Trazado 140875" d="M92.236,426.249a2.811,2.811,0,0,1-2.8,2.8H72.259a2.8,2.8,0,0,1,0-5.606H89.433A2.811,2.811,0,0,1,92.236,426.249Z" transform="translate(-59.344 -361.305)" fill="#ddd4f8"/>
  <path id="Trazado_140876" data-name="Trazado 140876" d="M92.236,388.045a2.811,2.811,0,0,1-2.8,2.8H72.259a2.8,2.8,0,0,1,0-5.606H89.433A2.812,2.812,0,0,1,92.236,388.045Z" transform="translate(-59.344 -328.708)" fill="#ddd4f8"/>
  <path id="Trazado_140877" data-name="Trazado 140877" d="M92.236,349.839a2.811,2.811,0,0,1-2.8,2.8H72.259a2.812,2.812,0,0,1-2.8-2.8,2.811,2.811,0,0,1,2.8-2.8H89.433A2.812,2.812,0,0,1,92.236,349.839Z" transform="translate(-59.344 -296.109)" fill="#c3b5ec"/>
  <path id="Trazado_140878" data-name="Trazado 140878" d="M89.432,314.44H72.259a2.811,2.811,0,0,1-2.8-2.8h0a2.811,2.811,0,0,1,2.8-2.8H89.432a2.811,2.811,0,0,1,2.8,2.8h0A2.811,2.811,0,0,1,89.432,314.44Z" transform="translate(-59.344 -263.513)" fill="#c3b5ec"/>
  <path id="Trazado_140879" data-name="Trazado 140879" d="M30.468,386.362a9.121,9.121,0,0,0-9.506-8.735H17.388a9.133,9.133,0,0,0,.781,18.25h2.793v0c.255.01.512.013.771,0a9.281,9.281,0,0,0,1.7-.232,9.134,9.134,0,0,0,7.039-8.562v-.01C30.478,386.837,30.478,386.6,30.468,386.362Z" transform="translate(-7.438 -322.203)" fill="#c3b5ec"/>
  <path id="Trazado_140881" data-name="Trazado 140881" d="M66.328,24.559H60.911V13.9A6.922,6.922,0,0,0,59,9.131L55.5,5.469c-2.97-3.06-3.345-3.925-5.114-4.783a6.921,6.921,0,0,0-3-.686H21.825a6.913,6.913,0,0,0-6.9,6.9V44.141H13.464a3.981,3.981,0,0,0-2.827,6.787,3.969,3.969,0,0,0-1.157,2.8,4.087,4.087,0,0,0,.078.788,10.042,10.042,0,0,0,1.435,20.023l19.643-.007a3.981,3.981,0,0,0,2.827-6.787,3.963,3.963,0,0,0,1.151-2.606H36.11v.8a9.206,9.206,0,0,0,9.2,9.2H66.328a9.206,9.206,0,0,0,9.2-9.2V33.755A9.206,9.206,0,0,0,66.328,24.559ZM51.054,4.174c4.636,4.9,5.68,6,5.876,6.213,0,0,0,0,0,0h0a.032.032,0,0,0,.006.007h0a.025.025,0,0,0,.009.009l0,.006s0,0,0,0,0,0,0,0,0,0,.006.006H51.054V4.174ZM13.464,46.5H30.638a1.623,1.623,0,0,1,0,3.246H13.464a1.623,1.623,0,0,1,0-3.246Zm0,5.606H30.638a1.623,1.623,0,0,1,0,3.246H18.776a9.613,9.613,0,0,0-1.495-.54,9.95,9.95,0,0,0-2.361-.347c-.232-.006-.463,0-.695.006h-2.2a1.6,1.6,0,0,1-.182-.742A1.626,1.626,0,0,1,13.464,52.108Zm18.8,7.229a1.625,1.625,0,0,1-1.623,1.623H24.033a9.929,9.929,0,0,0-2-3.246h8.609A1.626,1.626,0,0,1,32.261,59.337ZM7.722,57.219A10.185,10.185,0,0,0,5.863,59.6H4.488A7.8,7.8,0,0,1,7.722,57.219Zm-4.49,4.6H4.951a10.19,10.19,0,0,0-.322,1.769H2.813A7.756,7.756,0,0,1,3.232,61.816Zm.19,5.85A7.743,7.743,0,0,1,2.868,65.8h1.8a8.907,8.907,0,0,0,.422,1.868ZM4.9,69.879c.724,0,1.145,0,1.244,0A9.967,9.967,0,0,0,7.726,71.8,7.8,7.8,0,0,1,4.9,69.879ZM14.966,72.33a7.83,7.83,0,1,1,4.96-13.59A7.823,7.823,0,0,1,14.966,72.33Zm15.672-.156H21.111a10.111,10.111,0,0,0,2.536-3.246h6.99a1.623,1.623,0,0,1,0,3.246Zm1.61-7.032a1.624,1.624,0,0,1-1.61,1.425H24.462a10.141,10.141,0,0,0,.143-3.246h6.033A1.624,1.624,0,0,1,32.248,65.142Zm3.862-2.361H33.98a3.916,3.916,0,0,0-.515-.64,3.975,3.975,0,0,0,0-5.606,3.975,3.975,0,0,0,0-5.606,3.987,3.987,0,0,0-2.827-6.787H17.281V6.9a4.55,4.55,0,0,1,4.544-4.544H48.694v9.246a1.18,1.18,0,0,0,1.18,1.18h8.537c.246.956.094.64.14,11.772H45.306a9.206,9.206,0,0,0-9.2,9.2V62.781Zm37.2,3.159a6.991,6.991,0,0,1-6.983,6.983H45.306a6.992,6.992,0,0,1-6.983-6.983V33.755a6.992,6.992,0,0,1,6.983-6.983H66.328a6.991,6.991,0,0,1,6.983,6.983V65.94Z" transform="translate(-0.549)"/>
  <path id="Trazado_140882" data-name="Trazado 140882" d="M288.486,208.8h-4.014a1.506,1.506,0,0,1-1.5-1.5v-4.05a1.506,1.506,0,0,1,1.5-1.5h20.865a1.5,1.5,0,0,1,1.5,1.5v4.05a1.5,1.5,0,0,1-1.5,1.5H293.258a1.106,1.106,0,0,0,0,2.213h12.079a3.719,3.719,0,0,0,3.715-3.715v-4.05a3.719,3.719,0,0,0-3.715-3.715H284.472a3.715,3.715,0,0,0-3.715,3.715v4.05a3.715,3.715,0,0,0,3.715,3.715h4.014a1.106,1.106,0,0,0,0-2.213Z" transform="translate(-239.637 -170.256)"/>
  <path id="Trazado_140883" data-name="Trazado 140883" d="M283.073,366.842h3.782a2.318,2.318,0,0,0,2.316-2.316v-3.78a2.318,2.318,0,0,0-2.316-2.316h-3.782a2.319,2.319,0,0,0-2.316,2.316v3.78A2.319,2.319,0,0,0,283.073,366.842Zm-.1-6.1a.1.1,0,0,1,.1-.1h3.782a.1.1,0,0,1,.1.1v3.78a.1.1,0,0,1-.1.1h-3.782a.1.1,0,0,1-.1-.1Z" transform="translate(-239.637 -305.83)"/>
  <path id="Trazado_140884" data-name="Trazado 140884" d="M423.152,291.068h-3.78a2.318,2.318,0,0,0-2.316,2.316v3.78a2.318,2.318,0,0,0,2.316,2.316h3.78a2.318,2.318,0,0,0,2.316-2.316v-3.78A2.318,2.318,0,0,0,423.152,291.068Zm.1,6.1a.1.1,0,0,1-.1.1h-3.78a.1.1,0,0,1-.1-.1c.046-3.74-.1-3.883.1-3.883h3.78a.1.1,0,0,1,.1.1Z" transform="translate(-355.934 -248.354)"/>
  <path id="Trazado_140885" data-name="Trazado 140885" d="M283.073,299.481h3.782a2.318,2.318,0,0,0,2.316-2.316v-3.78a2.318,2.318,0,0,0-2.316-2.316h-3.782a2.319,2.319,0,0,0-2.316,2.316v3.78A2.319,2.319,0,0,0,283.073,299.481Zm-.1-6.1a.1.1,0,0,1,.1-.1h3.782a.1.1,0,0,1,.1.1v3.78a.1.1,0,0,1-.1.1h-3.782a.1.1,0,0,1-.1-.1Z" transform="translate(-239.637 -248.354)"/>
  <path id="Trazado_140886" data-name="Trazado 140886" d="M288.565,423.271a2.315,2.315,0,0,0-1.734-.78H283.05a2.309,2.309,0,0,0-1.732.78,3.165,3.165,0,0,0-.584,2.361v2.955a2.319,2.319,0,0,0,2.316,2.316h3.781a2.318,2.318,0,0,0,2.316-2.316v-2.955A3.191,3.191,0,0,0,288.565,423.271Zm-1.734,5.419c-3.736-.046-3.885.1-3.885-.1,0-4-.044-3.883.1-3.883h3.781c.182,0,.069.252.1.928A15.731,15.731,0,0,1,286.832,428.691Z" transform="translate(-239.614 -360.491)"/>
  <path id="Trazado_140887" data-name="Trazado 140887" d="M422.564,358.428h-2.605a2.907,2.907,0,0,0-2.9,2.9v11.74a3.174,3.174,0,0,0,3.169,3.171H422.3a3.173,3.173,0,0,0,3.169-3.171v-11.74A2.907,2.907,0,0,0,422.564,358.428Zm.691,14.643a.957.957,0,0,1-.956.957h-2.074a.958.958,0,0,1-.956-.957v-11.74a.691.691,0,0,1,.691-.69h2.605a.691.691,0,0,1,.69.69v11.74Z" transform="translate(-355.933 -305.829)"/>
  <path id="Trazado_140888" data-name="Trazado 140888" d="M167.394,174.881h0c-1.349-.5-2.324-.854-2.324-2.1,0-1.139.757-1.717,2.249-1.717,1.584,0,2.01.7,2.568.7a1.063,1.063,0,0,0,.943-1.09c0-.922-1.5-1.379-2.848-1.5v-.831a1.049,1.049,0,0,0-2.1,0v.964a3.429,3.429,0,0,0-2.848,3.587c0,2.575,1.9,3.288,3.42,3.861,1.492.561,2.67,1,2.67,2.707,0,1.407-.781,2.12-2.322,2.12-2.255,0-2.276-1.523-3.137-1.523a1.106,1.106,0,0,0-.962,1.09c0,.872,1.3,2.018,3.178,2.316v.8a1.049,1.049,0,1,0,2.1,0v-.825a3.788,3.788,0,0,0,3.178-4.092C171.161,176.265,169.072,175.5,167.394,174.881Z" transform="translate(-138.91 -142.739)"/>
  <path id="Trazado_140889" data-name="Trazado 140889" d="M354.576,422.491h-3.781a2.315,2.315,0,0,0-1.734.78,3.177,3.177,0,0,0-.583,2.361v2.955a2.318,2.318,0,0,0,2.316,2.316h3.781a2.318,2.318,0,0,0,2.315-2.316v-3.781a2.319,2.319,0,0,0-2.315-2.315Zm0,6.2c-3.736-.046-3.885.1-3.885-.1v-3.781a.1.1,0,0,1,.1-.1h3.781a.1.1,0,0,1,.1.1C354.633,428.55,354.772,428.691,354.576,428.691Z" transform="translate(-297.416 -360.491)"/>
  <path id="Trazado_140890" data-name="Trazado 140890" d="M354.6,291.068h-3.781a2.318,2.318,0,0,0-2.316,2.316v3.78a2.318,2.318,0,0,0,2.316,2.316H354.6a2.282,2.282,0,0,0,.843-.159,2.319,2.319,0,0,0,1.472-2.157v-3.78A2.319,2.319,0,0,0,354.6,291.068Zm.1,6.1a.1.1,0,0,1-.1.1h-3.781a.1.1,0,0,1-.1-.1v-3.78c0-.2.137-.059,3.885-.1a.1.1,0,0,1,.1.1v3.78Z" transform="translate(-297.438 -248.354)"/>
  <path id="Trazado_140891" data-name="Trazado 140891" d="M355.439,358.587a2.283,2.283,0,0,0-.843-.159h-3.781a2.318,2.318,0,0,0-2.316,2.316v3.78a2.318,2.318,0,0,0,2.316,2.316H354.6a2.318,2.318,0,0,0,2.315-2.316v-3.78A2.319,2.319,0,0,0,355.439,358.587Zm-.741,5.937a.1.1,0,0,1-.1.1h-3.781a.1.1,0,0,1-.1-.1v-3.78a.1.1,0,0,1,.1-.1H354.6a.1.1,0,0,1,.1.1Z" transform="translate(-297.438 -305.829)"/>
  <path id="Trazado_140892" data-name="Trazado 140892" d="M321.154,105.255h2.779a1.106,1.106,0,1,0,0-2.213h-2.779a1.106,1.106,0,1,0,0,2.213Z" transform="translate(-273.161 -87.921)"/>
  <path id="Trazado_140893" data-name="Trazado 140893" d="M157.276,105.255H176.9a1.106,1.106,0,1,0,0-2.213H157.276a1.106,1.106,0,1,0,0,2.213Z" transform="translate(-133.333 -87.921)"/>
  <path id="Trazado_140894" data-name="Trazado 140894" d="M160.794,142.685a1.106,1.106,0,1,0,0-2.213h-3.517a1.106,1.106,0,1,0,0,2.213Z" transform="translate(-133.333 -119.858)"/>
  <path id="Trazado_140895" data-name="Trazado 140895" d="M231.4,141.579a1.107,1.107,0,0,0-1.107-1.107H211.406a1.106,1.106,0,1,0,0,2.213h18.885A1.107,1.107,0,0,0,231.4,141.579Z" transform="translate(-179.518 -119.858)"/>
  <path id="Trazado_140896" data-name="Trazado 140896" d="M79.772,402.13c0-.278.1-.358.2-.411a1.9,1.9,0,0,1,1.6.108,1.265,1.265,0,0,0,.6.182c1.091,0,1.955-2.028-.652-2.476v-.07a1.121,1.121,0,0,0-2.243,0v.213a2.516,2.516,0,0,0-1.71,2.52c0,1.887,1.371,2.4,2.372,2.779.955.359,1.285.516,1.285,1.165,0,.406-.109.782-.9.782-1.157,0-1.018-.914-1.884-.914a1.156,1.156,0,0,0-1.069,1.146c0,.767.8,1.494,1.909,1.789v.084a1.121,1.121,0,1,0,2.243,0v-.113a2.772,2.772,0,0,0,1.909-2.84C83.43,402.711,79.772,403.216,79.772,402.13Z" transform="translate(-66.096 -339.886)"/>
</svg>
