<svg id="barra-grafica" xmlns="http://www.w3.org/2000/svg" width="74.865" height="78.86" viewBox="0 0 74.865 78.86">
  <path id="Trazado_145278" data-name="Trazado 145278" d="M338.594,199.318h10.7V155.327a3.944,3.944,0,0,0-3.943-3.944h-2.811a3.944,3.944,0,0,0-3.944,3.944Zm0,0" transform="translate(-286.442 -128.066)" fill="#c3b5ec"/>
  <path id="Trazado_145279" data-name="Trazado 145279" d="M220.949,261.468h10.7V228.791a3.943,3.943,0,0,0-3.943-3.943h-2.811a3.943,3.943,0,0,0-3.943,3.943Zm0,0" transform="translate(-186.918 -190.216)" fill="#ffba5b"/>
  <path id="Trazado_145280" data-name="Trazado 145280" d="M103.3,324.747H114V303.592a3.943,3.943,0,0,0-3.943-3.943h-2.811a3.943,3.943,0,0,0-3.943,3.943Zm0,0" transform="translate(-87.39 -253.495)" fill="#ff7758"/>
  <path id="Trazado_145284" data-name="Trazado 145284" d="M76.257,140.852H15.1V87.43a3.8,3.8,0,1,0-7.6,0v55.39a5.634,5.634,0,0,0,5.634,5.634h63.12a3.8,3.8,0,0,0,0-7.6Zm0,0" transform="translate(-6.348 -70.748)" fill="#675d84"/>
  <path id="Trazado_145285" data-name="Trazado 145285" d="M115.12,88.294a2.58,2.58,0,0,0-1.953-1.031l-8.923-.381a2.576,2.576,0,1,0-.22,5.148l1.917.082L85.116,108.324a2.577,2.577,0,0,0,3.166,4.066l20.476-15.941-.356,1.434A2.548,2.548,0,0,0,110.28,101a2.59,2.59,0,0,0,3.122-1.879l2.154-8.667A2.574,2.574,0,0,0,115.12,88.294Zm0,0" transform="translate(-71.163 -73.498)" fill="#ff7758"/>
  <path id="Trazado_145286" data-name="Trazado 145286" d="M333.19,8.734l1.17,2.371,2.617.38A2.213,2.213,0,0,1,338.2,15.26l-1.893,1.846.447,2.606a2.213,2.213,0,0,1-3.21,2.333l-2.34-1.231-2.341,1.231a2.212,2.212,0,0,1-3.21-2.333l.447-2.606-1.894-1.846a2.213,2.213,0,0,1,1.226-3.774l2.617-.38,1.17-2.371A2.212,2.212,0,0,1,333.19,8.734Zm0,0" transform="translate(-273.705 -6.346)" fill="#ffba5b"/>
  <path id="Trazado_145287" data-name="Trazado 145287" d="M69.909,133.352h-16.6V91.664a2.792,2.792,0,0,1,2.788-2.789h2.811a2.792,2.792,0,0,1,2.789,2.789v37.888a1.155,1.155,0,1,0,2.31,0V91.664a5.1,5.1,0,0,0-5.1-5.1H56.095a5.1,5.1,0,0,0-5.1,5.1v41.688H45.884V102.979a5.1,5.1,0,0,0-5.1-5.1H37.975a5.1,5.1,0,0,0-5.1,5.1v30.373H27.763V114.5a5.1,5.1,0,0,0-5.1-5.1H19.854a5.1,5.1,0,0,0-5.1,5.1v18.852H9.912V81.085a4.956,4.956,0,1,0-9.912,0v35.723a1.155,1.155,0,1,0,2.31,0V81.085a2.645,2.645,0,1,1,5.291,0v53.422a1.155,1.155,0,0,0,1.155,1.155H69.909a2.645,2.645,0,0,1,0,5.291H6.79a4.484,4.484,0,0,1-4.479-4.479V121.845a1.155,1.155,0,0,0-2.31,0v14.629a6.8,6.8,0,0,0,6.79,6.789H69.909a4.956,4.956,0,0,0,0-9.912ZM35.186,102.979a2.792,2.792,0,0,1,2.789-2.788h2.811a2.791,2.791,0,0,1,2.788,2.788v30.373H35.186ZM17.066,114.5a2.791,2.791,0,0,1,2.788-2.788h2.812a2.791,2.791,0,0,1,2.788,2.788v18.852H17.066Zm0,0" transform="translate(0 -64.403)"/>
  <path id="Trazado_145288" data-name="Trazado 145288" d="M82.362,106.955l2.57-2a1.155,1.155,0,0,0-1.419-1.823l-2.57,2a1.388,1.388,0,0,1-2-.255,1.5,1.5,0,0,1,.254-1.988l20.825-16.212a1.155,1.155,0,0,0-.66-2.066l-1.917-.082a1.421,1.421,0,0,1,.122-2.84l8.923.381a1.421,1.421,0,0,1,1.319,1.763L105.652,92.5a1.454,1.454,0,0,1-1.759,1.028,1.337,1.337,0,0,1-1-1.714l.357-1.434a1.155,1.155,0,0,0-1.831-1.19L87.47,100.051a1.155,1.155,0,0,0,1.419,1.823l11.7-9.109a3.334,3.334,0,0,0,2.821,3.023,3.69,3.69,0,0,0,4.485-2.73l2.154-8.667a3.731,3.731,0,0,0-3.461-4.629l-8.924-.382A3.732,3.732,0,0,0,96.3,86.642L77.778,101.066a3.613,3.613,0,0,0-.647,5.244C79.062,109.028,81.8,107.391,82.362,106.955Zm0,0" transform="translate(-64.533 -67.151)"/>
  <path id="Trazado_145289" data-name="Trazado 145289" d="M318.515,11.163l-.345,2.008a3.368,3.368,0,0,0,4.887,3.55l1.8-.948,1.8.948a3.631,3.631,0,0,0,3.546-.256,3.313,3.313,0,0,0,1.34-3.293l-.345-2.008,1.459-1.422A3.367,3.367,0,0,0,330.8,4L328.781,3.7l-.9-1.827a3.368,3.368,0,0,0-6.04,0l-.9,1.827L318.923,4a3.368,3.368,0,0,0-1.866,5.744ZM318.4,7a1.039,1.039,0,0,1,.854-.72l2.617-.38a1.154,1.154,0,0,0,.869-.632L323.912,2.9a1.057,1.057,0,0,1,1.9,0l1.17,2.372a1.157,1.157,0,0,0,.87.632l2.617.38a1.057,1.057,0,0,1,.585,1.8l-1.893,1.846a1.153,1.153,0,0,0-.332,1.022l.447,2.606a1.057,1.057,0,0,1-1.534,1.114l-2.341-1.23a1.08,1.08,0,0,0-1.075,0l-2.341,1.23a1.057,1.057,0,0,1-1.534-1.114l.447-2.606a1.153,1.153,0,0,0-.332-1.022l-1.893-1.846A1.038,1.038,0,0,1,318.4,7Zm0,0" transform="translate(-267.36)"/>
</svg>
